<?xml version="1.0" encoding="UTF-8"?>
<!DOCTYPE svg PUBLIC "-//W3C//DTD SVG 1.1//EN" "http://www.w3.org/Graphics/SVG/1.1/DTD/svg11.dtd">
<!-- Creator: CorelDRAW X7 -->
<svg xmlns="http://www.w3.org/2000/svg" xml:space="preserve" width="84.6666mm" height="21.1666mm" version="1.1" style="shape-rendering:geometricPrecision; text-rendering:geometricPrecision; image-rendering:optimizeQuality; fill-rule:evenodd; clip-rule:evenodd"
viewBox="0 0 8467 2117"
 xmlns:xlink="http://www.w3.org/1999/xlink">
 <defs>
  <style type="text/css">
   <![CDATA[
    .fil0 {fill:#A74B16}
    .fil1 {fill:#A74B16;fill-rule:nonzero}
    .fil2 {fill:#F7E9B5;fill-rule:nonzero}
   ]]>
  </style>
 </defs>
 <g id="Layer_x0020_1">
  <metadata id="CorelCorpID_0Corel-Layer"/>
  <g id="_2251337686672">
   <path class="fil0" d="M1449 880c-2,16 4,29 5,44l0 0c10,12 15,26 28,35 55,-40 185,-33 212,41 15,-10 26,-25 38,-40 -25,-38 -59,-74 -118,-82 -16,-2 -32,-2 -47,0 12,-10 23,-21 33,-34 36,-46 35,-96 26,-140 -19,-3 -37,-5 -55,-2 33,71 -54,168 -122,178zm-9 -81c-6,-5 -11,-9 -16,-13 -4,-5 -8,-10 -13,-16 -45,9 -88,6 -130,-2 -3,17 -5,34 -7,51 35,7 71,11 108,9 -3,37 1,73 9,108 17,-2 34,-4 51,-7 -9,-42 -11,-85 -2,-130zm-69 101c-3,-2 -24,6 -31,6 -12,2 -25,2 -39,2 0,-13 1,-26 2,-39 1,-6 9,-28 6,-31 -3,-6 -43,-3 -49,-8 -11,41 -14,83 -8,128 44,6 87,3 128,-8 -6,-6 -3,-46 -9,-50zm5 -15c-4,-12 -9,-24 -14,-37 -13,-6 -25,-10 -37,-14 -5,17 -9,34 -8,53 2,0 3,0 5,1 0,1 0,3 1,5 18,0 36,-3 53,-8zm45 -227c-19,12 -34,24 -42,39 18,30 37,55 56,78 23,20 48,39 78,57 14,-8 27,-23 39,-43l-4 -3c-26,-13 -51,-31 -73,-51 -20,-22 -38,-47 -51,-73l-3 -4zm159 -27c2,-96 -45,-206 -122,-291l-112 271c13,-11 32,-26 47,-32 -10,-35 -10,-122 49,-117 21,1 38,18 54,47 35,63 36,148 6,199 52,-30 136,-29 199,7 29,16 46,33 47,54 4,59 -83,59 -117,48 -6,15 -21,35 -32,48 17,1 41,5 56,11 17,-32 79,-93 117,-49 14,17 14,40 5,72 -20,70 -79,130 -137,145 58,16 117,76 137,146 8,32 9,55 -6,72 -38,44 -99,-18 -116,-50 -16,7 -40,10 -56,12l270 112c-6,-114 -49,-225 -119,-292 70,-66 114,-177 120,-291 -85,-76 -194,-124 -290,-122zm-250 337c-33,9 -78,25 -114,54 0,0 0,1 0,1 0,0 0,0 0,0 0,0 0,0 0,0 47,-5 90,-24 119,-42 -1,-2 -3,-4 -5,-5l-81 33 81 -33c0,-3 0,-5 0,-8zm-209 -32l-23 -57c-3,0 -5,0 -8,0 9,33 25,78 54,114 1,0 1,0 1,0 0,0 0,0 0,0l0 0c0,0 0,0 0,0 -4,-47 -24,-90 -42,-119 -2,1 -3,3 -5,5l23 57zm108 -62c-18,30 -38,72 -43,119 0,0 0,0 0,0 0,0 0,0 0,0l0 0c1,0 1,0 1,0 30,-36 46,-80 55,-114 -3,0 -5,0 -8,0l-32 76 32 -76c-2,-2 -4,-3 -5,-5zm-150 -283l-5 -1c-6,22 -7,42 -3,58 34,8 65,13 95,15 30,-2 62,-7 96,-15 4,-16 2,-35 -3,-58l-5 1c-27,9 -58,14 -88,16 -30,-2 -60,-7 -87,-16zm172 136c9,13 23,18 35,28 15,1 28,7 44,5 10,-67 107,-154 178,-121 4,-17 1,-36 -1,-55 -44,-9 -94,-10 -141,26 -13,10 -24,21 -34,33 2,-16 2,-32 0,-48 -7,-58 -43,-93 -81,-117 -15,11 -30,23 -40,38 73,27 80,157 40,211zm-170 98c21,37 49,70 85,97 36,-27 63,-60 85,-96 -8,0 -34,-30 -41,-29 -4,0 -14,21 -18,26 -7,10 -17,20 -26,29 -9,-9 -19,-19 -26,-29 -4,-5 -14,-26 -18,-26 -7,-2 -33,29 -41,28zm-83 -271c-32,-17 -93,-79 -48,-117 16,-14 39,-14 71,-5 70,20 130,79 145,137 16,-58 76,-117 146,-137 32,-8 55,-9 72,6 44,38 -17,99 -49,117 6,15 9,39 11,56l112 -271c-114,6 -225,50 -291,119 -67,-70 -178,-114 -292,-120l112 271c1,-17 5,-41 11,-56zm168 124c-6,0 -13,-1 -20,-1 -26,37 -58,66 -94,90 10,14 21,27 31,41 30,-19 59,-42 83,-70 25,28 53,51 83,70 10,-13 21,-27 31,-41 -36,-24 -68,-52 -94,-90 -6,0 -13,1 -20,1zm-36 104c9,16 18,31 32,44 1,-1 3,-2 4,-3 1,1 3,2 4,3 14,-13 23,-28 32,-43 -11,-6 -23,-11 -36,-17 -13,6 -25,11 -36,16zm-129 186c0,2 0,5 0,7l115 48c0,-1 0,-1 -1,-1 -36,-30 -80,-46 -114,-54zm-300 -152c-35,10 -121,10 -117,-48 2,-22 18,-39 47,-55 64,-35 148,-36 200,-6 -31,-51 -30,-136 6,-199 16,-29 33,-45 55,-47 58,-4 58,83 47,117 16,7 35,21 48,32l-112 -271c-76,85 -124,194 -122,291 -96,-3 -206,45 -290,121l270 112c-11,-13 -26,-32 -32,-47zm79 -28c12,20 25,35 39,42 30,-17 56,-36 78,-56 20,-22 39,-48 57,-78 -8,-14 -23,-27 -43,-39l-3 4c-13,26 -30,51 -50,73 -23,20 -48,38 -74,51l-4 3zm172 161c41,11 83,14 128,9 6,-45 3,-88 -8,-129 -6,6 -46,3 -49,9 -3,3 5,24 6,31 1,12 2,26 1,39 -13,0 -26,-1 -39,-2 -6,-1 -28,-8 -31,-6 -5,4 -2,44 -8,49zm-44 -164c-5,4 -10,9 -16,13 9,45 6,88 -2,130 17,3 34,5 51,8 7,-36 11,-72 9,-109 37,3 73,-1 108,-9 -2,-17 -4,-34 -7,-51 -42,9 -85,11 -130,2 -4,6 -9,11 -13,16zm101 107c0,-2 1,-3 1,-5 2,0 3,0 5,-1 1,-18 -3,-35 -8,-53 -12,4 -24,9 -37,14 -6,13 -10,26 -14,37 17,5 35,9 53,8zm-7 -132c16,2 30,-4 45,-5l0 0 0 0c11,-10 25,-15 34,-28 -40,-55 -32,-185 41,-212 -10,-14 -25,-26 -40,-37 -38,24 -74,59 -81,117 -2,16 -2,32 -1,47l4 10 -4 -10c-10,-12 -21,-23 -33,-33 -47,-36 -97,-35 -141,-26 -2,19 -5,38 -2,55 71,-32 168,55 178,122zm113 263c0,0 0,0 1,0l-115 -48c-1,2 -3,4 -5,5 30,18 72,38 119,43zm-316 0c1,7 1,13 1,20 0,7 0,13 -1,20 38,26 66,58 90,94 14,-10 27,-21 41,-31 -19,-30 -42,-58 -70,-83 28,-25 51,-53 71,-83 -14,-10 -27,-21 -42,-31 -23,36 -52,68 -90,94zm89 20c6,13 11,25 17,36 15,-9 30,-18 43,-32 -1,-1 -2,-2 -3,-4 1,-1 2,-3 3,-4 -13,-14 -28,-23 -43,-32 -6,11 -11,23 -17,36zm-118 95c8,-34 13,-65 15,-95 -2,-30 -7,-62 -15,-95 -16,-5 -35,-3 -57,2l1 5c8,27 14,58 15,88 -1,30 -7,60 -16,87l-1 5c23,6 42,8 58,3zm79 -180c13,-9 18,-23 28,-35l0 0c1,-14 8,-28 5,-44 -67,-10 -153,-107 -121,-178 -17,-3 -36,-1 -55,1 -9,44 -10,95 26,141 10,13 21,24 33,34 -16,-2 -31,-2 -47,0 -59,7 -93,44 -118,81 11,15 23,30 38,40 27,-73 157,-80 211,-40zm-173 253c-17,32 -78,93 -117,49 -14,-17 -14,-40 -5,-72 20,-70 79,-130 137,-145 -58,-16 -117,-76 -136,-146 -9,-32 -9,-55 5,-72 38,-44 100,18 117,50 15,-7 39,-10 56,-12l-270 -112c5,114 49,225 118,292 -69,66 -113,177 -119,291l270 -112c-17,-1 -41,-5 -56,-11zm243 -212c1,4 21,14 26,18 10,8 20,17 29,26 -9,10 -19,19 -29,26 -5,4 -26,14 -26,18 -1,7 29,33 29,41 36,-21 69,-49 96,-85 -27,-35 -59,-63 -96,-85 0,8 -30,34 -29,41zm-37 208c2,-16 -4,-30 -5,-44l0 0c-10,-12 -15,-26 -28,-35 -55,40 -184,33 -211,-41 -15,10 -27,25 -38,40 24,38 59,74 117,81 16,3 32,3 47,1 -12,10 -23,21 -33,34 -36,46 -35,96 -26,140 19,3 38,5 55,2 -32,-71 55,-168 122,-178zm56 301c10,35 10,121 -48,117 -22,-2 -38,-18 -54,-47 -36,-63 -37,-148 -7,-199 -51,30 -136,29 -199,-7 -29,-16 -45,-33 -47,-54 -4,-59 83,-59 117,-48 7,-16 21,-35 32,-48l-270 112c84,76 194,124 290,122 -3,96 45,206 121,291l113 -271c-13,11 -33,26 -48,32zm-28 -79c20,-12 35,-25 43,-39 -18,-30 -37,-55 -57,-78 -22,-20 -48,-39 -78,-57 -14,8 -27,23 -39,43l5 3c25,13 50,30 73,51 20,22 37,47 50,73l3 4zm91 -310c34,-9 78,-25 114,-54 0,0 0,-1 1,-1l0 0c-1,0 -1,0 -1,0 -47,4 -89,24 -119,42 2,2 3,3 5,5l81 -33 -81 33c0,3 0,5 0,8zm-50 18c6,6 3,46 9,50 3,2 24,-6 31,-7 12,-1 26,-1 39,-1 0,13 0,26 -2,39 -1,6 -8,28 -6,31 4,5 44,2 49,8 11,-41 15,-83 9,-128 -45,-6 -87,-3 -129,8zm4 65c4,12 9,24 14,37 13,6 26,10 37,14 5,-17 9,-35 8,-53 -1,0 -3,0 -5,-1 0,-1 0,-3 0,-5 -19,-1 -36,3 -54,8zm-48 99c4,5 9,10 13,16 45,-9 88,-6 130,2 3,-17 5,-34 8,-51 -36,-7 -72,-11 -109,-9 3,-37 -1,-73 -9,-108 -17,2 -34,4 -50,7 8,42 10,85 2,130 5,4 10,9 15,13zm258 108c7,0 13,1 20,1 26,-38 58,-66 94,-90 -10,-14 -21,-27 -31,-41 -30,19 -58,42 -83,70 -24,-28 -53,-51 -83,-70 -10,13 -21,27 -30,41 35,23 67,52 93,90 7,0 13,-1 20,-1zm88 87l5 1c5,-22 7,-42 2,-58 -34,-8 -65,-13 -95,-15 -30,2 -61,7 -95,15 -5,16 -3,35 2,58l5 -1c28,-9 58,-15 88,-16 30,2 60,7 88,16zm-173 -136c-9,-13 -23,-18 -34,-28 -15,-1 -29,-8 -45,-5 -10,67 -107,154 -178,121 -3,17 -1,36 2,55 43,9 94,10 140,-26 13,-10 24,-21 34,-33 -2,16 -2,31 0,48 7,58 44,93 81,117 15,-11 30,-23 40,-38 -73,-27 -80,-157 -40,-211zm170 -98c-21,-37 -49,-70 -85,-97 -35,27 -63,59 -84,96 8,0 34,30 40,29 4,-1 14,-21 18,-26 8,-10 17,-20 26,-29 10,9 19,19 27,29 4,5 13,26 17,26 7,2 33,-29 41,-28zm-49 43c-9,-16 -18,-31 -32,-44 -1,1 -2,2 -4,3 -1,-1 -2,-2 -4,-3 -13,13 -23,28 -32,43 11,6 23,11 36,17 13,-6 25,-11 36,-16zm132 228c32,17 93,78 49,117 -17,14 -40,14 -72,5 -70,-20 -130,-79 -145,-137 -15,58 -76,117 -146,136 -31,9 -55,9 -71,-5 -45,-38 17,-100 49,-117 -7,-15 -10,-39 -11,-56l-113 271c114,-6 225,-50 292,-119 66,70 177,114 291,120l-112 -271c-1,17 -5,41 -11,56zm-230 -320c17,-30 37,-72 42,-119 0,0 0,0 0,-1l0 1c0,0 -1,0 -1,0 -29,36 -46,80 -54,114 2,0 5,0 7,0l32 -76 -32 76c2,2 4,3 6,5zm107 -62l24 57c2,0 5,0 7,0 -8,-34 -25,-78 -54,-114 0,0 0,0 -1,0 0,0 0,0 0,0l0 0c0,0 0,0 0,0 5,47 25,90 42,119 2,-2 4,-3 6,-5l-24 -57zm420 120c35,-10 122,-10 117,48 -1,22 -18,38 -47,54 -63,36 -148,37 -199,7 30,51 29,136 -7,199 -16,29 -32,45 -54,47 -59,4 -59,-83 -48,-117 -15,-7 -35,-21 -48,-32l112 271c77,-85 124,-194 122,-291 96,3 206,-45 291,-121l-270 -112c10,13 25,32 31,47zm-308 -76c0,1 0,3 -1,5 -1,0 -3,0 -4,1 -1,18 3,35 8,53 11,-4 23,-9 36,-14 6,-13 10,-26 14,-37 -17,-5 -34,-9 -53,-8zm58 -57c-42,-11 -84,-15 -129,-9 -6,45 -3,88 8,129 6,-6 46,-3 50,-9 2,-3 -6,-24 -6,-31 -2,-12 -2,-26 -2,-39 13,0 26,0 39,2 6,1 28,8 31,6 6,-4 3,-44 9,-49zm-51 189c-16,-2 -29,4 -44,5l0 0 0 0c-12,10 -26,15 -35,28 40,55 33,185 -41,212 10,14 25,26 40,37 38,-24 74,-59 82,-117 2,-16 2,-32 0,-47 10,12 21,23 34,33 46,36 96,35 140,26 3,-19 5,-38 2,-55 -71,32 -168,-55 -178,-122zm95 -25c4,-4 10,-9 15,-13 -8,-45 -6,-88 2,-130 -16,-3 -34,-5 -50,-8 -8,36 -12,72 -10,109 -37,-3 -73,1 -108,9 2,17 4,34 7,50 42,-8 85,-10 130,-1 5,-6 9,-11 14,-16zm-94 -183c0,-2 0,-5 0,-7l-114 -48c0,0 0,1 0,1 36,30 80,46 114,54zm221 180c-12,-20 -24,-35 -38,-43 -30,18 -56,37 -78,57 -20,22 -39,48 -57,78 7,14 22,27 42,39l3 -4c13,-26 31,-51 51,-73 22,-21 47,-38 73,-51l4 -3zm180 -170c-11,-15 -23,-30 -37,-40 -28,73 -158,80 -212,40 -13,9 -18,23 -28,34l0 0c-1,15 -7,29 -5,45 67,10 154,107 121,178 17,3 36,1 55,-2 9,-43 11,-94 -25,-140 -10,-13 -22,-24 -34,-34 16,2 32,2 48,0 58,-7 93,-44 117,-81zm-199 -65c0,-7 -1,-13 -1,-20 0,-7 1,-13 2,-20 -38,-26 -67,-58 -91,-94 -14,10 -27,21 -41,31 20,30 42,58 70,83 -28,24 -51,53 -70,83 14,10 27,21 41,31 24,-36 52,-68 90,-94zm-120 24c0,-4 -21,-14 -26,-18 -10,-8 -20,-17 -29,-26 10,-10 19,-19 29,-27 5,-4 26,-13 27,-17 1,-7 -30,-33 -29,-41 -37,21 -70,49 -97,85 27,35 60,63 96,85 0,-8 31,-34 29,-41zm150 -139c-9,34 -14,65 -15,95 1,30 6,62 14,95 16,5 35,3 58,-2l-1 -5c-9,-27 -14,-58 -16,-88 2,-30 7,-60 16,-87l1 -6c-22,-5 -42,-7 -57,-2zm-346 115c0,0 0,0 0,0l114 48c2,-2 3,-4 5,-6 -29,-17 -72,-37 -119,-42zm227 -20c-5,-13 -11,-25 -16,-36 -16,9 -31,18 -44,32 1,1 2,2 3,4 -1,1 -2,3 -3,4 13,13 28,23 44,32 5,-11 11,-23 16,-36z"/>
   <g>
    <path class="fil1" d="M1787 802l36 -121 74 22 -36 121 -43 27 -31 -49zm74 22c-6,20 -28,31 -48,25 -21,-6 -32,-27 -26,-47l74 22zm-48 -52l17 3 -12 76 -17 -3 -32 -48 44 -28zm-12 76c-21,-3 -36,-23 -32,-44 3,-21 23,-35 44,-32l-12 76zm46 -37l-3 9 -75 -20 3 -9 0 0 75 20zm-73 -29l77 0 0 0 0 0 0 2 0 1 0 0 0 2 0 1 0 0 0 1 0 1 -1 1 0 1 0 1 0 1 0 1 0 1 0 1 0 0 -1 1 0 1 0 1 0 1 0 1 0 1 -1 1 0 1 0 1 0 0 -1 1 0 1 0 1 0 1 0 1 -75 -20 0 0 0 -1 0 0 0 -1 0 0 0 -1 1 -1 0 0 0 0 0 -1 0 0 0 -1 0 0 0 0 0 0 0 -1 0 0 0 -1 0 0 0 0 0 0 0 0 1 -1 0 0 0 0 0 0 0 0 0 0 0 0 0 -1 0 1 0 0 0 0zm0 14l0 -77 0 0 3 0 3 0 3 1 3 0 4 0 3 0 3 1 3 1 3 0 3 1 3 1 3 1 3 1 3 2 3 1 3 2 3 2 3 2 3 3 3 3 3 2 2 3 2 4 2 3 2 4 1 3 2 4 0 4 1 3 1 4 0 3 0 4 -77 0 0 0 0 1 0 1 0 0 0 1 1 2 0 1 1 1 0 1 1 1 1 2 1 1 1 0 1 1 0 1 1 0 1 1 0 0 0 0 1 0 0 0 -1 0 0 0 0 0 -1 0 -1 0 0 -1 -1 0 -2 0 -1 0 -1 0 -2 0 0 0zm-66 38l-58 -51 0 0 3 -3 3 -4 3 -3 4 -4 3 -3 4 -3 3 -3 4 -3 3 -3 4 -3 4 -3 3 -2 4 -3 4 -2 4 -2 4 -2 4 -2 4 -2 4 -2 4 -2 4 -1 4 -2 4 -1 4 -1 5 -1 4 -1 4 -1 5 -1 4 0 4 0 5 -1 4 0 0 77 -2 0 -2 0 -2 0 -1 1 -2 0 -2 0 -2 1 -2 0 -2 1 -2 0 -2 1 -2 1 -2 0 -2 1 -2 1 -2 1 -2 1 -2 2 -2 1 -2 1 -2 2 -2 2 -3 1 -2 2 -2 2 -2 2 -3 2 -2 2 -2 3 -3 2 -2 2 -2 3 0 0zm-63 120l-74 -22 0 1 2 -6 2 -6 1 -5 2 -6 2 -5 2 -5 2 -5 2 -6 2 -5 2 -5 2 -5 3 -5 2 -5 2 -4 2 -5 3 -5 2 -5 3 -4 2 -5 3 -4 3 -5 2 -4 3 -4 3 -4 3 -5 3 -4 3 -4 3 -4 3 -4 3 -3 3 -4 4 -4 58 51 -3 3 -2 3 -3 2 -2 3 -2 3 -2 3 -3 3 -2 4 -2 3 -2 3 -2 4 -2 3 -2 4 -2 3 -2 4 -2 3 -2 4 -2 4 -2 4 -2 4 -2 4 -2 4 -1 4 -2 5 -2 4 -1 4 -2 5 -2 4 -1 5 -2 5 -1 4 -2 5 0 0zm-34 160l-76 -14 0 0 1 -7 1 -7 2 -7 1 -7 1 -7 2 -6 1 -7 1 -6 1 -6 1 -6 2 -6 1 -6 1 -5 1 -6 1 -5 1 -6 2 -5 1 -5 1 -5 1 -5 1 -4 1 -5 1 -4 1 -5 1 -4 1 -4 1 -4 1 -3 1 -4 1 -4 1 -3 1 -4 74 22 0 3 -1 3 -1 3 -1 3 -1 4 -1 3 -1 4 -1 4 -1 4 -1 4 -1 4 -1 4 -1 5 -1 5 -1 5 -1 4 -1 6 -1 5 -1 5 -1 6 -1 5 -2 6 -1 6 -1 6 -1 6 -1 6 -2 7 -1 6 -1 7 -1 7 -2 7 -1 7 0 0zm-21 138l-77 0 0 0 0 -3 0 -3 0 -2 0 -3 1 -3 0 -3 0 -4 0 -3 1 -4 0 -3 1 -4 0 -4 1 -4 0 -4 1 -5 1 -5 0 -4 1 -5 1 -5 1 -5 1 -6 0 -5 1 -6 1 -6 1 -6 2 -6 1 -7 1 -6 1 -7 1 -7 1 -7 2 -7 76 14 -1 7 -2 7 -1 7 -1 6 -1 7 -1 6 -1 6 -1 6 -1 6 -1 5 -1 5 -1 6 -1 5 0 4 -1 5 -1 5 0 4 -1 4 0 4 -1 4 0 3 -1 4 0 3 0 3 -1 3 0 2 0 3 0 2 0 2 -1 1 0 2 0 1 0 0zm-17 -15l0 77 0 0 -3 0 -3 0 -3 -1 -2 0 -3 -1 -3 0 -3 -1 -3 -1 -3 -1 -3 -2 -3 -1 -3 -2 -2 -2 -3 -2 -2 -2 -3 -3 -2 -3 -2 -2 -2 -3 -1 -3 -2 -2 -1 -3 -1 -3 -1 -3 -1 -3 -1 -2 0 -3 0 -3 -1 -2 0 -3 0 -3 0 -2 77 0 0 0 0 0 0 1 0 0 0 -1 0 0 0 0 0 -1 0 0 0 -1 -1 -1 0 -1 -1 -1 -1 -1 0 -1 -1 -1 -1 -1 -1 -1 -1 -1 -2 -1 -1 -1 -1 0 -1 -1 -1 0 -1 0 -1 -1 -1 0 0 0 0 0 -1 0 0 0 0 0 0 0zm76 6l-67 39 50 15 -2 1 -2 1 -2 1 -2 1 -2 1 -2 0 -2 1 -1 1 -2 0 -2 1 -2 1 -2 0 -1 1 -2 1 -2 0 -2 1 -2 0 -1 1 -2 0 -2 1 -2 0 -2 1 -1 0 -2 0 -2 1 -2 0 -2 0 -2 0 -1 1 -2 0 -2 0 -2 0 0 -77 0 0 -1 0 1 0 0 0 0 0 0 0 1 0 0 0 0 0 1 -1 1 0 0 0 1 0 1 0 1 0 0 -1 1 0 1 0 1 -1 1 0 2 0 1 -1 1 0 1 -1 1 0 1 -1 2 0 1 -1 2 0 1 -1 2 -1 1 0 50 15zm-50 -15c19,-9 42,-1 51,18 10,19 1,42 -18,51l-33 -69zm-9 68l-8 -14 67 -39 8 14 -19 55 -48 -16zm67 -39c11,19 5,42 -14,53 -18,11 -42,4 -53,-14l67 -39zm-91 83l-27 -72 0 0 3 -1 3 -1 3 -1 3 -1 3 -2 3 -1 3 -1 2 -1 3 -1 3 -1 2 -1 2 -1 3 -1 2 0 2 -1 3 -1 2 -1 2 -1 2 -1 2 0 2 -1 2 -1 2 -1 1 0 2 -1 2 -1 1 0 2 -1 1 0 1 -1 2 -1 1 0 29 71 -1 1 -1 0 -2 1 -1 1 -2 0 -2 1 -1 0 -2 1 -2 1 -2 1 -2 0 -2 1 -2 1 -2 1 -2 1 -2 0 -2 1 -3 1 -2 1 -2 1 -3 1 -3 1 -2 1 -3 1 -3 1 -2 1 -3 1 -3 1 -3 2 -3 1 -3 1 -3 1 -1 0zm-120 -8l77 0 -54 -35 2 -1 1 -1 2 -1 2 -1 2 0 2 -1 2 -1 3 -1 2 -1 2 -1 2 -1 2 -1 2 0 2 -1 2 -1 3 -1 2 -1 2 -1 2 -1 3 -1 2 -1 2 -1 2 -1 3 0 2 -1 3 -1 2 -1 2 -1 3 -1 2 -1 3 -1 2 -1 27 72 -2 1 -2 1 -2 1 -3 1 -2 0 -2 1 -3 1 -2 1 -2 1 -2 1 -2 1 -3 1 -2 0 -2 1 -2 1 -2 1 -2 1 -2 1 -2 0 -2 1 -2 1 -2 1 -2 1 -2 1 -2 0 -2 1 -2 1 -1 1 -2 1 -2 0 -2 1 -2 1 -54 -35zm54 35c-19,9 -42,0 -51,-19 -9,-20 0,-43 20,-51l31 70zm-34 -194l76 13 0 0 -1 7 -1 6 -1 7 -1 6 -1 7 -1 6 -1 6 -1 6 -1 5 -1 6 -1 5 -1 6 0 5 -1 5 -1 4 0 5 -1 5 0 4 -1 4 0 4 -1 4 0 4 0 4 -1 3 0 4 0 3 0 3 -1 2 0 3 0 3 0 2 0 2 -77 0 0 -3 0 -3 0 -4 0 -3 0 -4 1 -4 0 -3 0 -4 0 -4 1 -4 0 -5 1 -4 0 -4 1 -5 0 -5 1 -5 1 -5 0 -5 1 -5 1 -5 1 -6 0 -6 1 -5 1 -6 1 -6 1 -6 1 -7 1 -6 1 -7 2 -6 1 -7 1 -7 0 0zm114 -187l-61 -48 68 33 -1 7 -2 6 -2 7 -1 7 -2 6 -1 7 -2 6 -1 7 -2 7 -1 6 -2 7 -1 6 -2 7 -1 7 -1 7 -2 6 -1 7 -2 7 -1 6 -1 7 -2 7 -1 7 -1 6 -2 7 -1 7 -1 7 -2 7 -1 7 -1 6 -1 7 -2 7 -1 7 -76 -13 1 -7 1 -7 2 -7 1 -7 1 -7 2 -7 1 -7 1 -7 2 -7 1 -7 1 -7 2 -7 1 -7 2 -7 1 -7 1 -6 2 -7 1 -7 2 -7 1 -7 2 -7 1 -6 2 -7 1 -7 2 -7 1 -6 2 -7 1 -7 2 -7 2 -6 1 -7 2 -7 68 33zm-68 -33c5,-20 26,-33 47,-28 20,5 33,26 28,46l-75 -18zm-9 6l16 -21 61 48 -17 21 -61 -48 1 0zm-3 126l-60 -49 0 0 3 -3 2 -3 3 -3 2 -3 3 -3 2 -3 3 -3 2 -3 2 -3 2 -2 3 -3 2 -3 2 -2 2 -3 2 -2 2 -3 2 -2 2 -3 1 -2 2 -2 2 -2 2 -2 1 -3 2 -2 2 -2 1 -2 2 -1 1 -2 2 -2 1 -2 1 -1 1 -2 61 47 -1 2 -1 2 -2 2 -1 1 -2 2 -1 2 -2 2 -1 2 -2 2 -2 2 -1 3 -2 2 -2 2 -2 2 -2 3 -2 2 -2 3 -2 2 -2 3 -2 2 -2 3 -2 3 -2 2 -3 3 -2 3 -2 3 -3 3 -2 3 -3 3 -2 3 -3 4 -3 3 0 0zm-160 76l100 -125 60 49 -100 124 0 0 -60 -48zm60 48c-14,16 -38,19 -55,6 -16,-14 -19,-38 -5,-54l60 48zm-163 77l103 -126 60 49 -103 125 -60 -48 0 0zm60 48c-13,17 -38,19 -54,6 -17,-13 -19,-38 -6,-54l60 48zm-70 -35l10 -13 61 48 -10 13 -54 7 -7 -55zm61 48c-13,16 -38,19 -55,6 -16,-13 -19,-37 -6,-54l61 48zm-20 -64l12 9 -46 62 -11 -8 -12 -49 57 -14zm-45 63c-17,-13 -21,-37 -9,-54 13,-17 37,-21 54,-9l-45 63zm0 -93l77 0 0 0 0 2 0 3 0 2 0 3 0 3 0 2 -1 3 0 2 0 3 -1 2 0 3 0 2 -1 3 -1 2 0 3 -1 2 0 3 -1 2 -1 3 -1 2 0 2 -1 3 -1 3 -1 2 -1 2 -1 3 -1 2 -1 3 -1 2 -1 2 -2 3 -1 2 -69 -35 1 -1 1 -2 0 -1 1 -2 1 -1 0 -2 1 -1 1 -2 0 -1 1 -2 0 -1 1 -2 0 -1 0 -1 1 -2 0 -1 1 -1 0 -2 0 -1 0 -1 1 -2 0 -1 0 -1 0 -2 1 -1 0 -1 0 -2 0 -1 0 -1 0 -2 0 -1 0 -1 0 0zm-23 -148l76 -17 0 0 1 7 2 6 1 7 1 6 2 6 1 7 1 6 1 6 1 5 1 6 2 6 1 5 0 6 1 5 1 5 1 6 1 5 1 5 0 4 1 5 0 5 1 5 0 4 1 4 0 5 1 4 0 4 0 4 0 4 0 4 0 4 0 4 -77 0 0 -3 0 -3 0 -3 0 -3 0 -3 -1 -3 0 -4 0 -3 -1 -4 0 -4 -1 -4 0 -4 -1 -4 0 -5 -1 -4 -1 -5 0 -5 -1 -4 -1 -5 -1 -5 -1 -6 -1 -5 -1 -5 -1 -6 -1 -5 -1 -6 -1 -6 -1 -6 -2 -6 -1 -6 -2 -6 -1 -7 0 0zm61 -79l15 62 -76 17 -14 -61 72 -27 3 9zm-9 22l-62 -46 69 15 0 1 0 0 0 1 0 0 1 1 0 0 0 0 0 1 0 1 0 0 0 0 0 0 0 1 0 0 0 0 0 1 0 0 0 -1 0 1 0 -1 0 1 1 0 -1 0 1 0 -1 -1 0 -1 0 0 0 1 0 0 -1 -3 0 -1 -1 -2 -69 35 -1 -1 0 -2 -1 -2 -1 -1 1 1 0 -1 -1 -1 0 -1 0 0 0 -1 0 0 0 0 -1 -1 0 0 0 -1 0 -1 0 0 0 0 0 -1 0 0 0 0 -1 -1 0 -1 0 0 0 0 0 -1 0 0 0 -1 0 -1 -1 0 0 -1 0 0 69 15zm-69 -15c-4,-21 9,-41 30,-46 21,-4 42,9 46,30l-76 16zm-168 248l-43 -64 0 0 7 -5 7 -4 7 -5 7 -5 7 -5 7 -6 7 -5 6 -6 7 -6 7 -5 7 -6 7 -6 7 -7 7 -6 6 -7 7 -6 7 -7 7 -7 7 -7 6 -7 7 -8 7 -7 7 -8 6 -7 7 -8 7 -8 7 -8 6 -9 7 -8 7 -9 6 -8 7 -9 62 46 -7 9 -7 9 -7 9 -7 9 -7 9 -7 9 -8 8 -7 9 -7 8 -7 8 -8 8 -7 8 -7 8 -8 7 -7 8 -7 7 -8 8 -7 7 -8 7 -7 6 -8 7 -7 7 -8 6 -7 6 -8 7 -7 6 -8 6 -8 5 -7 6 -8 5 -8 6 -8 5 0 0zm-250 84l0 -77 0 0 6 0 6 0 6 0 6 -1 6 0 7 -1 6 -1 6 -1 6 -1 7 -1 6 -2 6 -1 7 -2 6 -2 7 -2 6 -2 7 -2 6 -3 7 -2 6 -3 7 -3 6 -3 7 -3 7 -3 7 -4 6 -3 7 -4 7 -4 7 -4 6 -4 7 -4 7 -5 43 64 -8 5 -7 5 -8 5 -8 4 -8 5 -8 4 -7 4 -8 4 -8 4 -8 4 -8 4 -7 3 -8 3 -8 3 -8 3 -8 3 -8 2 -7 3 -8 2 -8 2 -8 2 -8 2 -8 2 -8 1 -8 1 -7 1 -8 1 -8 1 -8 1 -8 0 -8 0 -7 0 0 0zm-156 -35l34 -69 0 0 4 2 4 1 3 2 4 1 3 2 4 1 4 2 3 1 4 1 4 1 3 2 4 1 4 1 4 1 3 1 4 1 4 0 4 1 4 1 3 1 4 0 4 1 4 0 4 1 4 0 4 0 4 1 4 0 4 0 4 0 4 0 4 0 0 77 -5 0 -6 0 -5 0 -5 0 -5 0 -5 -1 -5 0 -5 -1 -5 0 -5 -1 -5 -1 -5 -1 -4 0 -5 -1 -5 -1 -5 -1 -5 -2 -5 -1 -5 -1 -4 -1 -5 -2 -5 -1 -5 -2 -5 -2 -4 -1 -5 -2 -5 -2 -4 -2 -5 -2 -4 -2 -5 -2 -5 -2 0 0zm-117 -98l63 -44 1 0 2 3 2 3 2 2 2 3 2 3 2 2 2 3 3 2 2 3 3 2 2 3 3 2 2 3 3 2 2 2 3 3 3 2 3 2 2 2 3 3 3 2 3 2 3 2 3 2 4 2 3 2 3 2 3 2 4 1 3 2 4 2 3 2 -34 69 -4 -2 -5 -3 -4 -2 -4 -2 -5 -3 -4 -2 -4 -3 -5 -3 -4 -2 -4 -3 -4 -3 -4 -3 -4 -2 -3 -3 -4 -3 -4 -3 -4 -4 -3 -3 -4 -3 -3 -3 -4 -4 -3 -3 -3 -3 -4 -4 -3 -3 -3 -4 -3 -4 -3 -3 -3 -4 -3 -4 -2 -4 -3 -4 0 1zm-50 -166l78 0 0 0 0 4 0 5 0 4 0 5 0 4 1 4 0 4 1 5 0 4 1 4 1 4 1 4 1 4 1 4 1 3 1 4 1 4 1 4 1 3 2 4 1 4 2 3 1 4 2 3 2 4 1 3 2 3 2 4 2 3 2 3 2 3 2 4 -63 44 -3 -5 -3 -4 -3 -5 -3 -4 -2 -5 -3 -5 -3 -5 -2 -4 -2 -5 -2 -5 -3 -5 -2 -5 -1 -5 -2 -5 -2 -6 -2 -5 -1 -5 -2 -5 -1 -6 -1 -5 -1 -5 -1 -6 -1 -5 -1 -6 -1 -5 0 -6 -1 -6 0 -5 0 -6 -1 -6 0 -5 0 -6 0 0zm87 -203l52 57 0 0 -4 3 -3 4 -4 3 -3 4 -4 4 -3 4 -3 4 -3 4 -3 4 -2 4 -3 4 -2 4 -3 4 -2 4 -2 5 -2 4 -2 5 -2 4 -1 5 -2 5 -1 5 -1 5 -1 5 -1 5 -1 5 -1 5 -1 5 0 6 -1 6 0 5 0 6 0 6 -78 0 0 -8 0 -7 1 -8 0 -7 1 -7 1 -7 1 -8 1 -7 2 -7 1 -7 2 -7 2 -6 2 -7 3 -7 2 -6 3 -7 3 -6 3 -6 3 -7 3 -6 4 -6 3 -6 4 -6 4 -5 4 -6 5 -5 4 -6 5 -5 5 -5 5 -5 5 -5 5 -5 0 0zm221 -77l0 77 0 0 -7 0 -7 0 -6 0 -7 1 -6 0 -6 1 -6 1 -6 0 -6 1 -6 2 -6 1 -6 1 -5 1 -6 2 -5 2 -5 1 -5 2 -5 2 -5 2 -5 2 -5 3 -5 2 -4 2 -5 3 -4 3 -5 3 -4 2 -4 3 -5 4 -4 3 -4 3 -4 4 -52 -57 6 -5 5 -5 6 -4 6 -5 6 -4 6 -4 6 -4 6 -3 6 -4 6 -3 7 -3 6 -4 7 -2 7 -3 7 -3 7 -2 7 -3 7 -2 7 -2 7 -2 7 -1 8 -2 7 -1 8 -2 7 -1 8 -1 8 0 8 -1 8 -1 8 0 8 0 8 0 0 0zm142 30l-33 69 0 0 -3 -1 -3 -1 -3 -2 -3 -1 -3 -1 -4 -1 -3 -1 -3 -2 -3 -1 -3 -1 -4 0 -3 -1 -3 -1 -3 -1 -4 -1 -3 -1 -4 0 -3 -1 -4 0 -3 -1 -4 -1 -3 0 -4 0 -3 -1 -4 0 -4 0 -3 -1 -4 0 -4 0 -4 0 -3 0 -4 0 0 -77 5 0 4 0 5 0 5 0 4 1 5 0 5 0 4 1 5 0 5 1 4 0 5 1 4 1 5 0 4 1 5 1 4 1 4 1 5 1 4 1 5 2 4 1 4 1 4 1 5 2 4 1 4 2 4 2 4 1 4 2 5 2 4 2 0 0zm154 105l-50 59 0 0 -5 -5 -5 -4 -6 -4 -5 -4 -5 -5 -5 -3 -5 -4 -5 -4 -5 -4 -5 -3 -5 -4 -4 -3 -5 -4 -4 -3 -5 -3 -4 -3 -4 -3 -5 -3 -4 -2 -4 -3 -4 -3 -4 -2 -4 -2 -3 -2 -4 -3 -4 -2 -3 -2 -3 -1 -4 -2 -3 -2 -3 -1 -3 -2 33 -69 4 1 4 2 4 3 4 2 4 2 5 2 4 3 4 2 5 3 4 3 5 2 4 3 5 3 4 3 5 4 5 3 5 3 4 4 5 3 5 4 5 3 6 4 5 4 5 4 5 4 5 4 6 4 5 4 6 5 5 4 6 5 6 4 0 1zm25 19l0 77 0 0 -3 -1 -3 0 -3 0 -2 -1 -3 0 -2 -1 -3 -1 -2 0 -3 -1 -2 -1 -3 -1 -2 -1 -2 -1 -2 -1 -2 -1 -2 -1 -3 -2 -2 -1 -2 -1 -2 -2 -2 -1 -2 -1 -3 -2 -2 -1 -2 -2 -2 -2 -2 -1 -3 -2 -2 -2 -2 -2 -2 -2 -3 -1 50 -59 2 1 2 2 1 1 2 1 2 2 1 1 2 1 1 1 2 1 1 1 2 1 1 1 1 1 1 0 1 1 1 0 1 1 1 0 1 1 1 0 0 0 1 1 0 0 0 0 1 0 -1 0 0 0 0 0 0 0 -1 0 -1 0 -1 0 0 0zm97 -8l-64 42 51 13 -3 1 -3 2 -3 1 -3 2 -3 1 -2 2 -3 1 -3 2 -3 1 -2 1 -3 1 -2 1 -3 2 -3 1 -2 1 -3 1 -2 1 -2 0 -3 1 -2 1 -3 1 -2 1 -3 0 -2 1 -2 0 -3 1 -3 0 -2 1 -3 0 -2 0 -3 0 -3 1 0 -77 0 0 0 0 0 0 0 0 1 -1 0 0 1 0 1 0 1 0 1 0 1 -1 1 0 1 0 1 -1 2 0 1 -1 2 -1 2 0 1 -1 2 -1 2 -1 2 -1 2 -1 2 -1 2 -1 2 -1 3 -1 2 -1 2 -1 3 -2 2 -1 3 -1 51 12zm-51 -12c18,-11 42,-4 53,14 10,19 4,42 -15,53l-38 -67zm-4 68l-9 -14 64 -42 9 13 -13 56 -51 -13zm64 -43c12,18 7,42 -10,54 -18,12 -42,7 -54,-11l64 -43zm-167 52l116 -64 38 68 -117 63 -45 -5 8 -62zm37 67c-19,10 -42,4 -52,-15 -11,-19 -4,-42 15,-52l37 67zm-4 -73l12 11 -53 57 -12 -11 0 -1 53 -56zm-209 -58l35 -68 0 0 6 3 5 3 6 3 5 3 5 3 6 3 5 3 6 4 5 3 6 4 5 3 5 4 6 4 5 3 6 4 5 4 6 4 5 4 5 4 6 5 5 4 6 4 5 5 6 4 5 5 5 4 6 5 5 5 6 5 5 4 6 5 5 5 -53 56 -5 -4 -5 -5 -5 -4 -5 -5 -5 -4 -5 -5 -5 -4 -5 -4 -5 -4 -5 -4 -5 -4 -5 -4 -5 -4 -5 -4 -5 -3 -5 -4 -5 -3 -4 -4 -5 -3 -5 -4 -5 -3 -5 -3 -5 -3 -4 -3 -5 -3 -5 -3 -5 -3 -5 -3 -4 -2 -5 -3 -5 -2 -4 -3 0 0zm-132 -37l0 -77 0 0 5 0 5 0 5 0 5 0 6 1 5 0 5 1 5 1 5 0 5 1 5 1 5 1 5 2 6 1 5 1 5 2 5 1 6 2 5 1 5 2 5 2 6 2 5 2 5 2 6 2 5 2 5 3 6 2 5 3 5 2 6 3 5 3 -35 68 -5 -2 -5 -3 -4 -2 -5 -2 -5 -2 -4 -2 -5 -2 -4 -2 -4 -1 -5 -2 -4 -2 -4 -1 -4 -2 -5 -1 -4 -1 -4 -1 -4 -2 -4 -1 -4 -1 -4 0 -4 -1 -4 -1 -4 -1 -4 0 -3 -1 -4 0 -4 -1 -3 0 -4 0 -4 0 -3 0 -4 0 0 0zm-111 39l-55 -54 0 0 4 -4 4 -4 5 -4 4 -3 4 -3 5 -4 4 -3 5 -3 5 -3 5 -2 4 -3 5 -3 5 -2 5 -2 6 -2 5 -2 5 -2 6 -2 5 -1 5 -2 6 -1 6 -2 5 -1 6 -1 6 -1 6 0 5 -1 6 0 6 -1 6 0 6 0 6 0 0 77 -4 0 -5 0 -4 0 -5 0 -4 1 -4 0 -4 1 -4 0 -4 1 -4 1 -4 1 -4 0 -4 1 -3 2 -4 1 -3 1 -4 1 -3 2 -3 1 -3 2 -4 1 -3 2 -3 1 -3 2 -3 2 -2 2 -3 2 -3 2 -3 2 -2 3 -3 2 -2 2 0 0zm-41 109l-78 0 0 0 0 -6 1 -6 0 -6 0 -6 1 -6 0 -6 1 -5 1 -6 1 -6 1 -5 2 -6 1 -5 2 -6 1 -5 2 -5 2 -5 2 -5 2 -6 3 -5 2 -4 3 -5 2 -5 3 -5 3 -4 3 -5 3 -4 4 -5 3 -4 4 -4 4 -4 3 -4 4 -4 55 54 -3 3 -2 3 -3 2 -2 3 -2 2 -2 3 -2 3 -2 3 -2 3 -2 3 -1 3 -2 3 -2 3 -1 3 -1 3 -2 3 -1 4 -1 3 -1 3 -1 4 -1 4 -1 3 -1 4 -1 4 0 4 -1 4 0 4 -1 4 0 4 0 5 0 4 0 5 0 0zm65 142l-50 58 0 0 -6 -4 -5 -5 -5 -5 -6 -5 -5 -6 -4 -5 -5 -5 -4 -6 -5 -6 -4 -5 -4 -6 -3 -6 -4 -6 -3 -6 -3 -7 -4 -6 -2 -6 -3 -7 -2 -6 -3 -7 -2 -7 -2 -7 -1 -7 -2 -6 -1 -7 -1 -8 -1 -7 -1 -7 -1 -7 0 -8 -1 -7 0 -7 78 0 0 5 0 6 0 5 1 6 0 5 1 5 1 5 1 5 1 5 1 5 1 5 2 4 2 5 1 4 2 5 2 4 2 5 2 4 2 4 3 4 2 4 3 4 3 4 3 4 3 4 3 4 4 4 3 3 4 4 4 4 4 3 4 4 0 0zm179 57l0 76 0 0 -8 0 -9 0 -8 0 -8 -1 -8 0 -8 -1 -8 -1 -8 -1 -8 -1 -8 -2 -8 -1 -7 -2 -8 -2 -7 -2 -8 -2 -7 -2 -7 -2 -7 -3 -7 -3 -7 -2 -7 -4 -7 -3 -6 -3 -7 -3 -6 -4 -6 -4 -7 -4 -6 -4 -6 -4 -6 -4 -6 -5 -5 -5 50 -58 4 3 4 3 5 4 4 3 5 3 4 3 5 2 5 3 4 3 5 2 6 3 5 2 5 2 5 2 6 2 5 2 6 2 5 1 6 2 6 1 6 2 6 1 6 1 7 1 6 1 7 0 6 1 7 1 7 0 7 0 7 0 7 1 0 0zm197 -65l43 64 0 0 -8 5 -7 4 -7 5 -7 4 -8 4 -7 4 -7 4 -8 4 -7 3 -7 3 -8 4 -7 3 -8 3 -7 3 -7 2 -8 3 -7 2 -8 2 -8 2 -7 2 -8 2 -7 2 -8 1 -8 2 -7 1 -8 1 -7 1 -8 0 -8 1 -7 0 -8 0 -8 0 0 -76 6 -1 6 0 7 0 6 0 6 -1 6 -1 6 0 6 -1 6 -1 6 -2 6 -1 6 -1 7 -2 6 -2 6 -1 6 -2 6 -2 6 -3 6 -2 6 -2 7 -3 6 -3 6 -2 6 -3 6 -3 6 -4 7 -3 6 -4 6 -3 6 -4 6 -4 7 -4 0 0zm188 -169l76 -14 -6 29 -7 9 -6 8 -6 9 -7 8 -6 9 -7 8 -6 8 -7 8 -6 7 -7 8 -6 8 -7 7 -6 7 -7 7 -7 7 -6 7 -7 7 -7 7 -7 6 -6 7 -7 6 -7 6 -7 6 -7 6 -7 6 -7 5 -7 6 -7 5 -7 5 -7 5 -7 5 -7 5 -43 -64 6 -4 6 -4 6 -5 6 -4 7 -5 6 -5 6 -5 6 -5 6 -5 7 -6 6 -5 6 -6 6 -5 6 -6 6 -6 6 -6 6 -7 6 -6 7 -7 6 -6 6 -7 6 -7 6 -7 6 -7 6 -8 6 -7 6 -8 6 -7 6 -8 6 -8 6 -8 5 -9 -6 30zm6 -30c13,-17 37,-21 54,-9 18,12 22,37 10,54l-64 -45zm-16 -60l78 0 0 0 0 1 0 2 0 2 0 2 0 2 0 2 0 2 0 2 0 2 0 2 1 2 0 3 0 2 0 2 0 3 1 2 0 2 0 3 1 2 0 3 0 2 1 3 0 2 0 3 1 3 0 3 1 2 0 3 1 3 0 3 1 3 0 3 -76 14 -1 -4 0 -3 -1 -3 0 -3 -1 -3 0 -3 -1 -3 0 -3 -1 -4 0 -3 -1 -2 0 -3 0 -3 -1 -3 0 -3 0 -3 -1 -3 0 -2 0 -3 0 -3 -1 -2 0 -3 0 -3 0 -2 0 -3 0 -3 -1 -2 0 -3 0 -2 0 -2 0 -3 0 -2 0 0zm40 -179l71 31 0 0 -2 5 -2 4 -2 5 -2 5 -2 4 -2 5 -1 4 -2 5 -1 5 -2 4 -1 5 -2 4 -1 5 -1 5 -1 4 -1 5 -1 4 -1 5 -1 4 -1 5 0 5 -1 4 -1 5 0 5 -1 4 0 5 -1 4 0 5 0 5 0 4 0 5 0 5 -78 0 0 -6 0 -6 1 -5 0 -6 0 -6 1 -6 0 -5 1 -6 0 -6 1 -5 1 -6 1 -5 1 -6 1 -6 1 -5 1 -6 2 -6 1 -5 1 -6 2 -5 1 -6 2 -5 2 -6 2 -6 2 -5 2 -6 2 -5 2 -6 2 -5 2 -6 3 -5 2 -5 0 0zm110 -103l0 77 0 0 0 0 0 0 0 0 0 0 0 0 0 0 0 0 -1 0 0 0 -1 1 -1 0 -1 1 -1 1 -1 1 -2 2 -1 1 -2 2 -1 2 -2 2 -2 2 -2 3 -1 2 -2 3 -2 3 -2 3 -2 4 -2 3 -2 4 -2 4 -2 4 -2 5 -2 4 -71 -31 3 -6 2 -5 3 -5 2 -5 3 -5 2 -5 3 -4 3 -5 2 -4 3 -4 3 -4 3 -4 3 -4 3 -4 3 -3 3 -4 3 -3 3 -3 4 -3 3 -3 4 -3 4 -3 4 -2 4 -3 4 -2 4 -2 5 -1 4 -2 5 -1 5 -1 5 0 5 0 0 0zm76 101l-78 0 0 0 0 -3 0 -3 0 -3 0 -2 0 -3 0 -2 -1 -2 0 -2 -1 -2 0 -1 0 -1 -1 -1 0 -1 0 -1 0 0 -1 -1 0 0 0 0 1 1 0 0 0 0 1 1 0 0 1 1 1 0 0 0 1 0 0 1 1 0 0 0 0 0 0 0 0 -77 4 0 5 0 4 1 5 1 4 1 5 2 4 1 4 3 4 2 4 3 4 3 3 3 3 4 3 3 3 4 2 3 2 4 2 4 2 4 1 4 2 4 1 4 1 4 1 4 1 5 0 4 1 4 0 4 1 5 0 4 0 5 0 4 0 0zm-25 109l-72 -30 0 1 2 -3 1 -3 1 -3 1 -3 1 -3 1 -3 1 -3 1 -2 1 -3 1 -3 1 -3 0 -2 1 -3 1 -2 0 -3 1 -2 1 -3 0 -2 1 -3 0 -2 0 -2 1 -3 0 -2 0 -2 1 -2 0 -2 0 -3 0 -2 0 -2 0 -2 0 -2 0 -2 78 0 0 4 0 3 0 3 -1 3 0 4 0 3 0 3 -1 3 0 4 -1 3 0 3 -1 4 0 3 -1 3 -1 4 -1 3 0 3 -1 4 -1 3 -1 4 -1 3 -1 4 -1 3 -1 3 -2 4 -1 3 -1 4 -1 4 -2 3 -1 4 -2 3 -1 4 0 0zm-71 112l-76 16 5 -29 3 -5 3 -4 3 -5 3 -5 3 -5 3 -4 2 -5 3 -5 3 -4 2 -5 3 -4 2 -4 3 -5 2 -4 2 -4 3 -4 2 -4 2 -4 2 -4 2 -4 2 -3 2 -4 2 -4 1 -3 2 -4 2 -3 1 -4 2 -3 1 -3 2 -3 1 -4 1 -3 72 30 -2 4 -1 3 -2 4 -2 4 -1 4 -2 3 -2 4 -2 4 -2 4 -2 4 -2 4 -2 5 -2 4 -3 4 -2 4 -2 5 -3 4 -2 4 -3 5 -2 5 -3 4 -2 5 -3 5 -3 4 -3 5 -3 5 -3 5 -3 5 -3 5 -3 5 -3 5 -3 5 5 -28zm-5 28c-12,18 -36,24 -54,12 -18,-11 -23,-35 -12,-53l66 41zm25 54l-75 19 0 0 -1 -4 -1 -4 -1 -3 -1 -4 -1 -3 -1 -3 -1 -4 0 -3 -1 -3 -1 -3 -1 -3 0 -3 -1 -3 -1 -3 0 -2 -1 -3 -1 -3 0 -2 -1 -3 -1 -2 0 -3 -1 -2 0 -2 -1 -2 0 -2 -1 -2 0 -2 -1 -2 0 -2 0 -2 -1 -2 0 -1 76 -16 0 1 0 2 1 1 0 2 0 2 1 2 0 2 1 1 0 3 1 2 0 2 1 2 0 2 1 3 1 2 0 3 1 2 0 3 1 3 1 3 0 2 1 3 1 3 1 3 1 4 0 3 1 3 1 3 1 4 1 3 1 4 1 4 0 0zm-35 160l61 48 -69 -20 0 -5 -1 -4 0 -4 -1 -5 0 -5 -1 -4 -1 -5 0 -5 -1 -4 -1 -5 -1 -5 -1 -5 0 -5 -1 -5 -1 -6 -1 -5 -1 -5 -1 -6 -2 -5 -1 -6 -1 -5 -1 -6 -1 -5 -2 -6 -1 -6 -1 -6 -2 -6 -1 -6 -2 -6 -1 -6 -2 -6 -1 -6 75 -19 1 6 2 6 1 7 2 6 2 6 1 7 1 6 2 6 1 6 2 6 1 6 1 6 1 5 2 6 1 6 1 6 1 5 1 6 1 5 1 6 1 5 1 5 0 6 1 5 1 5 1 5 0 5 1 5 1 5 0 5 1 5 0 5 -69 -20zm69 20c2,21 -13,40 -34,42 -22,2 -41,-13 -43,-34l77 -8zm-53 -39l60 48 0 0 0 0 -1 1 0 0 0 0 0 1 -1 0 0 0 0 1 -1 0 0 1 0 0 -1 1 0 0 0 1 -1 0 0 1 -1 0 0 1 -1 1 0 0 -1 1 -1 1 0 0 -1 1 0 1 -1 1 0 0 -1 1 -1 1 0 1 -1 1 -1 1 -61 -48 1 -1 1 -1 0 0 1 -1 1 -1 0 -1 1 -1 0 0 1 -1 1 -1 0 0 1 -1 0 -1 1 0 0 -1 0 -1 1 0 0 -1 1 0 0 -1 1 0 0 -1 0 0 1 -1 0 0 1 -1 0 0 0 0 0 -1 1 0 0 -1 0 0 1 0zm90 11l-30 37 -60 -48 30 -37 60 48 0 0zm-60 -48c13,-17 38,-19 54,-6 17,14 19,38 6,54l-60 -48zm275 -217l-215 265 -60 -48 215 -265 0 0 60 48zm53 -179l55 54 0 0 -2 2 -2 2 -2 2 -2 3 -2 2 -3 3 -2 3 -3 2 -3 3 -3 4 -2 3 -3 3 -4 4 -3 3 -3 4 -3 4 -4 4 -3 4 -4 4 -4 5 -3 4 -4 5 -4 4 -4 5 -4 5 -5 5 -4 6 -4 5 -5 5 -4 6 -5 5 -5 6 -60 -48 5 -6 5 -6 4 -5 5 -6 4 -5 5 -6 4 -5 4 -5 4 -5 4 -5 4 -4 4 -5 4 -4 4 -5 3 -4 4 -4 3 -4 4 -4 3 -4 3 -3 3 -4 3 -3 3 -4 3 -3 3 -3 3 -3 3 -3 2 -3 3 -3 2 -2 3 -3 2 -2 0 0zm82 -62l37 67 0 0 -2 1 -2 1 -2 1 -2 2 -2 1 -2 1 -2 1 -2 2 -2 1 -2 2 -2 1 -2 1 -2 2 -2 1 -2 2 -2 1 -2 2 -2 1 -2 2 -2 2 -2 1 -2 2 -2 2 -2 1 -2 2 -2 2 -2 2 -2 1 -2 2 -2 2 -2 2 -2 2 -55 -54 3 -2 2 -3 2 -2 3 -2 2 -2 2 -3 3 -2 2 -2 3 -2 2 -2 3 -2 2 -2 3 -3 2 -2 3 -2 2 -2 3 -1 2 -2 3 -2 2 -2 3 -2 3 -2 2 -2 3 -1 3 -2 2 -2 3 -1 3 -2 2 -2 3 -1 3 -2 3 -1 0 0zm157 16l-74 -22 37 49 -2 0 -3 0 -2 1 -3 0 -2 0 -3 0 -2 0 -3 1 -2 0 -3 1 -2 0 -3 0 -2 1 -3 1 -3 0 -2 1 -3 1 -2 0 -3 1 -3 1 -2 1 -3 1 -2 1 -3 1 -3 1 -2 2 -3 1 -3 1 -2 1 -3 2 -3 1 -3 2 -37 -67 3 -2 4 -2 4 -2 3 -2 4 -2 4 -1 3 -2 4 -2 4 -1 3 -2 4 -1 4 -1 4 -2 3 -1 4 -1 4 -1 4 -1 4 -1 3 -1 4 -1 4 -1 4 0 4 -1 4 0 3 -1 4 0 4 -1 4 0 4 0 4 0 3 -1 4 0 37 50zm-37 -50c22,0 39,18 39,39 0,21 -17,38 -39,38l0 -77zm-595 176l73 25 0 0 -1 3 -1 3 -1 3 -1 4 -1 3 -2 3 -1 4 -1 3 -2 3 -1 4 -1 3 -2 3 -1 3 -1 4 -2 3 -1 3 -2 3 -1 4 -2 3 -1 3 -2 3 -2 3 -1 4 -2 3 -1 3 -2 3 -2 4 -2 3 -1 3 -2 3 -2 3 -2 3 -67 -38 2 -2 1 -3 2 -3 1 -3 2 -3 1 -2 2 -3 1 -3 2 -3 1 -3 1 -2 2 -3 1 -3 1 -3 2 -3 1 -2 1 -3 2 -3 1 -3 1 -3 1 -3 1 -3 2 -2 1 -3 1 -3 1 -3 1 -3 1 -3 1 -2 1 -3 1 -3 1 -3 0 0zm15 -71l77 0 0 0 0 3 0 3 0 2 0 3 0 3 -1 3 0 2 0 3 0 3 -1 3 0 3 -1 3 0 2 -1 3 0 3 -1 3 0 3 -1 3 -1 3 0 3 -1 3 -1 3 -1 4 -1 3 0 3 -1 3 -1 3 -1 3 -1 4 -1 3 -1 3 -2 4 -73 -25 1 -3 1 -3 1 -2 1 -3 0 -3 1 -2 1 -3 1 -3 0 -2 1 -3 1 -2 0 -3 1 -2 0 -2 1 -2 0 -3 1 -2 0 -2 0 -2 1 -2 0 -2 0 -2 1 -2 0 -2 0 -2 0 -2 0 -2 0 -1 1 -2 0 -2 0 -1 0 -2 0 0zm14 3l0 -76 0 0 3 0 4 0 3 0 3 1 4 1 3 1 4 1 3 2 4 1 3 2 3 2 3 3 3 2 3 3 2 3 2 3 2 3 2 3 1 3 2 3 1 3 1 3 1 3 1 3 0 3 1 3 0 3 1 3 0 3 0 3 0 3 0 3 -77 0 0 -1 0 -1 0 -1 -1 -1 0 -1 0 -1 0 0 0 -1 0 0 0 0 0 0 0 0 0 1 1 0 0 1 0 1 1 0 1 1 1 1 0 1 1 1 2 1 1 0 1 1 1 0 1 1 1 0 1 0 1 0 0 0 1 0 0 0 0 0zm5 13l-73 -24 0 0 1 -3 1 -3 1 -3 1 -3 1 -2 1 -3 1 -3 1 -2 2 -3 1 -2 1 -3 2 -2 1 -2 2 -3 2 -2 2 -2 2 -3 2 -2 2 -2 2 -2 2 -2 3 -2 3 -2 3 -2 3 -2 3 -1 4 -1 3 -1 4 -1 3 -1 4 0 4 0 0 76 1 0 2 0 1 0 2 0 1 -1 1 0 1 -1 1 0 1 -1 1 0 0 -1 1 0 0 0 0 0 0 0 0 0 0 0 0 0 -1 1 0 0 -1 1 0 1 -1 1 0 1 -1 1 0 1 -1 2 0 1 -1 2 -1 1 0 2 -1 2 0 0zm-11 81l-77 0 0 0 0 -4 0 -3 0 -4 0 -4 0 -3 0 -4 0 -3 1 -4 0 -3 0 -4 0 -3 1 -3 0 -4 0 -3 1 -4 0 -3 1 -3 0 -3 1 -4 0 -3 1 -3 1 -3 0 -3 1 -3 1 -3 0 -4 1 -3 1 -3 1 -3 1 -3 1 -2 1 -3 73 24 -1 2 0 2 -1 2 0 2 -1 2 0 2 -1 2 -1 3 0 2 0 2 -1 2 0 3 -1 2 0 3 -1 2 0 3 0 2 -1 3 0 2 0 3 0 3 -1 3 0 2 0 3 0 3 0 3 -1 3 0 3 0 3 0 3 0 3 0 3 0 0zm-64 64l67 38 -72 -12 0 -3 -1 -3 0 -4 -1 -3 0 -3 0 -3 -1 -3 0 -3 -1 -3 0 -3 0 -3 -1 -2 0 -3 0 -3 -1 -3 0 -3 0 -3 -1 -2 0 -3 0 -3 0 -3 0 -2 -1 -3 0 -3 0 -2 0 -3 0 -2 0 -3 0 -2 0 -3 0 -2 0 -3 77 0 0 2 0 2 0 2 0 2 0 2 0 2 1 2 0 2 0 3 0 2 0 2 0 2 0 3 1 2 0 2 0 3 0 2 1 3 0 2 0 3 0 2 1 3 0 2 0 3 1 3 0 2 1 3 0 3 0 2 1 3 0 3 1 3 -72 -13zm72 13c3,21 -11,41 -32,44 -21,4 -41,-10 -45,-31l77 -13z"/>
   </g>
   <path id="1" class="fil2" d="M1860 692l-36 121 -17 -3 2 -9c2,-8 3,-14 3,-19 0,-16 -12,-24 -38,-24 -33,0 -65,17 -95,51 -31,34 -54,78 -71,134 -9,32 -21,87 -35,164 -14,77 -21,125 -21,145 0,16 7,23 21,23 10,0 24,-4 42,-13l9 15c-14,5 -37,14 -71,27 -26,10 -49,19 -69,28 0,-27 7,-78 20,-153 13,-74 28,-146 45,-217l-16 21c-14,17 -35,43 -63,78l-100 124 -103 125 -10 13 -11 -8c10,-21 16,-42 16,-62 0,-34 -8,-86 -24,-156l-14 -62c-1,-1 -2,-4 -3,-10 -73,97 -149,172 -227,224 -79,52 -155,78 -229,78 -49,0 -95,-11 -139,-32 -43,-21 -77,-49 -102,-85 -29,-41 -43,-89 -43,-144 0,-72 25,-130 74,-175 50,-44 115,-67 195,-67 46,0 88,9 125,26 38,18 86,51 146,100 22,19 39,28 50,28 14,0 35,-8 65,-25l9 14 -116 63 -12 -11c-56,-52 -112,-92 -166,-120 -54,-28 -103,-42 -149,-42 -57,0 -104,17 -139,51 -35,34 -52,79 -52,136 0,70 26,127 79,171 52,44 120,66 204,66 74,0 147,-24 218,-71 72,-47 140,-117 205,-208 -6,-33 -9,-61 -9,-83 0,-56 12,-110 36,-164 25,-53 50,-80 75,-80 25,0 37,21 37,63 0,28 -7,59 -22,94 -15,36 -39,80 -73,135 3,16 10,44 20,83 18,68 29,126 34,175 7,-10 12,-16 15,-19l30 -37 215 -265c51,-63 88,-105 111,-128 22,-23 46,-41 72,-56 34,-19 68,-28 102,-28zm-602 246c18,-31 33,-64 44,-97 11,-33 16,-60 16,-83 0,-23 -8,-35 -24,-35 -12,0 -23,13 -32,39 -8,26 -13,57 -13,93 0,23 3,51 9,83z"/>
  </g>
  <path class="fil1" d="M2035 1222l0 -22 16 -1c13,-1 21,-3 24,-7 4,-4 6,-17 6,-39 1,-45 2,-93 2,-145 0,-28 0,-60 0,-95 -1,-21 -2,-34 -4,-39 -1,-2 -3,-4 -6,-6 -3,-1 -16,-3 -38,-4l0 -23c21,1 43,1 64,1 24,0 48,0 70,-1 10,23 20,46 30,69 8,16 41,84 99,205 61,-124 105,-215 129,-274 22,2 43,2 62,2 23,0 45,0 67,-2l0 23c-24,1 -38,3 -41,6 -3,3 -5,11 -6,25 -1,23 -1,66 -1,130 0,32 0,67 0,102 1,36 2,56 4,61 1,3 3,5 5,7 3,1 16,3 39,5l0 22c-29,-1 -56,-1 -79,-1 -23,0 -54,0 -94,1l0 -22 16 -1c12,0 20,-2 23,-5 3,-3 5,-11 6,-24 1,-13 2,-43 2,-90l0 -164c-28,56 -64,130 -107,220 -18,38 -32,68 -42,92l-18 0c-13,-31 -31,-71 -54,-119l-94 -193 0 37c0,102 0,172 1,211 1,15 3,25 6,29 4,4 18,6 41,7l0 22c-18,-1 -37,-1 -55,-1 -28,0 -52,0 -73,1z"/>
  <path id="1" class="fil1" d="M2838 1200l0 22 -21 -1c-11,0 -22,0 -33,0 -17,0 -33,0 -49,1l-2 -3 2 -37 -56 42c-10,3 -19,4 -27,4 -19,0 -34,-6 -44,-17 -11,-12 -16,-28 -16,-50 0,-27 7,-46 21,-57 19,-15 59,-28 122,-39 0,-21 -4,-37 -11,-46 -10,-14 -25,-20 -45,-20 -5,0 -10,0 -15,1 -6,2 -11,3 -16,6l-12 29 -19 -5 1 -12 -1 -12 0 -11c28,-17 48,-28 60,-32 9,-3 21,-5 37,-5 21,0 38,3 52,10 13,6 23,15 29,26 6,11 9,27 9,48 0,9 0,25 -1,48 -1,24 -1,43 -1,57 0,23 1,36 2,41 1,3 2,5 5,7 3,2 13,3 29,5zm-103 -112c-31,7 -52,15 -62,23 -9,8 -14,19 -14,32 0,11 3,20 9,26 6,7 14,10 23,10 15,0 29,-8 44,-24l0 -67z"/>
  <path id="2" class="fil1" d="M2861 1003l0 -22c29,-2 56,-7 81,-15l26 -10c4,0 5,3 5,7l-1 16c-3,41 -4,82 -4,120 0,25 1,42 4,50 2,8 7,15 13,19 7,5 16,7 27,7 13,0 24,-4 34,-11 10,-7 16,-14 18,-23 2,-8 3,-33 3,-73 0,-31 0,-50 -1,-56 -1,-3 -2,-4 -4,-6 -3,-1 -15,-2 -37,-3l0 -22c37,-4 64,-9 82,-14l28 -11c3,0 5,2 5,6l0 8c-3,31 -5,88 -5,171 0,25 1,41 2,48 1,3 3,5 5,6 2,2 14,3 34,5l0 22c-21,-1 -42,-1 -62,-1 -17,0 -32,0 -47,1l-2 -5c1,-9 2,-23 2,-42 -17,13 -33,28 -49,44 -12,6 -25,9 -37,9 -17,0 -32,-4 -44,-10 -12,-7 -21,-16 -27,-26 -6,-11 -9,-26 -9,-46l1 -29c0,-19 0,-33 0,-45 0,-32 0,-51 -2,-57 0,-5 -2,-8 -5,-9 -3,-2 -14,-3 -34,-3z"/>
  <path id="3" class="fil1" d="M3206 1222l0 -22c19,-1 30,-3 33,-5 2,-2 4,-7 4,-14 1,-18 2,-50 2,-96 0,-23 0,-43 -1,-59 0,-10 -1,-16 -2,-18 -1,-2 -3,-3 -4,-3 -2,-1 -13,-2 -32,-2l0 -22c10,0 25,-2 46,-6 20,-4 38,-9 52,-14l7 -3c3,0 4,2 4,6l0 3c-1,5 -1,18 -1,39l42 -35c5,-5 11,-8 16,-10 8,-2 18,-3 29,-3 19,0 35,3 47,10 12,7 21,16 27,28 6,11 8,29 8,54 0,11 0,24 0,38 -1,29 -2,55 -2,76 0,12 1,21 3,25 2,4 4,6 6,7 3,1 13,2 30,4l0 22 -33 -1 -22 0 -56 1 -3 -3c5,-35 7,-70 7,-106 0,-46 -2,-75 -8,-85 -7,-14 -20,-21 -40,-21 -12,0 -23,3 -31,9 -10,7 -15,13 -18,20 -1,3 -2,12 -2,28 0,66 0,103 1,113 0,9 2,15 4,17 4,3 16,5 37,6l0 22c-31,-1 -58,-1 -80,-1 -12,0 -36,0 -70,1z"/>
  <path id="4" class="fil1" d="M3795 1200l0 22 -21 -1c-11,0 -22,0 -33,0 -17,0 -33,0 -49,1l-2 -3 2 -37 -56 42c-10,3 -19,4 -27,4 -19,0 -34,-6 -44,-17 -11,-12 -16,-28 -16,-50 0,-27 7,-46 21,-57 19,-15 59,-28 122,-39 0,-21 -4,-37 -11,-46 -10,-14 -25,-20 -45,-20 -5,0 -10,0 -16,1 -5,2 -10,3 -15,6l-12 29 -19 -5 1 -12 -1 -12 0 -11c28,-17 48,-28 60,-32 9,-3 21,-5 37,-5 21,0 38,3 52,10 13,6 23,15 29,26 6,11 9,27 9,48 0,9 0,25 -1,48 -1,24 -1,43 -1,57 0,23 1,36 2,41 1,3 2,5 5,7 3,2 13,3 29,5zm-103 -112c-31,7 -52,15 -62,23 -10,8 -14,19 -14,32 0,11 3,20 9,26 6,7 14,10 23,10 15,0 29,-8 44,-24l0 -67z"/>
  <path id="5" class="fil1" d="M3964 1222l0 -22 16 -1c14,-1 22,-3 25,-7 3,-4 5,-17 6,-39 1,-45 2,-93 2,-145 0,-28 -1,-60 -1,-95 0,-21 -1,-34 -3,-39 -1,-2 -3,-4 -6,-6 -3,-1 -16,-3 -39,-4l0 -23c22,1 43,1 64,1 25,0 48,0 71,-1 10,23 20,46 30,69 7,16 40,84 98,205 62,-124 105,-215 130,-274 22,2 42,2 62,2 23,0 45,0 67,-2l0 23c-24,1 -38,3 -41,6 -3,3 -5,11 -6,25 -1,23 -2,66 -2,130 0,32 0,67 1,102 1,36 2,56 4,61 1,3 3,5 5,7 3,1 15,3 39,5l0 22c-30,-1 -56,-1 -79,-1 -23,0 -54,0 -94,1l0 -22 16 -1c12,0 20,-2 23,-5 3,-3 5,-11 6,-24 1,-13 1,-43 1,-90l0 -164c-28,56 -63,130 -107,220 -17,38 -31,68 -41,92l-18 0c-14,-31 -32,-71 -54,-119l-94 -193 0 37c0,102 0,172 1,211 0,15 2,25 6,29 4,4 17,6 41,7l0 22c-19,-1 -37,-1 -56,-1 -27,0 -51,0 -73,1z"/>
  <path id="6" class="fil1" d="M4768 1200l0 22 -21 -1c-11,0 -22,0 -33,0 -18,0 -34,0 -49,1l-3 -3 3 -37 -56 42c-11,3 -19,4 -27,4 -19,0 -34,-6 -45,-17 -10,-12 -15,-28 -15,-50 0,-27 7,-46 21,-57 18,-15 59,-28 122,-39 0,-21 -4,-37 -11,-46 -10,-14 -25,-20 -46,-20 -5,0 -10,0 -15,1 -5,2 -10,3 -15,6l-12 29 -19 -5 0 -12 0 -12 0 -11c27,-17 47,-28 59,-32 9,-3 22,-5 37,-5 22,0 39,3 52,10 14,6 24,15 30,26 6,11 9,27 9,48 0,9 0,25 -1,48 -1,24 -1,43 -1,57 0,23 0,36 2,41 0,3 2,5 5,7 3,2 12,3 29,5zm-103 -112c-32,7 -53,15 -62,23 -10,8 -15,19 -15,32 0,11 3,20 10,26 6,7 14,10 23,10 14,0 29,-8 44,-24l0 -67z"/>
  <path id="7" class="fil1" d="M4830 1134c1,23 2,36 3,39 4,7 11,14 22,20 11,5 24,8 38,8 18,0 31,-4 40,-11 8,-7 13,-17 13,-29 0,-10 -3,-18 -10,-24 -6,-6 -19,-11 -40,-16 -32,-7 -52,-13 -62,-18 -9,-5 -17,-13 -22,-23 -6,-10 -8,-22 -8,-36 0,-17 4,-32 12,-45 8,-12 20,-23 36,-30 15,-7 36,-11 62,-11 26,0 51,4 74,13 -2,15 -4,38 -5,69l-22 0c-1,-20 -2,-31 -4,-35 -3,-5 -8,-9 -16,-13 -10,-5 -21,-7 -33,-7 -15,0 -27,3 -35,10 -9,7 -13,15 -13,26 0,9 4,17 12,22 7,6 25,12 54,17 19,3 33,7 41,10 12,5 22,13 28,24 7,10 10,23 10,39 0,31 -11,54 -35,70 -24,17 -52,25 -85,25 -10,0 -22,-2 -36,-4 -13,-3 -27,-6 -43,-11l-4 -5c2,-15 4,-40 4,-74l24 0z"/>
  <path id="8" class="fil1" d="M5076 1134c1,23 2,36 4,39 4,7 11,14 22,20 11,5 24,8 38,8 18,0 31,-4 39,-11 9,-7 14,-17 14,-29 0,-10 -4,-18 -10,-24 -6,-6 -20,-11 -41,-16 -31,-7 -51,-13 -61,-18 -9,-5 -17,-13 -22,-23 -6,-10 -9,-22 -9,-36 0,-17 4,-32 13,-45 8,-12 20,-23 35,-30 16,-7 37,-11 62,-11 27,0 52,4 75,13 -3,15 -4,38 -5,69l-22 0c-1,-20 -3,-31 -4,-35 -3,-5 -8,-9 -16,-13 -10,-5 -21,-7 -33,-7 -15,0 -27,3 -36,10 -8,7 -12,15 -12,26 0,9 4,17 11,22 8,6 26,12 54,17 20,3 34,7 41,10 13,5 22,13 29,24 7,10 10,23 10,39 0,31 -12,54 -35,70 -24,17 -52,25 -85,25 -11,0 -23,-2 -36,-4 -13,-3 -27,-6 -43,-11l-4 -5c2,-15 3,-40 4,-74l23 0z"/>
  <path id="9" class="fil1" d="M5329 1041l-24 0c2,-21 3,-41 3,-59l0 -16 3 -2c55,1 89,2 102,2 36,0 75,-1 119,-2l0 19c-59,76 -109,146 -152,208l49 0c43,0 66,-1 71,-4 5,-3 9,-16 12,-38l2 -15 24 0c-3,24 -5,52 -6,85l-3 4c-17,0 -29,0 -38,0l-44 -1c-45,-1 -72,-1 -82,-1l-81 2 0 -20c18,-22 39,-49 64,-83 37,-50 67,-92 91,-126l-49 0c-23,0 -38,0 -44,1 -4,1 -7,3 -9,5 -2,2 -4,9 -6,21l-2 20z"/>
  <path id="10" class="fil1" d="M5817 1200l0 22 -21 -1c-11,0 -22,0 -33,0 -17,0 -33,0 -49,1l-2 -3 2 -37 -56 42c-10,3 -19,4 -27,4 -19,0 -34,-6 -44,-17 -11,-12 -16,-28 -16,-50 0,-27 7,-46 21,-57 19,-15 59,-28 122,-39 0,-21 -4,-37 -11,-46 -10,-14 -25,-20 -46,-20 -4,0 -9,0 -15,1 -5,2 -10,3 -15,6l-12 29 -19 -5 1 -12 -1 -12 0 -11c28,-17 48,-28 60,-32 9,-3 21,-5 37,-5 21,0 38,3 52,10 13,6 23,15 29,26 6,11 9,27 9,48 0,9 0,25 -1,48 -1,24 -1,43 -1,57 0,23 1,36 2,41 1,3 2,5 5,7 3,2 13,3 29,5zm-103 -112c-32,7 -52,15 -62,23 -10,8 -14,19 -14,32 0,11 3,20 9,26 6,7 14,10 23,10 15,0 29,-8 44,-24l0 -67zm-62 -153l-27 0 63 -61c14,-14 24,-23 29,-26 6,-3 11,-4 17,-4 6,0 12,2 16,6 4,4 7,9 7,15 0,6 -2,10 -6,14 -3,4 -14,10 -33,20l-66 36z"/>
  <path id="11" class="fil1" d="M5884 1041l-23 0c2,-21 3,-41 3,-59l0 -16 3 -2c55,1 89,2 102,2 35,0 75,-1 119,-2l0 19c-59,76 -110,146 -152,208l49 0c43,0 66,-1 71,-4 5,-3 9,-16 12,-38l2 -15 23 0c-3,24 -4,52 -5,85l-3 4c-17,0 -30,0 -38,0l-44 -1c-45,-1 -72,-1 -82,-1l-82 2 0 -20c19,-22 40,-49 65,-83 37,-50 67,-92 91,-126l-49 0c-24,0 -38,0 -44,1 -5,1 -8,3 -9,5 -2,2 -4,9 -6,21l-3 20z"/>
  <path id="12" class="fil1" d="M6157 1134c1,23 2,36 3,39 4,7 12,14 23,20 10,5 23,8 37,8 18,0 31,-4 40,-11 9,-7 13,-17 13,-29 0,-10 -3,-18 -9,-24 -7,-6 -20,-11 -41,-16 -31,-7 -52,-13 -61,-18 -10,-5 -17,-13 -23,-23 -6,-10 -8,-22 -8,-36 0,-17 4,-32 12,-45 8,-12 20,-23 36,-30 16,-7 36,-11 62,-11 26,0 51,4 74,13 -2,15 -4,38 -5,69l-21 0c-2,-20 -3,-31 -5,-35 -3,-5 -8,-9 -15,-13 -11,-5 -22,-7 -34,-7 -15,0 -27,3 -35,10 -8,7 -13,15 -13,26 0,9 4,17 12,22 7,6 25,12 54,17 19,3 33,7 41,10 12,5 22,13 29,24 6,10 9,23 9,39 0,31 -11,54 -35,70 -24,17 -52,25 -84,25 -11,0 -23,-2 -36,-4 -14,-3 -28,-6 -43,-11l-4 -5c2,-15 3,-40 3,-74l24 0z"/>
  <path id="13" class="fil1" d="M6532 1108l23 0c0,26 1,42 3,47 1,4 7,10 15,18 9,7 21,14 35,18 14,5 29,7 44,7 25,0 46,-6 61,-20 15,-14 23,-31 23,-51 0,-18 -5,-33 -15,-43 -11,-10 -30,-17 -59,-21 -43,-6 -71,-13 -86,-20 -15,-7 -27,-18 -36,-33 -8,-14 -13,-31 -13,-52 0,-34 12,-63 36,-86 24,-24 62,-36 115,-36 21,0 39,2 55,5 16,3 32,8 48,15l3 7c-3,11 -5,21 -7,31 -1,9 -2,25 -3,48l-23 0c-1,-28 -2,-44 -4,-47 -4,-6 -12,-13 -26,-19 -14,-7 -30,-10 -48,-10 -25,0 -44,6 -58,18 -13,12 -20,27 -20,46 0,12 2,22 8,31 6,8 14,15 24,19 10,4 31,8 64,14 30,4 51,9 61,13 18,7 31,18 40,32 9,15 14,33 14,55 0,38 -15,70 -44,96 -29,25 -69,38 -120,38 -23,0 -43,-2 -62,-7 -18,-4 -37,-11 -57,-21 3,-13 5,-24 6,-35 2,-14 3,-33 3,-57z"/>
  <path id="14" class="fil1" d="M6839 1004l36 -24c-1,-32 -2,-60 -3,-84 25,-7 48,-17 70,-27l8 6c-4,26 -7,61 -9,105 9,2 17,3 25,3 19,0 35,-2 50,-4l2 1 -2 10c-3,10 -5,20 -6,28 -21,-1 -37,-2 -47,-2 -7,0 -15,0 -22,1 0,18 0,34 0,48 0,61 2,96 5,104 4,8 13,13 26,13 4,0 8,-1 13,-2 5,-1 9,-2 15,-4l4 11c-11,12 -21,24 -31,37 -7,2 -13,2 -19,3 -5,0 -10,1 -15,1 -15,0 -28,-3 -38,-8 -10,-5 -18,-12 -22,-21 -5,-8 -7,-20 -7,-37 0,-8 0,-31 1,-68 1,-32 2,-58 2,-77l-14 0c-6,0 -13,0 -22,1l0 -14z"/>
  <path id="15" class="fil1" d="M7028 1003l0 -22c29,-2 56,-7 81,-15l27 -10c3,0 4,3 4,7l-1 16c-3,41 -4,82 -4,120 0,25 1,42 4,50 2,8 7,15 13,19 7,5 16,7 27,7 13,0 24,-4 34,-11 10,-7 16,-14 18,-23 2,-8 3,-33 3,-73 0,-31 0,-50 -1,-56 -1,-3 -2,-4 -4,-6 -3,-1 -15,-2 -37,-3l0 -22c37,-4 64,-9 82,-14l29 -11c3,0 4,2 4,6l0 8c-3,31 -5,88 -5,171 0,25 1,41 2,48 1,3 3,5 5,6 3,2 14,3 34,5l0 22c-21,-1 -42,-1 -62,-1 -17,0 -32,0 -46,1l-3 -5c1,-9 2,-23 2,-42 -16,13 -33,28 -48,44 -13,6 -26,9 -38,9 -17,0 -31,-4 -44,-10 -12,-7 -21,-16 -27,-26 -6,-11 -9,-26 -9,-46l1 -29c0,-19 1,-33 1,-45 0,-32 -1,-51 -2,-57 -1,-5 -3,-8 -6,-9 -3,-2 -14,-3 -34,-3zm120 -68l-26 0 62 -61c15,-14 25,-23 30,-26 5,-3 11,-4 16,-4 7,0 13,2 17,6 4,4 6,9 6,15 0,6 -1,10 -5,14 -4,4 -15,10 -33,20l-67 36z"/>
  <path id="16" class="fil1" d="M7578 970l0 -47c0,-29 -1,-46 -2,-50 -1,-4 -3,-6 -5,-8 -3,-1 -15,-2 -37,-2l0 -20c43,-5 79,-13 108,-26l7 6c-1,30 -2,57 -3,83l-2 213c0,36 1,58 2,65 1,5 3,9 6,11 2,2 14,3 33,5l0 22c-22,-1 -44,-1 -65,-1 -15,0 -29,0 -43,1l-4 -3c2,-18 4,-33 5,-44 -13,9 -32,25 -59,47 -10,4 -20,6 -29,6 -30,0 -55,-11 -75,-34 -20,-22 -30,-52 -30,-89 0,-18 2,-34 6,-49 4,-15 9,-26 14,-33 6,-8 17,-17 34,-29 22,-16 39,-26 49,-30 10,-4 22,-6 34,-6 9,0 18,1 27,3 10,2 19,5 29,9zm0 58c-9,-13 -18,-21 -29,-28 -11,-6 -23,-9 -36,-9 -19,0 -33,7 -43,21 -10,13 -15,35 -15,67 0,32 6,56 18,72 12,16 28,24 47,24 13,0 25,-4 36,-11 11,-8 17,-14 19,-21 2,-6 3,-29 3,-70l0 -45z"/>
  <path id="17" class="fil1" d="M7789 828c12,0 22,4 30,12 8,9 12,19 12,30 0,12 -4,22 -12,30 -8,8 -18,13 -30,13 -12,0 -22,-5 -30,-13 -8,-8 -12,-18 -12,-30 0,-11 4,-21 12,-30 8,-8 18,-12 30,-12zm-76 394l0 -22c21,-1 33,-2 36,-4 3,-2 5,-7 6,-15 1,-11 2,-37 2,-76 0,-16 0,-32 -1,-46l0 -32c0,-10 -2,-17 -4,-19 -2,-3 -8,-4 -18,-5l-21 0 0 -22c44,-3 80,-11 108,-23l7 6c-3,34 -4,85 -4,151 0,38 1,61 2,69 1,6 2,9 5,11 2,2 14,3 35,5l0 22c-32,-1 -58,-1 -76,-1 -9,0 -35,0 -77,1z"/>
  <path id="18" class="fil1" d="M7904 1093c0,-43 10,-75 30,-97 24,-25 59,-38 104,-38 46,0 79,10 99,31 21,20 32,53 32,97 0,45 -12,80 -36,105 -24,24 -58,37 -100,37 -42,0 -74,-12 -96,-35 -22,-23 -33,-56 -33,-100zm75 -18c0,48 6,82 19,102 9,16 24,24 43,24 17,0 30,-7 39,-20 9,-13 14,-38 14,-73 0,-49 -6,-82 -17,-101 -10,-15 -24,-22 -44,-22 -16,0 -30,7 -39,20 -10,14 -15,37 -15,70zm18 -140l-26 0 62 -61c15,-14 25,-23 30,-26 6,-3 11,-4 16,-4 7,0 13,2 17,6 4,4 6,9 6,15 0,6 -1,10 -5,14 -3,4 -14,10 -33,20l-67 36z"/>
 </g>
</svg>
