<?xml version="1.0" encoding="UTF-8"?>
<!DOCTYPE svg PUBLIC "-//W3C//DTD SVG 1.1//EN" "http://www.w3.org/Graphics/SVG/1.1/DTD/svg11.dtd">
<!-- Creator: CorelDRAW X7 -->
<svg xmlns="http://www.w3.org/2000/svg" xml:space="preserve" width="84.6666mm" height="21.1666mm" version="1.1" style="shape-rendering:geometricPrecision; text-rendering:geometricPrecision; image-rendering:optimizeQuality; fill-rule:evenodd; clip-rule:evenodd"
viewBox="0 0 8467 2117"
 xmlns:xlink="http://www.w3.org/1999/xlink">
 <defs>
  <style type="text/css">
   <![CDATA[
    .fil0 {fill:#A74B16}
    .fil1 {fill:#A74B16;fill-rule:nonzero}
    .fil2 {fill:#F7E9B5;fill-rule:nonzero}
   ]]>
  </style>
 </defs>
 <g id="Layer_x0020_1">
  <metadata id="CorelCorpID_0Corel-Layer"/>
  <g id="_2251345139760">
   <path class="fil0" d="M1489 813c-4,23 6,44 7,66l0 0c15,16 22,38 41,51 81,-59 273,-48 313,60 21,-15 38,-37 55,-59 -36,-55 -87,-109 -173,-120 -24,-3 -47,-3 -70,-1 18,-14 35,-31 49,-49 54,-69 52,-143 39,-208 -28,-3 -56,-7 -82,-2 48,105 -80,247 -179,262zm-15 -120c-8,-6 -15,-13 -22,-19 -7,-7 -13,-15 -20,-23 -67,12 -130,9 -192,-3 -5,24 -7,50 -11,74 52,12 105,18 160,14 -4,55 2,108 13,160 25,-3 50,-6 75,-11 -12,-61 -15,-125 -3,-192zm-100 150c-5,-3 -37,8 -46,9 -19,3 -38,3 -58,3 0,-20 0,-39 3,-58 1,-9 12,-41 9,-46 -6,-8 -65,-3 -73,-12 -16,60 -21,123 -13,189 66,9 129,4 190,-12 -9,-8 -4,-67 -12,-73zm6 -23c-6,-17 -12,-35 -21,-54 -19,-8 -37,-15 -54,-21 -7,25 -13,51 -12,78 3,1 5,1 7,2 1,2 1,4 2,7 27,1 53,-5 78,-12zm67 -335c-29,18 -51,36 -63,57 27,45 55,83 84,116 33,29 71,57 115,84 21,-12 40,-34 57,-63l-6 -4c-38,-19 -75,-46 -108,-75 -30,-34 -56,-71 -75,-109l-4 -6zm234 -40c3,-142 -67,-304 -179,-429l-166 399c19,-16 47,-37 70,-46 -15,-52 -16,-180 71,-173 32,2 56,27 80,69 53,94 54,219 9,295 76,-45 201,-43 295,10 42,24 67,48 69,80 6,87 -122,86 -173,71 -10,22 -31,51 -47,70 25,2 60,7 83,16 25,-47 116,-137 172,-72 21,25 21,60 8,106 -29,104 -117,193 -202,215 85,22 172,111 201,215 13,47 13,81 -8,106 -57,65 -147,-26 -172,-73 -23,10 -58,15 -83,17l399 166c-8,-168 -73,-332 -175,-431 103,-98 168,-262 176,-430 -124,-113 -286,-184 -428,-181zm-369 498c-49,13 -115,37 -168,80 0,1 0,1 0,1 0,0 0,0 0,0 0,0 0,0 0,1 69,-7 132,-37 176,-63 -2,-2 -5,-5 -7,-8l-120 50 120 -50c0,-3 -1,-7 -1,-11zm-308 -47l-35 -85c-3,1 -7,1 -11,1 13,49 37,115 80,168 0,1 1,1 1,1 0,0 0,0 0,0l0 0c0,-1 0,-1 0,-1 -6,-69 -36,-132 -62,-176 -2,3 -5,5 -8,7l35 85zm159 -92c-27,44 -56,107 -63,176 0,0 0,1 0,1 0,0 0,0 0,0l0 0c1,0 1,0 1,0 44,-54 68,-119 81,-169 -4,0 -8,0 -11,0l-47 112 47 -112c-3,-3 -6,-5 -8,-8zm-222 -417l-7 -2c-8,33 -11,62 -4,85 50,13 96,20 140,22 44,-2 91,-9 141,-22 7,-23 5,-52 -3,-84l-8 1c-40,13 -85,21 -129,23 -45,-2 -90,-10 -130,-23zm254 201c14,18 35,26 52,41 22,1 42,11 65,7 15,-99 159,-227 263,-178 6,-26 2,-54 -2,-82 -64,-13 -139,-15 -207,38 -19,15 -36,31 -50,49 2,-23 2,-46 -1,-70 -10,-86 -64,-138 -119,-174 -22,17 -45,34 -59,56 108,40 118,232 58,313zm-250 145c31,54 72,102 125,143 53,-41 94,-89 125,-143 -12,1 -50,-44 -60,-43 -6,1 -20,32 -26,39 -12,15 -25,29 -39,43 -14,-14 -27,-28 -39,-43 -6,-8 -20,-38 -26,-39 -10,-2 -48,43 -60,43zm-123 -401c-47,-26 -138,-116 -72,-173 25,-21 59,-20 106,-7 104,29 192,116 215,202 22,-86 111,-173 215,-202 47,-13 81,-13 106,8 65,57 -26,147 -73,173 10,22 14,57 17,82l166 -399c-169,8 -333,73 -431,175 -98,-102 -262,-167 -430,-176l165 400c2,-25 7,-61 16,-83zm248 183c-9,0 -19,-1 -29,-2 -39,56 -86,98 -139,133 14,21 30,41 45,61 45,-29 87,-62 123,-104 36,42 78,76 123,104 15,-20 31,-39 45,-60 -52,-35 -100,-78 -138,-134 -10,1 -20,2 -30,2zm-53 154c13,23 27,46 47,64 2,-1 4,-3 6,-4 2,1 4,3 6,4 20,-18 34,-41 47,-64 -16,-8 -34,-16 -53,-24 -19,8 -37,16 -53,24zm-190 274c0,3 0,7 0,11l169 70c0,0 -1,-1 -1,-1 -53,-44 -119,-68 -168,-80zm-444 -225c-51,16 -179,16 -173,-71 3,-32 28,-56 70,-80 94,-53 218,-53 295,-9 -45,-76 -44,-201 10,-295 23,-42 48,-66 80,-69 86,-6 86,122 70,174 23,9 51,30 71,47l-165 -400c-113,125 -184,286 -181,428 -142,-3 -304,67 -429,180l399 166c-16,-20 -37,-48 -47,-71zm117 -41c17,29 36,51 57,63 44,-26 83,-54 115,-84 30,-32 58,-70 85,-115 -12,-21 -34,-39 -63,-57l-4 6c-20,38 -46,75 -76,108 -33,30 -70,56 -108,75l-6 4zm254 238c60,17 123,22 189,13 9,-66 4,-129 -12,-190 -8,9 -67,4 -73,13 -3,4 8,36 9,46 2,18 3,38 3,57 -20,1 -39,0 -58,-2 -9,-2 -41,-13 -46,-10 -8,6 -4,65 -12,73zm-65 -242c-8,6 -15,13 -23,19 12,67 9,130 -4,192 25,5 50,7 75,11 12,-52 18,-105 14,-160 55,4 108,-2 160,-13 -4,-25 -6,-50 -11,-75 -62,12 -125,16 -192,3 -6,8 -13,15 -19,23zm149 158c1,-2 1,-5 2,-7 2,-1 4,-1 7,-1 1,-27 -5,-53 -12,-79 -17,6 -35,13 -54,21 -9,19 -15,37 -21,54 25,7 51,13 78,12zm-10 -195c23,3 44,-6 66,-8l0 0 0 0c16,-14 37,-22 51,-41 -59,-81 -48,-272 60,-312 -15,-22 -37,-39 -59,-56 -55,36 -109,87 -120,173 -3,24 -3,47 -1,70l6 15 -6 -15c-14,-18 -31,-34 -50,-49 -68,-54 -142,-52 -207,-38 -4,27 -7,55 -2,81 104,-48 247,80 262,180zm167 388c0,0 0,0 1,0l-169 -70c-3,2 -5,5 -8,8 44,26 107,55 176,62zm-467 0c1,10 2,20 2,30 0,10 -1,20 -2,30 56,38 98,86 133,138 21,-14 40,-30 61,-45 -29,-45 -62,-87 -104,-123 42,-36 75,-78 104,-123 -20,-14 -40,-31 -60,-45 -36,53 -78,100 -134,138zm132 30c8,19 16,37 24,53 23,-13 45,-27 64,-47 -2,-2 -3,-4 -4,-6 1,-2 2,-4 4,-6 -18,-20 -41,-34 -64,-47 -8,16 -16,34 -24,53zm-175 141c12,-50 20,-97 22,-141 -2,-44 -9,-91 -22,-141 -23,-6 -52,-4 -85,4l2 7c13,40 21,85 23,130 -3,44 -11,89 -24,129l-1 8c33,8 62,10 85,4zm118 -266c18,-14 26,-35 41,-52l0 0c1,-21 10,-42 7,-65 -99,-15 -227,-158 -179,-263 -26,-5 -53,-2 -81,2 -14,65 -16,139 38,208 14,18 31,35 49,49 -23,-2 -47,-2 -70,1 -86,10 -138,64 -174,120 17,22 34,44 56,59 40,-108 232,-119 313,-59zm-256 373c-26,47 -116,138 -173,72 -21,-24 -21,-59 -8,-105 29,-104 117,-193 202,-215 -85,-23 -172,-112 -201,-216 -13,-46 -13,-81 8,-105 57,-66 147,25 172,72 23,-9 58,-14 83,-16l-399 -166c8,168 73,332 175,430 -103,98 -168,262 -176,431l399 -165c-25,-2 -60,-8 -82,-17zm358 -313c1,6 31,20 39,26 15,12 29,25 42,39 -13,14 -27,28 -42,39 -8,6 -38,21 -39,26 -2,10 43,49 42,60 55,-31 103,-72 143,-125 -40,-52 -88,-94 -142,-125 0,12 -45,50 -43,60zm-55 307c4,-23 -6,-43 -7,-65l0 0c-14,-17 -22,-38 -41,-52 -81,59 -273,49 -312,-60 -22,15 -39,37 -56,59 36,56 87,110 173,120 24,3 47,3 70,1 -18,15 -35,31 -49,50 -54,68 -52,143 -38,207 27,4 55,8 81,3 -48,-105 80,-248 179,-263zm83 445c16,51 16,179 -71,173 -32,-3 -56,-27 -80,-69 -53,-94 -54,-219 -9,-295 -76,44 -201,43 -295,-10 -42,-24 -67,-48 -69,-80 -6,-87 122,-87 173,-71 10,-23 31,-51 47,-70l-399 165c124,113 286,183 428,180 -3,142 67,304 179,429l167 -399c-20,16 -48,38 -71,47zm-41 -117c29,-17 51,-36 63,-57 -26,-44 -55,-82 -84,-115 -33,-30 -71,-58 -115,-84 -21,11 -40,34 -57,62l6 5c38,19 75,45 108,75 30,33 56,70 75,108l4 6zm135 -458c49,-12 115,-36 168,-80 0,0 0,0 1,-1l0 0c-1,0 -1,0 -1,0 -69,7 -132,36 -176,62 2,3 5,5 7,8l120 -49 -120 49c1,4 1,7 1,11zm-74 27c9,8 4,67 13,73 4,3 36,-8 45,-9 19,-2 39,-3 58,-2 0,19 0,39 -3,57 -1,10 -12,41 -9,46 6,8 65,4 73,13 16,-61 21,-124 13,-190 -66,-9 -129,-4 -190,12zm6 96c6,17 12,36 21,55 19,8 37,15 54,20 7,-25 13,-51 12,-78 -2,0 -5,-1 -7,-1 -1,-3 -1,-5 -1,-7 -28,-2 -53,4 -79,11zm-72 147c7,7 13,14 20,22 67,-12 130,-9 192,4 5,-25 7,-50 11,-75 -52,-11 -105,-17 -160,-13 4,-56 -2,-109 -13,-161 -25,4 -50,6 -75,11 12,62 15,125 3,192 8,7 15,13 22,20zm382 158c9,1 19,2 30,3 38,-56 85,-99 138,-134 -14,-21 -30,-40 -45,-61 -45,29 -87,63 -123,104 -36,-41 -78,-75 -123,-104 -15,20 -31,40 -45,61 52,35 100,77 138,134 10,-2 20,-2 30,-3zm129 129l7 1c9,-32 11,-61 4,-85 -50,-12 -96,-19 -140,-22 -44,3 -91,10 -141,22 -7,23 -4,52 4,85l7 -2c40,-12 85,-20 130,-23 44,3 89,11 129,24zm-254 -201c-14,-19 -35,-27 -52,-41 -22,-2 -42,-11 -65,-8 -15,99 -159,227 -263,179 -5,26 -2,53 2,81 65,14 139,16 207,-37 19,-15 36,-32 50,-49 -2,22 -2,46 1,70 10,86 64,137 119,173 23,-17 45,-34 60,-56 -109,-40 -119,-232 -59,-312zm250 -145c-31,-55 -72,-103 -125,-143 -53,40 -94,88 -125,143 12,-1 50,44 60,42 6,-1 20,-31 26,-39 12,-14 25,-29 39,-42 14,13 27,28 39,42 6,8 20,38 26,39 10,2 48,-43 60,-42zm-72 63c-13,-23 -27,-45 -47,-64 -2,2 -4,3 -6,5 -2,-2 -4,-3 -6,-5 -20,19 -34,41 -47,64 16,8 34,16 53,24 19,-8 37,-16 53,-24zm195 338c47,25 138,116 72,172 -25,21 -59,21 -106,8 -103,-29 -192,-117 -215,-202 -22,85 -111,173 -215,201 -47,13 -81,13 -106,-8 -65,-57 26,-147 73,-172 -9,-23 -14,-58 -16,-83l-167 399c169,-8 333,-72 431,-175 98,103 262,168 430,177l-164 -400c-3,25 -8,60 -17,83zm-341 -473c27,-44 56,-107 63,-176 0,0 0,0 0,0l0 0c0,0 -1,0 -1,0 -44,53 -68,119 -81,168 4,0 8,0 11,1l47 -113 -47 113c3,2 6,5 8,7zm159 -92l35 85c4,0 7,0 11,0 -13,-50 -36,-115 -80,-169 0,0 -1,0 -1,0 0,0 0,0 0,0l0 0c0,0 0,0 0,1 7,68 36,132 62,176 2,-3 5,-6 8,-8l-35 -85zm621 178c51,-15 179,-15 173,71 -3,32 -28,57 -70,80 -94,53 -218,54 -294,9 44,77 43,201 -11,295 -23,42 -47,67 -80,69 -86,6 -86,-122 -70,-173 -23,-9 -51,-31 -70,-47l164 400c113,-125 184,-287 181,-429 142,3 304,-66 429,-179l-399 -166c16,19 37,48 47,70zm-455 -113c0,3 -1,5 -1,7 -3,1 -5,1 -8,2 -1,27 5,53 12,78 17,-5 35,-12 55,-20 8,-19 15,-38 20,-55 -25,-7 -51,-13 -78,-12zm85 -84c-61,-16 -124,-21 -190,-12 -9,65 -4,128 12,189 8,-9 67,-4 73,-12 3,-5 -8,-37 -9,-46 -2,-19 -3,-38 -3,-58 20,0 39,1 58,3 10,1 41,12 46,9 8,-6 4,-65 13,-73zm-75 280c-23,-4 -44,6 -66,7l0 0 0 0c-16,15 -37,23 -51,41 59,81 48,273 -60,313 15,22 37,39 59,56 56,-36 109,-88 120,-174 3,-23 3,-47 1,-69 14,17 31,34 50,49 68,53 142,51 207,38 4,-28 8,-56 3,-81 -105,48 -248,-81 -263,-180zm139 -37c8,-7 15,-13 23,-20 -12,-66 -9,-130 4,-192 -25,-4 -50,-7 -75,-11 -11,52 -17,105 -14,161 -55,-4 -108,1 -160,13 4,24 6,50 11,74 62,-12 125,-15 192,-2 6,-8 13,-16 19,-23zm-138 -270c0,-4 0,-8 1,-11l-170 -71c1,1 1,1 1,1 53,44 119,68 168,81zm327 265c-17,-29 -36,-51 -57,-63 -44,27 -82,55 -115,84 -30,33 -58,71 -84,115 11,21 33,40 62,58l4 -7c20,-37 46,-75 76,-108 33,-29 70,-55 108,-75l6 -4zm266 -251c-17,-22 -34,-44 -56,-59 -40,108 -232,118 -312,59 -19,13 -27,34 -41,51l0 0c-2,22 -11,42 -8,65 99,16 227,159 179,264 26,5 53,1 81,-3 14,-64 16,-139 -38,-207 -14,-19 -31,-36 -48,-50 22,2 46,2 69,0 87,-11 138,-65 174,-120zm-294 -96c-1,-10 -1,-20 -2,-29 1,-10 1,-20 2,-30 -56,-39 -98,-86 -133,-139 -21,15 -40,31 -61,45 29,45 62,87 104,123 -42,37 -75,78 -104,123 20,15 40,31 61,45 35,-52 77,-99 133,-138zm-177 35c-1,-5 -31,-20 -39,-26 -15,-11 -29,-25 -42,-39 13,-14 28,-27 42,-39 8,-6 38,-20 39,-26 2,-10 -43,-48 -42,-60 -55,31 -103,72 -143,125 40,53 88,94 142,125 0,-11 45,-50 43,-60zm220 -205c-12,50 -19,97 -22,141 2,44 9,90 22,140 23,7 52,5 85,-3l-2 -8c-13,-40 -20,-85 -23,-129 3,-45 11,-90 24,-130l1 -7c-33,-8 -62,-11 -85,-4zm-510 170c0,0 0,0 -1,0l170 71c2,-3 4,-6 7,-8 -44,-26 -107,-56 -176,-63zm335 -30c-8,-19 -16,-37 -24,-53 -23,13 -45,27 -64,47 2,2 3,4 4,6 -1,2 -2,4 -4,6 19,20 41,34 64,47 8,-15 16,-33 24,-53z"/>
   <g>
    <path class="fil1" d="M1987 697l54 -178 109 33 -53 178 -64 40 -46 -73zm110 33c-9,30 -41,47 -72,38 -30,-9 -47,-41 -38,-71l110 33zm-72 -76l26 4 -18 112 -25 -4 -47 -71 64 -41zm-17 112c-31,-5 -53,-34 -48,-65 5,-31 34,-52 65,-47l-17 112zm67 -55l-3 13 -111 -29 4 -13 0 0 110 29zm-108 -43l115 0 0 0 0 1 0 2 0 1 0 2 0 1 0 1 -1 2 0 1 0 2 0 1 0 2 0 1 0 1 -1 1 0 2 0 1 0 1 -1 2 0 1 0 2 0 1 -1 1 0 1 0 2 0 1 -1 1 0 2 0 1 -1 1 0 1 0 2 -1 1 -110 -29 0 -1 0 0 0 -1 1 -1 0 -1 0 -1 0 0 0 -1 0 -1 0 0 1 -1 0 0 0 -1 0 0 0 -1 0 0 0 0 0 -1 0 0 0 -1 0 0 0 -1 0 0 0 0 0 0 0 0 0 0 0 -1 0 0 0 0 0 0 0 0 0 0zm1 21l0 -113 0 0 5 0 4 0 5 0 5 1 4 0 5 1 4 0 5 1 4 1 5 1 4 2 5 1 4 2 5 2 5 3 4 2 4 3 5 4 4 3 4 4 4 5 3 4 4 5 3 5 2 5 2 5 2 6 2 5 1 5 0 6 1 5 0 5 -115 0 0 1 1 1 0 1 0 1 0 2 1 1 1 2 1 2 1 2 1 2 1 1 1 2 2 1 1 1 1 1 1 1 1 0 1 0 0 1 0 0 0 0 0 0 0 0 -1 -1 -1 0 -1 0 -1 0 -2 0 -1 0 -2 0 -3 -1 -2 0 0 0zm-98 57l-86 -76 0 0 5 -5 5 -5 5 -5 5 -5 5 -5 5 -5 5 -4 6 -5 5 -4 5 -4 6 -4 5 -4 6 -4 5 -3 6 -3 6 -4 6 -3 6 -2 5 -3 6 -3 7 -2 6 -2 6 -2 6 -2 6 -1 7 -1 6 -2 6 -1 7 0 6 -1 7 0 6 0 0 113 -3 0 -2 1 -3 0 -3 0 -3 1 -2 0 -3 1 -3 0 -3 1 -3 1 -2 1 -3 1 -3 1 -3 2 -3 1 -3 2 -3 1 -3 2 -3 2 -4 2 -3 2 -3 3 -3 2 -4 3 -3 3 -3 3 -4 3 -3 3 -4 3 -3 4 -4 4 -3 4 0 0zm-92 177l-109 -32 -1 0 3 -8 3 -9 2 -8 3 -8 3 -8 2 -7 3 -8 3 -8 3 -7 4 -8 3 -7 3 -8 3 -7 4 -7 3 -7 4 -7 3 -7 4 -7 4 -6 4 -7 4 -6 4 -7 4 -6 4 -6 4 -6 5 -7 4 -5 5 -6 4 -6 5 -6 4 -5 5 -6 86 76 -4 4 -3 4 -4 4 -3 4 -3 5 -4 4 -3 5 -3 4 -3 5 -4 5 -3 5 -3 5 -3 5 -3 5 -3 6 -3 5 -2 6 -3 6 -3 5 -3 6 -2 6 -3 6 -3 6 -2 7 -3 6 -2 7 -3 6 -2 7 -2 7 -2 7 -3 7 -2 7 0 0zm-51 236l-112 -21 0 0 2 -10 2 -11 2 -10 1 -10 2 -10 2 -9 2 -10 2 -9 2 -9 1 -9 2 -9 2 -9 2 -8 1 -8 2 -8 2 -8 1 -8 2 -7 2 -7 1 -7 2 -7 1 -7 2 -7 2 -6 1 -6 2 -6 1 -6 2 -5 1 -6 2 -5 1 -5 2 -5 109 32 -1 4 -1 4 -2 5 -1 5 -1 5 -2 5 -1 5 -1 6 -2 6 -1 6 -2 6 -1 7 -2 7 -1 6 -2 8 -1 7 -2 7 -2 8 -1 8 -2 8 -2 8 -1 9 -2 9 -2 8 -2 10 -1 9 -2 9 -2 10 -2 10 -2 10 -2 10 -2 11 0 0zm-30 204l-114 0 0 0 0 -4 0 -4 0 -5 0 -4 0 -4 1 -5 0 -5 1 -5 0 -5 1 -6 1 -5 0 -6 1 -6 1 -6 1 -7 1 -7 1 -7 1 -7 1 -7 1 -8 2 -8 1 -8 1 -9 2 -8 1 -9 2 -10 2 -9 1 -10 2 -9 2 -11 2 -10 2 -11 112 21 -2 10 -1 10 -2 10 -2 10 -2 10 -1 9 -2 9 -1 8 -2 9 -1 8 -1 8 -2 8 -1 7 -1 7 -1 7 -1 7 -1 6 -1 6 0 6 -1 5 -1 6 0 5 -1 4 0 5 -1 4 0 4 -1 3 0 4 0 2 0 3 0 2 0 2 0 0zm-26 -23l0 114 0 0 -4 0 -4 0 -4 -1 -5 0 -4 -1 -4 -1 -4 -1 -5 -2 -4 -2 -4 -1 -5 -3 -4 -2 -4 -3 -4 -4 -4 -3 -3 -3 -3 -4 -3 -4 -3 -4 -2 -4 -2 -5 -2 -4 -2 -4 -1 -4 -1 -4 -1 -4 -1 -4 -1 -4 0 -4 0 -4 0 -4 0 -3 114 0 0 0 0 0 0 1 0 0 0 -1 0 0 0 -1 -1 -1 0 0 0 -2 -1 -1 -1 -1 0 -2 -1 -1 -2 -2 -1 -1 -1 -2 -2 -1 -1 -2 -2 -1 -2 -1 -2 -1 -1 0 -2 -1 -1 -1 -1 0 -1 0 -1 0 -1 0 -1 -1 0 0 0 0 0 0zm112 10l-99 57 74 23 -3 1 -3 1 -3 1 -2 2 -3 1 -3 1 -3 1 -2 1 -3 1 -3 1 -3 1 -2 1 -3 1 -3 1 -2 1 -3 1 -2 0 -3 1 -3 1 -2 1 -3 0 -3 1 -2 0 -3 1 -2 0 -3 1 -3 0 -3 0 -3 1 -2 0 -3 0 -3 0 0 -114 0 0 0 0 0 0 0 0 0 0 0 0 1 0 1 0 0 0 1 0 1 0 1 -1 1 0 1 0 1 0 2 -1 1 0 1 -1 2 0 2 -1 1 0 2 -1 2 -1 1 0 2 -1 2 -1 2 -1 2 -1 2 0 2 -1 2 -1 3 -1 73 23zm-73 -23c28,-14 62,-1 76,27 13,29 1,62 -28,76l-48 -103zm-13 101l-13 -21 99 -57 13 21 -28 81 -71 -24zm99 -57c15,27 6,61 -21,77 -27,16 -62,7 -78,-20l99 -57zm-134 122l-41 -106 0 0 5 -2 4 -2 5 -2 4 -1 4 -2 4 -1 4 -2 4 -1 4 -2 4 -1 4 -2 3 -1 4 -2 3 -1 4 -1 3 -2 3 -1 4 -1 2 -1 3 -1 3 -1 3 -2 3 -1 2 -1 3 -1 2 -1 2 0 3 -1 2 -1 2 -1 2 -1 2 -1 43 106 -2 0 -2 1 -3 1 -2 1 -2 1 -2 1 -3 1 -3 1 -2 1 -3 1 -3 1 -3 1 -3 2 -3 1 -3 1 -3 1 -4 2 -3 1 -3 1 -4 2 -4 1 -4 2 -4 1 -3 2 -4 1 -5 2 -4 1 -4 2 -5 2 -4 1 -5 2 -4 2 0 0zm-179 -12l115 0 -81 -52 3 -1 3 -2 3 -1 3 -1 3 -1 3 -2 3 -1 3 -1 3 -2 3 -1 3 -1 3 -1 3 -2 3 -1 3 -1 4 -2 3 -1 3 -1 4 -2 3 -1 3 -1 4 -2 3 -1 4 -1 3 -2 4 -1 3 -2 4 -1 3 -1 4 -2 3 -1 4 -1 41 106 -4 1 -3 1 -4 2 -3 1 -4 1 -3 2 -3 1 -4 1 -3 1 -3 2 -3 1 -3 1 -3 2 -4 1 -3 1 -3 1 -3 2 -3 1 -3 1 -3 1 -3 2 -3 1 -2 1 -3 1 -3 1 -3 2 -3 1 -2 1 -3 1 -3 1 -3 1 -2 2 -81 -52zm81 52c-29,12 -63,0 -76,-29 -13,-29 0,-62 29,-75l47 104zm-51 -287l113 19 0 0 -2 10 -2 10 -1 10 -2 9 -1 10 -2 9 -1 8 -2 9 -1 8 -1 9 -1 8 -2 7 -1 8 -1 7 -1 7 -1 7 0 7 -1 7 -1 6 -1 6 0 6 -1 5 0 6 -1 5 0 5 0 4 -1 5 0 4 0 4 0 3 0 4 0 3 -115 0 0 -5 0 -5 1 -5 0 -5 0 -5 0 -5 1 -6 0 -6 1 -6 0 -6 1 -6 1 -6 0 -7 1 -7 1 -7 1 -7 1 -7 1 -8 1 -8 1 -8 1 -8 2 -8 1 -9 1 -8 2 -9 1 -10 2 -9 1 -9 2 -10 2 -10 1 -10 2 -10 0 0zm168 -276l-89 -71 100 49 -2 10 -3 9 -2 10 -2 10 -2 10 -3 9 -2 10 -2 10 -2 10 -3 9 -2 10 -2 10 -2 10 -2 10 -2 10 -2 10 -2 10 -2 9 -2 10 -2 10 -2 10 -2 10 -2 10 -2 10 -2 10 -2 11 -2 10 -2 10 -2 10 -2 10 -1 10 -2 10 -113 -19 2 -11 2 -10 2 -10 2 -11 1 -10 2 -10 2 -11 2 -10 2 -10 2 -10 2 -11 2 -10 2 -10 2 -10 3 -10 2 -10 2 -11 2 -10 2 -10 2 -10 2 -10 3 -10 2 -10 2 -10 2 -10 3 -10 2 -10 2 -10 3 -10 2 -10 2 -10 3 -10 100 49zm-100 -49c7,-30 38,-49 69,-41 31,7 49,38 42,68l-111 -27zm-14 9l25 -31 89 71 -24 31 -90 -71 0 0zm-3 186l-89 -72 0 0 4 -4 4 -5 3 -5 4 -4 4 -5 3 -4 4 -4 3 -5 3 -4 4 -4 3 -4 3 -4 3 -4 3 -3 3 -4 3 -4 3 -3 3 -4 3 -3 2 -3 3 -4 2 -3 3 -3 2 -3 3 -3 2 -3 2 -2 2 -3 2 -3 2 -2 2 -3 2 -2 90 70 -2 3 -2 2 -2 3 -2 2 -2 3 -3 3 -2 3 -2 3 -3 3 -2 3 -3 3 -2 3 -3 4 -3 3 -3 4 -2 3 -3 4 -3 4 -3 4 -4 3 -3 4 -3 4 -3 4 -4 5 -3 4 -4 4 -3 5 -4 4 -4 5 -3 4 -4 5 -4 5 0 0zm-238 112l149 -184 89 72 -148 183 -1 0 -89 -71zm90 71c-20,24 -56,28 -81,9 -25,-20 -28,-56 -9,-80l90 71zm-241 114l152 -185 88 71 -151 185 -89 -70 0 -1zm89 71c-20,25 -56,28 -80,9 -25,-20 -29,-56 -9,-80l89 71zm-104 -52l15 -18 90 69 -15 19 -79 11 -11 -81zm90 70c-20,25 -56,29 -80,10 -25,-19 -30,-55 -10,-80l90 70zm-29 -93l17 12 -67 92 -17 -12 -17 -72 84 -20zm-67 92c-25,-18 -31,-54 -13,-79 19,-26 55,-31 80,-13l-67 92zm0 -137l115 0 0 0 0 4 0 4 -1 3 0 4 0 4 0 3 -1 4 0 4 -1 4 0 3 -1 4 -1 4 0 4 -1 3 -1 4 -1 4 -1 3 -1 4 -1 4 -1 3 -2 4 -1 4 -1 3 -1 4 -2 3 -1 4 -2 3 -1 4 -2 3 -2 4 -2 4 -1 3 -102 -52 1 -2 1 -2 1 -2 1 -3 1 -2 1 -2 1 -2 1 -2 1 -2 0 -2 1 -3 1 -2 0 -2 1 -2 1 -2 0 -2 1 -2 0 -2 1 -2 0 -2 0 -2 1 -2 0 -2 0 -2 1 -2 0 -1 0 -2 0 -2 0 -2 0 -2 0 -2 0 -2 0 0zm-34 -218l112 -25 0 0 2 10 2 9 2 10 2 9 2 9 2 10 2 8 2 9 1 9 2 8 2 9 1 8 1 8 2 8 1 8 1 7 1 8 1 7 1 7 1 7 1 7 1 7 1 7 0 6 1 7 0 6 1 6 0 6 0 6 1 6 0 5 0 6 -115 0 0 -4 0 -4 0 -5 0 -4 0 -5 -1 -5 0 -5 -1 -5 0 -6 -1 -6 -1 -5 0 -7 -1 -6 -1 -6 -1 -7 -1 -7 -1 -7 -1 -7 -1 -7 -2 -8 -1 -7 -1 -8 -2 -8 -2 -8 -1 -8 -2 -9 -2 -8 -2 -9 -1 -9 -2 -9 -3 -10 -2 -9 0 0zm91 -117l21 92 -112 25 -21 -91 107 -38 5 12zm-14 32l-91 -68 102 23 0 1 0 1 0 0 0 1 0 1 0 0 1 1 0 0 0 1 0 0 0 1 0 0 0 0 0 1 0 1 0 0 1 0 0 0 0 1 0 -1 0 0 0 1 0 0 -1 -1 0 0 1 1 0 -1 -1 -1 -1 -3 0 1 0 -1 -2 -4 -102 50 -2 -4 -1 -1 0 0 -1 -3 0 -1 0 -1 0 0 0 0 -1 -2 0 -1 0 0 0 0 -1 -2 0 0 0 -1 0 0 0 -1 0 -1 0 0 -1 -1 0 0 0 -1 0 -1 0 -1 0 0 0 -1 -1 -1 0 -1 0 -1 0 0 0 -1 -1 -1 102 22zm-102 -22c-6,-31 14,-61 45,-67 31,-7 61,13 68,44l-113 23zm-248 367l-63 -95 0 0 10 -7 10 -7 10 -7 11 -7 10 -8 10 -8 10 -8 10 -8 10 -9 11 -8 10 -9 10 -9 10 -9 10 -10 10 -9 10 -10 10 -10 10 -11 10 -10 10 -11 10 -10 10 -11 10 -12 10 -11 10 -12 10 -11 10 -12 10 -13 10 -12 10 -13 10 -13 10 -13 91 68 -10 14 -11 14 -10 13 -11 13 -10 13 -11 13 -10 13 -11 12 -11 12 -10 12 -11 12 -11 12 -11 11 -10 11 -11 11 -11 11 -11 11 -11 10 -11 11 -11 10 -11 10 -11 9 -12 10 -11 9 -11 9 -11 9 -12 9 -11 9 -11 8 -12 8 -11 8 -12 8 0 0zm-370 124l0 -113 0 0 9 0 9 -1 9 0 10 -1 9 -1 9 -1 9 -1 9 -2 10 -1 9 -2 9 -2 10 -3 9 -2 10 -3 9 -3 10 -3 9 -3 10 -4 10 -4 9 -4 10 -4 10 -4 10 -5 9 -5 10 -5 10 -5 10 -6 10 -6 10 -6 11 -6 10 -6 10 -7 63 95 -11 7 -12 7 -11 8 -12 6 -11 7 -12 6 -11 7 -12 5 -11 6 -12 6 -11 5 -12 5 -12 5 -11 4 -12 4 -11 4 -12 4 -11 4 -12 3 -12 3 -11 3 -12 3 -12 2 -11 2 -12 2 -11 2 -12 1 -12 1 -11 1 -12 1 -11 0 -12 0 0 0zm-229 -52l50 -102 0 0 5 2 6 3 5 2 5 2 6 3 5 2 6 2 5 2 5 2 6 1 5 2 6 2 5 1 6 2 5 1 6 1 6 2 5 1 6 1 5 1 6 1 6 1 6 0 5 1 6 1 6 0 6 1 5 0 6 0 6 0 6 1 6 0 0 113 -7 0 -8 0 -7 0 -8 -1 -7 0 -8 -1 -7 0 -7 -1 -8 -1 -7 -1 -7 -1 -8 -1 -7 -1 -7 -2 -7 -1 -8 -2 -7 -2 -7 -1 -7 -2 -7 -2 -7 -2 -7 -3 -7 -2 -7 -2 -7 -3 -7 -2 -7 -3 -7 -3 -7 -3 -7 -3 -6 -3 -7 -3 0 0zm-173 -145l93 -65 1 0 3 4 3 4 3 4 3 4 3 4 3 4 4 4 3 4 3 4 4 3 4 4 3 3 4 4 4 3 4 4 4 3 4 4 4 3 4 3 4 3 5 3 4 4 5 3 4 3 5 3 5 2 5 3 5 3 5 3 5 3 5 2 5 3 -50 102 -7 -3 -6 -4 -7 -3 -6 -4 -7 -3 -6 -4 -6 -4 -7 -4 -6 -4 -6 -4 -6 -4 -5 -4 -6 -4 -6 -5 -5 -4 -6 -5 -5 -4 -6 -5 -5 -5 -5 -5 -5 -5 -5 -5 -5 -5 -5 -5 -4 -5 -5 -5 -5 -6 -4 -5 -4 -6 -5 -5 -4 -6 -4 -6 1 1zm-74 -245l114 0 0 0 0 6 0 7 1 7 0 6 1 6 0 7 1 6 1 6 1 6 1 6 1 6 1 6 1 6 2 6 1 5 2 6 1 5 2 6 2 5 2 6 2 5 2 5 3 5 2 6 3 5 2 5 3 5 3 5 3 4 3 5 3 5 3 5 -93 65 -5 -7 -4 -6 -5 -7 -4 -7 -4 -7 -4 -7 -3 -7 -4 -7 -3 -7 -4 -8 -3 -7 -3 -7 -2 -8 -3 -7 -3 -8 -2 -8 -2 -8 -2 -7 -2 -8 -2 -8 -2 -8 -1 -8 -2 -8 -1 -8 -1 -9 -1 -8 0 -8 -1 -8 -1 -9 0 -8 0 -9 0 -8 0 0zm129 -300l76 84 0 0 -5 5 -6 5 -5 6 -5 5 -5 6 -5 6 -4 5 -5 6 -4 6 -4 6 -4 6 -3 6 -4 6 -3 7 -3 6 -3 7 -3 6 -2 7 -3 7 -2 7 -2 7 -2 8 -1 7 -2 7 -1 8 -1 8 -1 8 -1 8 -1 8 0 9 -1 8 0 9 -114 0 0 -11 0 -11 1 -11 1 -11 1 -11 1 -11 2 -10 2 -11 2 -10 2 -10 3 -10 3 -11 3 -9 3 -10 4 -10 4 -9 4 -10 4 -9 5 -9 5 -9 5 -9 6 -9 5 -9 6 -8 7 -9 6 -8 7 -8 7 -8 7 -7 7 -8 8 -7 8 -7 0 0zm325 -114l0 114 0 0 -10 0 -10 0 -9 1 -10 0 -9 1 -9 1 -9 1 -9 1 -9 2 -9 1 -8 2 -9 2 -8 2 -8 2 -8 3 -7 2 -8 3 -8 3 -7 3 -7 3 -7 4 -7 3 -7 4 -7 4 -6 4 -7 4 -6 4 -7 4 -6 5 -6 5 -6 5 -6 5 -76 -84 8 -7 8 -7 8 -7 9 -6 8 -6 9 -6 9 -6 9 -5 10 -6 9 -5 9 -4 10 -5 10 -4 10 -4 10 -4 10 -4 10 -3 11 -4 10 -3 11 -2 11 -3 11 -2 11 -2 11 -2 11 -2 12 -1 11 -1 12 -1 12 -1 11 0 12 -1 12 0 0 0zm210 44l-49 103 0 0 -4 -2 -5 -2 -4 -2 -5 -2 -4 -1 -5 -2 -4 -2 -5 -1 -5 -2 -5 -1 -4 -2 -5 -1 -5 -1 -5 -2 -5 -1 -5 -1 -5 -1 -5 -1 -5 -1 -5 0 -6 -1 -5 -1 -5 -1 -6 0 -5 -1 -5 0 -6 0 -5 -1 -6 0 -5 0 -6 0 -6 0 0 -114 7 0 7 0 7 1 7 0 7 0 7 1 7 0 7 1 7 1 6 0 7 1 7 1 7 1 6 1 7 2 6 1 7 1 6 2 7 2 6 1 7 2 6 2 7 2 6 2 6 2 6 2 6 2 7 3 6 2 6 3 6 2 6 3 0 0zm228 155l-74 87 1 1 -8 -7 -8 -6 -8 -7 -8 -6 -8 -6 -7 -6 -7 -5 -8 -6 -7 -5 -7 -6 -7 -5 -7 -5 -7 -5 -6 -4 -7 -5 -6 -4 -7 -5 -6 -4 -6 -4 -6 -4 -6 -4 -6 -3 -5 -4 -6 -3 -5 -3 -6 -3 -5 -3 -5 -3 -5 -2 -5 -3 -4 -2 -5 -2 49 -103 6 3 6 3 6 3 6 3 6 4 7 3 6 4 6 3 7 4 6 4 7 4 7 5 7 4 7 5 6 4 7 5 8 5 7 5 7 5 7 5 8 6 7 5 8 6 8 6 7 6 8 6 8 6 8 6 8 7 9 6 8 7 8 7 1 0zm37 28l0 114 0 0 -4 0 -5 -1 -4 0 -4 -1 -4 -1 -4 0 -3 -2 -4 -1 -3 -1 -4 -1 -3 -2 -4 -1 -3 -2 -3 -1 -3 -2 -4 -2 -3 -2 -3 -1 -3 -2 -3 -2 -3 -2 -4 -3 -3 -2 -3 -2 -3 -2 -4 -3 -3 -2 -3 -3 -4 -2 -3 -3 -3 -3 -4 -3 74 -87 3 3 2 2 3 2 2 2 3 2 2 1 2 2 3 2 2 1 2 2 2 1 2 1 2 1 1 1 2 1 1 1 2 1 1 1 1 0 1 1 1 0 1 0 0 1 1 0 0 0 0 0 0 0 -1 0 0 0 -1 -1 -1 0 -2 0 0 0zm143 -11l-95 63 76 18 -5 2 -4 2 -4 3 -5 2 -4 2 -4 2 -4 2 -4 2 -4 2 -4 2 -4 2 -4 2 -3 1 -4 2 -4 1 -4 2 -3 1 -4 2 -3 1 -4 1 -4 1 -3 1 -4 1 -3 1 -4 1 -4 1 -3 0 -4 1 -4 0 -4 1 -4 0 -4 0 0 -114 0 0 0 0 0 0 0 0 1 0 1 0 1 0 1 0 1 -1 1 0 2 -1 2 0 2 -1 2 0 2 -1 2 -1 2 -1 3 -1 2 -1 3 -1 3 -1 3 -2 3 -1 3 -2 3 -1 3 -2 3 -1 4 -2 3 -2 4 -2 4 -2 3 -2 76 18zm-76 -18c28,-16 63,-6 78,21 16,28 6,62 -21,78l-57 -99zm-5 101l-14 -20 95 -63 14 20 -20 81 -75 -18zm95 -63c17,26 10,61 -16,79 -26,17 -62,10 -79,-16l95 -63zm-248 76l173 -94 55 99 -173 94 -66 -8 11 -91zm55 99c-27,15 -62,5 -77,-22 -15,-28 -5,-62 22,-77l55 99zm-6 -107l18 16 -78 83 -17 -16 -1 0 78 -83zm-309 -86l53 -101 0 0 8 4 8 4 8 5 8 4 8 5 8 5 8 5 8 5 8 5 8 5 8 5 8 5 8 6 8 6 8 5 8 6 8 6 8 6 8 6 8 6 8 7 8 6 8 7 8 6 8 7 8 7 8 7 8 7 8 7 8 7 8 7 8 8 -78 83 -7 -7 -8 -7 -7 -7 -8 -6 -7 -7 -8 -6 -7 -7 -7 -6 -8 -6 -7 -6 -7 -6 -8 -5 -7 -6 -7 -6 -7 -5 -8 -5 -7 -6 -7 -5 -7 -5 -7 -5 -8 -4 -7 -5 -7 -5 -7 -4 -7 -5 -7 -4 -7 -4 -7 -4 -7 -4 -7 -4 -7 -4 -7 -3 0 0zm-194 -56l0 -113 0 0 8 0 7 0 7 0 8 1 7 0 8 1 7 1 8 1 8 1 7 2 8 1 7 2 8 1 8 2 7 2 8 2 8 2 7 3 8 2 8 3 8 3 8 3 7 2 8 4 8 3 8 3 8 4 8 3 8 4 8 4 8 4 8 4 -53 101 -7 -4 -7 -3 -7 -4 -6 -3 -7 -3 -7 -3 -6 -2 -7 -3 -6 -3 -7 -2 -6 -3 -6 -2 -7 -2 -6 -2 -6 -2 -6 -1 -6 -2 -6 -2 -6 -1 -6 -1 -6 -2 -5 -1 -6 -1 -6 -1 -5 0 -6 -1 -5 0 -6 -1 -5 0 -5 -1 -6 0 -5 0 0 0zm-165 59l-80 -81 0 0 6 -5 6 -6 6 -5 7 -5 6 -5 7 -5 6 -5 7 -4 7 -4 7 -5 8 -3 7 -4 7 -4 8 -3 7 -3 8 -3 8 -3 8 -2 8 -3 8 -2 8 -2 8 -2 9 -1 8 -2 9 -1 8 -1 9 -1 9 -1 8 -1 9 0 9 0 9 0 0 113 -7 0 -6 0 -7 1 -6 0 -7 1 -6 0 -6 1 -6 1 -6 1 -6 1 -6 2 -5 1 -6 1 -5 2 -5 2 -5 2 -5 1 -5 2 -5 3 -5 2 -4 2 -5 3 -4 2 -5 3 -4 3 -4 2 -4 3 -4 4 -4 3 -4 3 -4 4 -4 3 0 0zm-60 160l-115 0 0 0 1 -9 0 -9 0 -8 1 -9 1 -9 1 -8 1 -9 1 -8 2 -8 1 -8 2 -9 2 -8 3 -8 2 -7 3 -8 3 -8 3 -7 3 -8 3 -7 4 -8 4 -7 4 -7 4 -7 4 -7 5 -6 5 -7 5 -6 5 -7 5 -6 6 -6 5 -6 6 -6 80 81 -4 4 -3 4 -4 4 -3 3 -3 4 -3 4 -3 5 -3 4 -3 4 -2 4 -3 5 -2 4 -2 5 -3 4 -2 5 -2 5 -1 5 -2 5 -2 5 -1 5 -2 6 -1 5 -1 6 -1 5 -1 6 -1 6 -1 6 0 6 -1 6 0 7 0 6 0 7 0 0zm96 210l-74 87 0 0 -8 -8 -8 -7 -8 -7 -8 -8 -7 -7 -7 -8 -7 -8 -6 -8 -7 -9 -6 -8 -5 -9 -6 -9 -5 -9 -5 -9 -5 -9 -4 -9 -5 -10 -3 -9 -4 -10 -3 -10 -4 -10 -2 -10 -3 -10 -2 -10 -2 -11 -2 -10 -1 -11 -1 -11 -1 -10 -1 -11 0 -11 -1 -11 115 0 0 8 0 8 1 8 0 8 1 8 1 8 2 7 1 8 2 7 1 7 2 7 2 7 3 7 2 7 3 6 3 7 3 6 3 6 3 6 4 7 4 5 4 6 4 6 4 6 5 6 5 5 5 6 5 5 5 6 6 5 6 6 6 5 0 0zm265 84l0 113 0 0 -13 0 -12 0 -12 -1 -12 0 -13 -1 -11 -1 -12 -2 -12 -1 -12 -2 -11 -2 -11 -2 -12 -3 -11 -2 -11 -3 -11 -3 -10 -4 -11 -3 -10 -4 -11 -4 -10 -4 -10 -5 -10 -4 -10 -5 -9 -6 -10 -5 -9 -5 -9 -6 -9 -6 -9 -6 -9 -7 -9 -7 -8 -6 74 -87 6 5 6 5 7 5 6 4 7 5 7 4 7 4 7 4 7 4 7 3 8 4 7 3 8 3 8 4 8 2 8 3 8 3 9 2 8 2 9 2 9 2 9 2 9 2 10 1 9 2 10 1 9 1 10 0 11 1 10 0 10 1 11 0 0 0zm290 -95l64 94 -1 0 -10 7 -11 7 -10 6 -11 6 -11 7 -11 5 -11 6 -10 6 -11 5 -11 5 -11 5 -11 4 -11 5 -11 4 -11 4 -11 3 -11 4 -11 3 -12 3 -11 3 -11 3 -11 2 -11 2 -12 2 -11 2 -11 1 -11 2 -12 1 -11 0 -11 1 -12 0 -11 0 0 -113 9 0 9 -1 9 0 9 -1 9 -1 9 -1 9 -1 9 -1 9 -2 9 -1 9 -2 9 -2 9 -3 9 -2 9 -3 9 -3 9 -3 9 -3 9 -3 9 -4 10 -4 9 -4 9 -4 9 -4 9 -5 9 -5 9 -5 9 -5 9 -5 10 -6 9 -6 9 -6 0 1zm278 -251l113 -20 -10 43 -9 13 -10 13 -9 12 -9 13 -10 12 -9 12 -10 12 -9 11 -10 12 -10 11 -9 11 -10 11 -10 11 -10 11 -10 10 -9 10 -10 10 -10 10 -10 9 -10 10 -11 9 -10 9 -10 9 -10 9 -10 8 -11 8 -10 8 -10 8 -11 8 -10 8 -11 7 -10 7 -64 -94 9 -7 9 -6 10 -7 9 -6 9 -7 9 -7 9 -8 9 -7 9 -8 9 -8 10 -8 9 -8 9 -9 9 -8 9 -9 9 -9 9 -10 9 -9 9 -10 9 -9 9 -11 8 -10 9 -10 9 -11 9 -11 9 -11 9 -11 9 -11 8 -12 9 -12 9 -12 9 -12 -10 43zm10 -43c18,-25 54,-31 79,-13 26,18 32,53 14,79l-93 -66zm-24 -90l114 0 0 0 0 3 0 3 0 2 0 3 0 3 1 3 0 3 0 3 0 3 0 3 1 4 0 3 0 3 0 4 1 3 0 3 1 4 0 4 0 3 1 4 0 4 1 4 1 3 0 4 1 4 0 4 1 5 1 4 0 4 1 4 1 4 1 5 -113 20 -1 -4 -1 -5 0 -5 -1 -5 -1 -4 -1 -5 0 -4 -1 -5 -1 -4 0 -5 -1 -4 0 -4 -1 -5 -1 -4 0 -4 -1 -4 0 -4 0 -4 -1 -4 0 -5 0 -3 -1 -4 0 -4 0 -4 -1 -4 0 -4 0 -3 0 -4 0 -4 0 -3 0 -4 0 -4 0 0zm59 -264l104 46 0 1 -3 6 -3 7 -3 7 -3 7 -2 7 -3 6 -2 7 -2 7 -3 7 -2 6 -2 7 -2 7 -2 7 -1 7 -2 6 -2 7 -1 7 -2 7 -1 6 -1 7 -1 7 -1 7 -1 7 -1 7 -1 6 0 7 -1 7 0 7 0 7 -1 7 0 7 0 6 -114 0 0 -8 0 -8 0 -9 1 -8 0 -9 1 -8 1 -8 0 -9 1 -8 2 -9 1 -8 1 -8 2 -9 1 -8 2 -8 2 -8 2 -9 2 -8 2 -8 2 -8 2 -9 3 -8 2 -8 3 -8 3 -8 3 -9 3 -8 3 -8 3 -8 4 -8 3 -8 4 -8 0 0zm162 -152l0 114 0 0 0 0 0 -1 0 0 1 0 -1 0 0 1 0 0 -1 0 -1 1 -1 0 -1 1 -2 2 -2 1 -2 2 -2 2 -2 2 -2 2 -2 3 -3 3 -2 4 -3 3 -3 4 -2 4 -3 5 -3 5 -3 5 -3 5 -3 6 -3 5 -3 6 -3 7 -3 6 -104 -46 3 -8 4 -8 4 -7 4 -8 3 -7 4 -7 4 -7 4 -6 4 -7 4 -6 4 -6 4 -6 5 -5 4 -6 5 -5 4 -5 5 -5 5 -5 5 -4 5 -5 5 -4 6 -4 6 -3 6 -4 6 -3 6 -3 7 -2 7 -2 7 -2 7 -1 7 -1 8 0 0 0zm112 150l-114 0 0 0 0 -4 0 -5 -1 -4 0 -4 0 -4 -1 -3 0 -3 -1 -3 0 -2 -1 -2 0 -2 -1 -2 0 -1 -1 -1 0 -1 0 0 0 0 0 0 0 0 1 1 0 0 1 1 1 0 1 1 1 1 1 0 0 0 1 0 1 0 0 1 0 0 0 0 0 -114 6 0 7 1 6 1 7 1 7 2 6 2 7 3 6 3 6 4 6 4 5 4 5 5 5 5 4 5 4 6 3 5 4 6 2 6 3 6 2 5 2 6 2 6 1 6 2 6 1 7 1 6 0 6 1 7 1 6 0 7 0 6 0 7 0 0zm-37 161l-105 -44 0 0 1 -4 2 -5 2 -4 1 -4 2 -5 1 -4 2 -4 1 -4 2 -4 1 -4 1 -4 1 -4 1 -4 1 -4 1 -3 1 -4 1 -4 1 -3 0 -4 1 -3 1 -4 0 -3 1 -3 0 -4 1 -3 0 -3 0 -3 0 -3 1 -3 0 -3 0 -3 0 -3 114 0 0 5 0 5 0 4 0 5 -1 5 0 5 -1 5 0 5 -1 4 -1 5 0 5 -1 5 -1 5 -1 5 -1 5 -1 5 -2 5 -1 5 -1 5 -2 5 -1 5 -2 5 -1 5 -2 5 -2 6 -2 5 -1 5 -2 5 -2 5 -2 6 -3 5 -2 5 0 1zm-105 165l-112 23 8 -42 4 -7 5 -7 4 -7 4 -7 5 -7 4 -7 4 -7 4 -7 4 -6 4 -7 3 -6 4 -7 4 -6 3 -6 3 -6 4 -6 3 -6 3 -6 3 -6 3 -6 3 -5 3 -6 2 -5 3 -5 2 -5 3 -6 2 -5 2 -4 3 -5 2 -5 2 -5 2 -4 105 44 -2 5 -2 5 -3 6 -2 5 -3 6 -3 6 -2 5 -3 6 -3 6 -3 6 -3 6 -3 6 -4 7 -3 6 -3 6 -4 7 -3 6 -4 7 -4 6 -3 7 -4 7 -4 7 -4 7 -4 7 -5 7 -4 7 -4 7 -5 7 -4 8 -5 7 -5 8 -4 8 7 -42zm-7 42c-17,26 -52,34 -79,18 -27,-17 -35,-52 -18,-79l97 61zm36 78l-110 29 0 0 -2 -6 -1 -5 -1 -5 -2 -6 -1 -5 -1 -5 -1 -4 -2 -5 -1 -5 -1 -4 -1 -5 -1 -4 -1 -4 -1 -4 -1 -4 -1 -4 -1 -4 -1 -4 -1 -4 -1 -3 -1 -4 0 -3 -1 -3 -1 -4 -1 -3 0 -3 -1 -3 -1 -2 0 -3 -1 -3 0 -2 -1 -3 112 -23 0 2 1 2 1 2 0 3 1 3 0 2 1 3 1 3 0 3 1 3 1 3 1 4 0 3 1 3 1 4 1 4 1 4 1 4 1 4 1 4 1 4 1 4 1 5 1 4 2 5 1 5 1 5 1 5 1 5 2 5 1 5 2 6 -1 -1zm-50 238l90 70 -102 -30 -1 -6 0 -7 -1 -6 -1 -7 -1 -6 -1 -7 -1 -7 -1 -7 -1 -7 -1 -8 -1 -7 -2 -7 -1 -8 -1 -7 -2 -8 -1 -8 -2 -8 -1 -8 -2 -8 -2 -8 -1 -8 -2 -8 -2 -9 -2 -8 -2 -9 -2 -8 -2 -9 -2 -9 -2 -9 -3 -9 -2 -9 -2 -9 110 -29 3 10 2 9 3 10 2 9 2 9 2 10 3 9 2 9 2 9 2 8 1 9 2 9 2 8 2 9 2 8 1 9 2 8 1 8 2 8 1 8 2 8 1 8 1 8 1 8 1 8 1 7 1 8 1 7 1 7 1 8 1 7 1 7 -102 -29zm102 29c3,31 -20,59 -51,62 -32,3 -60,-19 -63,-51l114 -11zm-80 -58l89 72 0 -1 0 1 0 0 -1 1 0 0 0 1 -1 0 0 1 -1 0 0 1 -1 1 0 0 -1 1 -1 1 0 1 -1 0 0 1 -1 1 -1 1 -1 1 0 1 -1 1 -1 1 -1 1 -1 1 0 1 -1 1 -1 2 -1 1 -1 1 -1 1 -1 1 -1 2 -90 -70 1 -2 1 -1 1 -1 1 -1 1 -2 0 -1 1 -1 1 -1 1 -1 1 -1 1 -1 0 -1 1 -1 1 -1 1 -1 0 -1 1 0 1 -1 0 -1 1 -1 1 -1 0 0 1 -1 0 -1 1 0 0 -1 1 -1 0 0 1 -1 0 -1 1 0 0 0 0 -1zm134 17l-45 55 -89 -72 45 -55 89 72 0 0zm-89 -72c20,-24 56,-28 81,-8 24,20 28,56 8,80l-89 -72zm407 -320l-318 392 -89 -71 318 -392 0 0 89 71zm78 -264l81 80 0 0 -2 2 -3 4 -4 3 -3 3 -3 4 -4 4 -4 4 -4 4 -4 5 -4 4 -4 5 -5 5 -4 5 -5 6 -5 5 -5 6 -5 6 -5 6 -5 6 -6 7 -5 6 -6 7 -6 7 -6 7 -6 7 -6 8 -6 8 -7 7 -6 8 -7 9 -7 8 -7 9 -89 -72 7 -9 7 -8 7 -8 7 -9 6 -8 7 -7 6 -8 6 -7 6 -8 6 -7 6 -7 6 -6 5 -7 6 -6 5 -7 6 -6 5 -6 5 -6 5 -5 4 -6 5 -5 5 -5 4 -5 4 -5 5 -4 4 -5 4 -4 4 -4 3 -4 4 -4 4 -4 3 -3 0 0zm120 -92l56 99 0 0 -3 2 -3 1 -3 2 -3 2 -3 2 -3 2 -4 2 -2 2 -4 2 -3 2 -3 2 -3 2 -2 2 -3 2 -3 2 -3 3 -3 2 -3 2 -3 3 -3 2 -3 2 -3 3 -3 2 -3 3 -3 3 -2 2 -3 3 -3 2 -3 3 -3 3 -3 3 -3 3 -81 -80 3 -4 4 -3 3 -4 4 -3 4 -3 3 -3 4 -4 3 -3 4 -3 3 -3 4 -3 4 -3 3 -3 4 -3 4 -3 4 -3 3 -3 4 -3 4 -3 4 -2 4 -3 4 -3 3 -2 4 -3 4 -3 4 -2 4 -3 4 -2 4 -2 4 -3 4 -2 4 -2 0 0zm233 24l-109 -33 55 73 -4 0 -4 0 -4 1 -3 0 -4 0 -4 0 -3 1 -4 0 -4 1 -4 0 -3 1 -4 1 -4 1 -4 1 -3 1 -4 1 -4 1 -4 1 -4 1 -4 1 -3 2 -4 1 -4 2 -4 1 -4 2 -4 2 -4 2 -4 1 -4 2 -4 2 -4 3 -4 2 -56 -99 6 -3 5 -3 5 -3 6 -3 5 -2 6 -3 5 -2 6 -2 5 -3 6 -2 5 -2 6 -2 5 -2 6 -2 5 -1 6 -2 6 -1 5 -2 6 -1 6 -1 5 -1 6 -1 5 -1 6 -1 6 -1 6 -1 5 0 6 -1 5 0 6 0 6 0 6 0 54 73zm-54 -73c31,0 57,25 57,56 0,32 -26,57 -57,57l0 -113zm-880 259l109 36 0 0 -2 5 -2 5 -1 5 -2 5 -2 5 -2 5 -2 4 -2 5 -1 5 -2 5 -2 5 -2 5 -3 4 -2 5 -2 5 -2 5 -2 5 -2 4 -3 5 -2 5 -2 5 -3 5 -2 4 -2 5 -3 5 -2 4 -3 5 -2 5 -3 5 -3 4 -2 5 -3 5 -99 -57 2 -4 2 -4 3 -4 2 -4 2 -4 2 -4 3 -4 2 -5 2 -4 2 -4 2 -4 2 -4 2 -4 2 -4 2 -5 2 -4 2 -4 1 -4 2 -4 2 -5 2 -4 2 -4 1 -4 2 -4 2 -4 1 -5 2 -4 1 -4 2 -4 1 -5 2 -4 1 -4 0 0zm22 -104l114 0 0 0 0 4 0 4 0 3 0 5 0 4 -1 4 0 4 -1 4 0 4 -1 4 0 5 -1 4 0 4 -1 4 -1 5 -1 4 -1 4 -1 5 -1 4 -1 5 -1 4 -1 5 -1 4 -1 5 -2 5 -1 4 -2 5 -1 5 -1 5 -2 4 -2 5 -1 5 -109 -36 2 -4 1 -4 1 -4 2 -4 1 -4 1 -4 1 -4 1 -4 1 -4 1 -3 1 -4 1 -4 1 -3 1 -4 0 -3 1 -3 1 -4 0 -3 1 -3 0 -3 1 -3 0 -3 0 -3 1 -3 0 -2 0 -3 1 -2 0 -3 0 -2 0 -3 0 -2 0 -2 0 0zm21 4l0 -113 0 0 5 0 5 0 5 1 5 1 5 1 5 1 5 2 6 2 5 3 4 3 5 3 5 4 4 4 3 4 4 4 3 4 3 5 3 4 2 4 2 5 2 4 1 5 2 5 1 4 1 4 0 5 1 4 1 5 0 4 0 5 0 4 0 5 -114 0 0 -2 0 -2 0 -2 0 -1 0 -1 -1 -1 0 -1 0 -1 0 0 0 0 0 0 0 0 0 1 1 1 0 1 1 1 1 1 1 1 1 1 2 2 1 1 2 1 1 1 2 1 2 1 1 0 2 1 1 0 1 0 1 0 1 0 0 0 0 0zm8 19l-109 -36 0 0 2 -5 1 -4 2 -4 1 -4 2 -4 2 -4 1 -4 2 -3 2 -4 2 -4 2 -4 2 -3 3 -4 2 -3 2 -3 3 -4 3 -3 3 -4 3 -3 3 -3 4 -3 4 -3 4 -3 4 -2 5 -3 5 -2 5 -2 5 -2 5 -1 6 -1 5 0 6 0 0 113 2 0 2 0 2 0 2 -1 2 -1 2 0 2 -1 1 -1 1 0 1 -1 1 -1 1 0 0 0 0 -1 0 0 0 0 0 1 0 0 -1 1 0 1 -1 1 -1 1 0 1 -1 2 -1 1 -1 2 -1 2 -1 2 -1 3 0 2 -1 3 -1 3 0 0zm-16 119l-115 0 0 0 0 -5 0 -5 0 -6 0 -5 1 -5 0 -6 0 -5 0 -5 1 -5 0 -5 1 -5 0 -5 1 -5 0 -5 1 -5 0 -5 1 -5 1 -5 1 -4 0 -5 1 -5 1 -5 1 -4 1 -5 1 -4 1 -5 2 -4 1 -5 1 -4 1 -5 2 -4 1 -4 109 36 -1 2 -1 3 -1 3 -1 3 -1 3 -1 4 0 3 -1 3 -1 3 -1 4 0 3 -1 4 -1 3 0 4 -1 4 0 3 -1 4 0 4 -1 4 0 4 0 4 -1 4 0 4 0 4 -1 4 0 5 0 4 0 4 0 5 0 4 0 5 0 4 0 0zm-95 95l99 57 -106 -19 -1 -5 0 -4 -1 -5 -1 -4 -1 -5 0 -4 -1 -5 -1 -4 0 -5 -1 -4 0 -4 -1 -5 0 -4 -1 -4 0 -4 -1 -4 0 -4 0 -4 -1 -5 0 -4 0 -4 -1 -4 0 -4 0 -3 0 -4 0 -4 -1 -4 0 -4 0 -3 0 -4 0 -4 0 -4 115 0 0 3 0 3 0 3 0 3 0 3 0 3 0 4 0 3 0 3 1 3 0 3 0 4 0 3 1 4 0 3 0 4 1 3 0 4 0 4 1 3 0 4 1 4 0 4 1 3 0 4 1 4 1 4 0 4 1 4 0 5 1 4 1 4 -106 -19zm106 19c5,31 -16,60 -47,65 -31,6 -61,-15 -66,-46l113 -19z"/>
   </g>
   <path id="1" class="fil2" d="M2096 535l-54 179 -25 -4 3 -13c3,-12 5,-21 5,-29 0,-24 -19,-35 -57,-35 -49,0 -96,25 -141,75 -45,50 -79,116 -104,199 -14,47 -31,128 -52,242 -21,113 -31,185 -31,214 0,23 10,34 31,34 14,0 35,-6 63,-19l12 21c-20,8 -55,22 -105,41 -38,14 -72,28 -101,41 0,-41 10,-116 29,-226 20,-109 42,-216 67,-320l-24 30c-20,25 -51,64 -92,115l-149 183 -151 185 -15 19 -17 -12c16,-31 23,-61 23,-91 0,-50 -11,-127 -35,-231l-21 -91c0,-1 -2,-6 -3,-15 -109,144 -220,255 -336,331 -116,77 -229,115 -339,115 -72,0 -140,-15 -204,-46 -64,-31 -115,-74 -152,-127 -42,-60 -63,-131 -63,-212 0,-106 37,-192 110,-258 73,-66 169,-99 287,-99 68,0 130,13 186,39 55,25 127,75 215,147 33,27 58,41 74,41 20,0 52,-12 96,-37l13 21 -172 93 -18 -16c-82,-77 -164,-136 -244,-178 -80,-41 -153,-62 -220,-62 -85,0 -154,26 -205,76 -52,50 -77,117 -77,200 0,104 38,188 116,253 77,65 178,98 302,98 109,0 216,-35 322,-105 105,-70 206,-173 302,-308 -9,-49 -13,-90 -13,-123 0,-81 18,-162 54,-241 36,-79 72,-118 110,-118 37,0 55,31 55,93 0,40 -11,87 -33,139 -21,52 -57,118 -108,199 5,24 15,64 30,123 26,100 43,186 50,258 11,-14 18,-23 22,-28l45 -55 318 -391c75,-93 130,-156 163,-189 33,-34 69,-62 107,-83 50,-28 101,-42 151,-42zm-891 364c27,-46 49,-94 66,-143 16,-49 24,-89 24,-122 0,-35 -12,-53 -36,-53 -18,0 -34,20 -47,58 -12,38 -19,84 -19,137 0,35 4,76 12,123z"/>
  </g>
  <path class="fil1" d="M2562 1809l0 -21 15 -1c13,-1 20,-3 24,-7 3,-4 5,-16 5,-37 1,-42 2,-88 2,-138 0,-26 0,-56 -1,-89 0,-20 -1,-33 -3,-37 -1,-2 -3,-4 -6,-6 -2,-1 -15,-2 -36,-4l0 -21c21,0 41,0 61,0 23,0 45,0 66,0 10,22 19,43 29,65 7,15 38,80 93,194 59,-118 100,-204 123,-259 21,1 40,1 59,1 22,0 43,0 63,-1l0 21c-23,1 -36,3 -39,6 -2,3 -4,11 -5,24 -1,22 -2,63 -2,123 0,31 0,63 1,97 0,34 2,53 3,58 2,2 3,4 6,6 2,1 14,3 36,5l0 21c-28,-1 -53,-2 -74,-2 -22,0 -52,1 -90,2l0 -21 15 -1c12,0 19,-2 22,-5 3,-3 5,-10 6,-22 1,-13 1,-41 1,-86l0 -155c-26,53 -60,122 -101,208 -17,36 -30,65 -40,87l-16 0c-13,-30 -30,-67 -52,-112l-89 -183 0 35c0,96 1,163 1,199 1,15 3,24 6,28 4,3 16,6 39,7l0 21c-18,-1 -35,-2 -53,-2 -26,0 -49,1 -69,2z"/>
  <path id="1" class="fil1" d="M3324 1788l0 21 -20 -1c-11,-1 -21,-1 -32,-1 -16,0 -31,1 -46,2l-2 -3 2 -36 -53 41c-10,2 -18,3 -26,3 -18,0 -32,-5 -42,-16 -10,-11 -15,-27 -15,-48 0,-25 7,-43 21,-54 17,-13 55,-26 115,-36 0,-21 -4,-35 -10,-44 -10,-13 -24,-19 -44,-19 -4,0 -9,0 -14,2 -5,1 -10,2 -15,5l-11 27 -18 -4 0 -12 0 -11 0 -10c26,-17 45,-27 57,-31 8,-3 20,-4 35,-4 20,0 36,3 49,9 13,6 22,14 28,25 6,10 8,25 8,45 0,9 0,24 -1,46 0,22 -1,40 -1,53 0,22 1,35 2,40 1,2 2,4 5,6 3,2 12,3 28,5zm-98 -106c-30,6 -50,13 -59,21 -9,8 -14,18 -14,31 0,10 3,19 9,25 6,6 13,9 22,9 14,0 28,-8 42,-23l0 -63z"/>
  <path id="2" class="fil1" d="M3382 1725c1,22 2,35 3,37 4,7 11,13 21,19 11,5 23,8 36,8 17,0 30,-4 38,-11 8,-7 12,-16 12,-27 0,-10 -3,-17 -9,-23 -6,-6 -19,-11 -38,-15 -30,-7 -49,-12 -58,-17 -9,-5 -16,-12 -22,-22 -5,-10 -8,-21 -8,-34 0,-16 4,-30 12,-42 8,-13 19,-22 34,-29 15,-7 34,-10 59,-10 25,0 49,4 70,12 -2,14 -4,36 -5,65l-20 0c-1,-19 -3,-29 -4,-33 -3,-5 -8,-9 -15,-12 -10,-5 -20,-7 -32,-7 -14,0 -25,3 -33,9 -8,7 -12,15 -12,25 0,9 4,16 11,21 7,6 24,11 51,16 19,3 32,6 39,9 12,6 21,13 27,23 6,10 10,22 10,37 0,29 -12,51 -34,67 -22,15 -49,23 -80,23 -10,0 -22,-1 -34,-4 -13,-2 -26,-5 -41,-10l-4 -4c2,-15 3,-39 4,-71l22 0z"/>
  <path id="3" class="fil1" d="M3616 1725c1,22 2,35 3,37 4,7 11,13 21,19 11,5 22,8 36,8 17,0 29,-4 38,-11 8,-7 12,-16 12,-27 0,-10 -3,-17 -9,-23 -6,-6 -19,-11 -38,-15 -30,-7 -50,-12 -59,-17 -9,-5 -16,-12 -21,-22 -5,-10 -8,-21 -8,-34 0,-16 4,-30 12,-42 8,-13 19,-22 34,-29 15,-7 34,-10 58,-10 26,0 49,4 71,12 -2,14 -4,36 -5,65l-20 0c-1,-19 -3,-29 -5,-33 -2,-5 -7,-9 -14,-12 -10,-5 -21,-7 -32,-7 -14,0 -25,3 -33,9 -8,7 -12,15 -12,25 0,9 3,16 11,21 7,6 24,11 51,16 19,3 31,6 39,9 12,6 21,13 27,23 6,10 9,22 9,37 0,29 -11,51 -33,67 -23,15 -49,23 -80,23 -10,0 -22,-1 -34,-4 -13,-2 -26,-5 -41,-10l-4 -4c2,-15 3,-39 4,-71l22 0z"/>
  <path id="4" class="fil1" d="M3855 1637l-22 0c2,-20 3,-39 3,-56l-1 -15 3 -2c53,1 85,2 97,2 34,0 71,-1 113,-2l0 18c-56,72 -104,138 -144,197l46 0c41,0 63,-1 68,-4 4,-3 8,-15 11,-36l1 -14 23 0c-3,22 -5,49 -5,81l-3 3c-16,0 -28,0 -36,0l-42 0c-42,-1 -68,-2 -78,-2l-77 2 0 -18c18,-21 38,-47 61,-79 36,-47 64,-87 87,-120l-47 0c-22,0 -36,1 -42,2 -4,0 -7,2 -8,4 -2,2 -4,9 -6,20l-2 19z"/>
  <path id="5" class="fil1" d="M4318 1788l0 21 -20 -1c-11,-1 -21,-1 -32,-1 -16,0 -31,1 -46,2l-2 -3 2 -36 -53 41c-10,2 -18,3 -26,3 -18,0 -32,-5 -42,-16 -10,-11 -14,-27 -14,-48 0,-25 6,-43 20,-54 17,-13 56,-26 115,-36 0,-21 -3,-35 -10,-44 -9,-13 -24,-19 -43,-19 -5,0 -10,0 -15,2 -4,1 -9,2 -14,5l-12 27 -18 -4 1 -12 0 -11 -1 -10c27,-17 45,-27 57,-31 8,-3 20,-4 35,-4 20,0 37,3 49,9 13,6 22,14 28,25 6,10 9,25 9,45 0,9 -1,24 -1,46 -1,22 -1,40 -1,53 0,22 0,35 2,40 0,2 2,4 5,6 2,2 11,3 27,5zm-98 -106c-30,6 -49,13 -59,21 -9,8 -13,18 -13,31 0,10 3,19 9,25 5,6 13,9 22,9 13,0 27,-8 41,-23l0 -63zm-59 -146l-25 0 59 -57c14,-14 24,-22 28,-25 5,-3 10,-4 16,-4 6,0 12,2 15,6 5,4 7,8 7,14 0,5 -2,10 -5,13 -4,4 -14,10 -32,20l-63 33z"/>
  <path id="6" class="fil1" d="M4382 1637l-22 0c1,-20 2,-39 2,-56l0 -15 3 -2c53,1 85,2 96,2 34,0 72,-1 113,-2l0 18c-55,72 -103,138 -144,197l47 0c40,0 63,-1 67,-4 5,-3 9,-15 12,-36l1 -14 23 0c-3,22 -5,49 -6,81l-2 3c-16,0 -28,0 -36,0l-42 0c-42,-1 -68,-2 -78,-2l-77 2 0 -18c17,-21 38,-47 61,-79 35,-47 64,-87 86,-120l-46 0c-22,0 -36,1 -42,2 -4,0 -7,2 -9,4 -1,2 -3,9 -5,20l-2 19z"/>
  <path id="7" class="fil1" d="M4640 1725c1,22 2,35 3,37 4,7 11,13 21,19 10,5 22,8 36,8 17,0 29,-4 38,-11 8,-7 12,-16 12,-27 0,-10 -3,-17 -9,-23 -6,-6 -19,-11 -39,-15 -29,-7 -49,-12 -58,-17 -9,-5 -16,-12 -21,-22 -5,-10 -8,-21 -8,-34 0,-16 4,-30 12,-42 8,-13 19,-22 34,-29 15,-7 34,-10 58,-10 26,0 49,4 71,12 -2,14 -4,36 -5,65l-20 0c-1,-19 -3,-29 -5,-33 -2,-5 -7,-9 -14,-12 -10,-5 -21,-7 -32,-7 -14,0 -25,3 -33,9 -8,7 -12,15 -12,25 0,9 3,16 11,21 7,6 24,11 51,16 18,3 31,6 39,9 12,6 21,13 27,23 6,10 9,22 9,37 0,29 -11,51 -33,67 -23,15 -49,23 -80,23 -11,0 -22,-1 -34,-4 -13,-2 -27,-5 -41,-10l-4 -4c2,-15 3,-39 4,-71l22 0z"/>
  <path id="8" class="fil1" d="M4995 1700l22 0c1,25 1,40 3,45 1,4 6,10 15,17 8,7 19,13 32,17 14,5 28,7 42,7 24,0 43,-6 58,-19 14,-13 22,-29 22,-48 0,-18 -5,-32 -15,-41 -10,-9 -28,-16 -55,-20 -41,-6 -68,-12 -82,-19 -14,-7 -26,-17 -34,-31 -8,-14 -12,-30 -12,-49 0,-33 11,-60 34,-82 23,-23 59,-34 109,-34 19,0 37,2 52,5 15,2 30,7 45,14l3 6c-3,11 -5,21 -6,29 -1,9 -2,24 -3,46l-22 0c-1,-27 -2,-41 -4,-45 -3,-5 -12,-11 -25,-18 -13,-6 -28,-9 -45,-9 -24,0 -42,6 -55,17 -13,12 -19,26 -19,44 0,11 2,21 8,29 5,8 13,14 22,18 10,4 30,8 61,13 29,4 48,9 58,13 17,6 30,17 38,30 9,14 13,31 13,52 0,37 -14,67 -42,91 -27,24 -65,36 -114,36 -21,0 -40,-2 -58,-6 -17,-4 -35,-11 -54,-21 3,-11 5,-22 6,-32 1,-14 2,-32 2,-55z"/>
  <path id="9" class="fil1" d="M5286 1602l34 -22c0,-31 -1,-57 -2,-80 23,-7 45,-16 66,-26l7 6c-4,24 -6,58 -8,100 8,1 16,2 24,2 17,0 33,-2 47,-4l2 2 -2 9c-3,9 -5,18 -6,26 -20,-1 -35,-2 -44,-2 -7,0 -14,1 -21,1 0,18 0,33 0,46 0,58 2,91 5,98 3,8 12,12 24,12 4,0 8,0 13,-1 4,-1 9,-2 14,-4l4 10c-10,12 -20,24 -30,36 -6,1 -12,2 -17,2 -6,1 -11,1 -15,1 -14,0 -26,-2 -36,-7 -10,-5 -17,-12 -21,-20 -4,-8 -6,-19 -6,-35 0,-8 0,-30 1,-65 1,-31 1,-55 1,-73l-13 0c-5,0 -12,0 -21,1l0 -13z"/>
  <path id="10" class="fil1" d="M5466 1601l0 -20c27,-3 52,-8 76,-15l25 -9c3,0 5,2 5,6l-1 15c-3,39 -4,78 -4,114 0,24 1,40 3,47 3,8 7,14 13,19 7,4 15,6 26,6 12,0 23,-3 32,-10 9,-7 15,-14 17,-22 2,-8 3,-31 3,-69 0,-30 -1,-48 -2,-53 0,-3 -1,-5 -3,-6 -3,-1 -14,-2 -35,-3l0 -20c35,-4 61,-9 77,-14l28 -10c3,0 4,2 4,5l-1 7c-2,30 -4,84 -4,163 0,24 1,39 2,45 1,3 3,5 4,6 3,2 14,3 33,5l0 21c-20,-1 -40,-2 -59,-2 -16,0 -30,1 -44,2l-2 -5c1,-8 1,-22 2,-40 -16,12 -31,27 -46,42 -12,5 -24,8 -36,8 -16,0 -30,-3 -41,-9 -12,-7 -21,-15 -26,-25 -6,-10 -8,-25 -8,-43l0 -28c1,-18 1,-32 1,-42 0,-31 -1,-49 -2,-55 -1,-4 -3,-7 -5,-8 -3,-2 -14,-3 -32,-3zm113 -65l-25 0 60 -57c14,-14 23,-22 28,-25 5,-3 10,-4 15,-4 7,0 12,2 16,6 4,4 6,8 6,14 0,5 -2,10 -5,13 -3,4 -14,10 -32,20l-63 33z"/>
  <path id="11" class="fil1" d="M5986 1569l0 -44c0,-27 0,-43 -1,-48 -1,-3 -3,-5 -5,-6 -3,-2 -14,-3 -35,-3l0 -19c41,-4 75,-12 103,-24l6 6c-1,28 -2,54 -3,78l-1 202c0,34 0,55 2,62 0,5 2,8 5,10 2,1 13,3 31,5l0 21c-21,-1 -41,-2 -61,-2 -15,0 -28,1 -41,2l-4 -3c2,-18 3,-32 4,-42 -11,8 -30,23 -55,45 -10,3 -19,5 -28,5 -28,0 -52,-11 -71,-32 -19,-21 -28,-49 -28,-84 0,-17 2,-33 5,-47 4,-14 9,-24 14,-31 5,-8 16,-17 32,-28 21,-14 37,-24 46,-28 10,-4 21,-5 33,-5 8,0 17,0 25,2 9,2 18,5 27,8zm0 55c-8,-11 -17,-20 -27,-25 -10,-6 -22,-9 -34,-9 -18,0 -31,6 -41,19 -9,13 -14,34 -14,64 0,30 6,53 17,68 12,15 27,23 45,23 12,0 23,-4 33,-11 11,-7 17,-13 19,-19 2,-6 2,-28 2,-67l0 -43z"/>
  <path id="12" class="fil1" d="M6187 1435c11,0 20,4 28,12 8,8 12,17 12,28 0,11 -4,21 -12,29 -8,7 -17,11 -29,11 -11,0 -20,-4 -28,-11 -8,-8 -12,-18 -12,-29 0,-11 4,-20 12,-28 8,-8 17,-12 29,-12zm-72 374l0 -21c19,-1 31,-2 34,-4 3,-2 5,-6 5,-14 2,-11 3,-35 3,-72 0,-16 -1,-31 -1,-44l-1 -30c0,-10 -1,-16 -3,-19 -2,-2 -8,-3 -18,-4l-19 0 0 -20c41,-4 75,-11 102,-22l6 5c-2,33 -3,80 -3,143 0,36 0,58 1,66 1,5 3,8 5,10 2,2 14,3 34,5l0 21c-31,-1 -55,-2 -72,-2 -9,0 -33,1 -73,2z"/>
  <path id="13" class="fil1" d="M6296 1686c0,-40 9,-71 28,-91 23,-24 56,-36 99,-36 43,0 74,9 94,29 19,19 29,50 29,91 0,44 -11,77 -34,100 -22,23 -54,35 -95,35 -39,0 -70,-11 -90,-33 -21,-21 -31,-53 -31,-95zm71 -17c0,45 6,78 17,97 9,15 23,23 41,23 16,0 29,-7 37,-19 9,-13 13,-36 13,-70 0,-46 -5,-77 -16,-95 -9,-14 -22,-21 -41,-21 -16,0 -28,6 -38,19 -9,13 -13,35 -13,66zm17 -133l-25 0 59 -57c14,-14 24,-22 29,-25 4,-3 10,-4 15,-4 6,0 12,2 16,6 4,4 6,8 6,14 0,5 -2,10 -5,13 -4,4 -14,10 -32,20l-63 33z"/>
  <path class="fil1" d="M4663 253l-56 185 -26 -4 4 -14c3,-12 4,-22 4,-30 0,-24 -19,-37 -58,-37 -51,0 -99,27 -145,79 -46,52 -82,120 -107,206 -15,49 -33,133 -54,251 -22,118 -32,192 -32,222 0,24 10,36 32,36 15,0 36,-6 65,-20l12 22c-20,9 -56,23 -108,42 -39,15 -74,30 -104,43 0,-42 10,-120 30,-234 20,-114 43,-225 69,-333l-25 32c-21,26 -52,66 -95,119l-153 190 -157 192 -15 20 -17 -13c16,-31 24,-63 24,-94 0,-52 -12,-132 -36,-240l-22 -94c-1,-1 -2,-6 -4,-16 -111,150 -226,264 -346,344 -119,80 -236,119 -349,119 -74,0 -144,-16 -210,-48 -67,-32 -119,-76 -157,-131 -43,-63 -65,-136 -65,-221 0,-110 38,-200 113,-268 76,-68 175,-102 296,-102 71,0 134,13 191,40 58,26 132,78 223,153 34,28 59,42 76,42 20,0 53,-12 98,-38l15 21 -178 98 -18 -17c-86,-80 -170,-142 -252,-185 -82,-43 -158,-64 -227,-64 -88,0 -158,26 -211,78 -54,52 -80,122 -80,208 0,108 40,195 120,263 80,67 183,101 311,101 112,0 223,-36 332,-109 109,-73 213,-179 312,-319 -9,-51 -14,-94 -14,-128 0,-85 19,-168 56,-250 37,-82 75,-123 113,-123 38,0 57,32 57,97 0,42 -11,90 -34,144 -22,54 -59,123 -111,206 5,25 15,68 31,128 26,104 43,194 51,268 11,-15 19,-24 22,-29l47 -57 328 -406c77,-96 133,-162 168,-196 34,-35 71,-64 110,-86 52,-29 104,-43 156,-43zm-918 378c28,-49 50,-99 67,-149 17,-51 25,-93 25,-128 0,-36 -12,-54 -37,-54 -19,0 -35,20 -48,60 -13,39 -20,87 -20,143 0,36 4,78 13,128z"/>
  <path id="1" class="fil1" d="M4861 1120l13 19c-49,37 -116,66 -202,87 3,-48 31,-129 84,-245 -60,71 -123,130 -187,177 -64,47 -114,70 -152,70 -33,0 -49,-21 -49,-63 0,-70 32,-146 95,-228 63,-82 143,-150 238,-203 108,-60 215,-90 322,-90 15,0 22,5 22,17 0,9 -7,27 -21,53 -32,-5 -63,-8 -93,-8 -143,0 -266,55 -369,166 -76,81 -113,161 -113,241 0,37 13,56 41,56 23,0 57,-20 101,-61 44,-40 84,-87 119,-140 47,-74 80,-150 97,-229 20,12 30,34 30,67 0,46 -23,98 -69,156 23,-1 51,-8 84,-19l-5 12c-45,100 -68,158 -68,175 0,13 7,20 19,19 12,-1 33,-11 63,-29z"/>
  <path id="2" class="fil1" d="M5509 649c-32,63 -72,151 -119,265 -47,113 -71,180 -71,199 -1,14 7,21 23,21 13,0 31,-4 56,-14l9 19c-34,17 -91,41 -169,71l-19 7c12,-76 35,-157 70,-244 -60,76 -118,136 -172,180 -54,43 -98,65 -133,65 -31,0 -47,-16 -47,-49 0,-39 29,-118 87,-239l56 -118c17,-37 26,-63 27,-79 1,-15 -7,-23 -24,-23 -7,0 -20,3 -39,8l-6 -21 11 -3c66,-19 120,-38 164,-57 0,37 -21,99 -62,185l-60 125c-47,96 -70,154 -70,176 0,20 9,30 26,30 46,0 106,-47 180,-142 75,-95 134,-200 179,-314l9 -22c27,-3 58,-12 94,-26z"/>
  <path id="3" class="fil1" d="M5928 1126l12 19c-57,40 -123,68 -200,84 10,-77 55,-194 136,-351l46 -87c15,-30 23,-49 23,-58 0,-12 -5,-19 -15,-19 -15,0 -43,17 -83,50 -40,32 -80,70 -118,113 -80,89 -146,195 -200,320 -22,5 -53,16 -94,34 44,-88 87,-187 131,-297 44,-109 66,-174 66,-194 0,-17 -7,-26 -21,-26 -7,0 -22,4 -46,11 -2,0 -4,1 -7,2l-5 -23c66,-18 125,-39 178,-63l9 -4c2,6 2,10 2,12 0,42 -31,131 -92,266l-10 22 12 -14c76,-87 147,-156 212,-206 64,-51 115,-76 152,-76 22,0 34,12 34,35 0,25 -30,96 -92,216 -73,141 -109,221 -109,239 0,14 6,21 19,21 14,0 33,-8 57,-23l3 -3z"/>
  <path id="4" class="fil1" d="M6485 1120l12 19c-49,37 -116,66 -201,87 2,-48 30,-129 83,-245 -60,71 -122,130 -186,177 -64,47 -115,70 -153,70 -32,0 -49,-21 -49,-63 0,-70 32,-146 95,-228 63,-82 143,-150 238,-203 108,-60 215,-90 322,-90 15,0 23,5 23,17 0,9 -7,27 -22,53 -31,-5 -62,-8 -92,-8 -143,0 -266,55 -369,166 -76,81 -114,161 -114,241 0,37 14,56 41,56 24,0 58,-20 102,-61 44,-40 83,-87 118,-140 47,-74 80,-150 98,-229 19,12 29,34 29,67 0,46 -23,98 -68,156 22,-1 50,-8 83,-19l-5 12c-45,100 -67,158 -67,175 0,13 6,20 19,19 11,-1 32,-11 63,-29z"/>
 </g>
</svg>
