<?xml version="1.0" encoding="UTF-8"?>
<!DOCTYPE svg PUBLIC "-//W3C//DTD SVG 1.1//EN" "http://www.w3.org/Graphics/SVG/1.1/DTD/svg11.dtd">
<!-- Creator: CorelDRAW X7 -->
<svg xmlns="http://www.w3.org/2000/svg" xml:space="preserve" width="46.5666mm" height="21.1666mm" version="1.1" style="shape-rendering:geometricPrecision; text-rendering:geometricPrecision; image-rendering:optimizeQuality; fill-rule:evenodd; clip-rule:evenodd"
viewBox="0 0 4657 2117"
 xmlns:xlink="http://www.w3.org/1999/xlink">
 <defs>
  <style type="text/css">
   <![CDATA[
    .fil0 {fill:#F7E9B5}
    .fil2 {fill:#A74B16;fill-rule:nonzero}
    .fil1 {fill:#F7E9B5;fill-rule:nonzero}
   ]]>
  </style>
     <mask id="id0">
  <linearGradient id="id1" gradientUnits="userSpaceOnUse" x1="4570.89" y1="1028.24" x2="88.5685" y2="1028.24">
   <stop offset="0" style="stop-opacity:0; stop-color:white"/>
   <stop offset="0.411765" style="stop-opacity:-127.502; stop-color:white"/>
   <stop offset="1" style="stop-opacity:1; stop-color:white"/>
  </linearGradient>
      <rect style="fill:url(#id1)" x="63" y="453" width="4516" height="1092"/>
     </mask>
    <mask id="id2">
  <linearGradient id="id3" gradientUnits="userSpaceOnUse" x1="4513.92" y1="1020.98" x2="145.12" y2="1020.98">
   <stop offset="0" style="stop-opacity:0; stop-color:white"/>
   <stop offset="0.411765" style="stop-opacity:-127.502; stop-color:white"/>
   <stop offset="1" style="stop-opacity:1; stop-color:white"/>
  </linearGradient>
     <rect style="fill:url(#id3)" x="121" y="509" width="4402" height="970"/>
    </mask>
 </defs>
 <g id="Layer_x0020_1">
  <metadata id="CorelCorpID_0Corel-Layer"/>
  <g id="_2251184956592">
   <path class="fil0" d="M1551 812c-3,23 6,43 8,65l0 0c14,17 22,38 41,52 80,-59 272,-49 312,60 22,-15 39,-37 56,-59 -36,-56 -87,-110 -173,-120 -24,-3 -47,-3 -70,-1 18,-14 34,-31 49,-50 53,-68 52,-142 38,-207 -28,-4 -55,-8 -81,-3 48,105 -81,248 -180,263zm-14 -120c-8,-6 -16,-13 -23,-20 -6,-7 -13,-14 -19,-22 -67,12 -131,9 -192,-4 -5,25 -8,50 -12,75 53,11 106,17 161,14 -4,55 2,108 13,160 25,-4 50,-6 75,-11 -12,-62 -16,-125 -3,-192zm-101 150c-5,-3 -36,8 -46,9 -18,2 -38,3 -57,2 -1,-19 0,-39 2,-57 1,-10 13,-41 9,-46 -5,-8 -64,-4 -72,-13 -17,61 -22,124 -13,190 66,9 129,4 190,-12 -9,-8 -5,-67 -13,-73zm7 -23c-6,-17 -13,-36 -21,-55 -19,-8 -38,-15 -54,-20 -8,25 -13,51 -12,78 2,0 4,1 7,1 0,3 1,5 1,7 27,2 53,-4 79,-11zm66 -335c-28,17 -51,36 -62,57 26,44 54,82 84,115 32,30 70,58 114,84 21,-11 40,-33 58,-62l-6 -4c-38,-20 -75,-46 -108,-76 -30,-33 -56,-70 -75,-108l-5 -6zm235 -40c3,-142 -67,-304 -180,-429l-166 399c19,-16 48,-38 70,-47 -15,-51 -15,-179 72,-173 32,3 56,28 80,69 52,94 53,219 9,295 76,-44 201,-43 295,10 41,24 66,48 68,80 7,87 -122,87 -173,71 -9,23 -31,51 -47,70 25,3 61,8 83,17 25,-47 116,-138 173,-72 21,25 20,59 7,105 -29,104 -116,193 -202,215 86,23 173,112 202,216 12,46 13,81 -8,105 -57,66 -147,-25 -173,-72 -22,9 -58,14 -83,16l400 166c-9,-168 -73,-332 -176,-430 103,-98 168,-262 177,-430 -125,-114 -286,-184 -428,-181zm-369 498c-49,13 -115,36 -169,80 0,0 0,1 0,1 0,0 0,0 0,0 0,0 1,0 1,0 69,-7 132,-36 176,-62 -3,-2 -5,-5 -8,-8l-119 49 119 -49c0,-4 0,-7 0,-11zm-308 -47l-35 -85c-4,0 -7,1 -11,0 12,50 36,115 80,169 0,0 0,0 1,0 0,0 0,0 0,0l0 0c0,0 0,0 0,0 -7,-69 -36,-133 -62,-176 -3,2 -5,5 -8,7l35 85zm158 -92c-26,44 -55,107 -63,176 1,0 1,0 1,0 0,0 0,0 0,0l0 0c0,0 0,0 1,0 44,-53 68,-119 80,-168 -4,0 -7,0 -11,-1l-47 113 47 -113c-3,-2 -5,-4 -8,-7zm-221 -418l-8 -1c-8,33 -10,62 -4,85 50,12 97,19 141,22 44,-2 91,-9 141,-22 6,-23 4,-52 -4,-85l-7 2c-41,13 -85,20 -130,23 -44,-3 -89,-11 -129,-24zm254 201c14,19 35,27 51,41 22,2 43,11 66,8 15,-99 158,-227 263,-179 5,-26 1,-53 -2,-81 -65,-14 -139,-16 -208,38 -19,14 -35,31 -50,48 3,-22 3,-46 0,-69 -11,-87 -64,-138 -120,-174 -22,17 -44,34 -59,56 108,40 118,232 59,312zm-251 145c32,55 73,103 125,143 53,-40 94,-88 126,-142 -12,0 -50,-45 -60,-43 -6,1 -21,31 -26,39 -12,14 -25,29 -39,42 -14,-13 -28,-28 -39,-42 -6,-8 -21,-38 -26,-39 -10,-2 -49,43 -61,42zm-122 -401c-47,-25 -138,-116 -72,-172 24,-21 59,-21 105,-8 104,29 193,117 215,202 23,-85 112,-172 216,-201 46,-13 81,-13 105,8 66,57 -25,147 -72,172 9,23 14,58 16,83l166 -399c-168,8 -332,73 -431,175 -98,-103 -262,-168 -430,-177l165 400c2,-25 7,-60 17,-83zm248 184c-10,-1 -20,-1 -30,-2 -38,55 -86,98 -138,133 14,21 30,40 45,61 45,-29 87,-63 123,-104 36,42 78,75 122,104 15,-20 31,-40 46,-61 -53,-35 -100,-77 -138,-133 -10,1 -20,1 -30,2zm-53 154c13,23 27,45 47,64 2,-2 4,-3 6,-4 2,1 4,2 6,4 20,-19 34,-41 47,-64 -16,-8 -34,-16 -53,-24 -20,8 -37,16 -53,24zm-190 273c0,4 -1,8 -1,11l169 71c0,-1 0,-1 0,-1 -54,-44 -119,-68 -168,-81zm-444 -224c-51,15 -179,15 -173,-71 2,-32 27,-56 69,-80 94,-53 219,-54 295,-9 -44,-77 -43,-201 10,-295 24,-42 48,-67 80,-69 87,-6 86,122 71,173 22,9 51,31 70,47l-165 -400c-113,125 -183,287 -180,429 -142,-3 -304,67 -429,179l399 166c-16,-19 -38,-47 -47,-70zm117 -41c17,29 36,51 57,63 44,-27 82,-55 115,-84 29,-33 58,-71 84,-115 -12,-21 -34,-40 -62,-57l-5 6c-19,37 -45,75 -75,108 -33,29 -70,56 -108,75l-6 4zm253 238c61,16 124,21 190,12 9,-65 4,-128 -12,-189 -8,9 -67,4 -73,12 -3,5 8,37 9,46 2,19 3,38 2,58 -19,0 -39,-1 -57,-3 -10,-1 -42,-12 -46,-9 -9,6 -4,65 -13,73zm-65 -243c-7,7 -15,13 -23,20 13,66 9,130 -3,192 25,4 50,7 75,11 11,-52 17,-105 13,-160 55,4 109,-2 161,-13 -4,-25 -7,-50 -11,-75 -62,12 -126,15 -192,3 -7,7 -13,15 -20,22zm150 159c0,-3 1,-5 1,-7 2,-1 5,-1 7,-2 2,-27 -4,-53 -12,-78 -16,6 -35,12 -54,20 -8,20 -15,38 -21,55 26,7 52,13 79,12zm-10 -196c23,4 43,-6 65,-7l0 0 0 0c17,-15 38,-22 52,-41 -59,-81 -49,-273 60,-313 -15,-22 -37,-38 -59,-55 -56,35 -110,87 -121,173 -3,23 -3,47 0,70l6 15 -6 -15c-15,-18 -31,-35 -50,-49 -68,-54 -143,-52 -207,-39 -4,28 -8,56 -3,82 105,-49 248,80 263,179zm166 389c1,0 1,0 1,0l-169 -71c-2,3 -5,6 -7,8 43,26 107,56 175,63zm-467 0c1,10 2,20 3,30 -1,9 -2,19 -3,29 56,39 99,86 134,139 20,-15 40,-31 60,-45 -28,-45 -62,-87 -103,-123 41,-37 75,-78 104,-123 -20,-15 -40,-31 -61,-45 -35,52 -78,99 -134,138zm133 30c7,19 16,37 24,53 23,-13 45,-27 63,-47 -1,-2 -2,-4 -4,-6 2,-2 3,-4 4,-6 -18,-20 -40,-34 -63,-47 -8,16 -16,33 -24,53zm-176 140c13,-50 20,-97 22,-141 -2,-43 -9,-90 -21,-140 -23,-7 -52,-5 -85,3l1 8c13,40 21,85 24,129 -3,45 -11,90 -24,130l-1 7c32,8 61,11 84,4zm118 -265c19,-14 27,-35 41,-52l0 0c2,-22 11,-42 8,-65 -99,-15 -228,-159 -179,-263 -26,-6 -54,-2 -81,2 -14,64 -16,139 37,207 15,19 31,36 49,50 -23,-2 -46,-2 -70,1 -86,10 -137,64 -173,119 17,22 33,45 55,59 40,-108 232,-118 313,-58zm-256 373c-25,47 -116,137 -173,72 -21,-25 -20,-59 -7,-106 29,-104 117,-192 202,-215 -85,-22 -173,-111 -201,-215 -13,-47 -14,-81 7,-106 57,-65 148,26 173,73 22,-10 58,-14 83,-17l-399 -166c8,168 72,333 175,431 -103,98 -168,262 -177,430l400 -165c-25,-2 -60,-7 -83,-16zm359 -313c1,5 31,20 39,26 14,12 28,25 42,39 -14,14 -28,27 -43,39 -7,6 -37,20 -39,26 -1,10 44,48 43,60 55,-31 103,-72 143,-125 -40,-53 -88,-94 -143,-125 1,11 -44,50 -42,60zm-55 307c3,-23 -6,-44 -7,-66l0 0c-15,-16 -23,-37 -41,-51 -81,59 -273,48 -313,-60 -22,15 -39,37 -56,59 36,55 87,109 174,120 23,3 47,3 69,1 -17,14 -34,31 -49,49 -53,69 -51,143 -38,208 28,4 55,7 81,2 -48,-105 81,-247 180,-262zm83 444c15,52 15,180 -71,173 -33,-2 -57,-27 -80,-69 -53,-94 -54,-218 -9,-295 -77,45 -201,44 -295,-10 -42,-23 -67,-48 -69,-80 -6,-86 122,-86 173,-70 9,-23 31,-51 47,-71l-400 165c125,113 287,184 429,181 -4,142 66,304 179,429l166 -399c-19,16 -48,37 -70,46zm-41 -116c29,-18 51,-36 63,-57 -27,-45 -55,-83 -84,-115 -33,-30 -71,-58 -115,-85 -21,12 -40,34 -58,63l7 4c37,20 75,46 108,75 29,34 55,71 75,109l4 6zm134 -458c50,-13 115,-37 169,-80 0,-1 0,-1 0,-1l0 0c0,0 0,0 -1,-1 -69,7 -132,37 -176,63 3,2 5,5 8,8l119 -50 -119 50c0,3 0,7 0,11zm-73 27c8,8 4,67 12,73 5,3 36,-8 46,-9 19,-2 38,-3 58,-3 0,20 -1,39 -3,58 -1,9 -12,41 -9,46 6,8 65,4 73,12 16,-60 21,-123 12,-189 -66,-9 -129,-4 -189,12zm6 96c5,17 12,35 20,54 19,9 38,15 55,21 7,-25 13,-51 11,-78 -2,-1 -4,-1 -7,-2 0,-2 -1,-4 -1,-7 -27,-1 -53,5 -78,12zm-72 146c7,8 13,15 19,23 67,-12 131,-9 193,3 4,-24 7,-49 11,-74 -52,-12 -106,-18 -161,-14 4,-55 -1,-108 -13,-160 -25,4 -50,6 -75,11 13,61 16,125 3,192 8,6 16,13 23,19zm381 159c10,0 20,1 30,2 39,-56 86,-98 138,-133 -14,-21 -30,-41 -45,-61 -44,29 -86,62 -123,104 -36,-42 -77,-75 -122,-104 -15,20 -31,40 -45,60 52,35 99,78 137,134 11,-1 21,-2 30,-2zm130 128l7 2c8,-33 10,-62 4,-85 -50,-13 -97,-20 -141,-22 -44,2 -91,9 -141,22 -6,23 -4,52 4,85l8 -2c40,-13 85,-21 129,-23 45,2 89,10 130,23zm-255 -201c-13,-18 -35,-26 -51,-41 -22,-1 -43,-11 -65,-7 -16,99 -159,227 -264,179 -5,25 -1,53 2,81 65,14 139,15 208,-38 19,-14 35,-31 50,-49 -3,23 -3,46 0,70 11,86 65,138 120,174 22,-17 44,-34 59,-56 -108,-40 -118,-232 -59,-313zm251 -144c-31,-55 -73,-103 -125,-143 -53,40 -94,88 -126,142 12,0 51,45 61,43 5,-1 20,-32 26,-39 11,-15 25,-29 39,-42 14,13 27,27 39,42 5,8 20,38 25,39 10,2 49,-43 61,-42zm-72 63c-13,-23 -27,-46 -47,-64 -2,1 -4,3 -6,4 -2,-1 -4,-3 -6,-4 -20,18 -35,41 -47,64 15,8 33,16 52,24 20,-8 38,-16 54,-24zm194 337c47,26 138,116 72,173 -24,21 -59,21 -105,8 -104,-29 -193,-117 -215,-203 -23,86 -112,173 -216,202 -46,13 -81,13 -105,-8 -66,-57 25,-147 73,-172 -10,-23 -15,-58 -17,-83l-166 399c168,-8 332,-73 431,-175 98,102 262,168 430,176l-165 -399c-2,25 -7,60 -17,82zm-340 -472c26,-44 56,-107 63,-176 0,0 0,0 -1,-1l0 0c0,0 0,0 0,1 -44,53 -68,119 -81,168 4,0 7,0 11,0l47 -112 -47 112c3,3 6,5 8,8zm159 -92l34 85c4,-1 8,-1 11,-1 -12,-49 -36,-115 -80,-168 0,0 0,-1 0,-1 0,0 0,0 0,0l0 0c-1,1 -1,1 -1,1 7,69 36,132 62,176 3,-3 6,-5 8,-7l-34 -85zm620 178c51,-16 180,-16 173,71 -2,32 -27,56 -69,80 -94,53 -219,54 -295,9 45,76 43,201 -10,295 -24,42 -48,66 -80,69 -87,6 -86,-122 -71,-174 -22,-9 -51,-30 -70,-46l165 399c113,-124 183,-286 181,-428 142,3 304,-67 429,-180l-399 -166c16,20 37,48 46,71zm-455 -113c0,2 0,5 -1,7 -2,1 -5,1 -7,1 -1,28 5,53 12,79 17,-6 35,-13 54,-21 8,-19 15,-37 21,-54 -26,-7 -51,-13 -79,-12zm85 -84c-61,-16 -124,-21 -189,-13 -9,66 -5,129 12,190 8,-9 67,-4 72,-13 4,-4 -7,-36 -9,-46 -2,-18 -2,-38 -2,-57 19,0 39,0 58,3 9,1 41,12 45,9 9,-6 4,-65 13,-73zm-75 280c-23,-4 -43,5 -65,7l0 0 0 0c-17,14 -38,22 -52,41 60,81 49,273 -59,312 14,22 37,39 59,56 55,-36 109,-87 120,-173 3,-24 3,-47 1,-70 14,18 30,34 49,49 69,54 143,52 208,38 3,-27 7,-55 2,-81 -105,48 -248,-80 -263,-179zm140 -38c7,-6 15,-13 23,-19 -13,-67 -9,-130 3,-192 -25,-5 -50,-7 -75,-11 -11,52 -17,105 -13,160 -55,-4 -108,2 -161,13 4,25 7,50 11,75 62,-12 126,-15 192,-3 7,-8 13,-15 20,-23zm-138 -270c0,-3 0,-7 0,-11l-169 -70c0,0 0,1 0,1 54,44 119,68 169,80zm327 266c-18,-29 -37,-51 -58,-63 -44,26 -82,54 -115,84 -29,32 -57,71 -84,115 12,21 34,40 63,57l4 -6c19,-38 45,-75 75,-108 33,-30 71,-56 108,-75l7 -4zm266 -251c-17,-23 -34,-45 -56,-60 -40,109 -232,119 -313,59 -19,14 -26,35 -41,52l0 0c-1,22 -11,42 -7,65 99,15 227,159 178,263 26,5 54,2 82,-2 13,-65 15,-139 -38,-207 -15,-19 -31,-36 -49,-50 23,2 46,2 70,-1 86,-10 137,-64 174,-119zm-294 -96c-1,-10 -2,-20 -2,-30 0,-10 1,-19 2,-30 -56,-38 -98,-85 -133,-138 -21,14 -41,30 -61,45 29,45 62,87 104,123 -42,36 -76,78 -105,123 21,15 40,31 61,45 35,-52 78,-100 134,-138zm-177 35c-1,-6 -32,-20 -39,-26 -15,-12 -29,-25 -43,-39 14,-14 28,-28 43,-39 7,-6 38,-20 39,-26 2,-10 -43,-49 -43,-60 -54,31 -102,72 -143,125 40,52 88,94 143,125 -1,-12 44,-50 43,-60zm220 -205c-13,49 -20,96 -22,140 2,44 9,91 21,141 23,7 52,4 85,-4l-1 -7c-13,-40 -21,-85 -23,-130 2,-44 10,-89 23,-129l2 -8c-33,-8 -62,-10 -85,-3zm-510 170c0,0 -1,0 -1,0l169 70c2,-2 5,-5 8,-8 -44,-26 -107,-55 -176,-62zm335 -30c-8,-19 -16,-37 -24,-53 -23,13 -46,27 -64,47 1,2 3,4 4,6 -1,2 -3,4 -4,6 18,20 40,34 64,47 7,-16 16,-34 24,-53z"/>
   <g>
    <path class="fil1" style="mask:url(#id0)" d="M2050 696l53 -178 110 32 -54 179 -63 39 -46 -72zm109 33c-9,30 -41,47 -71,38 -30,-9 -47,-41 -38,-71l109 33zm-71 -77l25 4 -17 112 -26 -4 -46 -70 64 -42zm-18 112c-31,-4 -52,-33 -47,-64 4,-31 34,-53 65,-48l-18 112zm68 -54l-4 13 -110 -29 3 -13 0 0 111 29zm-108 -43l114 0 0 0 0 1 0 2 0 1 0 2 0 1 0 1 0 2 0 1 0 1 0 2 -1 1 0 1 0 2 0 1 0 1 0 2 -1 1 0 1 0 2 -1 1 0 1 0 2 0 1 -1 1 0 2 0 1 0 1 -1 1 0 2 0 1 -1 1 0 2 -111 -29 1 -1 0 -1 0 -1 0 0 0 -1 0 -1 1 -1 0 0 0 -1 0 0 0 -1 0 -1 0 0 0 -1 1 0 0 0 0 -1 0 0 0 -1 0 0 0 -1 0 0 0 0 0 0 0 -1 0 0 0 0 0 0 0 0 0 0 0 0 0 0 0 0zm1 21l0 -114 0 0 4 0 5 1 5 0 4 0 5 1 4 0 5 1 4 1 5 1 4 1 5 1 4 2 5 2 5 2 4 2 5 3 4 3 4 3 5 4 4 4 4 4 3 5 3 5 3 5 3 5 2 5 2 5 1 6 1 5 1 5 0 6 0 5 -114 0 0 0 0 1 0 1 1 2 0 2 1 1 0 2 1 2 1 1 1 2 2 2 1 1 1 1 1 2 2 0 1 1 0 1 1 0 1 0 0 0 0 0 0 0 -1 0 0 0 -1 0 -1 0 -2 0 -1 -1 -2 0 -2 0 -2 0 -2 0 0 0zm-99 56l-85 -75 0 0 5 -5 5 -6 5 -5 5 -5 5 -5 5 -4 5 -5 5 -4 5 -4 6 -5 5 -3 6 -4 5 -4 6 -3 6 -4 5 -3 6 -3 6 -3 6 -2 6 -3 6 -2 6 -2 6 -2 7 -2 6 -2 6 -1 7 -1 6 -1 6 -1 7 0 6 0 7 -1 0 114 -3 0 -3 0 -2 0 -3 1 -3 0 -3 1 -3 0 -2 1 -3 1 -3 1 -3 1 -3 1 -3 1 -2 1 -3 2 -3 1 -4 2 -3 2 -3 2 -3 2 -3 2 -3 2 -4 3 -3 2 -3 3 -4 3 -3 3 -4 4 -3 3 -4 4 -3 3 -4 4 0 0zm-91 178l-110 -33 0 1 3 -9 2 -8 3 -8 2 -8 3 -8 3 -8 3 -8 3 -7 3 -8 3 -7 3 -8 4 -7 3 -7 3 -7 4 -7 3 -7 4 -7 4 -7 4 -7 3 -6 4 -7 4 -6 4 -6 5 -7 4 -6 4 -6 5 -6 4 -6 5 -5 4 -6 5 -6 5 -5 85 75 -3 4 -4 4 -3 4 -3 5 -4 4 -3 5 -3 4 -4 5 -3 5 -3 5 -3 5 -3 5 -3 5 -3 5 -3 5 -3 6 -3 6 -3 5 -2 6 -3 6 -3 6 -2 6 -3 6 -3 6 -2 7 -3 6 -2 7 -2 7 -3 6 -2 7 -2 7 -2 8 0 0zm-51 235l-113 -20 0 0 2 -11 2 -10 2 -10 2 -10 2 -10 2 -10 2 -9 1 -10 2 -9 2 -9 2 -8 2 -9 1 -8 2 -9 2 -8 1 -7 2 -8 2 -7 1 -8 2 -7 1 -7 2 -6 2 -7 1 -6 2 -6 1 -6 2 -6 1 -6 2 -5 1 -6 2 -5 1 -5 110 33 -1 4 -2 4 -1 5 -1 4 -2 6 -1 5 -1 5 -2 6 -1 6 -2 6 -1 6 -2 6 -1 7 -2 7 -1 7 -2 7 -1 8 -2 8 -2 8 -1 8 -2 8 -2 8 -2 9 -1 9 -2 9 -2 9 -2 10 -2 10 -1 10 -2 10 -2 10 -2 10 0 0zm-31 204l-114 0 0 0 0 -4 0 -4 0 -4 1 -4 0 -5 0 -4 1 -5 0 -5 1 -5 1 -6 0 -6 1 -5 1 -6 1 -7 1 -6 1 -7 1 -7 1 -7 1 -8 1 -8 1 -7 2 -9 1 -8 2 -9 1 -9 2 -9 1 -9 2 -10 2 -10 2 -10 1 -10 2 -11 113 20 -2 11 -2 10 -2 10 -1 10 -2 9 -2 9 -1 9 -2 9 -1 8 -1 9 -2 8 -1 7 -1 8 -1 7 -1 7 -1 6 -1 7 -1 6 -1 6 -1 5 0 5 -1 5 0 5 -1 4 0 5 -1 3 0 4 0 3 0 3 0 3 -1 2 0 1 0 0zm-26 -22l0 114 0 0 -4 0 -4 -1 -4 0 -4 -1 -4 0 -4 -1 -5 -2 -4 -1 -5 -2 -4 -2 -4 -2 -4 -3 -5 -3 -3 -3 -4 -3 -4 -4 -3 -4 -3 -4 -2 -4 -3 -4 -2 -4 -2 -4 -1 -4 -2 -4 -1 -4 -1 -4 0 -4 -1 -4 0 -4 -1 -4 0 -4 0 -4 114 0 0 1 0 0 0 0 0 0 0 0 0 0 0 -1 0 -1 0 -1 -1 -1 0 -1 -1 -2 -1 -1 -1 -2 -1 -1 -1 -2 -2 -1 -1 -2 -2 -1 -2 -1 -1 -1 -2 -1 -2 -1 -1 0 -2 -1 -1 0 -1 -1 -1 0 -1 0 0 0 0 0 -1 0 0 0zm113 9l-99 57 74 23 -3 2 -3 1 -3 1 -3 1 -3 2 -2 1 -3 1 -3 1 -3 1 -2 1 -3 1 -3 1 -2 1 -3 1 -3 1 -2 0 -3 1 -2 1 -3 1 -3 0 -2 1 -3 0 -3 1 -2 1 -3 0 -3 0 -2 1 -3 0 -3 0 -3 1 -3 0 -3 0 0 -114 0 0 0 0 0 0 0 0 1 0 0 0 1 0 0 0 1 0 1 -1 1 0 1 0 1 0 1 0 1 -1 1 0 2 -1 1 0 1 -1 2 0 2 -1 1 0 2 -1 2 -1 2 0 2 -1 2 -1 2 -1 2 -1 2 -1 2 -1 2 -1 74 23zm-74 -23c29,-13 63,-1 76,28 14,28 1,62 -27,75l-49 -103zm-13 101l-12 -21 99 -57 12 21 -28 81 -71 -24zm99 -57c16,27 7,62 -20,78 -28,16 -63,6 -79,-21l99 -57zm-134 122l-40 -106 0 0 4 -1 5 -2 4 -2 4 -2 5 -1 4 -2 4 -1 4 -2 4 -1 4 -2 3 -1 4 -2 4 -1 3 -1 3 -2 4 -1 3 -1 3 -1 3 -2 3 -1 3 -1 3 -1 2 -1 3 -1 2 -1 3 -1 2 -1 2 -1 2 -1 2 0 2 -1 2 -1 43 105 -2 1 -2 1 -2 1 -2 1 -2 1 -3 1 -2 1 -3 1 -3 1 -2 1 -3 1 -3 1 -3 1 -3 1 -3 2 -4 1 -3 1 -3 1 -4 2 -4 1 -3 2 -4 1 -4 2 -4 1 -4 2 -4 1 -4 2 -5 2 -4 1 -5 2 -4 2 -5 1 0 0zm-178 -12l114 0 -80 -51 2 -2 3 -1 3 -1 3 -1 3 -2 3 -1 3 -1 3 -2 3 -1 3 -1 3 -2 4 -1 3 -1 3 -1 3 -2 3 -1 4 -1 3 -2 3 -1 4 -1 3 -2 3 -1 4 -1 3 -2 4 -1 3 -2 4 -1 3 -1 4 -2 3 -1 4 -1 4 -2 40 106 -3 2 -4 1 -3 1 -4 2 -3 1 -3 1 -4 2 -3 1 -3 1 -3 1 -4 2 -3 1 -3 1 -3 1 -3 2 -3 1 -3 1 -3 1 -3 2 -3 1 -3 1 -3 1 -3 2 -3 1 -3 1 -2 1 -3 1 -3 2 -3 1 -2 1 -3 1 -3 1 -80 -52zm80 52c-28,13 -62,0 -75,-28 -13,-29 0,-63 29,-75l46 103zm-50 -287l112 20 0 0 -1 10 -2 10 -2 9 -1 10 -2 9 -1 9 -2 9 -1 9 -1 8 -2 8 -1 8 -1 8 -1 8 -1 7 -1 7 -1 7 -1 7 -1 6 0 6 -1 6 -1 6 0 6 -1 5 0 5 -1 5 0 5 0 4 0 4 -1 4 0 4 0 3 0 3 -114 0 0 -4 0 -5 0 -5 0 -5 1 -5 0 -6 0 -5 1 -6 0 -6 1 -6 1 -6 0 -7 1 -6 1 -7 1 -7 1 -7 1 -8 1 -7 1 -8 1 -8 1 -8 1 -9 2 -8 1 -9 1 -9 2 -9 1 -9 2 -10 1 -9 2 -10 2 -10 2 -11 0 0zm168 -275l-90 -71 101 49 -3 9 -2 10 -2 10 -3 10 -2 9 -2 10 -2 10 -3 9 -2 10 -2 10 -2 10 -2 10 -2 10 -3 9 -2 10 -2 10 -2 10 -2 10 -2 10 -2 10 -2 10 -2 10 -2 10 -2 10 -2 10 -2 10 -1 10 -2 10 -2 10 -2 11 -2 10 -2 10 -112 -20 2 -10 1 -10 2 -11 2 -10 2 -10 2 -11 2 -10 2 -10 2 -10 2 -11 2 -10 2 -10 2 -10 2 -11 2 -10 2 -10 2 -10 3 -10 2 -10 2 -10 2 -10 2 -10 3 -10 2 -10 2 -10 2 -10 3 -10 2 -10 2 -10 3 -10 2 -10 2 -10 101 49zm-101 -49c8,-30 39,-49 69,-42 31,8 50,38 43,69l-112 -27zm-13 8l24 -30 90 71 -25 30 -89 -70 0 -1zm-3 186l-89 -71 0 0 3 -5 4 -4 4 -5 4 -5 3 -4 4 -4 3 -5 4 -4 3 -4 3 -4 4 -4 3 -4 3 -4 3 -4 3 -3 3 -4 3 -4 2 -3 3 -3 3 -4 2 -3 3 -3 2 -3 3 -3 2 -3 2 -3 3 -3 2 -2 2 -3 2 -2 2 -3 2 -2 90 70 -2 2 -2 3 -2 2 -2 3 -3 3 -2 3 -2 2 -3 3 -2 4 -3 3 -2 3 -3 3 -2 3 -3 4 -3 3 -3 4 -3 4 -3 3 -3 4 -3 4 -3 4 -3 4 -4 4 -3 4 -4 4 -3 5 -4 4 -3 5 -4 4 -4 5 -4 5 -3 4 0 0zm-238 112l149 -183 89 71 -149 184 0 0 -89 -72zm89 72c-20,24 -56,28 -80,8 -25,-19 -29,-55 -9,-80l89 72zm-240 113l151 -185 89 72 -151 185 -90 -71 1 -1zm89 72c-20,24 -56,28 -81,8 -24,-20 -28,-55 -8,-80l89 72zm-105 -52l15 -19 90 70 -15 19 -78 11 -12 -81zm90 70c-19,25 -55,29 -80,10 -25,-19 -29,-55 -10,-80l90 70zm-28 -93l17 12 -67 92 -17 -12 -18 -72 85 -20zm-67 92c-26,-19 -31,-54 -13,-80 19,-25 54,-31 80,-12l-67 92zm0 -137l114 0 0 0 0 3 0 4 0 4 0 4 -1 3 0 4 0 4 -1 4 0 3 -1 4 0 4 -1 3 -1 4 -1 4 -1 4 0 3 -1 4 -2 4 -1 3 -1 4 -1 4 -1 3 -2 4 -1 3 -1 4 -2 3 -1 4 -2 4 -2 3 -1 4 -2 3 -2 4 -102 -52 2 -2 1 -3 1 -2 1 -2 1 -2 1 -2 1 -2 0 -3 1 -2 1 -2 1 -2 0 -2 1 -2 1 -2 0 -2 1 -2 0 -2 1 -2 0 -2 1 -2 0 -2 0 -2 1 -2 0 -2 0 -2 0 -2 0 -2 1 -2 0 -2 0 -2 0 -1 0 -2 0 0zm-34 -218l111 -26 1 1 2 9 2 10 2 10 2 9 2 9 2 9 2 9 1 9 2 9 2 8 1 8 2 9 1 8 1 7 2 8 1 8 1 7 1 8 1 7 1 7 1 7 0 7 1 6 1 7 0 6 1 6 0 7 1 6 0 6 0 5 0 6 0 6 -114 0 0 -4 0 -4 0 -5 -1 -4 0 -5 0 -5 -1 -5 0 -6 -1 -5 0 -6 -1 -6 -1 -6 0 -6 -1 -7 -1 -6 -1 -7 -1 -7 -2 -7 -1 -7 -1 -8 -1 -8 -2 -7 -1 -8 -2 -8 -2 -9 -1 -8 -2 -9 -2 -9 -2 -9 -2 -9 -2 -9 -2 -10 0 1zm90 -117l21 91 -111 26 -21 -91 107 -38 4 12zm-13 32l-92 -68 102 23 0 0 0 1 1 1 0 0 0 1 0 1 0 0 0 1 0 1 0 0 1 1 0 0 0 0 0 1 0 0 0 0 0 1 0 0 0 0 0 0 0 0 0 1 0 -1 0 -1 0 0 0 1 0 0 0 -2 -1 -2 0 0 0 -1 -2 -3 -103 50 -1 -4 -1 -1 0 0 -1 -3 -1 -2 0 0 0 0 0 -1 0 -1 -1 -2 1 1 -1 -1 0 -1 0 0 0 -1 0 0 -1 -1 0 -1 0 0 0 -1 0 -1 0 0 0 -1 -1 -1 0 -1 0 0 0 -1 0 -1 0 -1 -1 -1 0 -1 0 -1 102 23zm-102 -23c-6,-30 14,-60 45,-67 31,-6 61,14 67,45l-112 22zm-248 367l-64 -94 0 0 11 -7 10 -7 10 -7 10 -8 10 -7 11 -8 10 -8 10 -9 10 -8 10 -9 10 -9 10 -9 11 -9 10 -9 10 -10 10 -10 10 -10 10 -10 10 -10 10 -11 10 -11 10 -11 10 -11 10 -11 10 -12 10 -12 10 -12 10 -12 10 -12 10 -13 9 -13 10 -13 92 68 -11 14 -10 13 -10 14 -11 13 -10 13 -11 13 -11 12 -10 13 -11 12 -11 12 -10 12 -11 11 -11 12 -11 11 -11 11 -11 11 -11 11 -11 10 -11 10 -11 11 -11 9 -11 10 -11 10 -11 9 -11 9 -12 9 -11 9 -11 8 -12 9 -11 8 -12 8 -11 7 0 0zm-370 125l0 -114 0 0 9 0 9 0 9 -1 9 0 9 -1 9 -1 10 -2 9 -1 9 -2 10 -2 9 -2 9 -2 10 -3 9 -2 10 -3 9 -3 10 -4 9 -3 10 -4 10 -4 10 -4 9 -5 10 -4 10 -5 10 -5 10 -6 10 -5 10 -6 10 -6 10 -6 10 -7 10 -6 64 94 -12 8 -11 7 -12 7 -11 7 -12 7 -11 6 -12 6 -11 6 -12 6 -11 5 -12 5 -11 5 -12 5 -12 5 -11 4 -12 4 -11 4 -12 3 -12 4 -11 3 -12 3 -11 2 -12 3 -12 2 -11 2 -12 1 -11 2 -12 1 -12 1 -11 0 -12 1 -11 0 0 0zm-229 -53l50 -102 0 0 5 3 5 2 6 3 5 2 5 2 6 2 5 2 6 2 5 2 5 2 6 2 5 1 6 2 5 1 6 2 6 1 5 1 6 1 5 2 6 1 6 0 5 1 6 1 6 1 6 0 5 1 6 0 6 1 6 0 6 0 6 0 6 0 0 114 -8 0 -7 0 -8 -1 -7 0 -8 0 -7 -1 -7 -1 -8 0 -7 -1 -8 -1 -7 -1 -7 -1 -7 -2 -8 -1 -7 -2 -7 -1 -7 -2 -7 -2 -7 -2 -8 -2 -7 -2 -7 -2 -7 -2 -7 -3 -7 -2 -7 -3 -7 -2 -6 -3 -7 -3 -7 -3 -7 -3 -7 -4 1 0zm-174 -145l94 -65 0 1 3 4 3 4 3 4 3 4 3 4 4 4 3 4 3 4 4 3 3 4 4 4 4 3 4 4 3 3 4 4 4 3 4 3 4 4 5 3 4 3 4 3 5 3 4 3 5 3 5 3 4 3 5 3 5 3 5 2 5 3 5 3 6 2 -50 102 -7 -3 -7 -3 -6 -4 -7 -3 -6 -4 -7 -4 -6 -3 -6 -4 -6 -4 -6 -4 -6 -4 -6 -5 -6 -4 -5 -4 -6 -5 -5 -4 -6 -5 -5 -4 -5 -5 -6 -5 -5 -5 -5 -5 -4 -5 -5 -5 -5 -5 -4 -6 -5 -5 -4 -5 -5 -6 -4 -6 -4 -5 -4 -6 0 0zm-74 -245l115 0 0 0 0 7 0 7 0 6 1 7 0 6 1 6 0 7 1 6 1 6 1 6 1 6 1 6 2 6 1 5 2 6 1 6 2 5 2 6 2 5 2 5 2 6 2 5 2 5 3 5 2 5 3 5 3 5 2 5 3 5 3 5 4 5 3 4 -94 65 -4 -6 -5 -7 -4 -7 -4 -6 -4 -7 -4 -7 -4 -7 -3 -8 -4 -7 -3 -7 -3 -7 -3 -8 -3 -7 -3 -8 -2 -7 -2 -8 -3 -8 -2 -8 -2 -8 -1 -7 -2 -8 -2 -8 -1 -9 -1 -8 -1 -8 -1 -8 -1 -8 -1 -9 0 -8 0 -9 -1 -8 0 -9 0 0zm129 -300l77 85 0 0 -6 5 -5 5 -6 6 -5 5 -5 6 -4 5 -5 6 -4 6 -4 6 -4 6 -4 6 -4 6 -3 6 -3 6 -3 7 -3 6 -3 7 -3 7 -2 7 -2 7 -2 7 -2 7 -2 8 -1 7 -2 8 -1 8 -1 8 -1 8 0 8 -1 8 0 9 0 8 -115 0 0 -11 1 -11 0 -11 1 -11 1 -10 2 -11 1 -11 2 -10 2 -10 3 -11 2 -10 3 -10 3 -10 4 -10 3 -9 4 -10 5 -9 4 -10 5 -9 5 -9 5 -9 5 -9 6 -8 6 -9 6 -8 7 -8 6 -8 7 -8 7 -8 8 -7 7 -8 8 -7 0 0zm326 -113l0 113 0 0 -10 0 -10 1 -10 0 -9 1 -10 1 -9 1 -9 1 -9 1 -9 1 -8 2 -9 2 -8 2 -8 2 -8 2 -8 2 -8 3 -7 3 -8 3 -7 3 -8 3 -7 3 -7 4 -7 3 -6 4 -7 4 -6 4 -7 5 -6 4 -6 5 -6 4 -6 5 -6 6 -77 -85 8 -7 8 -7 9 -6 8 -7 9 -6 9 -6 9 -5 9 -6 9 -5 9 -5 10 -5 10 -4 9 -5 10 -4 11 -4 10 -3 10 -4 10 -3 11 -3 11 -3 11 -2 11 -2 11 -2 11 -2 11 -2 11 -1 12 -2 11 0 12 -1 12 -1 12 0 12 0 0 0zm209 44l-48 103 0 0 -4 -2 -5 -2 -5 -2 -4 -2 -5 -2 -4 -2 -5 -1 -5 -2 -4 -1 -5 -2 -5 -1 -5 -1 -5 -2 -5 -1 -4 -1 -5 -1 -6 -1 -5 -1 -5 -1 -5 -1 -5 -1 -5 0 -6 -1 -5 0 -5 -1 -6 0 -5 -1 -6 0 -5 0 -6 0 -5 -1 -6 0 0 -113 7 0 7 0 7 0 7 0 7 1 7 0 7 1 6 1 7 0 7 1 7 1 7 1 6 1 7 1 6 1 7 2 7 1 6 2 7 1 6 2 6 2 7 1 6 2 6 2 7 3 6 2 6 2 6 2 6 3 6 2 6 3 6 3 0 0zm228 155l-73 87 0 0 -8 -6 -8 -7 -8 -6 -7 -6 -8 -6 -7 -6 -8 -6 -7 -5 -7 -6 -8 -5 -7 -5 -6 -5 -7 -5 -7 -5 -6 -4 -7 -5 -6 -4 -6 -4 -7 -4 -6 -4 -5 -4 -6 -3 -6 -4 -5 -3 -6 -3 -5 -3 -5 -3 -5 -3 -5 -3 -5 -2 -5 -2 -4 -2 48 -103 6 3 6 3 7 3 6 3 6 3 6 4 7 3 6 4 7 4 6 4 7 4 6 4 7 5 7 4 7 5 7 5 7 5 7 5 8 5 7 5 7 5 8 6 8 6 7 5 8 6 8 6 8 7 8 6 8 6 8 7 9 7 8 7 0 0zm38 28l0 114 0 0 -5 -1 -4 0 -4 0 -4 -1 -4 -1 -4 -1 -4 -1 -3 -1 -4 -1 -3 -2 -4 -1 -3 -1 -3 -2 -4 -2 -3 -1 -3 -2 -3 -2 -3 -2 -4 -2 -3 -2 -3 -2 -3 -2 -3 -2 -4 -2 -3 -3 -3 -2 -3 -3 -4 -2 -3 -3 -3 -2 -4 -3 -3 -3 73 -87 3 2 3 2 2 2 3 2 2 2 3 2 2 2 2 1 2 2 2 1 2 2 2 1 2 1 2 1 1 1 2 1 1 1 2 0 1 1 1 0 1 1 0 0 1 0 0 0 0 0 1 0 -1 0 0 0 -1 0 -1 0 -1 0 -1 0 0 0zm143 -12l-95 63 75 18 -4 3 -4 2 -5 2 -4 3 -4 2 -4 2 -4 2 -4 2 -4 2 -4 2 -4 2 -4 1 -4 2 -4 2 -3 1 -4 1 -4 2 -3 1 -4 1 -4 2 -3 1 -4 1 -3 1 -4 1 -3 1 -4 0 -4 1 -4 0 -3 1 -4 0 -4 0 -4 1 0 -114 0 0 0 0 0 0 0 0 0 0 1 0 1 0 1 -1 2 0 1 0 2 -1 1 0 2 -1 2 -1 2 -1 2 0 3 -1 2 -1 3 -1 2 -2 3 -1 3 -1 3 -1 3 -2 3 -2 4 -1 3 -2 3 -2 4 -2 3 -1 4 -2 4 -3 76 18zm-76 -18c27,-15 62,-5 78,22 15,27 6,62 -22,77l-56 -99zm-6 102l-13 -21 95 -63 13 21 -20 81 -75 -18zm95 -63c18,26 11,61 -15,78 -27,18 -62,11 -80,-15l95 -63zm-247 75l172 -94 55 100 -172 94 -66 -8 11 -92zm55 100c-28,15 -62,5 -78,-23 -15,-27 -5,-62 23,-77l55 100zm-6 -108l17 16 -77 84 -18 -16 0 -1 78 -83zm-309 -86l52 -100 0 0 8 4 9 4 8 5 8 4 8 5 8 4 8 5 8 5 8 5 8 5 8 6 8 5 8 6 8 5 8 6 8 6 8 6 8 6 8 6 8 6 8 6 8 7 8 6 8 7 8 7 8 6 8 7 8 7 8 8 8 7 8 7 8 8 -78 82 -8 -7 -7 -6 -8 -7 -7 -7 -8 -6 -7 -7 -7 -6 -8 -6 -7 -6 -7 -6 -8 -6 -7 -6 -7 -5 -8 -6 -7 -5 -7 -6 -7 -5 -7 -5 -8 -5 -7 -5 -7 -5 -7 -5 -7 -4 -7 -5 -7 -4 -8 -4 -7 -4 -7 -4 -7 -4 -7 -4 -7 -4 -6 -4 0 0zm-194 -55l0 -114 0 0 7 0 8 1 7 0 8 0 7 1 7 1 8 1 8 1 7 1 8 1 7 2 8 1 8 2 7 2 8 2 8 2 7 2 8 2 8 3 7 3 8 2 8 3 8 3 8 3 8 3 8 4 7 3 8 4 8 4 8 4 8 3 8 5 -52 100 -7 -3 -7 -4 -7 -3 -7 -3 -6 -3 -7 -3 -7 -3 -6 -3 -7 -2 -6 -3 -7 -2 -6 -2 -6 -2 -6 -2 -7 -2 -6 -2 -6 -1 -6 -2 -6 -1 -5 -2 -6 -1 -6 -1 -6 -1 -5 -1 -6 -1 -5 0 -6 -1 -5 0 -5 -1 -6 0 -5 0 -5 0 0 0zm-165 59l-80 -81 0 0 5 -6 7 -5 6 -6 6 -5 7 -5 6 -5 7 -4 7 -5 7 -4 7 -4 7 -4 7 -3 8 -4 7 -3 8 -3 8 -3 8 -3 7 -3 8 -2 9 -2 8 -2 8 -2 8 -2 9 -1 8 -2 9 -1 8 -1 9 0 9 -1 9 0 9 -1 9 0 0 114 -7 0 -7 0 -6 0 -7 1 -6 0 -7 1 -6 1 -6 1 -6 1 -5 1 -6 1 -6 2 -5 1 -5 2 -6 1 -5 2 -5 2 -5 2 -4 2 -5 2 -5 3 -4 2 -5 3 -4 2 -4 3 -5 3 -4 3 -4 3 -4 3 -4 4 -4 3 -3 4 0 0zm-61 160l-114 0 0 0 0 -9 0 -9 1 -9 0 -8 1 -9 1 -9 1 -8 2 -8 1 -9 2 -8 2 -8 2 -8 2 -8 3 -8 2 -8 3 -7 3 -8 3 -7 4 -8 4 -7 3 -7 4 -7 5 -7 4 -7 5 -7 4 -6 5 -7 5 -6 6 -6 5 -6 6 -6 6 -6 80 81 -4 4 -4 3 -3 4 -3 4 -4 4 -3 4 -3 4 -2 4 -3 5 -3 4 -2 4 -3 5 -2 4 -2 5 -2 5 -2 4 -2 5 -2 5 -1 6 -2 5 -1 5 -1 6 -2 5 -1 6 -1 6 0 5 -1 7 -1 6 0 6 0 6 -1 7 0 7 0 0zm96 209l-73 87 0 0 -9 -7 -8 -7 -7 -8 -8 -7 -7 -8 -7 -8 -7 -8 -7 -8 -6 -8 -6 -9 -6 -8 -5 -9 -6 -9 -5 -9 -4 -9 -5 -10 -4 -9 -4 -10 -3 -9 -4 -10 -3 -10 -3 -10 -2 -11 -3 -10 -2 -10 -1 -11 -2 -10 -1 -11 -1 -11 0 -11 -1 -10 0 -11 114 0 0 8 1 8 0 8 1 8 1 8 1 7 1 8 1 7 2 8 2 7 2 7 2 7 2 6 3 7 2 7 3 6 3 7 4 6 3 6 4 6 3 6 4 6 4 6 5 6 4 5 5 6 5 6 5 5 6 6 5 5 6 5 6 5 0 0zm265 84l0 114 0 0 -12 0 -12 0 -13 -1 -12 -1 -12 -1 -12 -1 -12 -1 -11 -2 -12 -2 -11 -2 -12 -2 -11 -2 -11 -3 -11 -3 -11 -3 -11 -3 -10 -4 -11 -4 -10 -4 -10 -4 -10 -4 -10 -5 -10 -5 -10 -5 -9 -5 -10 -6 -9 -6 -9 -6 -9 -6 -8 -6 -9 -7 -8 -7 73 -87 7 5 6 5 6 5 7 5 7 4 6 4 7 5 7 4 8 3 7 4 7 4 8 3 8 3 8 3 8 3 8 3 8 2 8 3 9 2 9 2 9 2 9 2 9 1 9 2 10 1 9 1 10 1 10 1 10 1 10 0 11 0 10 0 0 0zm291 -95l63 95 0 0 -11 7 -10 6 -11 7 -11 6 -10 6 -11 6 -11 6 -11 5 -11 5 -11 5 -11 5 -11 5 -10 4 -11 4 -12 4 -11 4 -11 3 -11 4 -11 3 -11 3 -11 2 -12 3 -11 2 -11 2 -11 1 -12 2 -11 1 -11 1 -12 1 -11 1 -11 0 -12 0 0 -114 9 0 10 0 9 0 9 -1 9 -1 9 -1 9 -1 9 -1 9 -2 9 -2 9 -2 9 -2 9 -2 9 -2 9 -3 9 -3 9 -3 9 -3 9 -4 9 -3 9 -4 9 -4 9 -4 9 -5 9 -4 10 -5 9 -5 9 -5 9 -6 9 -5 9 -6 10 -6 0 0zm278 -250l112 -21 -9 43 -10 13 -9 13 -9 13 -10 12 -9 12 -10 13 -9 11 -10 12 -9 12 -10 11 -10 11 -10 11 -9 11 -10 10 -10 11 -10 10 -10 10 -10 9 -10 10 -10 9 -10 10 -10 9 -10 9 -11 8 -10 9 -10 8 -10 8 -11 8 -10 8 -11 7 -10 7 -11 8 -63 -95 9 -6 9 -6 9 -7 9 -7 9 -7 10 -7 9 -7 9 -8 9 -7 9 -8 9 -8 9 -9 9 -8 9 -9 9 -9 9 -9 9 -9 9 -9 9 -10 9 -10 9 -10 9 -10 9 -11 9 -10 9 -11 9 -11 8 -11 9 -12 9 -11 9 -12 9 -12 8 -12 -9 43zm9 -43c19,-26 54,-32 80,-14 26,18 32,54 14,79l-94 -65zm-24 -90l115 0 0 0 0 3 0 2 0 3 0 3 0 3 0 3 0 3 0 3 1 3 0 3 0 3 0 4 1 3 0 3 0 4 1 3 0 4 1 3 0 4 0 4 1 3 1 4 0 4 1 4 0 4 1 4 1 4 0 4 1 5 1 4 0 4 1 4 -112 21 -1 -5 -1 -5 -1 -4 -1 -5 0 -5 -1 -4 -1 -5 0 -4 -1 -5 -1 -4 0 -4 -1 -5 0 -4 -1 -4 0 -4 -1 -5 0 -4 -1 -4 0 -4 -1 -4 0 -4 0 -4 0 -4 -1 -4 0 -3 0 -4 0 -4 0 -4 -1 -3 0 -4 0 -3 0 -4 0 0zm59 -265l105 47 0 0 -3 7 -3 7 -3 7 -3 6 -3 7 -2 7 -3 7 -2 6 -2 7 -2 7 -2 7 -2 7 -2 6 -2 7 -2 7 -1 7 -2 7 -1 6 -1 7 -1 7 -2 7 -1 7 0 6 -1 7 -1 7 -1 7 0 7 -1 7 0 6 0 7 0 7 0 7 -115 0 0 -8 1 -9 0 -8 0 -9 1 -8 0 -8 1 -9 1 -8 1 -9 1 -8 1 -8 2 -9 1 -8 2 -8 1 -9 2 -8 2 -8 2 -8 2 -9 2 -8 3 -8 2 -8 3 -9 3 -8 2 -8 3 -8 3 -8 4 -8 3 -8 3 -8 4 -9 3 -8 0 0zm162 -151l0 113 0 0 1 0 0 0 0 0 0 0 0 0 0 0 -1 0 -1 1 0 0 -2 1 -1 1 -1 1 -2 2 -2 1 -2 2 -2 2 -2 3 -3 3 -2 3 -3 3 -2 4 -3 4 -3 4 -3 4 -2 5 -3 5 -3 6 -3 5 -3 6 -3 6 -3 6 -3 7 -105 -47 4 -7 4 -8 3 -8 4 -7 4 -7 4 -7 4 -7 4 -7 4 -6 4 -6 4 -6 4 -6 4 -6 5 -5 4 -5 5 -5 4 -5 5 -5 5 -5 6 -4 5 -4 5 -4 6 -4 6 -3 7 -3 6 -3 7 -3 6 -2 7 -1 8 -1 7 -1 7 0 0 0zm113 150l-115 0 0 0 0 -5 0 -4 0 -4 0 -4 -1 -4 0 -3 -1 -3 0 -3 -1 -3 0 -2 -1 -2 0 -1 -1 -2 0 0 0 -1 -1 -1 0 0 0 0 1 1 0 0 1 1 0 0 1 1 1 1 1 0 1 1 1 0 1 0 0 0 0 0 0 0 0 0 0 -113 7 0 6 0 7 1 7 2 6 1 7 3 6 3 7 3 6 3 5 5 6 4 5 5 4 5 5 5 4 5 3 6 3 6 3 5 3 6 2 6 2 6 1 6 2 6 1 6 1 6 1 6 1 7 1 6 0 7 0 6 1 7 0 7 0 0zm-37 160l-106 -43 0 0 2 -5 2 -4 1 -4 2 -5 2 -4 1 -4 1 -4 2 -4 1 -4 1 -4 2 -4 1 -4 1 -4 1 -4 1 -4 1 -3 1 -4 0 -4 1 -3 1 -4 0 -3 1 -3 0 -4 1 -3 0 -3 0 -3 1 -3 0 -3 0 -3 0 -3 0 -3 0 -3 115 0 0 5 0 4 -1 5 0 5 0 5 -1 5 0 4 -1 5 0 5 -1 5 -1 5 -1 5 -1 5 -1 5 -1 5 -1 4 -1 6 -1 5 -2 5 -1 5 -2 5 -1 5 -2 5 -1 5 -2 5 -2 5 -2 6 -2 5 -2 5 -2 5 -2 6 -2 5 0 0zm-105 165l-112 24 7 -42 5 -7 4 -8 5 -7 4 -7 4 -7 4 -7 4 -6 4 -7 4 -7 4 -6 4 -7 4 -6 3 -7 4 -6 3 -6 3 -6 3 -6 4 -6 3 -5 3 -6 2 -6 3 -5 3 -5 2 -6 3 -5 2 -5 3 -5 2 -5 2 -5 2 -4 2 -5 2 -4 106 43 -2 6 -3 5 -2 5 -3 6 -2 6 -3 5 -3 6 -3 6 -3 6 -3 6 -3 6 -3 6 -3 6 -3 6 -4 7 -3 6 -4 7 -3 6 -4 7 -4 7 -4 6 -4 7 -4 7 -4 7 -4 7 -4 8 -5 7 -4 7 -5 8 -4 7 -5 8 -5 7 8 -42zm-8 42c-17,27 -52,35 -79,18 -26,-16 -35,-51 -18,-78l97 60zm37 79l-111 28 0 0 -1 -5 -2 -6 -1 -5 -1 -5 -1 -5 -2 -5 -1 -5 -1 -4 -1 -5 -1 -5 -1 -4 -2 -4 -1 -5 -1 -4 -1 -4 -1 -4 -1 -4 0 -3 -1 -4 -1 -4 -1 -3 -1 -3 -1 -4 0 -3 -1 -3 -1 -3 0 -3 -1 -3 -1 -2 0 -3 -1 -3 0 -2 112 -24 0 2 1 3 0 2 1 3 0 2 1 3 0 3 1 3 1 2 1 4 0 3 1 3 1 4 1 3 1 4 1 4 1 3 0 4 1 4 2 4 1 5 1 4 1 5 1 4 1 5 1 5 1 4 2 5 1 5 1 6 2 5 1 5 0 0zm-51 237l90 70 -102 -29 0 -6 -1 -7 -1 -6 0 -7 -1 -7 -1 -7 -1 -7 -1 -7 -1 -7 -2 -7 -1 -7 -1 -8 -1 -7 -2 -8 -1 -8 -2 -7 -1 -8 -2 -8 -1 -8 -2 -8 -2 -8 -2 -9 -1 -8 -2 -9 -2 -8 -2 -9 -2 -9 -3 -8 -2 -9 -2 -9 -2 -9 -3 -10 111 -28 3 10 2 9 2 10 3 9 2 9 2 9 2 9 2 9 2 9 2 9 2 9 2 8 2 9 1 9 2 8 2 8 1 9 2 8 1 8 2 8 1 8 1 8 2 8 1 8 1 7 1 8 1 7 1 8 1 7 1 7 1 8 0 7 -102 -30zm102 30c3,31 -19,59 -51,62 -31,3 -59,-20 -63,-51l114 -11zm-79 -58l89 71 0 0 0 1 -1 0 0 0 0 1 -1 0 0 1 -1 0 0 1 -1 1 0 0 -1 1 0 1 -1 1 -1 0 0 1 -1 1 -1 1 0 1 -1 1 -1 1 -1 1 0 1 -1 1 -1 1 -1 1 -1 1 -1 1 -1 1 0 1 -2 2 -1 1 -1 1 -90 -70 1 -1 1 -1 1 -1 1 -2 1 -1 1 -1 1 -1 1 -1 1 -1 0 -1 1 -1 1 -1 1 -1 1 -1 0 -1 1 -1 1 -1 0 -1 1 -1 0 0 1 -1 1 -1 0 -1 1 0 0 -1 1 0 0 -1 1 -1 0 0 1 -1 0 0 1 -1 0 0zm133 17l-44 54 -89 -71 45 -55 89 72 -1 0zm-88 -72c20,-24 56,-28 80,-8 25,20 28,55 8,80l-88 -72zm407 -320l-318 392 -89 -72 318 -391 0 0 89 71zm78 -265l81 80 0 0 -3 3 -3 3 -3 4 -3 3 -4 4 -3 4 -4 4 -4 4 -4 4 -4 5 -5 5 -4 5 -5 5 -4 5 -5 6 -5 6 -5 6 -5 6 -6 6 -5 6 -6 7 -5 7 -6 7 -6 7 -6 7 -6 8 -7 7 -6 8 -7 8 -7 8 -7 9 -6 8 -89 -71 7 -9 7 -9 7 -8 6 -8 7 -8 6 -8 7 -7 6 -8 6 -7 6 -7 6 -7 5 -7 6 -6 6 -7 5 -6 5 -6 5 -6 5 -6 5 -6 5 -5 5 -5 4 -5 5 -5 4 -5 4 -5 4 -4 4 -4 4 -5 4 -4 4 -3 3 -4 4 -4 0 0zm120 -92l56 99 0 0 -4 2 -3 2 -3 2 -3 2 -3 1 -3 2 -3 2 -3 2 -3 2 -3 2 -3 2 -3 3 -3 2 -3 2 -3 2 -3 2 -3 3 -3 2 -3 2 -3 3 -2 2 -3 3 -3 2 -3 3 -3 2 -3 3 -3 2 -3 3 -2 3 -3 3 -3 2 -3 3 -81 -80 3 -3 4 -4 3 -3 4 -3 3 -4 4 -3 3 -3 4 -3 3 -3 4 -4 4 -3 3 -3 4 -3 4 -3 3 -3 4 -3 4 -2 4 -3 4 -3 3 -3 4 -2 4 -3 4 -3 4 -2 4 -3 4 -2 4 -3 4 -2 4 -3 4 -2 4 -2 4 -3 0 0zm233 24l-110 -32 55 73 -4 0 -3 0 -4 0 -4 0 -3 1 -4 0 -4 0 -3 1 -4 0 -4 1 -4 1 -3 1 -4 0 -4 1 -4 1 -4 1 -3 1 -4 1 -4 2 -4 1 -4 1 -4 2 -4 1 -4 2 -3 2 -4 1 -4 2 -4 2 -4 2 -4 2 -4 2 -4 2 -56 -99 5 -3 6 -3 5 -2 5 -3 6 -3 5 -2 6 -3 5 -2 6 -2 5 -2 6 -2 5 -2 6 -2 5 -2 6 -2 6 -1 5 -2 6 -1 6 -1 5 -2 6 -1 5 -1 6 -1 6 -1 5 0 6 -1 6 -1 5 0 6 0 6 -1 5 0 6 0 55 73zm-55 -73c32,0 57,26 57,57 0,31 -25,57 -57,57l0 -114zm-879 260l108 36 0 0 -1 5 -2 5 -2 5 -2 4 -1 5 -2 5 -2 5 -2 5 -2 5 -2 5 -2 4 -2 5 -2 5 -2 5 -2 5 -2 4 -3 5 -2 5 -2 5 -2 5 -3 4 -2 5 -2 5 -3 5 -2 4 -3 5 -2 5 -3 5 -2 4 -3 5 -3 5 -2 4 -100 -56 3 -4 2 -4 2 -4 3 -5 2 -4 2 -4 2 -4 2 -4 2 -4 2 -4 3 -4 2 -5 2 -4 1 -4 2 -4 2 -4 2 -4 2 -5 2 -4 2 -4 1 -4 2 -4 2 -4 2 -5 1 -4 2 -4 1 -4 2 -4 1 -5 2 -4 1 -4 2 -4 0 0zm22 -105l114 0 0 0 0 4 0 4 0 4 -1 4 0 4 0 4 -1 4 0 5 0 4 -1 4 -1 4 0 4 -1 5 -1 4 0 4 -1 5 -1 4 -1 4 -1 5 -1 4 -1 5 -1 4 -2 5 -1 5 -1 4 -2 5 -1 5 -1 4 -2 5 -1 5 -2 5 -2 5 -108 -36 1 -5 2 -4 1 -4 1 -4 1 -4 2 -4 1 -4 1 -3 1 -4 1 -4 1 -3 1 -4 0 -3 1 -4 1 -3 1 -4 0 -3 1 -3 0 -3 1 -3 0 -3 1 -3 0 -3 0 -3 1 -3 0 -2 0 -3 0 -2 0 -3 0 -2 1 -3 0 -2 0 0zm20 5l0 -114 0 0 5 0 5 1 5 0 5 1 6 1 5 2 5 2 5 2 5 3 5 3 5 3 4 3 4 4 4 4 4 4 3 5 3 4 2 5 2 4 2 5 2 4 2 5 1 4 1 5 1 4 1 4 1 5 0 4 0 5 1 4 0 5 0 4 -114 0 0 -2 -1 -2 0 -1 0 -2 0 -1 0 -1 0 0 0 -1 0 0 0 0 0 0 0 0 0 1 0 0 1 1 1 1 1 2 1 1 1 1 1 1 2 1 1 2 2 1 2 0 1 1 2 1 1 0 1 0 2 1 0 0 1 0 0 0 0 0zm8 18l-108 -36 0 0 1 -4 2 -4 1 -4 2 -4 1 -4 2 -4 2 -4 2 -4 2 -4 2 -3 2 -4 2 -3 2 -4 3 -3 2 -4 3 -3 3 -4 2 -3 4 -3 3 -3 4 -3 4 -3 4 -3 4 -3 5 -2 4 -2 5 -2 6 -2 5 -1 5 -1 6 -1 5 0 0 114 3 0 2 0 2 -1 2 0 2 -1 2 -1 1 0 2 -1 1 -1 1 0 1 -1 0 -1 1 0 0 0 0 0 0 0 0 0 -1 1 0 0 -1 1 0 1 -1 1 -1 2 -1 1 0 2 -1 2 -1 2 -1 2 -1 2 -1 3 -1 2 -1 3 0 0zm-16 120l-114 0 0 0 0 -5 0 -6 0 -5 0 -5 0 -6 0 -5 1 -5 0 -5 0 -6 1 -5 0 -5 1 -5 0 -5 1 -5 0 -5 1 -4 1 -5 0 -5 1 -5 1 -5 1 -4 1 -5 1 -5 1 -4 1 -5 1 -4 1 -5 1 -4 2 -5 1 -4 1 -4 2 -5 108 36 -1 3 -1 3 -1 3 0 3 -1 3 -1 3 -1 4 -1 3 0 3 -1 3 -1 4 0 3 -1 4 -1 4 0 3 -1 4 0 4 -1 4 0 3 0 4 -1 4 0 4 -1 5 0 4 0 4 0 4 0 5 -1 4 0 4 0 5 0 4 0 5 0 0zm-95 95l100 56 -106 -18 -1 -5 -1 -5 -1 -4 0 -5 -1 -4 -1 -5 0 -4 -1 -5 -1 -4 0 -4 -1 -5 0 -4 -1 -4 0 -4 -1 -5 0 -4 0 -4 -1 -4 0 -4 0 -4 -1 -4 0 -4 0 -4 0 -4 -1 -4 0 -3 0 -4 0 -4 0 -4 0 -4 0 -3 0 -4 114 0 0 3 0 3 0 3 0 3 0 3 0 3 1 3 0 3 0 4 0 3 0 3 1 3 0 4 0 3 1 4 0 3 0 4 1 4 0 3 0 4 1 4 0 3 1 4 0 4 1 4 0 4 1 4 1 4 0 4 1 4 1 4 0 5 -106 -19zm106 19c6,30 -15,60 -46,65 -31,5 -61,-15 -66,-46l112 -19zm1097 531l-12 -17 93 -65 13 17 -13 78 -81 -13zm94 -65c18,26 11,61 -14,79 -26,18 -62,12 -80,-14l94 -65zm-300 113l114 6 -70 -58 7 -2 7 -1 7 -2 7 -2 7 -2 6 -2 7 -2 6 -2 6 -2 7 -2 6 -3 6 -2 6 -2 5 -2 6 -3 6 -2 5 -2 5 -3 5 -2 5 -3 5 -2 5 -3 5 -2 5 -3 4 -2 4 -3 5 -2 4 -3 4 -3 4 -2 4 -3 3 -3 69 91 -5 4 -6 4 -5 3 -6 4 -5 4 -6 3 -6 4 -6 3 -6 4 -6 3 -7 3 -6 3 -6 3 -7 3 -6 3 -7 3 -7 3 -7 3 -7 3 -7 2 -7 3 -7 3 -8 2 -7 3 -8 2 -7 2 -8 3 -8 2 -8 2 -8 2 -8 2 -8 3 -71 -59zm71 59c-31,7 -62,-12 -69,-42 -8,-30 11,-61 42,-69l27 111zm111 -254l-87 -74 95 61 -4 10 -5 10 -4 10 -5 9 -4 9 -4 10 -3 8 -4 9 -3 9 -4 8 -3 8 -3 8 -3 7 -3 8 -2 7 -3 7 -2 7 -2 6 -2 6 -2 6 -2 6 -1 6 -1 5 -2 5 -1 5 -1 4 -1 5 0 4 -1 3 0 4 0 3 -1 2 -114 -6 1 -6 0 -6 1 -6 1 -6 1 -6 1 -7 1 -6 2 -7 2 -7 1 -7 2 -7 2 -7 3 -7 2 -8 3 -7 2 -8 3 -8 3 -8 3 -8 3 -9 3 -8 4 -9 4 -9 3 -9 4 -10 4 -9 4 -10 5 -10 4 -10 5 -10 5 -10 4 -11 96 61zm-96 -61c14,-28 48,-41 76,-27 29,13 42,46 28,75l-104 -48zm-95 240l-67 -92 0 0 5 -4 5 -4 6 -4 5 -4 6 -4 5 -5 5 -4 6 -4 5 -5 6 -5 5 -4 5 -5 6 -5 5 -5 6 -5 5 -4 5 -6 6 -5 5 -5 5 -5 6 -5 5 -6 5 -5 6 -6 5 -5 5 -6 5 -6 6 -6 5 -6 5 -6 6 -6 5 -6 87 74 -6 7 -6 6 -5 7 -6 6 -6 6 -6 7 -5 6 -6 6 -6 6 -6 6 -6 6 -6 6 -6 6 -6 6 -6 5 -6 6 -6 6 -6 5 -6 6 -6 5 -6 5 -6 5 -6 6 -6 5 -6 5 -6 5 -6 5 -6 4 -6 5 -7 5 -6 4 -6 5 0 0zm-181 78l0 -113 0 0 1 0 2 0 1 -1 2 0 2 0 2 -1 2 0 3 -1 2 0 3 -1 3 -1 3 -1 4 -2 3 -1 3 -1 4 -2 4 -2 4 -2 4 -2 4 -2 4 -2 4 -3 5 -2 4 -3 5 -3 5 -3 5 -3 5 -3 5 -4 5 -3 5 -4 6 -4 67 92 -6 4 -6 5 -6 4 -6 4 -6 4 -6 4 -6 3 -6 4 -6 4 -6 3 -5 3 -6 3 -6 3 -5 3 -6 3 -5 2 -6 3 -5 2 -6 2 -5 2 -6 2 -5 2 -5 2 -6 1 -5 2 -6 1 -5 1 -6 1 -6 0 -5 1 -6 0 -5 0 0 0zm-105 -117l114 0 0 0 0 3 0 2 0 2 1 1 0 1 0 2 0 1 0 0 0 1 1 0 0 0 -1 0 0 -1 0 0 -1 -1 0 -1 -1 -1 -1 0 -1 -1 -1 -1 -1 -1 -1 -1 -1 0 -1 -1 -1 0 0 0 -1 0 0 0 0 0 0 0 0 0 1 0 0 113 -6 0 -5 0 -5 -1 -6 -1 -5 -1 -6 -1 -5 -2 -5 -2 -6 -2 -5 -3 -5 -3 -5 -4 -5 -4 -4 -4 -4 -4 -4 -4 -3 -5 -4 -5 -2 -5 -3 -5 -2 -5 -2 -5 -2 -5 -1 -5 -2 -5 -1 -5 0 -5 -1 -5 -1 -5 0 -5 0 -5 0 -6 0 0zm104 -255l90 70 0 0 -5 6 -5 7 -5 7 -4 6 -5 7 -4 7 -4 6 -4 6 -4 7 -3 6 -4 6 -3 6 -3 6 -3 6 -3 6 -2 6 -2 6 -3 6 -2 5 -1 6 -2 5 -2 6 -1 5 -1 5 -1 5 -1 6 -1 5 -1 5 0 5 0 5 -1 5 0 4 -114 0 0 -8 0 -8 1 -8 1 -8 1 -8 1 -8 1 -8 2 -8 2 -8 2 -8 2 -8 2 -8 3 -8 3 -8 3 -8 3 -7 4 -8 3 -8 4 -8 4 -8 4 -8 5 -8 4 -8 5 -8 5 -8 5 -8 5 -8 5 -8 6 -8 6 -8 6 -8 6 -8 0 0zm248 -209l56 99 0 0 -8 4 -8 5 -8 4 -8 5 -8 5 -7 5 -8 5 -7 5 -7 5 -8 5 -7 5 -7 5 -7 6 -7 5 -6 6 -7 5 -7 6 -6 6 -7 5 -6 6 -6 6 -6 6 -7 6 -6 7 -6 6 -5 6 -6 7 -6 6 -5 7 -6 6 -5 7 -6 7 -90 -70 6 -8 6 -8 7 -7 6 -8 7 -8 7 -7 7 -8 7 -7 7 -7 7 -7 7 -7 7 -7 8 -7 7 -7 8 -7 8 -6 8 -7 8 -6 8 -7 8 -6 8 -6 8 -6 9 -6 8 -6 9 -6 8 -5 9 -6 9 -5 9 -6 9 -5 9 -5 9 -6 0 1zm340 -95l0 114 0 0 -9 0 -8 0 -9 1 -9 0 -8 1 -9 1 -9 1 -9 1 -8 1 -9 2 -9 1 -9 2 -9 2 -8 2 -9 2 -9 3 -9 2 -9 3 -9 3 -9 3 -9 3 -9 3 -8 4 -9 3 -9 4 -9 4 -9 4 -10 5 -9 4 -9 5 -9 5 -9 5 -56 -99 11 -6 10 -6 11 -5 10 -5 11 -5 10 -5 11 -5 10 -4 11 -5 10 -4 11 -4 11 -4 10 -3 11 -4 10 -3 11 -3 11 -3 10 -2 11 -3 11 -2 10 -2 11 -2 11 -2 10 -2 11 -1 11 -1 11 -1 10 -1 11 -1 11 0 10 -1 11 0 0 0zm79 73l-114 0 0 0 0 2 0 1 0 2 0 2 1 2 1 2 0 3 1 2 2 3 1 2 2 3 1 2 2 2 2 2 2 2 2 2 3 1 2 1 1 1 2 1 2 1 2 1 1 0 1 0 1 0 1 1 1 0 0 0 1 0 0 0 0 0 0 0 0 -114 3 0 2 0 3 1 3 0 3 0 3 1 3 0 4 1 2 1 4 1 3 1 4 1 3 2 4 2 3 2 4 3 3 2 3 3 4 3 3 4 2 3 3 4 2 4 2 4 2 4 1 4 1 4 1 4 0 3 1 4 0 4 0 3 0 0zm-87 108l19 -112 -60 29 1 -2 1 -2 1 -2 1 -2 1 -2 1 -2 1 -2 1 -1 1 -2 0 -1 1 -2 1 -1 0 -1 1 -2 0 -1 1 -1 0 -1 0 -1 1 -1 0 0 0 -1 0 0 0 0 0 0 0 -1 0 0 0 1 0 1 0 0 0 1 0 2 0 1 114 0 0 4 0 3 0 3 -1 2 0 3 -1 3 0 2 -1 3 0 2 -1 2 -1 2 -1 3 0 2 -1 2 -1 2 -1 3 -1 2 -1 2 -1 2 -1 3 -1 2 -1 2 -1 2 -1 3 -1 2 -1 3 -1 2 -2 3 -1 2 -1 3 -2 2 -1 3 -60 29zm60 -29c-15,27 -50,38 -78,23 -27,-15 -38,-50 -23,-77l101 54zm-140 21l0 -113 0 0 3 0 3 0 3 0 3 0 3 0 3 0 3 0 3 0 3 1 3 0 4 0 3 0 3 0 3 1 3 0 3 0 3 0 3 1 3 0 4 0 3 1 3 0 3 0 3 1 3 0 3 1 4 0 3 1 3 0 3 1 3 0 3 1 -19 112 -3 -1 -3 0 -2 -1 -3 0 -2 0 -3 -1 -2 0 -3 0 -3 -1 -2 0 -3 0 -2 -1 -3 0 -2 0 -3 -1 -2 0 -3 0 -2 0 -3 0 -2 -1 -3 0 -2 0 -3 0 -2 0 -3 0 -2 0 -2 0 -3 0 -2 -1 -3 0 -2 0 -2 0 0 0zm-317 142l-83 -77 0 0 10 -11 10 -10 11 -11 11 -9 11 -10 11 -9 11 -9 11 -8 12 -8 12 -8 11 -8 12 -7 12 -7 13 -6 12 -6 13 -6 12 -6 13 -5 13 -5 13 -4 13 -4 14 -4 13 -3 13 -3 14 -3 14 -2 14 -2 14 -1 14 -2 14 0 14 -1 15 0 0 113 -12 1 -11 0 -12 1 -11 1 -11 1 -11 1 -11 2 -10 2 -11 3 -10 2 -10 3 -11 3 -10 4 -10 3 -10 4 -10 4 -9 5 -10 5 -9 5 -10 5 -9 6 -10 6 -9 6 -9 6 -9 7 -9 7 -9 8 -9 7 -9 8 -8 9 -9 8 -9 9 0 0zm-95 194l-114 0 0 0 0 -9 0 -9 1 -9 1 -9 1 -9 2 -8 1 -9 2 -9 3 -9 2 -8 3 -9 3 -9 3 -8 3 -9 4 -9 4 -8 4 -9 5 -8 4 -8 5 -9 5 -8 5 -8 6 -9 5 -8 6 -8 7 -8 6 -8 6 -8 7 -8 7 -9 7 -7 8 -8 83 77 -6 7 -6 7 -6 6 -5 7 -5 6 -6 7 -4 6 -5 7 -4 6 -5 6 -4 7 -3 6 -4 6 -3 6 -4 6 -3 6 -2 6 -3 6 -2 6 -2 6 -2 6 -2 6 -2 5 -1 6 -2 6 -1 5 -1 6 0 6 -1 5 0 6 -1 5 0 6 0 0zm-17 -3l0 113 0 0 -5 0 -5 0 -5 -1 -5 0 -5 -2 -5 -1 -5 -2 -6 -2 -5 -2 -5 -3 -5 -3 -4 -4 -4 -3 -5 -4 -3 -5 -4 -4 -3 -4 -3 -5 -2 -5 -2 -4 -2 -5 -2 -5 -2 -4 -1 -5 -1 -5 -1 -4 -1 -5 0 -5 -1 -4 0 -5 0 -4 0 -5 114 0 0 2 0 1 1 2 0 1 0 2 0 1 0 0 0 1 0 0 0 0 0 0 0 -1 0 0 -1 -1 0 -1 -1 -1 -1 -1 -1 -1 -1 -1 -1 -1 -1 -1 -2 -1 -1 -1 -2 0 -1 -1 -1 0 -1 -1 -1 0 -1 0 0 0 -1 0 0 0 0 0zm60 -43l77 83 0 0 -4 4 -4 4 -5 4 -4 3 -4 4 -4 3 -4 4 -4 3 -5 3 -4 3 -4 3 -4 3 -4 2 -4 3 -4 2 -4 3 -4 2 -4 2 -4 3 -4 2 -4 2 -4 1 -4 2 -5 2 -4 1 -5 1 -4 2 -5 1 -5 0 -5 1 -4 0 -6 0 0 -113 0 0 -1 0 0 0 0 0 0 0 0 0 1 0 0 -1 1 0 1 0 2 -1 1 -1 2 -1 2 0 2 -1 2 -2 2 -1 2 -1 3 -2 2 -2 3 -2 3 -2 3 -2 2 -2 3 -2 4 -3 3 -2 3 -3 4 -3 3 -3 3 -3 4 -3 0 0zm105 -124l96 61 0 1 -3 5 -4 5 -3 5 -4 5 -3 5 -4 5 -3 5 -4 4 -4 5 -3 5 -4 5 -4 4 -3 5 -4 5 -4 4 -4 5 -4 5 -4 4 -4 5 -4 4 -4 4 -4 5 -4 4 -4 4 -4 5 -4 4 -4 4 -4 4 -5 4 -4 4 -4 4 -5 4 -77 -83 4 -4 3 -3 4 -4 3 -3 4 -3 4 -4 3 -4 4 -3 3 -4 4 -3 3 -4 3 -4 4 -4 3 -3 3 -4 4 -4 3 -4 3 -4 3 -4 4 -4 3 -4 3 -4 3 -4 3 -4 3 -4 3 -5 4 -4 3 -4 3 -5 3 -4 3 -4 2 -5 0 1zm173 -239l-60 96 86 -36 -2 8 -2 8 -2 8 -2 8 -2 7 -2 8 -2 8 -3 7 -2 8 -3 8 -3 7 -3 8 -2 8 -3 7 -3 8 -4 7 -3 8 -3 7 -4 7 -3 8 -4 7 -4 8 -3 7 -4 7 -4 8 -4 7 -5 7 -4 7 -4 8 -5 7 -4 7 -5 7 -96 -61 4 -7 4 -6 4 -6 4 -6 3 -6 4 -7 3 -6 4 -6 3 -6 3 -7 4 -6 3 -6 3 -6 3 -7 2 -6 3 -6 3 -7 2 -6 3 -6 2 -7 3 -6 2 -7 2 -6 2 -6 2 -7 2 -6 2 -7 2 -6 2 -7 1 -6 2 -7 1 -6 86 -36zm-86 36c7,-31 38,-50 68,-43 31,7 51,37 44,67l-112 -24zm142 77l-114 0 0 0 0 -2 -1 -1 0 -2 0 -2 0 -1 0 -1 0 -2 0 -1 -1 -1 0 0 0 -1 0 -1 0 -1 -1 0 0 -1 0 0 0 0 0 0 0 0 0 -1 0 0 0 1 0 0 0 0 0 0 0 0 0 0 1 0 0 0 0 0 0 0 0 0 60 -96 4 2 3 3 4 2 3 3 3 3 4 3 2 3 3 3 3 3 3 4 2 3 2 4 2 3 2 4 2 4 2 4 2 3 1 4 1 4 2 4 1 4 1 4 1 4 0 3 1 4 0 4 1 4 0 4 1 4 0 4 0 4 0 4 0 0zm-128 94l9 113 -50 -91 4 -5 3 -4 4 -5 3 -5 3 -4 3 -5 3 -4 3 -4 2 -4 3 -5 2 -4 2 -4 2 -4 2 -4 2 -3 2 -4 1 -4 2 -3 1 -4 1 -3 1 -3 1 -4 1 -3 1 -3 1 -3 0 -2 1 -3 0 -3 0 -3 0 -2 1 -3 0 -2 114 0 0 6 0 6 -1 6 -1 6 0 6 -1 5 -1 6 -2 6 -1 6 -2 6 -2 6 -1 5 -2 6 -3 6 -2 6 -2 5 -3 6 -3 6 -3 6 -3 5 -3 6 -3 6 -3 6 -4 5 -3 6 -4 6 -4 6 -4 5 -4 6 -4 6 -5 6 -4 6 -50 -92zm50 92c-20,24 -55,29 -80,10 -25,-19 -30,-55 -11,-80l91 70zm88 -30l-104 -48 70 78 -3 1 -4 1 -3 1 -3 1 -3 1 -3 1 -4 1 -3 1 -3 1 -3 1 -3 0 -3 1 -3 1 -3 1 -3 0 -3 1 -3 1 -3 0 -3 1 -2 1 -3 0 -3 1 -3 0 -3 1 -2 0 -3 1 -3 0 -3 0 -3 1 -2 0 -3 0 -3 0 -9 -113 1 0 2 0 1 0 2 0 1 -1 2 0 2 0 1 0 2 -1 2 0 2 0 2 -1 2 0 2 -1 2 0 2 -1 2 0 2 -1 3 0 2 -1 2 0 3 -1 2 -1 2 0 3 -1 2 -1 3 -1 3 0 2 -1 3 -1 3 -1 2 -1 71 78zm-71 -78c30,-10 63,6 73,36 10,29 -6,62 -36,72l-37 -108zm-39 42l6 -12 104 48 -6 11 -104 -47 0 0zm44 192l-114 0 0 0 0 -6 0 -5 1 -4 1 -4 1 -5 1 -4 1 -4 1 -4 2 -4 1 -5 2 -4 1 -5 2 -5 2 -5 2 -5 2 -6 2 -5 3 -6 2 -6 3 -7 2 -6 3 -7 3 -7 3 -7 3 -8 4 -7 3 -8 4 -8 3 -9 4 -8 4 -9 4 -9 104 47 -4 9 -3 8 -4 8 -4 8 -3 8 -3 8 -4 7 -3 7 -3 7 -2 7 -3 6 -3 6 -2 6 -2 6 -2 5 -2 5 -2 5 -2 4 -1 5 -2 4 -1 3 -1 4 -1 3 -1 3 -1 2 0 2 -1 2 0 1 0 0 0 0 0 -1 0 -3 0 0zm-43 -38l9 113 0 0 -3 0 -4 0 -3 0 -3 0 -4 0 -4 -1 -3 -1 -4 -1 -4 -1 -4 -2 -4 -1 -4 -2 -4 -3 -4 -2 -3 -3 -4 -3 -3 -4 -3 -3 -2 -4 -3 -3 -2 -4 -1 -4 -2 -4 -1 -3 -1 -3 -1 -4 -1 -3 0 -4 -1 -3 0 -3 0 -3 0 -3 114 0 0 0 0 -1 0 -1 0 -1 0 -2 -1 -1 0 -2 -1 -1 0 -2 -1 -2 -1 -2 -1 -2 -2 -2 -1 -3 -2 -2 -2 -2 -2 -2 -3 -2 -2 -2 -2 -1 -3 -1 -2 -1 -3 -1 -2 -1 -2 -1 -2 0 -2 0 -1 0 -2 0 -1 0 -1 0 -1 0 0 0zm112 -3l-93 65 76 16 -3 2 -3 1 -3 2 -3 2 -3 1 -2 2 -3 1 -3 2 -2 1 -3 1 -3 2 -2 1 -3 1 -2 1 -3 1 -2 2 -3 1 -2 1 -2 1 -3 1 -3 1 -2 1 -2 0 -3 1 -3 1 -2 1 -3 0 -2 1 -3 1 -3 0 -3 1 -4 0 -9 -113 -1 0 -1 0 -1 0 0 0 0 0 0 0 0 0 0 0 1 0 1 0 0 -1 1 0 1 0 1 -1 2 0 1 -1 1 -1 2 0 1 -1 2 -1 2 -1 1 -1 2 -1 2 -1 2 -1 2 -1 2 -1 3 -1 2 -2 2 -1 3 -1 2 -2 76 17zm-76 -17c27,-16 62,-7 79,20 16,27 7,62 -20,78l-59 -98zm700 -128l-106 -44 0 0 4 -10 5 -10 4 -10 4 -10 4 -10 4 -9 4 -10 4 -9 4 -9 4 -9 4 -9 4 -9 4 -8 3 -9 4 -8 4 -8 4 -8 3 -8 4 -8 3 -8 4 -7 3 -7 4 -8 3 -7 3 -7 4 -6 3 -7 3 -7 3 -6 4 -6 3 -6 3 -6 101 52 -2 6 -3 5 -3 6 -3 6 -3 6 -3 6 -4 7 -3 6 -3 7 -3 7 -4 7 -3 7 -3 7 -4 8 -3 8 -4 7 -3 8 -4 8 -4 9 -3 8 -4 8 -4 9 -4 9 -4 9 -3 9 -4 9 -4 9 -4 10 -5 10 -4 9 -4 10 -4 11 0 0zm-65 171l-115 -3 0 -2 1 -5 1 -4 0 -4 1 -5 1 -4 1 -4 1 -4 2 -5 1 -4 1 -5 2 -5 2 -5 2 -6 2 -5 2 -6 2 -6 2 -7 3 -6 2 -7 3 -7 3 -8 3 -7 3 -8 3 -8 3 -9 4 -8 3 -9 4 -9 4 -10 4 -9 4 -10 4 -11 106 44 -4 10 -4 10 -4 9 -4 9 -4 9 -3 9 -3 8 -4 8 -3 8 -3 8 -2 7 -3 7 -3 7 -2 6 -2 6 -3 6 -2 6 -1 5 -2 5 -2 5 -1 4 -1 4 -2 4 -1 3 0 3 -1 3 -1 2 0 2 0 1 0 0 0 0 0 -2 0 -1zm-34 -37l0 113 0 0 -3 0 -4 0 -3 0 -3 -1 -4 0 -3 -1 -3 0 -4 -1 -4 -2 -3 -1 -4 -2 -4 -2 -4 -2 -4 -2 -3 -3 -4 -3 -3 -3 -3 -4 -3 -3 -3 -4 -2 -4 -2 -4 -2 -4 -1 -4 -2 -4 -1 -4 0 -4 -1 -3 0 -4 -1 -4 0 -3 0 -3 115 3 0 -1 0 0 0 -2 0 -1 -1 -1 0 -2 0 -2 -1 -2 -1 -2 -1 -2 -1 -2 -1 -2 -2 -3 -1 -2 -2 -2 -2 -2 -2 -1 -2 -2 -3 -1 -1 -1 -2 -1 -2 -1 -2 -1 -1 0 -2 -1 -1 0 -1 0 -1 0 0 0 -1 0 0 0 0 0 0 0zm105 17l-103 50 73 28 -3 1 -2 1 -3 1 -2 1 -2 1 -3 1 -2 0 -3 1 -2 1 -2 1 -3 1 -2 0 -2 1 -3 1 -2 0 -2 1 -2 0 -3 1 -2 1 -2 0 -3 0 -2 1 -2 0 -2 1 -3 0 -2 0 -2 1 -3 0 -2 0 -2 0 -3 0 -2 0 0 -113 0 0 -1 0 0 0 1 0 0 0 0 0 1 -1 0 0 1 0 1 0 0 0 1 0 1 0 1 -1 1 0 1 0 1 0 1 -1 1 0 2 0 1 -1 1 0 2 -1 1 0 2 -1 1 0 2 -1 2 -1 1 0 2 -1 2 -1 2 0 73 27zm-73 -27c29,-12 62,2 74,31 12,29 -2,62 -31,74l-43 -105zm-21 96l-9 -19 103 -50 9 18 -25 76 -78 -25zm103 -51c14,29 2,63 -26,76 -29,14 -63,3 -77,-25l103 -51zm-196 148l-39 -107 -1 1 7 -3 7 -3 6 -2 7 -3 7 -2 6 -3 6 -2 6 -3 6 -2 6 -2 6 -3 5 -2 6 -2 5 -2 5 -3 5 -2 5 -2 5 -2 4 -2 5 -2 4 -2 5 -1 4 -2 4 -2 3 -2 4 -2 4 -1 3 -2 3 -1 3 -2 3 -1 3 -2 53 101 -4 2 -4 2 -3 1 -4 2 -4 2 -4 2 -4 2 -5 2 -4 2 -5 2 -4 2 -5 2 -5 2 -5 3 -5 2 -5 2 -6 2 -5 2 -6 3 -5 2 -6 2 -6 3 -6 2 -6 3 -7 2 -6 3 -7 2 -6 3 -7 3 -7 2 -7 3 -7 3 -1 0zm-58 -100l19 -7 39 107 -19 7 -76 -63 37 -44zm39 107c-30,10 -62,-5 -73,-34 -11,-30 4,-62 34,-73l39 107zm94 -254l-90 -70 98 56 -3 8 -3 7 -3 7 -3 8 -2 7 -3 8 -3 7 -2 7 -3 7 -2 8 -3 7 -2 7 -2 7 -2 7 -2 7 -2 7 -2 7 -2 7 -2 7 -2 7 -2 7 -1 6 -2 7 -2 7 -1 7 -2 6 -1 7 -1 6 -1 7 -2 6 -1 7 -1 6 -113 -18 1 -7 2 -7 1 -8 1 -7 2 -8 2 -7 1 -8 2 -7 2 -8 1 -7 2 -8 2 -8 2 -7 2 -8 2 -8 3 -7 2 -8 2 -8 3 -8 2 -7 3 -8 2 -8 3 -8 3 -8 2 -8 3 -8 3 -8 3 -8 3 -8 3 -8 3 -8 4 -8 98 56zm-98 -56c11,-29 45,-43 74,-32 29,12 44,45 32,74l-106 -42zm-78 239l-71 -89 0 0 4 -4 5 -3 4 -4 5 -4 4 -4 5 -4 5 -4 4 -5 5 -4 5 -5 5 -4 5 -5 4 -5 5 -5 5 -5 5 -5 5 -5 5 -5 5 -5 5 -6 5 -6 5 -5 5 -6 5 -6 5 -6 5 -6 6 -6 5 -6 5 -6 5 -7 6 -6 5 -7 90 70 -6 7 -6 7 -5 7 -6 7 -5 7 -6 6 -6 7 -5 6 -6 7 -5 6 -6 6 -5 6 -6 6 -5 6 -6 6 -5 6 -6 5 -5 6 -6 5 -5 6 -5 5 -6 5 -5 5 -6 5 -5 5 -5 5 -6 5 -5 5 -6 4 -5 5 -5 4 -6 4 0 1zm-165 75l0 -114 0 0 1 0 1 0 1 0 2 0 2 -1 1 0 2 0 2 -1 2 -1 3 0 2 -1 3 -1 2 -1 3 -1 3 -2 3 -1 3 -1 3 -2 3 -2 4 -2 3 -2 4 -2 4 -2 3 -3 4 -2 4 -3 4 -3 5 -3 4 -3 4 -3 4 -4 5 -3 71 89 -5 4 -5 4 -6 4 -5 4 -5 3 -5 4 -5 4 -6 3 -5 3 -5 4 -5 3 -5 3 -5 2 -5 3 -5 3 -5 2 -5 3 -5 2 -5 2 -5 2 -5 2 -6 2 -5 1 -5 2 -5 1 -5 1 -5 1 -6 1 -5 1 -5 0 -6 0 -5 1 0 0zm-102 -104l114 0 0 0 0 1 0 1 0 1 0 0 0 1 0 0 0 0 0 -1 0 0 0 -1 -1 -1 0 -1 -1 -1 -1 -1 0 -1 -1 -1 -2 -1 -1 -1 -1 -1 -1 -1 -1 -1 -1 0 -1 0 -1 -1 -1 0 0 0 0 0 0 0 0 0 0 0 1 0 1 0 0 114 -5 -1 -5 0 -4 0 -5 -1 -5 -1 -5 -1 -5 -1 -5 -1 -5 -2 -4 -2 -5 -3 -5 -3 -4 -3 -5 -3 -4 -4 -4 -4 -4 -4 -3 -4 -3 -5 -3 -4 -3 -5 -2 -5 -2 -4 -2 -5 -1 -5 -1 -5 -1 -5 -1 -4 -1 -5 0 -5 0 -4 0 -5 0 0zm89 -255l103 49 0 0 -5 10 -5 11 -4 10 -5 10 -4 9 -4 10 -5 9 -3 9 -4 8 -4 9 -3 8 -3 8 -3 7 -3 8 -3 7 -2 7 -3 6 -2 6 -2 6 -2 6 -1 6 -2 5 -1 5 -1 4 -1 4 -1 4 -1 3 0 3 0 3 -1 2 0 2 0 1 -114 0 0 -6 0 -6 1 -6 1 -6 1 -6 1 -6 1 -6 2 -7 1 -6 2 -7 2 -6 2 -7 2 -8 3 -7 2 -7 3 -8 3 -8 3 -8 3 -8 4 -8 3 -9 4 -9 4 -9 4 -9 4 -10 4 -9 4 -10 5 -10 5 -11 5 -10 5 -11 5 -11 0 0zm158 -65l-55 114 -103 -49 54 -114 104 49 0 0zm-83 -103l115 7 0 0 -1 3 0 3 0 3 -1 2 0 3 -1 3 0 3 -1 3 -1 3 0 2 -1 3 -1 3 -1 3 -1 2 -1 3 -1 3 -1 3 -1 3 -1 3 -1 3 -1 3 -2 3 -1 3 -1 3 -1 3 -2 4 -1 3 -2 3 -1 4 -2 3 -2 4 -1 3 -104 -48 2 -3 1 -3 1 -3 2 -3 1 -3 1 -2 1 -3 1 -3 1 -2 1 -3 1 -2 1 -2 1 -2 1 -2 1 -2 0 -2 1 -2 0 -2 1 -1 0 -2 1 -1 0 -2 1 -1 0 -1 0 -1 0 -1 0 0 0 -1 0 0 0 0 1 0 -1 0 0 0zm34 38l0 -114 0 0 4 0 3 0 3 0 4 1 3 0 4 1 3 1 4 1 4 1 4 2 4 1 3 2 4 3 4 2 4 3 3 4 4 3 3 4 3 4 2 3 2 5 2 4 2 4 1 4 2 4 0 4 1 4 0 4 1 3 0 4 0 3 0 4 -115 -7 0 0 0 1 0 1 1 1 0 1 0 2 0 2 1 2 1 2 0 2 1 2 2 3 1 2 2 2 2 2 2 2 2 2 2 2 2 1 2 1 2 1 2 1 2 1 1 0 2 1 1 0 1 0 1 0 0 1 1 0 0 0 0 0 0 0zm-93 -34l110 -31 -71 -39 2 0 2 -1 2 0 1 -1 2 0 2 -1 2 0 2 -1 1 0 2 -1 2 0 1 -1 2 0 2 0 1 -1 2 0 1 0 2 -1 2 0 1 0 2 0 1 -1 2 0 2 0 1 0 2 0 1 -1 2 0 2 0 2 0 1 0 2 0 0 114 1 0 0 0 1 0 0 0 0 0 0 0 -1 0 0 0 0 0 -1 0 0 0 -1 0 0 0 -1 0 0 0 -1 0 -1 1 -1 0 -1 0 -1 0 -1 0 -1 1 -1 0 -1 0 -1 0 -1 1 -2 0 -1 0 -1 1 -2 0 -1 1 -2 0 -71 -39zm71 39c-30,9 -62,-8 -71,-38 -9,-30 9,-62 39,-71l32 109zm34 -90l5 20 -110 31 -6 -20 38 -70 73 39zm-111 31c-8,-31 10,-62 40,-70 31,-9 62,9 71,39l-111 31zm84 35l-11 4 -35 -109 11 -3 2 0 33 108zm199 -109l-115 0 80 53 -4 1 -5 2 -4 2 -5 2 -4 2 -5 1 -4 2 -5 2 -5 2 -4 2 -5 1 -5 2 -5 2 -5 2 -5 1 -5 2 -5 2 -6 2 -5 2 -5 1 -6 2 -5 2 -6 2 -5 1 -6 2 -6 2 -6 2 -5 2 -6 1 -6 2 -6 2 -6 2 -32 -109 5 -2 6 -2 6 -1 5 -2 6 -2 5 -2 6 -1 5 -2 5 -2 5 -1 6 -2 5 -2 5 -1 5 -2 4 -1 5 -2 5 -2 5 -1 4 -2 5 -2 4 -1 5 -2 4 -2 4 -1 4 -2 4 -1 5 -2 4 -2 3 -1 4 -2 4 -1 4 -2 80 52zm-80 -52c29,-12 62,1 75,30 12,29 -1,62 -30,75l-45 -105zm14 255l-103 -50 0 0 3 -7 4 -7 3 -7 3 -7 3 -7 3 -7 3 -6 3 -6 2 -7 3 -6 2 -5 2 -6 3 -6 1 -5 2 -5 2 -5 2 -5 1 -5 2 -4 1 -5 1 -4 1 -4 1 -3 1 -4 0 -3 1 -3 0 -3 1 -3 0 -2 0 -2 0 -2 0 -2 115 0 -1 6 0 5 0 5 -1 6 -1 5 0 5 -1 6 -1 5 -2 6 -1 6 -1 5 -2 6 -2 6 -2 6 -1 6 -2 6 -3 6 -2 6 -2 7 -3 6 -2 7 -3 7 -3 7 -3 7 -3 7 -3 7 -3 7 -4 8 -3 7 -4 8 -4 8 -3 8 0 0zm-162 71l59 -121 103 50 -59 120 0 0 -103 -49zm41 194l-114 0 0 0 0 -5 0 -5 1 -5 1 -5 1 -4 1 -5 1 -4 1 -5 2 -4 1 -5 2 -5 1 -5 2 -5 2 -5 2 -6 3 -6 2 -5 2 -6 3 -7 3 -6 3 -6 3 -7 3 -7 3 -7 3 -7 4 -8 3 -8 4 -8 4 -8 4 -8 4 -8 4 -9 103 49 -4 9 -4 8 -4 8 -4 8 -3 7 -4 8 -3 7 -3 7 -3 6 -3 7 -3 6 -2 6 -3 5 -2 6 -2 5 -2 5 -2 5 -2 4 -1 5 -2 4 -1 3 -1 4 -1 3 -1 3 -1 2 0 2 -1 2 0 1 0 1 0 0 0 0 0 -2 0 0zm-31 -27l0 113 0 0 -4 0 -4 0 -4 0 -3 -1 -5 -1 -4 -1 -4 -1 -4 -1 -4 -2 -4 -2 -4 -2 -4 -3 -4 -3 -4 -3 -3 -3 -4 -3 -3 -4 -2 -4 -3 -3 -2 -4 -2 -4 -2 -4 -1 -4 -1 -4 -1 -4 -1 -4 -1 -3 0 -4 -1 -3 0 -4 0 -3 0 -4 114 0 0 1 0 0 0 -1 0 0 0 -1 0 0 0 -1 -1 -1 0 -1 -1 -1 0 -2 -1 -2 -1 -1 -1 -2 -1 -2 -2 -1 -1 -2 -2 -2 -2 -1 -2 -2 -2 -1 -2 -1 -2 -1 -1 -1 -2 0 -2 -1 -1 0 -1 0 -1 0 -1 0 -1 0 0 0 0 0zm129 -116l90 71 0 0 -7 8 -7 9 -7 8 -7 9 -7 7 -7 8 -6 7 -7 7 -7 7 -6 7 -7 6 -6 6 -7 6 -6 6 -7 5 -6 6 -7 5 -6 4 -7 5 -6 4 -7 4 -7 4 -6 3 -7 4 -7 3 -7 2 -7 3 -8 1 -7 2 -8 1 -7 1 -8 0 0 -113 0 0 1 0 1 -1 1 0 2 0 2 -1 2 -1 3 -1 3 -1 3 -2 3 -2 4 -2 3 -2 4 -3 4 -3 5 -3 4 -4 5 -4 5 -4 5 -5 5 -4 5 -6 5 -5 6 -6 6 -6 5 -6 6 -6 6 -7 6 -7 6 -8 7 -8 6 -8 0 0zm165 -288l106 43 0 -1 -4 11 -4 11 -5 10 -4 11 -5 10 -5 11 -4 10 -5 11 -5 10 -5 10 -6 10 -5 10 -5 11 -6 10 -5 10 -6 10 -5 9 -6 10 -6 10 -6 10 -6 9 -6 10 -7 9 -6 10 -6 9 -7 10 -7 9 -6 9 -7 9 -7 10 -7 9 -7 9 -90 -71 6 -8 7 -8 6 -8 6 -9 6 -8 6 -8 6 -9 6 -8 6 -9 5 -9 6 -8 6 -9 5 -9 5 -9 6 -9 5 -9 5 -9 5 -9 5 -9 5 -9 4 -9 5 -9 5 -10 4 -9 5 -10 4 -9 4 -10 5 -9 4 -10 4 -9 4 -10 4 -10 0 -1zm115 21l-9 22 -106 -43 9 -21 47 -36 59 78zm-106 -42c12,-30 45,-44 74,-32 30,12 44,45 32,74l-106 -42zm195 22l-101 -52 72 79 -4 1 -3 1 -4 2 -3 1 -4 1 -3 2 -4 1 -3 1 -4 1 -3 1 -4 1 -3 1 -3 1 -4 1 -3 1 -3 1 -4 1 -3 1 -3 1 -4 1 -3 0 -3 1 -3 1 -4 0 -3 1 -3 1 -3 0 -4 1 -3 0 -3 1 -3 0 -3 0 -12 -113 2 0 1 0 2 0 2 -1 2 0 2 0 2 -1 2 0 3 0 2 -1 2 0 2 -1 2 0 3 -1 2 -1 2 0 3 -1 2 -1 3 0 2 -1 3 -1 3 -1 2 -1 3 -1 3 0 2 -1 3 -1 3 -1 3 -1 3 -2 2 -1 3 -1 72 79zm-72 -79c30,-11 63,3 75,32 11,29 -3,62 -32,74l-43 -106zm494 560l-10 -19 98 -57 11 18 -16 75 -83 -17zm99 -58c16,27 7,62 -20,78 -27,16 -63,7 -79,-20l99 -58zm-299 103l113 14 -68 -63 6 -1 6 -2 6 -1 7 -2 6 -1 6 -2 6 -1 5 -2 6 -2 6 -2 6 -2 5 -2 6 -2 5 -2 6 -2 5 -2 6 -3 5 -2 5 -2 5 -3 5 -2 5 -3 5 -2 5 -3 5 -3 5 -3 5 -2 4 -3 5 -3 5 -3 4 -3 5 -3 66 92 -6 4 -6 4 -6 4 -6 4 -6 4 -6 3 -6 4 -6 3 -7 4 -6 3 -6 3 -7 3 -6 3 -7 4 -7 2 -6 3 -7 3 -7 3 -7 2 -7 3 -7 2 -7 3 -7 2 -7 2 -7 3 -7 2 -8 2 -7 2 -7 1 -8 2 -7 2 -8 1 -68 -62zm68 62c-31,7 -61,-13 -68,-44 -6,-30 14,-60 45,-67l23 111zm70 -420l101 53 0 -1 -7 14 -7 14 -7 13 -6 13 -7 13 -6 13 -5 12 -6 12 -6 12 -5 12 -5 11 -5 12 -4 11 -5 10 -4 11 -4 10 -4 10 -4 10 -3 9 -3 9 -3 9 -3 9 -3 8 -2 8 -2 8 -2 8 -2 7 -2 7 -1 7 -1 6 -1 6 -1 6 -113 -14 1 -9 1 -8 2 -9 2 -9 2 -9 2 -9 2 -9 3 -10 3 -9 3 -10 3 -10 3 -10 4 -11 4 -10 4 -11 4 -11 5 -11 4 -12 5 -11 5 -12 5 -12 6 -12 5 -13 6 -12 6 -13 6 -13 6 -13 7 -14 7 -13 7 -14 7 -14 7 -15 1 0zm145 -31l-44 84 -101 -53 44 -84 101 53 0 0zm-85 -82l114 0 0 0 0 4 0 4 -1 2 0 3 -1 3 0 3 -1 2 0 2 -1 3 -1 2 -1 2 0 2 -1 3 -1 2 -1 2 -1 2 -1 2 -1 3 -1 2 -1 2 -1 3 -1 2 -1 3 -1 2 -1 3 -2 2 -1 3 -1 3 -2 2 -1 3 -1 3 -2 3 -101 -53 1 -2 1 -3 1 -2 1 -2 2 -2 1 -2 1 -3 1 -1 0 -2 1 -2 1 -2 1 -1 0 -2 1 -2 1 -1 0 -1 1 -1 0 -1 0 -1 1 -1 0 -1 0 0 0 -1 0 0 0 0 0 0 0 0 0 1 0 1 0 1 0 2 0 2 0 0zm42 39l0 -114 0 0 3 0 3 0 4 1 3 0 4 1 4 1 3 1 4 2 4 1 4 2 3 2 4 3 4 3 3 2 3 3 3 4 2 3 3 3 2 4 1 3 2 4 1 3 1 3 1 3 1 4 1 3 0 3 0 2 1 3 0 3 0 3 0 2 -114 0 0 1 0 0 0 0 0 1 0 1 0 1 0 1 1 2 0 1 1 2 0 2 1 2 1 2 2 2 1 2 2 2 2 2 2 2 2 2 2 2 3 2 2 1 2 2 3 1 2 0 3 1 2 1 2 0 2 0 1 1 2 0 1 0 0 0zm-44 35l-72 -89 0 0 4 -3 4 -3 3 -3 4 -3 4 -3 3 -2 4 -3 3 -2 4 -3 3 -2 4 -3 3 -2 3 -2 4 -2 3 -2 3 -2 3 -2 4 -2 3 -2 3 -1 3 -2 4 -1 3 -2 3 -1 4 -1 4 -2 3 -1 4 -1 4 -1 5 0 5 -1 5 0 0 114 2 0 2 -1 2 0 1 0 1 0 0 0 0 0 0 0 -1 0 -1 0 0 1 -1 0 -2 1 -1 1 -2 1 -1 1 -2 1 -2 1 -2 1 -3 2 -2 1 -2 2 -3 2 -2 1 -3 2 -3 3 -3 2 -3 2 -3 2 -3 3 -3 3 -4 2 0 1zm-108 103l-85 -76 -1 0 4 -4 4 -4 3 -4 4 -4 4 -4 4 -4 3 -4 4 -4 4 -4 4 -4 3 -3 4 -4 4 -4 4 -4 3 -3 4 -4 4 -3 4 -4 4 -4 4 -3 3 -4 4 -3 4 -3 4 -4 4 -3 4 -4 4 -3 3 -3 4 -3 4 -4 4 -3 4 -3 72 89 -4 2 -3 3 -3 3 -4 3 -3 3 -4 3 -3 2 -3 3 -4 3 -3 3 -4 3 -3 4 -3 3 -4 3 -3 3 -4 3 -3 3 -3 4 -4 3 -3 3 -3 4 -4 3 -3 3 -3 4 -4 3 -3 4 -3 3 -4 4 -3 3 -3 4 -4 4 -3 3 0 1zm-223 325l-27 -111 -39 33 5 -11 5 -12 5 -11 6 -12 5 -11 6 -11 5 -11 6 -11 6 -11 6 -11 6 -10 6 -11 6 -10 6 -11 6 -10 6 -10 7 -10 6 -10 7 -10 6 -10 7 -10 7 -9 7 -10 7 -9 7 -9 7 -9 7 -9 8 -9 7 -9 7 -9 8 -9 8 -8 85 76 -7 7 -7 8 -6 8 -7 8 -6 8 -7 8 -6 8 -7 8 -6 8 -6 9 -6 9 -6 8 -6 9 -6 9 -6 9 -6 9 -5 9 -6 9 -6 10 -5 9 -6 10 -5 10 -5 9 -6 10 -5 10 -5 10 -5 11 -5 10 -5 10 -5 11 -4 10 -5 11 -39 33zm39 -33c-13,29 -46,42 -75,30 -29,-13 -43,-46 -30,-75l105 45zm-195 -15l103 50 -74 -77 4 -2 4 -1 3 -2 4 -1 4 -2 3 -1 4 -2 3 -1 3 -1 4 -2 3 -1 3 -1 4 -1 3 -2 3 -1 3 -1 3 -1 3 -1 3 -1 3 -1 3 -1 3 -1 3 -1 3 -1 3 -1 2 0 3 -1 3 -1 2 -1 3 0 2 -1 3 -1 27 111 -2 0 -1 1 -2 0 -2 1 -2 0 -1 1 -2 0 -2 1 -2 0 -3 1 -2 1 -2 1 -2 0 -3 1 -2 1 -3 1 -3 1 -2 1 -3 1 -3 1 -3 1 -2 1 -3 1 -4 2 -3 1 -3 1 -3 1 -3 2 -4 1 -3 1 -3 2 -4 1 -74 -77zm74 77c-29,13 -62,-1 -75,-29 -12,-29 1,-63 30,-75l45 104zm51 -358l106 42 0 0 -4 10 -4 10 -4 9 -4 10 -4 10 -4 10 -4 9 -4 10 -4 9 -4 10 -4 9 -4 9 -4 10 -4 9 -4 9 -4 9 -4 9 -4 9 -4 9 -4 9 -4 9 -4 8 -4 9 -4 9 -4 8 -4 9 -4 8 -4 8 -4 9 -4 8 -4 8 -4 8 -103 -50 4 -8 4 -8 4 -7 4 -8 4 -9 3 -8 4 -8 4 -8 4 -8 4 -9 4 -8 4 -9 4 -8 3 -9 4 -9 4 -9 4 -8 4 -9 4 -9 4 -9 4 -9 4 -10 4 -9 4 -9 3 -9 4 -10 4 -9 4 -10 4 -9 4 -10 4 -10 4 -9 0 0zm60 -167l114 0 0 0 0 6 -1 4 0 5 -1 4 -1 5 -1 4 -1 4 -1 5 -1 5 -1 5 -2 5 -1 5 -2 5 -2 6 -2 6 -2 6 -2 6 -2 7 -3 6 -2 7 -3 8 -3 7 -2 8 -3 8 -4 8 -3 8 -3 9 -4 9 -3 9 -4 9 -4 10 -4 10 -106 -42 4 -10 4 -10 3 -9 4 -9 3 -8 3 -9 4 -8 3 -7 2 -8 3 -7 3 -7 2 -7 2 -7 3 -6 2 -6 2 -5 2 -6 1 -5 2 -5 1 -4 1 -5 2 -4 1 -3 0 -3 1 -3 1 -3 0 -2 0 -1 1 -1 0 -1 0 1 0 1 0 0zm37 33l0 -114 0 0 3 0 4 0 4 1 4 0 3 1 5 1 3 1 5 2 4 2 3 2 4 2 4 3 4 2 3 4 4 3 2 3 3 4 3 4 2 3 1 3 2 4 2 4 1 3 1 4 1 3 0 4 1 3 0 3 1 3 0 3 0 3 0 3 -114 0 0 0 0 0 0 1 0 0 0 0 0 1 0 1 0 1 1 2 0 1 1 2 1 1 0 2 1 2 2 2 1 2 2 1 2 2 2 2 2 2 2 1 3 2 2 1 2 1 2 1 2 0 2 1 2 0 1 0 2 1 1 0 1 0 0 0zm-30 8l-28 -110 -3 0 3 0 2 -1 2 -1 2 0 2 -1 3 0 1 -1 2 0 3 -1 2 0 1 -1 2 0 2 -1 2 0 2 -1 1 0 2 0 2 -1 2 0 1 0 2 -1 2 0 1 0 2 -1 2 0 1 0 2 0 2 0 2 -1 2 0 2 0 2 0 0 114 1 0 1 0 0 0 0 0 1 0 0 0 -1 0 0 0 0 0 -1 0 0 0 -1 0 -1 0 -1 0 -1 1 -1 0 -1 0 -1 0 -1 1 -1 0 -2 0 -1 1 -2 0 -1 0 -1 1 -2 0 -2 1 -2 0 -1 1 -2 0 -2 1 -2 0 -2 1zm-78 -42l112 -22 -72 -44 1 0 0 0 0 0 1 0 0 0 0 0 1 0 0 0 0 0 1 -1 -1 1 0 0 2 -1 0 0 -1 0 1 0 1 0 0 0 0 0 0 0 0 0 0 0 1 -1 0 1 0 0 1 -1 0 0 1 0 1 0 -2 0 1 0 1 0 28 110 0 0 1 0 -2 0 0 0 1 0 -1 0 1 0 0 0 -1 0 1 0 -1 0 0 0 0 0 -1 0 0 1 0 -1 1 0 -2 1 0 0 1 -1 0 0 -2 1 1 0 -1 0 0 0 0 0 0 0 -1 0 0 0 0 0 -1 0 0 1 -72 -44zm72 44c-30,8 -62,-9 -71,-39 -8,-30 9,-62 39,-71l32 110zm36 -87l4 21 -112 22 -4 -22 40 -65 72 44zm-112 21c-6,-31 14,-61 45,-67 31,-5 61,15 67,46l-112 21zm205 -124l47 104 0 0 -5 2 -6 3 -5 2 -5 2 -5 2 -5 2 -6 2 -5 3 -5 2 -6 2 -5 2 -6 2 -5 2 -6 2 -5 2 -6 2 -6 2 -5 2 -6 2 -6 2 -5 2 -6 2 -6 2 -6 1 -6 2 -6 2 -6 2 -6 2 -6 2 -6 1 -6 2 -6 2 -32 -109 6 -2 6 -2 5 -1 6 -2 6 -2 5 -1 6 -2 5 -2 6 -2 5 -1 5 -2 6 -2 5 -2 5 -1 6 -2 5 -2 5 -2 5 -2 5 -2 5 -1 5 -2 5 -2 5 -2 5 -2 5 -2 4 -2 5 -2 5 -2 5 -2 4 -2 5 -2 4 -2 0 0zm56 100l-9 4 -47 -104 9 -3 79 40 -32 63zm-47 -103c29,-13 63,0 76,28 12,29 0,62 -29,75l-47 -103zm82 63l-114 0 0 0 0 2 0 1 0 -1 0 1 0 1 0 0 0 1 0 -1 0 1 0 0 0 0 0 0 0 0 0 -1 0 1 0 0 0 0 0 0 0 -1 0 -1 0 0 0 0 0 0 0 0 0 -1 0 0 0 0 0 -1 0 0 -1 0 0 -1 0 0 112 -23 1 1 0 0 0 1 0 1 0 0 0 1 0 1 0 0 0 0 1 1 0 1 0 1 0 0 0 0 0 1 0 1 0 1 1 1 0 0 0 1 0 1 0 0 0 1 0 1 0 0 0 1 0 1 0 1 0 1 0 0 0 2 0 1 0 0zm-95 281l-103 -48 -1 0 6 -12 5 -11 5 -12 5 -11 5 -11 4 -10 5 -11 4 -10 4 -9 4 -10 3 -9 4 -9 3 -8 3 -8 3 -8 3 -8 2 -7 3 -8 2 -6 2 -7 2 -6 1 -6 2 -5 1 -5 1 -5 1 -4 1 -4 0 -4 1 -3 0 -2 0 -2 0 -2 114 0 0 7 0 6 -1 6 -1 7 -1 6 -1 7 -1 6 -2 7 -1 7 -2 7 -2 8 -3 7 -2 8 -3 8 -2 8 -3 8 -3 9 -4 9 -3 9 -3 9 -4 10 -4 9 -4 10 -4 11 -5 10 -4 11 -5 11 -5 11 -5 12 -5 12 -6 12 -5 12 -1 1zm-113 -28l10 -20 103 48 -9 20 -9 13 -95 -61zm104 48c-14,28 -48,41 -76,27 -29,-13 -41,-47 -28,-75l104 48zm2 0l-11 13 -86 -74 11 -13 0 0 86 74zm128 -281l70 90 0 0 -5 4 -6 5 -6 4 -5 5 -6 4 -6 5 -5 5 -6 5 -6 6 -6 5 -6 5 -6 6 -6 5 -6 6 -6 6 -7 6 -6 6 -6 6 -6 6 -7 7 -6 6 -6 7 -7 6 -6 7 -7 7 -6 7 -7 7 -7 7 -6 8 -7 7 -7 8 -7 7 -86 -74 7 -8 8 -8 7 -8 7 -8 7 -8 7 -7 7 -7 6 -8 7 -7 7 -7 7 -7 7 -7 7 -7 6 -6 7 -7 7 -7 6 -6 7 -6 7 -6 6 -7 7 -6 6 -5 7 -6 6 -6 7 -6 6 -5 6 -5 7 -6 6 -5 6 -5 7 -5 6 -5 0 0zm182 -85l0 114 0 0 -1 0 -1 0 -1 0 -2 1 -1 0 -2 0 -2 1 -3 0 -2 1 -3 1 -3 1 -3 1 -3 2 -3 1 -4 2 -4 1 -3 2 -4 2 -4 2 -4 3 -5 2 -4 3 -4 3 -5 3 -5 3 -5 3 -5 4 -5 3 -5 4 -5 4 -5 4 -6 4 -70 -90 6 -5 6 -4 7 -5 6 -4 6 -4 6 -5 5 -3 6 -4 6 -4 6 -4 6 -3 5 -3 6 -4 6 -3 5 -3 6 -2 5 -3 6 -3 5 -2 6 -2 5 -2 6 -2 5 -2 6 -2 5 -1 6 -2 5 -1 6 -1 5 0 6 -1 6 0 5 -1 0 0zm91 91l-114 0 0 0 0 0 0 0 0 0 0 0 0 0 0 1 0 1 0 1 1 1 0 1 1 2 1 1 1 2 1 1 1 2 2 1 1 2 2 1 1 1 2 1 1 1 2 1 1 1 1 0 2 0 1 1 0 0 1 0 0 0 0 0 1 0 -1 0 0 -114 4 1 4 0 4 0 5 1 4 0 4 1 4 1 4 2 5 1 4 2 4 2 5 3 4 2 4 3 4 3 3 4 4 4 3 4 3 4 2 4 3 4 2 4 1 4 2 5 1 4 1 4 1 4 1 4 0 4 1 4 0 4 0 4 0 0zm-95 234l-102 -52 0 0 5 -11 6 -10 5 -10 5 -10 4 -9 5 -9 4 -9 4 -9 4 -8 4 -8 4 -8 3 -7 3 -7 3 -7 3 -6 3 -7 2 -6 3 -5 2 -6 2 -5 2 -4 1 -4 1 -4 2 -4 1 -3 0 -3 1 -2 0 -2 1 -1 0 0 0 0 0 2 114 0 0 6 -1 6 -1 5 -1 6 -1 5 -1 5 -2 5 -1 5 -2 6 -2 5 -2 6 -2 6 -3 6 -2 6 -3 7 -3 7 -3 7 -3 7 -3 7 -4 8 -4 8 -3 8 -4 9 -5 8 -4 9 -4 10 -5 9 -5 10 -5 10 -5 10 -6 11 -5 10 0 1zm-100 204l-115 0 0 0 1 -7 1 -7 1 -5 1 -5 1 -5 2 -5 2 -5 2 -5 2 -5 2 -5 2 -6 3 -6 3 -7 3 -6 3 -8 3 -7 4 -7 3 -8 4 -9 4 -8 5 -9 4 -10 5 -9 5 -10 5 -11 6 -10 5 -11 6 -12 6 -11 6 -12 6 -13 7 -12 102 52 -7 12 -6 12 -6 12 -6 12 -6 11 -5 11 -5 10 -5 10 -5 10 -5 9 -4 9 -4 9 -4 8 -4 8 -4 7 -3 7 -3 7 -3 7 -3 6 -2 5 -2 5 -2 5 -2 4 -1 4 -2 4 -1 2 0 3 -1 1 0 1 0 0 0 -2 1 -5 0 0zm-39 -37l0 114 0 0 -3 0 -3 0 -4 -1 -3 0 -4 -1 -3 -1 -4 -1 -3 -1 -4 -1 -4 -2 -4 -2 -3 -2 -4 -2 -3 -3 -4 -3 -3 -3 -3 -4 -2 -3 -3 -3 -2 -4 -2 -4 -2 -3 -1 -4 -1 -3 -1 -4 -1 -3 0 -3 -1 -4 0 -3 -1 -3 0 -3 0 -3 115 0 0 0 0 -1 0 0 -1 -1 0 -2 0 -1 0 -1 -1 -2 0 -1 -1 -2 -1 -2 -1 -2 -1 -2 -2 -2 -1 -2 -2 -2 -2 -2 -2 -2 -2 -2 -2 -1 -3 -2 -2 -1 -2 -1 -2 -1 -2 0 -2 -1 -1 0 -2 0 -1 -1 -1 0 -1 0 -1 0 0 0zm20 -9l71 88 -5 4 -3 2 -2 1 -3 2 -3 1 -2 2 -3 1 -2 2 -3 1 -2 1 -3 1 -2 2 -3 1 -2 1 -3 1 -2 1 -3 1 -3 1 -2 1 -3 1 -2 1 -3 1 -3 1 -2 0 -3 1 -3 1 -3 0 -3 1 -3 0 -3 0 -3 1 -3 0 -3 0 0 -114 -1 0 0 0 -1 0 0 0 0 0 0 0 0 0 0 0 0 0 1 0 0 0 1 0 0 0 1 -1 1 0 1 0 1 -1 1 0 1 -1 1 0 1 -1 1 0 2 -1 1 -1 2 0 1 -1 2 -1 1 -1 2 -1 2 -1 1 -1 2 -1 -5 4zm75 86l-4 2 -71 -88 3 -3 85 16 -13 73zm-72 -89c25,-20 61,-16 81,9 19,24 15,60 -9,80l-72 -89zm645 89l-12 -17 94 -65 12 17 -13 78 -81 -13zm94 -65c18,26 12,61 -14,79 -26,18 -62,12 -80,-14l94 -65zm-300 113l115 6 -71 -58 7 -2 7 -1 7 -2 7 -2 7 -2 7 -2 6 -2 6 -2 7 -2 6 -2 6 -3 6 -2 6 -2 6 -2 5 -3 6 -2 5 -2 6 -3 5 -2 5 -3 5 -2 5 -3 4 -2 5 -3 4 -2 5 -3 4 -2 4 -3 4 -3 4 -2 4 -3 4 -3 68 91 -5 4 -5 4 -6 3 -5 4 -6 4 -6 3 -6 4 -6 3 -6 4 -6 3 -6 3 -6 3 -7 3 -6 3 -7 3 -7 3 -7 3 -6 3 -7 3 -8 2 -7 3 -7 3 -7 2 -8 3 -7 2 -8 2 -8 3 -7 2 -8 2 -8 2 -8 2 -9 3 -71 -59zm71 59c-30,7 -61,-12 -69,-42 -7,-30 11,-61 42,-69l27 111zm111 -254l-87 -74 96 61 -5 10 -5 10 -4 10 -4 9 -4 9 -4 10 -4 8 -4 9 -3 9 -3 8 -4 8 -3 8 -3 7 -2 8 -3 7 -2 7 -3 7 -2 6 -2 6 -2 6 -1 6 -2 6 -1 5 -1 5 -1 5 -1 4 -1 5 -1 4 0 3 -1 4 0 3 0 2 -115 -6 1 -6 0 -6 1 -6 1 -6 1 -6 1 -7 2 -6 1 -7 2 -7 2 -7 2 -7 2 -7 2 -7 2 -8 3 -7 3 -8 2 -8 3 -8 3 -8 3 -9 4 -8 3 -9 4 -9 4 -9 4 -10 4 -9 4 -10 4 -10 5 -10 4 -10 5 -10 5 -11 95 61zm-95 -61c13,-28 47,-41 76,-27 28,13 41,46 28,75l-104 -48zm-96 240l-67 -92 0 0 5 -4 6 -4 5 -4 6 -4 5 -4 5 -5 6 -4 5 -4 6 -5 5 -5 5 -4 6 -5 5 -5 6 -5 5 -5 5 -4 6 -6 5 -5 5 -5 6 -5 5 -5 5 -6 6 -5 5 -6 5 -5 6 -6 5 -6 5 -6 5 -6 6 -6 5 -6 5 -6 87 74 -5 7 -6 6 -6 7 -6 6 -6 6 -5 7 -6 6 -6 6 -6 6 -6 6 -6 6 -5 6 -6 6 -6 6 -6 5 -6 6 -6 6 -6 5 -6 6 -6 5 -6 5 -6 5 -6 6 -6 5 -7 5 -6 5 -6 5 -6 4 -6 5 -6 5 -6 4 -7 5 0 0zm-181 78l0 -113 0 0 1 0 2 0 1 -1 2 0 2 0 2 -1 3 0 2 -1 3 0 3 -1 3 -1 3 -1 3 -2 3 -1 4 -1 3 -2 4 -2 4 -2 4 -2 4 -2 4 -2 5 -3 4 -2 5 -3 4 -3 5 -3 5 -3 5 -3 5 -4 5 -3 6 -4 5 -4 67 92 -6 4 -6 5 -6 4 -6 4 -6 4 -6 4 -6 3 -6 4 -5 4 -6 3 -6 3 -6 3 -5 3 -6 3 -5 3 -6 2 -5 3 -6 2 -5 2 -6 2 -5 2 -6 2 -5 2 -6 1 -5 2 -6 1 -5 1 -6 1 -5 0 -6 1 -5 0 -6 0 0 0zm-105 -117l115 0 0 0 0 3 0 2 0 2 0 1 0 1 0 2 0 1 1 0 0 1 0 0 0 0 0 0 0 -1 -1 0 0 -1 -1 -1 -1 -1 0 0 -1 -1 -1 -1 -1 -1 -2 -1 -1 0 -1 -1 0 0 -1 0 -1 0 0 0 0 0 0 0 0 0 1 0 0 113 -5 0 -6 0 -5 -1 -5 -1 -6 -1 -5 -1 -6 -2 -5 -2 -6 -2 -5 -3 -5 -3 -5 -4 -4 -4 -5 -4 -4 -4 -4 -4 -3 -5 -3 -5 -3 -5 -3 -5 -2 -5 -2 -5 -2 -5 -1 -5 -1 -5 -1 -5 -1 -5 -1 -5 0 -5 -1 -5 0 -5 0 -6 0 0zm104 -255l91 70 0 0 -5 6 -6 7 -4 7 -5 6 -4 7 -5 7 -4 6 -4 6 -4 7 -3 6 -3 6 -4 6 -3 6 -3 6 -2 6 -3 6 -2 6 -2 6 -2 5 -2 6 -2 5 -1 6 -2 5 -1 5 -1 5 -1 6 -1 5 0 5 -1 5 0 5 0 5 0 4 -115 0 0 -8 1 -8 0 -8 1 -8 1 -8 1 -8 2 -8 1 -8 2 -8 2 -8 2 -8 3 -8 2 -8 3 -8 3 -8 4 -7 3 -8 4 -8 3 -8 4 -8 5 -8 4 -8 4 -8 5 -8 5 -8 5 -8 5 -8 6 -8 5 -8 6 -8 6 -8 6 -8 0 0zm249 -209l55 99 0 0 -8 4 -8 5 -8 4 -7 5 -8 5 -8 5 -7 5 -8 5 -7 5 -7 5 -7 5 -7 5 -7 6 -7 5 -7 6 -7 5 -6 6 -7 6 -6 5 -7 6 -6 6 -6 6 -6 6 -6 7 -6 6 -6 6 -6 7 -5 6 -6 7 -6 6 -5 7 -5 7 -91 -70 6 -8 7 -8 6 -7 7 -8 6 -8 7 -7 7 -8 7 -7 7 -7 7 -7 7 -7 8 -7 7 -7 8 -7 7 -7 8 -6 8 -7 8 -6 8 -7 8 -6 8 -6 9 -6 8 -6 8 -6 9 -6 9 -5 9 -6 8 -5 9 -6 9 -5 10 -5 9 -6 0 1zm339 -95l0 114 0 0 -8 0 -9 0 -9 1 -8 0 -9 1 -9 1 -9 1 -8 1 -9 1 -9 2 -9 1 -8 2 -9 2 -9 2 -9 2 -9 3 -9 2 -8 3 -9 3 -9 3 -9 3 -9 3 -9 4 -9 3 -9 4 -9 4 -9 4 -9 5 -9 4 -9 5 -9 5 -10 5 -55 -99 10 -6 11 -6 10 -5 10 -5 11 -5 11 -5 10 -5 11 -4 10 -5 11 -4 10 -4 11 -4 10 -3 11 -4 11 -3 10 -3 11 -3 11 -2 10 -3 11 -2 11 -2 10 -2 11 -2 11 -2 11 -1 10 -1 11 -1 11 -1 10 -1 11 0 11 -1 10 0 0 0zm80 73l-115 0 0 0 0 2 0 1 0 2 1 2 0 2 1 2 1 3 1 2 1 3 1 2 2 3 2 2 2 2 2 2 2 2 2 2 2 1 2 1 2 1 2 1 1 1 2 1 1 0 1 0 1 0 2 1 0 0 1 0 0 0 0 0 1 0 -1 0 0 -114 3 0 3 0 3 1 3 0 2 0 3 1 4 0 3 1 3 1 3 1 4 1 3 1 4 2 3 2 3 2 4 3 4 2 3 3 3 3 3 4 3 3 2 4 2 4 2 4 2 4 1 4 1 4 1 4 1 3 0 4 0 4 1 3 0 0zm-88 108l20 -112 -60 29 1 -2 1 -2 1 -2 1 -2 1 -2 1 -2 0 -2 1 -1 1 -2 1 -1 0 -2 1 -1 1 -1 0 -2 1 -1 0 -1 0 -1 1 -1 0 -1 0 0 0 -1 1 0 0 0 0 0 0 -1 0 0 0 1 -1 1 0 0 0 1 0 2 0 1 115 0 -1 4 0 3 0 3 0 2 -1 3 0 3 -1 2 -1 3 0 2 -1 2 -1 2 0 3 -1 2 -1 2 -1 2 -1 3 0 2 -1 2 -1 2 -1 3 -1 2 -1 2 -1 2 -2 3 -1 2 -1 3 -1 2 -1 3 -2 2 -1 3 -1 2 -2 3 -60 29zm60 -29c-15,27 -50,38 -77,23 -28,-15 -38,-50 -23,-77l100 54zm-140 21l0 -113 0 0 3 0 3 0 3 0 3 0 3 0 3 0 3 0 3 0 4 1 3 0 3 0 3 0 3 0 3 1 3 0 3 0 4 0 3 1 3 0 3 0 3 1 3 0 3 0 3 1 3 0 4 1 3 0 3 1 3 0 3 1 3 0 4 1 -20 112 -3 -1 -2 0 -3 -1 -2 0 -3 0 -3 -1 -2 0 -3 0 -2 -1 -3 0 -2 0 -3 -1 -2 0 -3 0 -2 -1 -3 0 -3 0 -2 0 -2 0 -3 -1 -3 0 -2 0 -2 0 -3 0 -2 0 -3 0 -2 0 -3 0 -2 -1 -2 0 -3 0 -2 0 0 0zm-316 142l-84 -77 0 0 10 -11 11 -10 10 -11 11 -9 11 -10 11 -9 11 -9 12 -8 11 -8 12 -8 12 -8 12 -7 12 -7 12 -6 12 -6 13 -6 13 -6 12 -5 13 -5 13 -4 14 -4 13 -4 13 -3 14 -3 13 -3 14 -2 14 -2 14 -1 14 -2 14 0 15 -1 14 0 0 113 -12 1 -11 0 -11 1 -12 1 -11 1 -10 1 -11 2 -11 2 -10 3 -11 2 -10 3 -10 3 -10 4 -10 3 -10 4 -10 4 -10 5 -10 5 -9 5 -10 5 -9 6 -9 6 -10 6 -9 6 -9 7 -9 7 -9 8 -9 7 -8 8 -9 9 -9 8 -8 9 0 0zm-95 194l-115 0 0 0 0 -9 1 -9 0 -9 1 -9 2 -9 1 -8 2 -9 2 -9 2 -9 2 -8 3 -9 3 -9 3 -8 4 -9 3 -9 4 -8 4 -9 5 -8 4 -8 5 -9 5 -8 6 -8 5 -9 6 -8 6 -8 6 -8 6 -8 7 -8 7 -8 7 -9 7 -7 7 -8 84 77 -7 7 -6 7 -5 6 -6 7 -5 6 -5 7 -5 6 -5 7 -4 6 -4 6 -4 7 -4 6 -4 6 -3 6 -3 6 -3 6 -3 6 -3 6 -2 6 -2 6 -2 6 -2 6 -2 5 -1 6 -1 6 -1 5 -1 6 -1 6 -1 5 0 6 0 5 0 6 0 0zm-17 -3l0 113 0 0 -5 0 -5 0 -5 -1 -6 0 -5 -2 -5 -1 -5 -2 -5 -2 -5 -2 -5 -3 -5 -3 -5 -4 -4 -3 -4 -4 -4 -5 -3 -4 -3 -4 -3 -5 -3 -5 -2 -4 -2 -5 -2 -5 -1 -4 -2 -5 -1 -5 0 -4 -1 -5 -1 -5 0 -4 0 -5 -1 -4 0 -5 115 0 0 2 0 1 0 2 0 1 0 2 0 1 0 0 1 1 0 0 0 0 0 0 -1 -1 0 0 0 -1 -1 -1 -1 -1 0 -1 -1 -1 -2 -1 -1 -1 -1 -1 -2 -1 -1 -1 -1 0 -2 -1 -1 0 -1 -1 -1 0 -1 0 0 0 0 0 0 0 0 0zm59 -43l78 83 0 0 -5 4 -4 4 -4 4 -5 3 -4 4 -4 3 -4 4 -4 3 -4 3 -4 3 -4 3 -4 3 -4 2 -4 3 -4 2 -4 3 -4 2 -4 2 -4 3 -4 2 -5 2 -4 1 -4 2 -4 2 -5 1 -4 1 -5 2 -4 1 -5 0 -5 1 -5 0 -5 0 0 -113 -1 0 -1 0 0 0 0 0 0 0 0 0 1 0 1 -1 1 0 1 0 1 -1 2 -1 1 0 2 -1 2 -1 2 -2 2 -1 3 -1 2 -2 3 -2 2 -2 3 -2 3 -2 3 -2 3 -2 3 -3 3 -2 3 -3 4 -3 3 -3 4 -3 3 -3 0 0zm106 -124l96 61 -1 1 -3 5 -3 5 -4 5 -3 5 -4 5 -3 5 -4 5 -4 4 -3 5 -4 5 -4 5 -3 4 -4 5 -4 5 -4 4 -4 5 -3 5 -4 4 -4 5 -4 4 -4 4 -4 5 -4 4 -4 4 -5 5 -4 4 -4 4 -4 4 -4 4 -5 4 -4 4 -4 4 -78 -83 4 -4 4 -3 3 -4 4 -3 3 -3 4 -4 3 -4 4 -3 3 -4 4 -3 3 -4 4 -4 3 -4 3 -3 4 -4 3 -4 3 -4 4 -4 3 -4 3 -4 3 -4 3 -4 4 -4 3 -4 3 -4 3 -5 3 -4 3 -4 3 -5 3 -4 3 -4 3 -5 0 1zm173 -239l-61 96 86 -36 -1 8 -2 8 -2 8 -2 8 -3 7 -2 8 -2 8 -3 7 -2 8 -3 8 -2 7 -3 8 -3 8 -3 7 -3 8 -3 7 -4 8 -3 7 -3 7 -4 8 -4 7 -3 8 -4 7 -4 7 -4 8 -4 7 -4 7 -4 7 -5 8 -4 7 -5 7 -4 7 -96 -61 4 -7 3 -6 4 -6 4 -6 4 -6 3 -7 4 -6 3 -6 3 -6 4 -7 3 -6 3 -6 3 -6 3 -7 3 -6 2 -6 3 -7 3 -6 2 -6 3 -7 2 -6 2 -7 2 -6 3 -6 2 -7 2 -6 1 -7 2 -6 2 -7 2 -6 1 -7 2 -6 86 -36zm-86 36c6,-31 37,-50 68,-43 31,7 50,37 43,67l-111 -24zm141 77l-114 0 0 0 0 -2 0 -1 0 -2 0 -2 0 -1 -1 -1 0 -2 0 -1 0 -1 0 0 -1 -1 0 -1 0 -1 0 0 0 -1 0 0 -1 0 0 0 0 0 0 -1 0 0 0 1 0 0 0 0 0 0 1 0 0 0 0 0 0 0 0 0 0 0 0 0 61 -96 3 2 4 3 3 2 3 3 4 3 3 3 3 3 3 3 2 3 3 4 2 3 3 4 2 3 2 4 2 4 1 4 2 3 1 4 2 4 1 4 1 4 1 4 1 4 1 3 0 4 1 4 0 4 1 4 0 4 0 4 0 4 0 4 0 0zm-128 94l10 113 -50 -91 3 -5 4 -4 3 -5 3 -5 4 -4 3 -5 2 -4 3 -4 3 -4 2 -5 2 -4 3 -4 2 -4 2 -4 1 -3 2 -4 2 -4 1 -3 1 -4 2 -3 1 -3 1 -4 0 -3 1 -3 1 -3 0 -2 1 -3 0 -3 1 -3 0 -2 0 -3 0 -2 114 0 0 6 0 6 -1 6 0 6 -1 6 -1 5 -1 6 -1 6 -2 6 -1 6 -2 6 -2 5 -2 6 -2 6 -3 6 -2 5 -3 6 -2 6 -3 6 -3 5 -3 6 -4 6 -3 6 -3 5 -4 6 -4 6 -4 6 -4 5 -4 6 -4 6 -4 6 -5 6 -50 -92zm50 92c-19,24 -55,29 -80,10 -25,-19 -30,-55 -10,-80l90 70zm88 -30l-104 -48 70 78 -3 1 -3 1 -4 1 -3 1 -3 1 -3 1 -3 1 -3 1 -3 1 -4 1 -3 0 -2 1 -4 1 -3 1 -3 0 -2 1 -3 1 -3 0 -3 1 -3 1 -3 0 -3 1 -3 0 -2 1 -3 0 -3 1 -3 0 -2 0 -3 1 -3 0 -3 0 -2 0 -10 -113 1 0 2 0 1 0 2 0 2 -1 1 0 2 0 2 0 2 -1 1 0 2 0 2 -1 2 0 2 -1 2 0 2 -1 3 0 2 -1 2 0 2 -1 3 0 2 -1 2 -1 3 0 2 -1 3 -1 2 -1 3 0 3 -1 2 -1 3 -1 3 -1 70 78zm-70 -78c30,-10 62,6 72,36 10,29 -6,62 -36,72l-36 -108zm-39 42l5 -12 104 48 -5 11 -105 -47 1 0zm43 192l-114 0 0 0 0 -6 1 -5 0 -4 1 -4 1 -5 1 -4 1 -4 2 -4 1 -4 1 -5 2 -4 2 -5 1 -5 2 -5 2 -5 2 -6 3 -5 2 -6 2 -6 3 -7 3 -6 2 -7 3 -7 3 -7 4 -8 3 -7 3 -8 4 -8 4 -9 3 -8 4 -9 4 -9 105 47 -4 9 -4 8 -4 8 -3 8 -4 8 -3 8 -3 7 -3 7 -3 7 -3 7 -3 6 -2 6 -3 6 -2 6 -2 5 -2 5 -2 5 -2 4 -1 5 -2 4 -1 3 -1 4 -1 3 -1 3 -1 2 0 2 0 2 -1 1 0 0 0 0 0 -1 0 -3 0 0zm-43 -38l10 113 -1 0 -3 0 -3 0 -4 0 -3 0 -3 0 -4 -1 -4 -1 -4 -1 -4 -1 -4 -2 -4 -1 -4 -2 -3 -3 -4 -2 -4 -3 -3 -3 -3 -4 -3 -3 -3 -4 -2 -3 -2 -4 -2 -4 -2 -4 -1 -3 -1 -3 -1 -4 -1 -3 0 -4 0 -3 -1 -3 0 -3 0 -3 114 0 0 0 0 -1 0 -1 0 -1 0 -2 0 -1 -1 -2 0 -1 -1 -2 -1 -2 -1 -2 -1 -2 -1 -2 -2 -3 -2 -2 -2 -2 -2 -2 -2 -2 -3 -2 -2 -1 -2 -1 -3 -1 -2 -1 -3 -1 -2 -1 -1 0 -2 0 -2 0 -1 0 -1 0 -2 0 0 0 -1 0zm113 -3l-94 65 76 16 -3 2 -3 1 -3 2 -3 2 -2 1 -3 2 -3 1 -2 2 -3 1 -3 1 -2 2 -3 1 -2 1 -3 1 -2 1 -3 2 -2 1 -3 1 -2 1 -3 1 -2 1 -3 1 -2 0 -3 1 -2 1 -3 1 -2 0 -3 1 -3 1 -3 0 -3 1 -3 0 -10 -113 -1 0 -1 0 0 0 -1 0 0 0 0 0 1 0 0 0 0 0 1 0 1 -1 1 0 0 0 2 -1 1 0 1 -1 2 -1 1 0 2 -1 1 -1 2 -1 2 -1 2 -1 2 -1 2 -1 2 -1 2 -1 2 -1 2 -2 3 -1 2 -1 3 -2 76 17zm-76 -17c27,-16 62,-7 78,20 16,27 7,62 -20,78l-58 -98z"/>
   </g>
   <path id="1" class="fil1" style="mask:url(#id2)" d="M2158 534l-54 178 -25 -4 4 -13c3,-11 4,-21 4,-28 0,-24 -19,-36 -56,-36 -50,0 -97,25 -141,76 -45,50 -80,116 -104,199 -14,47 -32,128 -52,241 -21,114 -32,185 -32,214 0,23 11,35 31,35 15,0 36,-7 63,-19l13 21c-20,8 -55,21 -105,40 -38,15 -72,29 -101,41 0,-40 10,-115 29,-225 19,-110 42,-216 67,-321l-24 31c-20,25 -51,63 -93,115l-148 183 -152 185 -15 19 -17 -12c16,-31 24,-61 24,-91 0,-50 -12,-127 -35,-231l-21 -91c-1,-1 -2,-6 -4,-15 -108,144 -220,254 -336,331 -116,77 -228,115 -338,115 -72,0 -140,-15 -204,-47 -65,-31 -115,-73 -152,-126 -42,-60 -63,-131 -63,-213 0,-106 36,-192 110,-258 73,-65 169,-98 287,-98 68,0 130,13 185,38 56,26 127,75 216,147 33,28 57,42 74,42 19,0 51,-12 95,-37l14 20 -172 94 -18 -16c-83,-77 -164,-137 -244,-178 -80,-41 -153,-62 -220,-62 -85,0 -154,25 -205,75 -52,51 -78,117 -78,201 0,103 39,188 116,253 78,65 178,97 302,97 109,0 217,-35 322,-105 106,-70 207,-172 303,-307 -9,-49 -13,-90 -13,-123 0,-82 17,-162 53,-241 36,-79 73,-119 110,-119 37,0 56,32 56,94 0,40 -11,86 -33,138 -22,53 -58,119 -108,199 5,24 15,65 30,123 26,101 42,187 49,258 11,-14 19,-23 22,-27l45 -55 318 -392c76,-92 130,-155 163,-189 34,-33 69,-61 108,-82 50,-28 100,-42 150,-42zm-890 364c27,-47 49,-95 65,-143 17,-49 25,-90 25,-123 0,-35 -12,-52 -37,-52 -18,0 -33,19 -46,57 -13,38 -19,84 -19,138 0,35 4,76 12,123zm1187 472l13 18c-48,35 -113,63 -196,83 3,-45 30,-124 81,-235 -58,68 -119,125 -181,170 -62,45 -111,67 -147,67 -32,0 -48,-20 -48,-60 0,-68 31,-141 92,-220 61,-79 138,-144 231,-195 105,-58 209,-87 312,-87 15,0 22,5 22,16 0,9 -7,27 -20,52 -31,-6 -61,-8 -90,-8 -139,0 -258,53 -358,159 -74,78 -111,156 -111,233 0,36 14,54 40,54 23,0 56,-20 99,-59 42,-39 81,-84 114,-135 47,-71 78,-144 95,-221 19,12 29,34 29,65 0,44 -22,94 -67,151 22,-2 49,-8 82,-19l-6 11c-43,97 -65,153 -65,169 0,13 6,19 19,18 11,-1 31,-10 60,-27zm734 -454c-32,60 -71,145 -116,255 -45,109 -68,173 -69,191 -1,14 7,21 23,21 12,0 30,-4 53,-14l9 19c-33,17 -87,40 -164,69l-18 6c12,-73 34,-152 68,-235 -59,74 -114,131 -166,173 -53,42 -96,63 -130,63 -30,0 -45,-16 -45,-47 0,-37 28,-114 84,-231l54 -113c17,-35 26,-61 27,-76 1,-15 -7,-22 -24,-22 -7,0 -20,2 -38,8l-5 -20 11 -4c63,-18 116,-37 158,-55 0,36 -20,96 -60,178l-58 121c-46,92 -68,149 -68,169 0,20 8,29 26,29 44,0 102,-45 174,-136 72,-92 130,-193 173,-302l9 -22c26,-3 57,-11 92,-25zm511 459l11 19c-55,38 -119,65 -194,81 10,-75 54,-187 132,-339l44 -83c15,-29 23,-48 23,-56 0,-12 -5,-18 -15,-18 -14,0 -41,16 -80,47 -39,32 -78,68 -115,110 -77,85 -142,188 -194,308 -21,5 -51,16 -90,32 42,-85 84,-180 126,-285 43,-106 64,-168 64,-188 0,-16 -7,-24 -20,-24 -7,0 -22,3 -44,10 -2,0 -5,1 -8,2l-4 -22c64,-18 121,-38 173,-61l8 -4c2,6 2,10 2,12 0,41 -30,126 -90,257l-9 20 11 -13c75,-84 143,-151 206,-199 63,-48 112,-73 147,-73 23,0 34,12 34,34 0,24 -30,93 -89,208 -71,136 -107,213 -107,230 0,14 6,20 19,20 13,0 32,-7 55,-22l4 -3zm644 -5l12 18c-48,35 -113,63 -195,83 2,-45 29,-124 81,-235 -59,68 -119,125 -181,170 -62,45 -111,67 -148,67 -32,0 -48,-20 -48,-60 0,-68 31,-141 92,-220 62,-79 139,-144 232,-195 104,-58 208,-87 311,-87 15,0 22,5 22,16 0,9 -6,27 -20,52 -31,-6 -61,-8 -90,-8 -139,0 -258,53 -358,159 -74,78 -111,156 -111,233 0,36 14,54 41,54 22,0 55,-20 98,-59 43,-39 81,-84 115,-135 46,-71 78,-144 94,-221 20,12 29,34 29,65 0,44 -22,94 -66,151 22,-2 49,-8 81,-19l-5 11c-44,97 -66,153 -66,169 0,13 7,19 19,18 11,-1 32,-10 61,-27z"/>
   <path class="fil2" d="M2157 535l-53 178 -26 -4 4 -13c3,-11 4,-21 4,-29 0,-23 -18,-35 -56,-35 -49,0 -97,25 -141,75 -45,50 -79,117 -104,199 -14,48 -31,129 -52,242 -21,114 -32,185 -32,214 0,23 11,35 32,35 14,0 35,-7 63,-19l12 21c-20,8 -55,21 -105,40 -38,15 -72,28 -101,41 0,-40 10,-115 29,-225 20,-110 42,-217 67,-321l-24 31c-20,25 -51,63 -93,115l-148 183 -152 185 -15 19 -16 -12c15,-31 23,-61 23,-92 0,-50 -12,-126 -35,-230l-21 -91c-1,-1 -2,-6 -4,-15 -108,144 -220,254 -336,331 -115,77 -228,115 -338,115 -72,0 -140,-16 -204,-47 -65,-31 -115,-73 -152,-126 -42,-60 -63,-131 -63,-213 0,-106 36,-192 110,-258 73,-66 169,-99 287,-99 68,0 130,13 185,39 56,26 127,75 216,147 33,28 58,42 74,42 19,0 51,-13 95,-37l14 20 -172 94 -18 -16c-83,-78 -164,-137 -244,-178 -80,-42 -153,-62 -220,-62 -85,0 -154,25 -205,75 -52,51 -78,117 -78,200 0,104 39,189 117,254 77,64 178,97 302,97 109,0 216,-35 322,-105 105,-70 206,-172 302,-308 -9,-48 -13,-89 -13,-122 0,-82 18,-162 54,-241 35,-79 72,-119 109,-119 37,0 56,31 56,94 0,40 -11,86 -33,138 -22,52 -58,119 -108,199 5,24 15,65 30,123 26,100 42,187 50,258 10,-14 18,-23 21,-28l45 -54 318 -392c76,-92 130,-155 163,-189 34,-34 70,-61 108,-82 50,-28 100,-42 150,-42zm-890 364c27,-47 49,-95 65,-143 17,-49 25,-90 25,-123 0,-35 -12,-52 -36,-52 -18,0 -34,19 -47,57 -13,38 -19,84 -19,138 0,35 4,76 12,123z"/>
   <path id="1" class="fil2" d="M2455 1371l12 17c-48,36 -113,64 -196,84 3,-45 30,-124 82,-235 -59,68 -119,125 -182,170 -62,45 -111,67 -147,67 -32,0 -48,-20 -48,-60 0,-68 31,-141 92,-220 62,-79 139,-144 231,-195 105,-58 209,-87 312,-87 15,0 22,5 22,16 0,9 -7,26 -20,52 -31,-6 -61,-9 -90,-9 -139,0 -258,54 -358,160 -74,78 -111,156 -111,233 0,35 14,54 41,54 22,0 55,-20 98,-59 43,-39 81,-84 114,-135 47,-71 78,-144 95,-221 19,12 29,34 29,65 0,44 -22,94 -66,151 22,-2 48,-8 81,-19l-6 11c-43,96 -65,153 -65,169 0,13 6,19 19,18 11,-1 31,-10 61,-27z"/>
   <path id="2" class="fil2" d="M3188 917c-32,60 -70,145 -116,255 -45,109 -68,173 -69,191 -1,14 7,21 23,21 12,0 30,-4 53,-14l10 18c-34,17 -88,41 -165,69l-18 7c12,-73 34,-152 68,-235 -58,74 -114,131 -166,173 -53,42 -96,63 -130,63 -30,0 -45,-16 -45,-47 0,-37 28,-114 84,-231l54 -113c17,-36 26,-61 27,-76 1,-15 -7,-22 -23,-22 -8,0 -20,2 -39,7l-5 -20 11 -3c63,-19 116,-37 158,-55 0,36 -19,96 -60,178l-58 120c-45,93 -68,149 -68,170 0,20 9,29 26,29 44,0 102,-45 174,-137 73,-91 130,-192 173,-302l9 -21c26,-3 57,-11 92,-25z"/>
   <path id="3" class="fil2" d="M3699 1376l11 19c-55,38 -119,65 -193,81 9,-75 53,-188 131,-339l45 -84c15,-28 22,-47 22,-55 0,-12 -5,-18 -15,-18 -14,0 -41,15 -80,47 -39,32 -77,68 -115,110 -77,85 -141,188 -193,308 -22,5 -52,15 -91,32 42,-85 84,-180 126,-286 43,-105 64,-168 64,-187 0,-16 -7,-24 -20,-24 -7,0 -21,3 -44,10 -2,0 -4,1 -8,2l-4 -22c64,-18 121,-38 173,-61l9 -4c1,6 1,10 1,12 0,40 -30,126 -89,256l-10 21 12 -13c74,-84 142,-151 205,-199 63,-49 112,-73 148,-73 22,0 33,11 33,34 0,23 -30,92 -89,207 -71,137 -106,214 -106,231 0,13 6,20 18,20 13,0 32,-8 56,-22l3 -3z"/>
   <path id="4" class="fil2" d="M4343 1371l12 17c-47,36 -112,64 -195,84 2,-45 29,-124 81,-235 -59,68 -119,125 -181,170 -62,45 -111,67 -148,67 -32,0 -47,-20 -47,-60 0,-68 30,-141 92,-220 61,-79 138,-144 231,-195 104,-58 208,-87 312,-87 14,0 21,5 21,16 0,9 -6,26 -20,52 -31,-6 -61,-9 -90,-9 -139,0 -258,54 -358,160 -74,78 -110,156 -110,233 0,35 13,54 40,54 23,0 55,-20 98,-59 43,-39 81,-84 115,-135 46,-71 78,-144 95,-221 19,12 28,34 28,65 0,44 -22,94 -66,151 22,-2 49,-8 81,-19l-5 11c-44,96 -66,153 -66,169 0,13 7,19 19,18 11,-1 32,-10 61,-27z"/>
  </g>
  <path class="fil2" d="M145 2020l0 -23 17 -1c14,-1 22,-4 26,-8 3,-4 5,-17 6,-40 1,-47 1,-97 1,-151 0,-29 0,-62 0,-98 0,-22 -1,-36 -4,-41 -1,-2 -3,-4 -6,-6 -3,-1 -16,-3 -40,-5l0 -23c23,1 45,1 67,1 25,0 50,0 73,-1 10,24 21,48 31,71 8,17 42,88 103,213 64,-128 109,-223 134,-284 23,1 44,2 65,2 24,0 47,-1 69,-2l0 23c-25,2 -39,4 -42,7 -4,3 -6,12 -7,26 -1,24 -1,69 -1,135 0,34 0,69 1,106 0,38 1,59 3,64 2,3 3,5 6,6 2,2 16,4 40,6l0 23c-31,-1 -58,-2 -82,-2 -24,0 -56,1 -98,2l0 -23 17 -1c13,0 21,-2 24,-5 3,-3 5,-12 6,-25 1,-13 2,-45 2,-94l0 -170c-29,58 -66,134 -111,229 -19,39 -33,70 -44,95l-18 0c-14,-33 -33,-74 -57,-123l-97 -201 0 38c0,106 0,179 1,219 1,17 3,27 7,30 3,4 17,7 42,8l0 23c-19,-1 -39,-2 -58,-2 -28,0 -54,1 -76,2z"/>
  <path id="1" class="fil2" d="M980 1997l0 23 -22 -1c-11,-1 -23,-1 -34,-1 -18,0 -35,1 -51,2l-2 -3 2 -39 -58 44c-11,2 -20,4 -28,4 -20,0 -35,-6 -46,-18 -11,-12 -17,-29 -17,-52 0,-28 8,-48 23,-59 19,-15 61,-29 126,-41 0,-22 -4,-38 -11,-48 -10,-13 -26,-20 -48,-20 -5,0 -10,0 -15,2 -6,1 -11,3 -16,5l-13 30 -20 -5 1 -12 0 -13 -1 -11c29,-18 50,-29 63,-33 9,-4 21,-5 38,-5 22,0 40,3 54,10 14,6 24,15 30,27 7,11 10,28 10,50 0,9 0,26 -1,50 -1,24 -1,44 -1,59 0,23 0,38 2,43 0,3 2,5 5,7 3,1 13,3 30,5zm-107 -116c-33,7 -54,15 -64,23 -10,8 -15,20 -15,34 0,11 3,20 9,27 7,7 15,10 25,10 15,0 30,-9 45,-25l0 -69z"/>
  <path id="2" class="fil2" d="M1044 1928c1,24 3,38 4,41 4,8 12,14 23,20 11,6 25,9 40,9 18,0 32,-4 41,-11 9,-8 13,-18 13,-30 0,-11 -3,-20 -10,-26 -6,-6 -20,-11 -42,-16 -32,-7 -54,-14 -64,-19 -9,-5 -17,-13 -23,-24 -6,-10 -9,-23 -9,-38 0,-17 5,-32 13,-46 9,-13 21,-23 37,-31 17,-8 38,-11 65,-11 27,0 53,4 77,13 -2,15 -4,39 -5,71l-23 0c-1,-20 -2,-32 -4,-35 -3,-6 -9,-10 -16,-14 -11,-5 -23,-8 -35,-8 -16,0 -28,4 -37,11 -8,7 -13,16 -13,26 0,10 4,18 12,24 8,6 27,12 56,17 21,4 35,7 43,11 13,5 23,13 30,24 6,11 10,25 10,41 0,32 -12,56 -37,73 -24,17 -54,26 -88,26 -11,0 -23,-2 -37,-4 -14,-3 -29,-7 -45,-12l-4 -4c2,-17 4,-43 4,-78l24 0z"/>
  <path id="3" class="fil2" d="M1301 1928c1,24 2,38 3,41 4,8 12,14 24,20 11,6 24,9 39,9 18,0 32,-4 41,-11 9,-8 13,-18 13,-30 0,-11 -3,-20 -9,-26 -7,-6 -21,-11 -42,-16 -33,-7 -54,-14 -64,-19 -10,-5 -18,-13 -24,-24 -5,-10 -8,-23 -8,-38 0,-17 4,-32 13,-46 8,-13 21,-23 37,-31 16,-8 37,-11 64,-11 28,0 54,4 77,13 -2,15 -4,39 -5,71l-22 0c-1,-20 -3,-32 -5,-35 -3,-6 -8,-10 -16,-14 -11,-5 -22,-8 -35,-8 -16,0 -28,4 -36,11 -9,7 -13,16 -13,26 0,10 3,18 11,24 8,6 27,12 57,17 20,4 34,7 42,11 13,5 23,13 30,24 7,11 10,25 10,41 0,32 -12,56 -36,73 -25,17 -54,26 -88,26 -11,0 -24,-2 -38,-4 -13,-3 -28,-7 -44,-12l-5 -4c3,-17 4,-43 5,-78l24 0z"/>
  <path id="4" class="fil2" d="M1563 1832l-24 0c2,-22 3,-43 3,-62l0 -16 3 -2c57,1 92,2 105,2 38,0 79,-1 124,-2l0 19c-61,80 -113,152 -158,217l51 0c45,0 69,-2 74,-5 5,-3 10,-16 12,-39l2 -16 25 0c-3,25 -5,54 -6,89l-3 3c-17,0 -30,0 -39,0l-46 0c-46,-1 -75,-2 -85,-2l-85 2 0 -20c19,-23 41,-51 67,-86 39,-52 70,-96 95,-131l-52 0c-24,0 -39,0 -45,1 -5,1 -8,2 -10,5 -1,2 -3,10 -5,22l-3 21z"/>
  <path id="5" class="fil2" d="M2071 1997l0 23 -22 -1c-12,-1 -23,-1 -35,-1 -18,0 -34,1 -50,2l-3 -3 3 -39 -59 44c-10,2 -20,4 -28,4 -20,0 -35,-6 -46,-18 -11,-12 -16,-29 -16,-52 0,-28 7,-48 22,-59 19,-15 61,-29 127,-41 -1,-22 -5,-38 -12,-48 -10,-13 -26,-20 -47,-20 -5,0 -11,0 -16,2 -5,1 -11,3 -16,5l-13 30 -19 -5 0 -12 0 -13 0 -11c28,-18 49,-29 62,-33 9,-4 22,-5 38,-5 22,0 40,3 54,10 14,6 24,15 31,27 6,11 9,28 9,50 0,9 0,26 -1,50 -1,24 -1,44 -1,59 0,23 1,38 2,43 1,3 3,5 6,7 2,1 12,3 30,5zm-107 -116c-33,7 -55,15 -65,23 -10,8 -15,20 -15,34 0,11 3,20 10,27 6,7 14,10 24,10 15,0 30,-9 46,-25l0 -69zm-65 -160l-28 0 65 -63c15,-15 26,-24 31,-27 5,-3 11,-4 17,-4 7,0 13,2 17,6 4,4 7,9 7,16 0,5 -2,10 -6,14 -4,4 -15,11 -34,21l-69 37z"/>
  <path id="6" class="fil2" d="M2140 1832l-24 0c2,-22 3,-43 3,-62l0 -16 3 -2c58,1 93,2 106,2 37,0 79,-1 124,-2l0 19c-61,80 -114,152 -158,217l51 0c44,0 69,-2 74,-5 5,-3 9,-16 12,-39l2 -16 25 0c-3,25 -5,54 -6,89l-3 3c-18,0 -31,0 -40,0l-45 0c-47,-1 -75,-2 -86,-2l-84 2 0 -20c19,-23 41,-51 67,-86 38,-52 70,-96 94,-131l-51 0c-24,0 -39,0 -46,1 -4,1 -7,2 -9,5 -2,2 -4,10 -6,22l-3 21z"/>
  <path id="7" class="fil2" d="M2423 1928c1,24 3,38 4,41 4,8 12,14 23,20 11,6 25,9 40,9 18,0 32,-4 41,-11 9,-8 13,-18 13,-30 0,-11 -3,-20 -10,-26 -6,-6 -20,-11 -42,-16 -32,-7 -54,-14 -64,-19 -9,-5 -17,-13 -23,-24 -6,-10 -9,-23 -9,-38 0,-17 5,-32 13,-46 9,-13 21,-23 37,-31 17,-8 38,-11 65,-11 27,0 53,4 77,13 -2,15 -4,39 -5,71l-23 0c-1,-20 -2,-32 -4,-35 -3,-6 -9,-10 -16,-14 -11,-5 -23,-8 -35,-8 -16,0 -28,4 -37,11 -8,7 -13,16 -13,26 0,10 4,18 12,24 8,6 27,12 56,17 21,4 35,7 43,11 13,5 23,13 30,24 7,11 10,25 10,41 0,32 -12,56 -37,73 -24,17 -54,26 -88,26 -11,0 -23,-2 -37,-4 -14,-3 -29,-7 -45,-12l-4 -4c2,-17 4,-43 4,-78l24 0z"/>
  <path id="8" class="fil2" d="M2813 1901l24 0c1,28 2,44 3,49 2,5 7,11 16,19 10,7 22,14 36,19 15,5 30,7 46,7 26,0 47,-7 63,-21 16,-14 24,-32 24,-53 0,-19 -5,-34 -16,-44 -10,-11 -31,-18 -61,-22 -44,-7 -74,-14 -89,-21 -16,-8 -28,-19 -37,-34 -9,-15 -13,-33 -13,-54 0,-36 12,-66 37,-90 25,-25 64,-37 119,-37 21,0 40,2 57,5 17,3 33,8 50,16l3 6c-3,12 -5,23 -7,33 -1,9 -2,26 -3,49l-24 0c-1,-29 -3,-45 -4,-48 -4,-7 -13,-13 -28,-20 -14,-7 -31,-10 -49,-10 -26,0 -46,6 -60,18 -14,13 -22,29 -22,49 0,12 3,22 9,31 6,9 14,16 25,20 10,4 33,9 67,15 31,4 52,9 63,13 19,8 32,19 42,34 9,15 14,34 14,57 0,40 -15,73 -46,99 -30,26 -72,40 -125,40 -23,0 -44,-3 -64,-7 -19,-5 -39,-12 -59,-22 3,-13 6,-25 7,-36 1,-15 2,-35 2,-60z"/>
  <path id="9" class="fil2" d="M3132 1793l37 -24c0,-34 -1,-63 -2,-88 25,-8 49,-17 72,-28l8 6c-4,27 -7,64 -8,110 8,1 17,2 25,2 20,0 37,-1 52,-4l3 2 -3 10c-3,10 -5,20 -6,29 -22,-2 -38,-2 -49,-2 -7,0 -15,0 -22,1 -1,19 -1,35 -1,50 0,63 2,99 6,108 4,8 13,13 27,13 4,0 8,-1 13,-2 5,-1 10,-2 15,-4l5 11c-11,13 -22,26 -33,39 -7,1 -13,2 -19,3 -6,0 -11,1 -16,1 -15,0 -29,-3 -39,-9 -11,-5 -18,-12 -23,-21 -5,-8 -7,-21 -7,-38 0,-9 0,-33 1,-71 1,-34 1,-61 1,-80l-14 -1c-6,0 -14,1 -23,2l0 -15z"/>
  <path id="10" class="fil2" d="M3329 1792l0 -22c30,-3 58,-8 84,-16l28 -10c3,0 5,2 5,6l-1 17c-4,43 -5,85 -5,125 0,26 1,43 4,52 2,8 7,15 14,20 7,4 16,7 28,7 13,0 25,-4 35,-11 10,-7 16,-16 19,-24 2,-9 3,-34 3,-76 0,-33 0,-52 -2,-58 0,-3 -2,-5 -3,-6 -3,-2 -16,-3 -39,-4l0 -22c39,-5 67,-10 85,-15l30 -11c3,0 5,2 5,6l-1 7c-3,33 -4,93 -4,179 0,26 0,42 2,49 1,3 2,6 4,7 3,2 15,3 36,5l0 23c-22,-1 -43,-2 -64,-2 -18,0 -34,1 -49,2l-2 -5c1,-10 2,-24 2,-44 -17,14 -34,29 -51,46 -13,6 -26,9 -39,9 -17,0 -32,-4 -45,-11 -13,-7 -22,-16 -28,-27 -6,-11 -10,-27 -10,-47l1 -31c1,-19 1,-34 1,-46 0,-33 -1,-53 -2,-60 -1,-4 -3,-7 -6,-9 -3,-2 -15,-3 -35,-3zm125 -71l-28 0 65 -63c16,-15 26,-24 31,-27 6,-3 11,-4 17,-4 7,0 13,2 17,6 5,4 7,9 7,16 0,5 -2,10 -6,14 -3,4 -15,11 -34,21l-69 37z"/>
  <path id="11" class="fil2" d="M3900 1758l0 -49c0,-30 -1,-48 -2,-52 -1,-4 -3,-6 -5,-8 -3,-1 -16,-2 -39,-3l0 -20c45,-5 83,-14 113,-27l8 7c-2,30 -3,59 -4,86l-2 221c0,37 1,60 2,68 1,5 3,8 6,10 3,2 14,4 34,6l0 23c-23,-1 -45,-2 -67,-2 -16,0 -31,1 -44,2l-5 -3c2,-20 4,-35 5,-46 -13,9 -33,25 -61,49 -11,4 -21,6 -30,6 -32,0 -58,-12 -78,-35 -21,-23 -31,-54 -31,-93 0,-19 2,-36 6,-51 4,-15 9,-27 15,-35 6,-7 17,-17 34,-29 24,-17 41,-27 52,-31 11,-4 22,-6 35,-6 9,0 19,1 28,3 10,1 20,4 30,9zm0 60c-9,-13 -19,-22 -30,-28 -11,-7 -24,-10 -38,-10 -19,0 -34,7 -44,21 -10,14 -16,37 -16,70 0,33 7,58 19,75 13,17 29,25 49,25 13,0 26,-4 37,-12 11,-8 18,-15 20,-21 2,-6 3,-31 3,-73l0 -47z"/>
  <path id="12" class="fil2" d="M4120 1610c12,0 22,5 30,13 9,9 13,19 13,31 0,13 -4,23 -13,31 -8,9 -18,13 -31,13 -12,0 -22,-4 -31,-13 -8,-8 -12,-18 -12,-31 0,-12 4,-22 12,-31 9,-8 19,-13 32,-13zm-79 410l0 -23c21,-1 34,-2 37,-4 3,-2 5,-7 6,-16 2,-12 2,-38 2,-78 0,-18 0,-34 0,-49l-1 -33c0,-11 -1,-17 -4,-20 -2,-3 -8,-4 -19,-4l-21 -1 0 -22c45,-4 82,-12 112,-24l7 5c-3,36 -4,89 -4,157 0,40 0,64 2,72 1,6 2,10 5,12 2,1 15,3 37,5l0 23c-34,-1 -60,-2 -79,-2 -10,0 -37,1 -80,2z"/>
  <path id="13" class="fil2" d="M4239 1886c0,-45 10,-78 31,-101 25,-26 61,-39 109,-39 47,0 81,10 102,31 22,22 33,55 33,101 0,47 -13,84 -37,109 -25,26 -60,39 -104,39 -44,0 -77,-12 -100,-36 -23,-24 -34,-59 -34,-104zm78 -20c0,51 6,86 19,107 10,17 25,25 45,25 18,0 31,-7 41,-21 9,-14 14,-39 14,-76 0,-50 -6,-85 -18,-105 -9,-15 -24,-23 -45,-23 -17,0 -31,7 -41,21 -10,14 -15,39 -15,72zm19 -145l-28 0 65 -63c16,-15 26,-24 32,-27 5,-3 10,-4 16,-4 7,0 13,2 18,6 4,4 6,9 6,16 0,5 -2,10 -5,14 -4,4 -15,11 -35,21l-69 37z"/>
 </g>
</svg>
