<?xml version="1.0" encoding="UTF-8"?>
<!DOCTYPE svg PUBLIC "-//W3C//DTD SVG 1.1//EN" "http://www.w3.org/Graphics/SVG/1.1/DTD/svg11.dtd">
<!-- Creator: CorelDRAW X7 -->
<svg xmlns="http://www.w3.org/2000/svg" xml:space="preserve" width="50mm" height="50mm" version="1.1" style="shape-rendering:geometricPrecision; text-rendering:geometricPrecision; image-rendering:optimizeQuality; fill-rule:evenodd; clip-rule:evenodd"
viewBox="0 0 5000 5000"
 xmlns:xlink="http://www.w3.org/1999/xlink">
 <defs>
  <style type="text/css">
   <![CDATA[
    .str0 {stroke:#A74B16;stroke-width:50;stroke-linecap:round;stroke-linejoin:round}
    .fil3 {fill:none;fill-rule:nonzero}
    .fil0 {fill:#A74B16}
    .fil1 {fill:#A74B16;fill-rule:nonzero}
    .fil2 {fill:#F7E9B5;fill-rule:nonzero}
   ]]>
  </style>
 </defs>
 <g id="Layer_x0020_1">
  <metadata id="CorelCorpID_0Corel-Layer"/>
  <path class="fil0" d="M3458 1934c-8,53 13,101 17,152l0 0c34,39 52,88 95,120 188,-138 635,-113 728,139 51,-34 90,-86 130,-137 -84,-129 -203,-255 -404,-280 -55,-7 -109,-7 -162,-2 41,-33 80,-72 114,-115 125,-160 121,-333 89,-483 -64,-9 -129,-18 -189,-6 112,244 -187,577 -418,612zm-34 -280c-18,-15 -36,-30 -53,-45 -15,-17 -30,-35 -45,-53 -155,29 -303,20 -447,-8 -11,57 -17,116 -26,174 121,26 245,40 373,31 -9,129 5,253 31,374 58,-9 116,-15 174,-26 -28,-144 -36,-292 -7,-447zm-234 349c-11,-7 -85,19 -107,21 -43,5 -89,7 -134,6 -1,-45 1,-91 6,-134 2,-22 29,-96 21,-107 -13,-19 -151,-9 -169,-29 -38,141 -50,288 -30,441 153,21 300,10 442,-28 -21,-19 -10,-156 -29,-170zm15 -54c-14,-39 -29,-82 -48,-126 -45,-19 -88,-35 -127,-49 -17,60 -30,120 -28,183 6,1 11,2 17,3 1,6 2,11 3,17 63,3 123,-11 183,-28zm155 -780c-67,41 -118,85 -146,134 62,103 127,191 196,268 76,68 164,134 267,196 49,-27 93,-79 134,-146l-15 -10c-88,-45 -174,-106 -251,-175 -69,-77 -130,-164 -175,-252l-10 -15zm545 -93c8,-330 -155,-707 -417,-999l-387 930c45,-38 111,-87 164,-109 -36,-119 -36,-418 166,-403 75,6 131,64 186,161 123,219 125,510 21,687 178,-103 468,-100 687,24 97,55 155,111 160,186 14,202 -284,200 -403,164 -22,53 -72,119 -110,164 59,5 141,17 193,39 59,-110 270,-321 402,-168 49,57 48,138 18,245 -68,242 -272,449 -471,501 199,53 402,260 469,502 30,108 31,189 -18,245 -133,153 -343,-59 -402,-168 -52,21 -134,33 -193,38l930 387c-19,-392 -170,-774 -408,-1003 239,-229 391,-610 411,-1002 -290,-263 -667,-427 -998,-421zm-858 1160c-115,29 -267,85 -392,187 -1,0 -1,1 -1,2 0,0 0,0 0,0 1,0 1,0 2,0 160,-16 307,-84 410,-144 -7,-6 -12,-13 -18,-19l-278 115 278 -115c-1,-8 -1,-17 -1,-26zm-718 -110l-81 -197c-8,1 -17,1 -25,1 29,115 84,268 186,393 0,0 1,0 2,0 0,0 0,0 0,0l0 0c0,0 0,-1 1,-2 -16,-160 -85,-307 -145,-409 -6,6 -12,12 -19,17l81 197zm369 -214c-60,102 -129,249 -146,410 1,0 1,1 1,1 0,0 0,0 0,0l0 0c1,0 2,0 2,0 102,-125 158,-277 188,-392 -9,0 -17,0 -26,-1l-109 262 109 -262c-6,-6 -13,-11 -19,-18zm-515 -972l-18 -4c-18,77 -24,144 -9,198 116,29 225,46 328,52 102,-6 211,-22 328,-51 15,-54 10,-121 -9,-198l-17 4c-94,30 -198,48 -302,54 -103,-6 -208,-25 -301,-55zm592 468c32,44 81,62 119,96 52,3 99,25 153,17 35,-230 369,-529 613,-416 12,-60 3,-125 -5,-189 -151,-32 -324,-37 -484,87 -44,34 -82,73 -116,114 6,-53 6,-107 -1,-162 -25,-201 -150,-321 -279,-405 -51,40 -103,79 -137,130 252,93 275,540 137,728zm-584 337c73,127 169,239 291,333 123,-93 219,-205 293,-332 -28,2 -118,-103 -141,-99 -13,2 -47,73 -60,91 -27,34 -59,67 -91,98 -33,-31 -64,-65 -91,-99 -13,-17 -47,-88 -60,-90 -23,-5 -113,100 -141,98zm-285 -933c-110,-59 -321,-270 -168,-402 57,-49 138,-48 246,-17 242,67 448,271 500,470 53,-199 260,-402 502,-469 108,-30 189,-31 246,18 153,133 -59,343 -169,402 22,52 33,135 38,193l387 -930c-392,20 -774,170 -1003,408 -229,-239 -610,-390 -1002,-411l384 931c5,-58 17,-141 39,-193zm578 427c-23,-1 -46,-3 -70,-5 -89,130 -200,229 -322,310 33,49 71,95 105,142 104,-67 202,-145 286,-242 85,97 182,176 286,243 35,-47 72,-93 105,-141 -122,-82 -232,-181 -321,-312 -23,3 -47,4 -69,5zm-124 359c30,54 62,106 109,148 5,-3 9,-6 14,-9 5,3 9,6 14,10 47,-43 80,-95 110,-149 -37,-18 -79,-38 -124,-56 -45,18 -86,37 -123,56zm-443 637c0,8 0,17 -1,25l394 164c-1,-1 -1,-1 -1,-2 -125,-102 -277,-158 -392,-187zm-1033 -523c-119,36 -418,36 -402,-165 5,-75 63,-131 161,-186 218,-124 509,-126 686,-22 -103,-177 -100,-468 24,-686 55,-98 111,-155 186,-161 202,-14 201,285 165,404 52,21 118,71 163,109l-384 -931c-263,291 -427,667 -420,998 -331,-8 -708,155 -999,417l929 387c-37,-45 -87,-111 -109,-164zm272 -95c40,67 84,119 133,146 103,-61 192,-127 268,-195 69,-76 134,-165 196,-268 -27,-48 -79,-92 -146,-133l-10 14c-45,88 -106,175 -175,252 -77,69 -164,129 -252,174l-14 10zm590 554c141,38 288,49 441,29 21,-153 10,-300 -28,-441 -19,20 -156,9 -169,29 -8,11 18,84 21,107 5,43 6,88 5,134 -45,0 -91,-1 -134,-6 -22,-3 -96,-29 -107,-22 -19,14 -8,151 -29,170zm-151 -565c-17,15 -35,30 -53,45 29,156 21,303 -8,447 57,11 116,17 174,27 26,-122 40,-246 31,-374 129,9 253,-4 374,-30 -9,-58 -15,-117 -25,-175 -144,29 -292,36 -448,7 -15,18 -30,36 -45,53zm348 369c1,-6 2,-11 3,-17 6,-1 11,-2 17,-3 3,-63 -11,-123 -28,-182 -39,13 -82,29 -126,47 -19,45 -35,88 -48,127 59,17 119,31 182,28zm-23 -455c53,8 101,-14 152,-18l0 0 0 0c39,-33 88,-51 120,-95 -138,-188 -113,-635 139,-728 -34,-51 -85,-90 -137,-130 -129,84 -254,203 -280,404 -7,55 -7,109 -1,162l14 35 -14 -35c-34,-41 -72,-80 -116,-114 -159,-124 -332,-120 -483,-89 -9,65 -17,129 -6,189 244,-112 577,188 612,419zm388 905c0,0 1,-1 2,-1l-394 -164c-5,7 -11,13 -17,19 102,61 249,129 409,146zm-1088 -1c3,24 4,47 6,70 -2,22 -3,45 -6,69 130,90 229,200 311,322 48,-33 94,-70 141,-105 -67,-104 -145,-202 -242,-286 98,-84 176,-181 243,-286 -47,-34 -93,-72 -141,-105 -82,122 -181,232 -312,321zm309 70c18,45 37,87 55,124 54,-30 106,-63 149,-110 -4,-4 -7,-9 -10,-14 3,-4 6,-9 10,-13 -43,-47 -95,-80 -149,-110 -18,37 -37,78 -55,123zm-409 327c30,-116 46,-225 52,-328 -5,-102 -22,-211 -51,-327 -53,-16 -121,-10 -197,8l3 18c30,93 48,198 54,301 -6,104 -25,208 -55,302l-3 17c76,19 143,24 197,9zm274 -618c44,-32 62,-81 96,-120l0 0c3,-51 25,-99 17,-152 -230,-36 -529,-369 -416,-613 -60,-12 -124,-4 -189,5 -32,150 -36,323 88,483 34,44 72,82 113,116 -53,-5 -107,-6 -162,1 -201,25 -320,150 -405,279 40,51 79,103 130,137 94,-251 541,-275 728,-136zm-596 868c-59,110 -270,321 -402,168 -49,-57 -47,-138 -17,-245 67,-242 271,-449 470,-501 -199,-53 -402,-260 -469,-502 -29,-108 -30,-189 19,-245 132,-153 342,59 401,169 53,-22 135,-34 193,-39l-929 -387c19,392 169,774 408,1003 -240,229 -391,610 -412,1002l931 -384c-58,-5 -140,-17 -193,-39zm835 -728c3,13 73,47 91,61 34,27 67,58 98,91 -31,32 -64,63 -99,90 -17,14 -88,47 -90,60 -5,24 100,113 99,141 127,-73 239,-169 333,-291 -94,-123 -206,-219 -332,-292 1,27 -104,117 -100,140zm-127 714c8,-53 -14,-101 -18,-152l0 0c-33,-39 -51,-88 -95,-120 -188,138 -635,113 -727,-139 -51,34 -91,86 -130,137 83,129 202,255 403,280 55,7 110,7 162,2 -41,33 -79,72 -114,115 -124,160 -120,333 -88,483 64,9 128,18 189,6 -112,-244 187,-577 418,-612zm193 1036c35,119 36,418 -166,403 -75,-6 -131,-64 -186,-161 -123,-219 -125,-509 -21,-687 -178,103 -468,101 -687,-23 -97,-56 -155,-112 -160,-187 -15,-202 284,-200 403,-164 21,-53 72,-119 109,-164l-931 384c291,263 667,427 998,421 -8,330 155,707 418,999l386 -930c-44,38 -111,88 -163,109zm-96 -271c67,-41 119,-85 146,-133 -61,-103 -127,-192 -195,-269 -76,-68 -165,-134 -268,-196 -48,28 -92,79 -133,146l15 10c87,45 174,106 251,175 69,77 129,164 174,252l10 15zm313 -1067c115,-29 268,-85 393,-186 0,-1 0,-2 0,-2l0 0c0,-1 -1,-1 -1,-1 -161,16 -308,84 -410,144 6,6 12,13 17,19l279 -115 -279 115c1,9 1,17 1,26zm-171 63c20,19 10,156 29,170 11,7 85,-19 107,-21 43,-5 89,-7 134,-6 1,45 -1,91 -6,134 -3,22 -29,96 -22,107 14,19 151,9 170,29 38,-141 50,-288 29,-441 -153,-21 -300,-10 -441,28zm14 224c13,39 29,82 48,127 44,19 87,34 126,48 17,-60 31,-120 28,-183 -5,-1 -11,-2 -17,-3 -1,-5 -2,-11 -3,-16 -63,-4 -123,10 -182,27zm-167 340c15,17 30,35 45,53 156,-28 304,-20 448,8 11,-57 16,-116 26,-174 -122,-26 -245,-40 -374,-31 9,-129 -4,-252 -30,-374 -58,9 -117,15 -174,26 28,144 36,292 6,447 19,15 36,30 53,45zm888 370c23,1 46,3 69,5 90,-130 200,-229 322,-310 -33,-49 -70,-94 -105,-142 -104,67 -201,145 -286,242 -84,-97 -181,-175 -285,-243 -35,47 -73,93 -106,141 122,82 232,181 321,312 24,-2 47,-4 70,-5zm301 299l17 4c19,-77 24,-144 9,-198 -116,-29 -225,-46 -327,-51 -103,5 -212,21 -328,50 -15,54 -10,121 8,198l18 -4c94,-30 198,-48 301,-54 104,6 208,25 302,55zm-592 -468c-32,-43 -81,-62 -120,-95 -51,-4 -99,-26 -152,-18 -36,230 -369,529 -613,416 -12,60 -3,125 5,189 151,32 323,37 483,-87 44,-34 83,-73 116,-114 -5,53 -5,107 1,162 25,201 150,321 279,405 52,-40 103,-79 138,-130 -252,-93 -276,-540 -137,-728zm583 -337c-73,-127 -168,-239 -291,-333 -123,93 -219,205 -292,332 28,-2 117,103 140,99 13,-2 47,-73 61,-90 27,-34 58,-68 91,-99 32,31 63,65 90,99 14,17 48,88 61,91 23,4 113,-101 140,-99zm-168 147c-30,-54 -63,-106 -110,-148 -4,3 -9,6 -13,9 -5,-3 -10,-6 -14,-9 -47,42 -80,94 -110,148 37,18 78,38 123,56 45,-18 87,-37 124,-56zm453 786c110,59 321,270 168,402 -57,49 -137,48 -245,18 -242,-68 -449,-272 -501,-471 -52,199 -260,402 -502,469 -108,30 -188,31 -245,-18 -153,-133 59,-343 169,-402 -22,-52 -34,-135 -39,-193l-386 930c391,-19 773,-170 1003,-408 228,239 610,390 1001,411l-384 -931c-5,58 -16,141 -39,193zm-792 -1100c61,-102 130,-249 146,-410 0,0 -1,-1 -1,-1l0 0c0,0 -1,0 -2,0 -102,125 -158,277 -187,392 8,0 17,1 25,1l110 -262 -110 262c7,6 13,12 19,18zm369 -214l81 197c9,-1 17,-1 26,-1 -29,-115 -85,-268 -186,-393 -1,0 -2,0 -2,0 0,0 0,0 0,0l0 0c-1,0 -1,1 -1,2 16,160 84,307 145,409 6,-6 12,-12 18,-17l-81 -197zm1445 414c119,-36 418,-36 403,166 -6,74 -63,130 -161,185 -219,124 -509,126 -687,22 104,178 101,468 -23,686 -55,98 -112,155 -187,161 -201,14 -200,-284 -164,-404 -53,-21 -119,-71 -164,-109l384 931c264,-291 428,-667 421,-998 331,8 708,-155 999,-417l-930 -387c38,45 88,111 109,164zm-1059 -263c0,6 -1,11 -3,17 -5,1 -11,2 -16,3 -3,63 10,123 27,182 39,-13 82,-28 127,-47 19,-45 35,-88 48,-127 -59,-17 -119,-31 -183,-28zm198 -195c-142,-39 -289,-50 -442,-30 -20,153 -9,300 28,441 19,-20 156,-9 170,-29 7,-10 -18,-84 -21,-107 -5,-43 -7,-88 -6,-133 45,-1 91,0 134,6 22,2 96,28 107,21 19,-13 9,-151 30,-169zm-174 651c-54,-8 -101,13 -153,17l0 0 0 0c-38,33 -88,52 -120,95 138,188 113,635 -139,728 34,51 86,90 137,130 130,-84 255,-203 280,-404 7,-55 7,-109 2,-162 33,41 72,80 116,114 159,124 332,120 483,89 8,-65 17,-129 5,-189 -244,112 -577,-188 -611,-418zm325 -87c17,-15 34,-30 53,-45 -29,-155 -21,-303 8,-447 -58,-11 -117,-17 -175,-26 -26,121 -40,245 -31,373 -128,-9 -252,4 -374,30 9,58 15,117 26,175 144,-29 292,-36 447,-7 15,-18 30,-36 46,-53zm-322 -628c-1,-9 0,-18 0,-26l-393 -164c0,1 0,1 0,2 125,102 277,158 393,188zm761 617c-41,-67 -85,-119 -133,-146 -103,62 -192,127 -268,195 -69,76 -135,165 -197,268 28,49 79,93 146,134l10 -15c45,-88 106,-174 175,-252 78,-68 165,-129 252,-174l15 -10zm619 -585c-39,-51 -79,-103 -130,-137 -93,252 -540,275 -728,136 -43,33 -62,82 -95,120l0 0c-4,51 -26,99 -18,152 231,36 529,370 416,613 61,12 125,4 189,-5 32,-150 37,-323 -87,-483 -34,-44 -73,-82 -114,-116 53,6 107,6 163,-1 200,-25 320,-150 404,-279zm-684 -222c-2,-24 -4,-47 -5,-69 1,-23 3,-46 5,-70 -130,-89 -229,-200 -310,-322 -49,33 -94,70 -142,105 67,104 145,202 242,286 -97,84 -175,182 -243,286 48,34 93,72 142,105 81,-122 181,-232 311,-321zm-413 81c-2,-13 -73,-47 -90,-61 -34,-27 -68,-58 -99,-90 32,-33 65,-64 99,-91 18,-14 88,-47 91,-60 4,-23 -101,-113 -99,-141 -127,73 -239,169 -333,291 93,123 205,219 332,292 -1,-27 103,-117 99,-140zm513 -478c-29,116 -46,225 -51,328 5,102 21,211 50,327 54,16 121,10 198,-8l-4 -18c-30,-93 -48,-198 -53,-301 5,-104 24,-208 54,-301l4 -18c-76,-19 -144,-24 -198,-9zm-1187 396c-1,1 -2,1 -2,1l393 164c6,-7 12,-13 18,-19 -102,-61 -249,-129 -409,-146zm779 -69c-18,-45 -37,-87 -55,-123 -54,29 -106,62 -149,109 3,4 6,9 9,14 -3,4 -6,9 -9,14 42,46 94,79 148,109 19,-36 38,-78 56,-123z"/>
  <g>
   <path class="fil1" d="M4619 1663l125 -415 255 76 -125 415 -148 93 -107 -169zm255 76c-21,70 -95,110 -166,89 -70,-21 -110,-95 -89,-165l255 76zm-166 -178l59 9 -41 262 -59 -9 -109 -165 150 -97zm-41 262c-73,-11 -123,-79 -111,-151 11,-73 79,-122 152,-111l-41 262zm157 -128l-8 31 -258 -68 9 -30 0 -1 257 68zm-251 -100l267 0 0 0 0 3 0 3 -1 4 0 3 0 3 0 4 0 3 -1 3 0 3 0 3 -1 4 0 3 0 3 -1 3 0 3 -1 3 0 4 -1 2 -1 4 0 3 -1 3 0 3 -1 3 -1 3 0 3 -1 3 -1 3 -1 3 0 3 -1 3 -1 3 -1 3 -257 -68 0 -1 1 -2 0 -2 0 -2 1 -2 0 -1 1 -2 0 -1 0 -1 1 -2 0 -1 0 -2 0 -1 1 -1 0 -1 0 -2 0 0 0 -1 0 -1 1 -1 0 -1 0 -1 0 0 0 -1 0 0 0 -1 0 0 0 -1 0 0 0 0 0 0 0 0 0 0zm2 50l0 -265 0 0 11 0 10 0 11 1 11 1 10 1 11 1 10 2 11 2 10 2 11 3 10 3 11 4 11 4 10 5 11 6 10 6 11 7 10 8 10 8 9 9 9 10 9 11 7 11 7 12 6 12 5 12 4 13 3 12 3 12 1 13 1 12 1 12 -267 0 0 1 0 3 1 3 0 3 1 3 1 4 2 4 2 5 3 4 2 4 3 4 3 3 3 3 3 2 3 2 2 2 2 1 2 1 1 1 1 0 0 0 -1 0 -1 -1 -1 0 -2 0 -3 -1 -3 0 -3 0 -4 -1 -5 0 -5 0 -5 0 0 0zm-229 130l-200 -175 0 0 12 -13 11 -12 12 -12 11 -11 12 -11 12 -11 12 -11 12 -10 13 -10 12 -9 13 -10 13 -9 13 -8 13 -8 13 -8 13 -7 14 -7 14 -7 13 -6 14 -6 15 -5 14 -5 14 -5 15 -4 14 -3 15 -3 15 -3 15 -2 15 -2 15 -1 15 -1 15 0 0 265 -7 0 -6 0 -6 1 -7 0 -6 1 -7 2 -6 1 -7 1 -6 2 -7 2 -6 3 -7 2 -7 3 -7 3 -6 3 -8 4 -7 4 -7 4 -7 5 -8 4 -7 6 -8 5 -7 6 -8 6 -8 7 -8 7 -8 7 -7 7 -9 8 -8 9 -8 8 -8 9 0 0zm-213 414l-256 -76 0 1 6 -19 6 -19 6 -19 6 -19 6 -18 7 -19 7 -18 7 -18 7 -17 7 -18 8 -17 7 -17 8 -17 8 -16 8 -17 8 -16 9 -16 9 -16 8 -15 9 -16 10 -15 9 -15 9 -14 10 -15 10 -14 10 -14 10 -14 11 -14 10 -13 11 -13 11 -13 11 -13 200 175 -8 10 -8 9 -8 10 -8 10 -8 10 -8 11 -7 11 -8 10 -7 12 -8 11 -7 11 -7 12 -7 12 -7 13 -7 12 -7 13 -6 13 -7 13 -6 14 -7 13 -6 14 -6 14 -6 15 -6 14 -6 15 -6 15 -5 16 -6 15 -5 16 -5 16 -5 17 -5 16 0 1zm-119 549l-262 -48 0 0 4 -24 5 -25 4 -24 5 -23 4 -23 4 -23 5 -22 4 -21 4 -22 4 -20 4 -21 4 -20 4 -19 4 -19 4 -19 4 -18 4 -18 4 -17 4 -17 3 -17 4 -16 4 -15 3 -15 4 -15 4 -15 3 -13 4 -14 3 -13 4 -13 3 -12 4 -12 3 -12 256 76 -3 9 -3 10 -3 11 -3 11 -3 12 -3 12 -4 13 -3 13 -3 14 -4 14 -3 14 -4 15 -3 16 -4 16 -3 16 -4 17 -4 18 -4 18 -4 18 -3 19 -4 20 -4 19 -4 21 -4 20 -5 21 -4 22 -4 22 -4 23 -5 23 -4 23 -4 24 -5 25 0 0zm-71 474l-266 0 0 0 0 -9 0 -9 0 -10 1 -10 1 -11 1 -10 1 -12 1 -11 1 -12 2 -13 1 -13 2 -14 2 -14 2 -15 2 -15 2 -16 3 -16 2 -17 3 -17 3 -18 3 -19 3 -19 3 -20 3 -20 4 -21 4 -21 4 -22 3 -22 5 -23 4 -24 4 -24 5 -25 262 48 -4 24 -5 24 -4 23 -4 23 -4 22 -4 21 -3 21 -4 20 -3 20 -3 19 -3 18 -3 18 -3 17 -2 17 -3 16 -2 15 -2 15 -2 14 -2 14 -2 13 -1 12 -2 12 -1 11 -1 10 -1 10 -1 9 0 8 -1 7 0 7 -1 6 0 5 0 3 0 0zm-61 -51l0 264 0 0 -9 0 -9 0 -10 -1 -10 -2 -9 -1 -11 -3 -10 -3 -10 -3 -10 -4 -10 -5 -10 -5 -10 -6 -9 -7 -10 -7 -8 -8 -8 -9 -8 -9 -7 -9 -6 -9 -5 -10 -5 -9 -5 -10 -3 -10 -3 -9 -3 -10 -2 -9 -2 -10 -1 -9 -1 -9 -1 -9 0 -9 0 -9 266 0 0 1 0 1 0 1 0 -1 0 0 0 -1 0 -1 -1 -2 -1 -2 -1 -3 -1 -3 -1 -3 -2 -4 -3 -3 -3 -4 -3 -3 -3 -4 -4 -3 -4 -4 -3 -2 -4 -3 -4 -2 -4 -2 -4 -1 -3 -1 -3 -1 -2 -1 -2 0 -2 0 -1 0 -1 0 -1 0 0 0zm262 21l-230 133 171 53 -6 4 -7 2 -7 3 -6 3 -7 3 -6 3 -7 2 -6 3 -6 2 -6 3 -7 2 -6 2 -6 2 -6 2 -6 2 -7 2 -6 2 -6 2 -6 2 -6 1 -6 2 -6 1 -6 1 -6 1 -7 2 -6 1 -6 0 -7 1 -7 1 -6 0 -7 0 -7 0 0 -264 0 0 0 0 0 0 0 0 1 -1 1 0 1 0 1 0 2 0 2 -1 2 0 2 -1 3 0 2 -1 3 -1 3 -1 3 -1 4 -1 3 -1 4 -1 4 -2 3 -1 5 -2 4 -1 4 -2 4 -2 5 -2 5 -2 5 -2 5 -2 5 -2 5 -3 171 54zm-171 -54c66,-31 146,-2 177,64 31,67 2,146 -65,176l-112 -240zm-30 236l-29 -49 230 -133 29 49 -65 189 -165 -56zm230 -133c37,63 16,144 -48,181 -64,37 -145,15 -182,-48l230 -133zm-312 285l-95 -248 0 0 11 -4 10 -4 11 -4 10 -4 10 -3 10 -4 9 -4 9 -3 9 -4 9 -3 9 -4 8 -3 9 -3 8 -3 8 -3 7 -3 8 -3 7 -3 7 -3 7 -2 6 -3 7 -2 6 -3 6 -2 6 -2 5 -3 6 -2 5 -2 5 -2 5 -2 4 -2 5 -1 100 245 -5 2 -4 2 -5 2 -6 2 -5 2 -6 2 -5 2 -6 3 -7 2 -6 3 -7 2 -6 3 -7 3 -8 3 -7 2 -8 3 -7 3 -8 4 -9 3 -8 3 -9 3 -8 4 -9 3 -10 4 -9 3 -10 4 -10 4 -10 4 -10 4 -10 3 -11 5 -11 4 0 0zm-416 -28l267 0 -188 -121 7 -3 7 -3 6 -3 7 -3 7 -3 7 -3 7 -3 7 -3 7 -3 7 -3 7 -3 8 -3 7 -3 7 -3 8 -3 8 -3 7 -4 8 -3 8 -3 7 -3 8 -3 8 -3 8 -3 8 -4 8 -3 8 -3 9 -3 8 -3 8 -3 9 -4 8 -3 8 -3 95 248 -8 3 -8 3 -8 3 -8 3 -8 3 -8 3 -8 3 -7 3 -8 3 -7 3 -8 3 -7 3 -7 3 -8 3 -7 3 -7 2 -7 3 -7 3 -7 3 -7 3 -7 3 -7 3 -6 3 -7 2 -7 3 -6 3 -7 3 -6 2 -6 3 -7 3 -6 3 -6 2 -188 -120zm188 120c-67,30 -146,0 -176,-66 -30,-67 0,-145 67,-175l109 241zm-118 -668l263 46 0 0 -4 23 -4 23 -4 23 -4 22 -4 21 -3 21 -3 21 -3 20 -4 19 -2 19 -3 19 -3 18 -2 18 -3 17 -2 16 -2 17 -2 15 -2 15 -2 15 -1 14 -2 13 -1 13 -1 13 -1 12 -1 11 -1 11 -1 10 0 10 0 9 -1 9 0 7 0 8 -267 0 0 -11 1 -12 0 -11 1 -12 0 -12 1 -13 1 -13 1 -13 1 -14 2 -14 1 -15 2 -15 1 -15 2 -16 2 -16 2 -17 3 -17 2 -18 3 -18 2 -18 3 -19 3 -20 3 -20 3 -20 3 -21 4 -21 3 -22 4 -22 4 -22 4 -23 4 -24 4 -24 0 0zm391 -641l-208 -166 234 114 -6 23 -5 22 -5 23 -6 22 -5 23 -5 23 -5 22 -6 23 -5 23 -5 23 -5 23 -5 23 -5 23 -5 23 -5 22 -4 24 -5 23 -5 23 -5 23 -4 23 -5 23 -5 24 -4 23 -5 23 -4 24 -5 23 -4 24 -4 23 -5 24 -4 23 -4 24 -4 24 -263 -46 4 -24 5 -24 4 -24 4 -24 5 -24 4 -24 5 -24 4 -24 5 -24 5 -24 4 -24 5 -23 5 -24 5 -24 5 -24 4 -23 5 -24 5 -23 5 -24 6 -23 5 -24 5 -23 5 -23 5 -24 6 -23 5 -23 5 -23 6 -24 5 -23 6 -23 5 -23 6 -23 233 114zm-233 -114c17,-71 89,-115 161,-98 71,18 115,89 98,160l-259 -62zm-32 19l57 -71 208 166 -57 70 -209 -164 1 -1zm-7 433l-208 -166 0 0 9 -11 9 -11 9 -11 8 -10 9 -10 8 -11 8 -10 8 -10 8 -9 8 -10 7 -9 7 -9 8 -9 7 -9 7 -8 6 -9 7 -8 7 -8 6 -8 6 -8 6 -7 6 -8 6 -7 5 -7 6 -6 5 -7 5 -7 5 -6 5 -6 4 -6 5 -5 4 -6 210 163 -4 6 -5 6 -5 6 -5 6 -5 7 -5 6 -5 7 -6 7 -5 7 -6 7 -6 8 -6 7 -7 8 -6 8 -7 8 -6 9 -7 8 -7 9 -7 9 -8 9 -7 9 -8 9 -7 10 -8 9 -8 10 -8 10 -9 11 -8 10 -9 11 -8 10 -9 11 -9 11 0 0zm-554 261l346 -427 208 166 -346 427 0 1 -208 -167zm208 166c-46,57 -130,66 -188,20 -57,-46 -66,-129 -20,-186l208 166zm-560 265l353 -431 207 167 -353 431 -208 -165 1 -2zm207 167c-46,57 -130,65 -187,19 -58,-46 -66,-129 -20,-186l207 167zm-243 -121l35 -44 210 163 -35 44 -183 26 -27 -189zm210 163c-45,58 -129,68 -187,23 -58,-45 -68,-128 -23,-186l210 163zm-66 -217l39 28 -156 215 -40 -29 -40 -167 197 -47zm-157 214c-59,-43 -73,-126 -29,-185 43,-59 126,-72 186,-29l-157 214zm0 -319l267 0 0 0 0 8 0 9 -1 9 0 9 -1 8 -1 9 0 9 -2 8 -1 9 -1 9 -2 8 -1 9 -2 9 -2 8 -2 9 -2 8 -2 9 -3 9 -2 8 -3 9 -3 8 -3 8 -3 9 -3 8 -3 9 -4 8 -3 8 -4 8 -4 9 -4 8 -4 8 -4 8 -237 -120 2 -6 3 -5 2 -5 3 -5 2 -5 2 -5 2 -5 2 -5 2 -5 2 -5 2 -5 1 -5 2 -4 1 -5 2 -5 1 -5 1 -4 1 -5 1 -5 1 -4 1 -5 1 -4 0 -5 1 -5 1 -4 0 -5 0 -4 1 -5 0 -4 0 -5 0 -4 0 -4 0 0zm-79 -508l260 -59 0 0 6 23 5 23 4 22 5 22 5 21 4 21 4 21 4 21 4 20 4 19 3 20 4 19 3 19 3 18 3 18 3 18 2 17 3 17 2 17 2 17 2 16 2 16 2 15 1 15 2 15 1 15 1 14 1 14 0 14 1 13 0 14 0 13 -267 0 0 -10 0 -9 0 -11 -1 -10 0 -11 -1 -12 -1 -12 -1 -12 -2 -13 -1 -14 -2 -13 -1 -14 -2 -15 -2 -15 -2 -15 -3 -16 -2 -16 -3 -17 -3 -17 -3 -17 -3 -18 -3 -18 -4 -19 -4 -19 -3 -19 -4 -20 -5 -20 -4 -21 -4 -21 -5 -21 -5 -21 -5 -22 0 0zm211 -272l49 213 -260 59 -49 -212 249 -89 11 29zm-31 75l-214 -158 238 52 0 2 0 1 1 2 0 2 0 2 1 1 0 1 0 2 1 1 0 1 0 1 0 1 1 1 0 1 0 1 0 0 0 1 0 1 0 0 1 1 0 0 0 0 0 0 -1 -1 0 -1 0 1 0 -3 -1 -1 -1 -2 -1 -3 -1 -4 -4 -7 -238 118 -4 -7 -2 -5 -1 -4 -1 -2 -1 -3 -1 -3 0 0 0 -2 -1 -3 0 -1 -1 -1 0 -2 0 -1 -1 -2 0 -1 0 -2 -1 -1 0 -2 -1 -1 0 -2 0 -1 -1 -2 0 -2 0 -1 -1 -2 0 -2 -1 -2 0 -2 0 -1 -1 -2 0 -3 -1 -2 238 53zm-238 -53c-14,-71 32,-141 104,-156 72,-15 143,32 158,103l-262 53zm-577 855l-148 -220 0 0 24 -16 23 -17 24 -17 24 -17 24 -18 23 -18 24 -19 24 -19 23 -20 24 -20 23 -21 24 -21 23 -21 24 -22 23 -22 24 -23 23 -24 24 -23 23 -25 23 -24 24 -26 23 -25 23 -26 23 -27 24 -27 23 -28 23 -28 23 -28 23 -29 23 -29 23 -30 23 -30 214 158 -24 32 -25 32 -24 31 -25 30 -24 31 -25 29 -25 30 -24 29 -25 28 -25 28 -25 28 -25 27 -25 26 -26 27 -25 25 -25 26 -26 25 -25 24 -26 24 -26 23 -26 23 -25 23 -26 22 -26 22 -27 21 -26 21 -26 20 -27 20 -26 19 -27 19 -26 19 -27 18 0 0zm-862 290l0 -265 0 0 21 0 21 -1 21 -1 21 -2 22 -2 21 -2 22 -3 21 -4 22 -4 21 -4 22 -5 22 -5 22 -6 22 -7 22 -6 22 -8 23 -8 22 -8 23 -9 22 -9 23 -10 23 -10 23 -11 23 -11 23 -12 23 -12 23 -13 23 -14 24 -14 23 -14 24 -15 24 -15 148 220 -27 17 -27 17 -27 17 -27 16 -26 15 -27 15 -27 14 -27 14 -27 13 -27 13 -27 12 -26 12 -27 11 -27 10 -27 10 -27 10 -27 9 -27 8 -27 8 -27 7 -27 7 -27 6 -27 5 -27 5 -27 5 -28 3 -27 4 -27 2 -27 2 -27 2 -27 1 -26 0 0 0zm-534 -122l117 -238 0 0 12 6 13 5 12 6 12 5 13 5 12 5 13 5 13 5 12 4 13 4 13 4 12 4 13 4 13 3 13 3 13 3 13 3 13 3 13 2 13 3 14 2 13 2 13 1 13 2 14 1 13 2 14 1 14 1 13 0 14 1 14 0 14 0 0 265 -18 0 -17 -1 -18 0 -17 -1 -17 -1 -18 -1 -17 -2 -17 -2 -17 -2 -17 -2 -17 -3 -17 -2 -17 -3 -17 -3 -17 -4 -17 -4 -16 -4 -17 -4 -17 -4 -16 -5 -17 -5 -16 -5 -16 -5 -17 -6 -16 -6 -16 -6 -16 -6 -16 -7 -16 -6 -16 -7 -16 -8 -15 -7 0 0zm-404 -338l219 -152 0 1 7 10 7 9 7 10 7 9 8 9 7 9 8 9 8 9 8 9 8 8 9 9 8 8 9 8 9 9 9 7 9 8 10 8 9 8 10 7 10 8 10 7 11 7 10 7 11 7 11 7 11 7 11 6 12 7 11 6 12 7 12 6 13 6 -117 238 -16 -8 -15 -8 -16 -8 -15 -8 -15 -9 -14 -8 -15 -9 -14 -9 -14 -9 -14 -10 -14 -9 -14 -10 -13 -10 -13 -10 -13 -10 -13 -11 -13 -11 -12 -11 -12 -11 -12 -11 -12 -11 -12 -12 -11 -12 -11 -12 -11 -12 -11 -12 -10 -13 -11 -12 -10 -13 -10 -13 -9 -13 -10 -14 1 1zm-172 -571l267 0 0 0 0 16 0 15 1 15 1 15 1 15 1 15 2 15 2 14 2 14 2 14 3 14 3 14 3 13 3 14 4 13 3 13 4 13 4 13 5 12 5 13 5 12 5 12 5 12 6 12 6 12 6 12 6 11 7 12 7 11 7 11 7 11 8 11 -219 152 -11 -15 -10 -16 -10 -16 -9 -15 -10 -17 -9 -16 -8 -16 -9 -17 -7 -17 -8 -17 -7 -17 -7 -17 -7 -18 -6 -17 -6 -18 -5 -18 -6 -18 -4 -18 -5 -18 -4 -19 -4 -18 -3 -19 -4 -19 -2 -19 -3 -19 -2 -19 -2 -20 -1 -19 -1 -20 -1 -19 -1 -20 0 -20 0 0zm300 -699l179 197 0 0 -13 12 -13 12 -12 13 -12 13 -12 13 -11 13 -10 13 -10 14 -10 13 -9 14 -9 14 -8 15 -8 14 -8 15 -7 15 -7 15 -6 16 -6 16 -6 16 -5 16 -5 17 -4 17 -4 17 -3 17 -4 18 -2 18 -3 19 -2 19 -1 19 -1 19 -1 20 0 20 -267 0 0 -26 1 -25 2 -26 2 -25 2 -25 3 -25 4 -25 5 -24 4 -24 6 -24 6 -24 7 -23 7 -23 8 -23 9 -23 9 -22 10 -22 10 -22 11 -21 11 -21 12 -21 13 -20 13 -20 14 -20 15 -19 15 -19 15 -19 16 -18 17 -18 17 -18 18 -17 18 -17 0 0zm759 -264l0 265 0 0 -24 0 -23 1 -22 1 -22 1 -22 2 -22 2 -21 3 -20 3 -21 3 -20 4 -20 4 -19 4 -19 5 -19 6 -18 5 -18 6 -18 6 -17 7 -18 7 -16 8 -17 8 -16 8 -16 8 -16 9 -15 9 -15 10 -15 10 -15 10 -14 11 -15 11 -13 12 -14 12 -179 -197 19 -16 19 -16 19 -15 20 -15 20 -14 21 -14 21 -13 21 -13 22 -12 21 -12 23 -11 22 -11 23 -10 23 -10 24 -9 23 -8 25 -8 24 -7 25 -7 24 -7 26 -6 25 -5 26 -5 26 -4 26 -4 26 -3 27 -3 27 -2 27 -2 28 -1 28 -1 28 0 0 0zm488 102l-113 240 0 0 -11 -4 -10 -5 -11 -4 -10 -5 -11 -4 -10 -4 -11 -4 -11 -3 -11 -4 -11 -3 -12 -3 -11 -4 -11 -2 -12 -3 -11 -3 -12 -2 -12 -3 -11 -2 -12 -2 -12 -2 -12 -2 -13 -1 -12 -2 -12 -1 -13 -1 -13 -1 -12 -1 -13 -1 -13 0 -13 -1 -13 0 -13 0 0 -265 16 0 16 0 17 1 16 1 16 0 16 2 16 1 16 1 16 2 16 2 16 2 15 2 16 3 15 2 16 3 15 3 15 4 15 3 15 4 15 4 15 4 15 4 15 5 15 4 14 5 15 5 14 6 14 5 14 6 15 6 14 6 13 6 1 0zm531 362l-172 203 1 0 -19 -15 -18 -15 -18 -14 -18 -15 -18 -14 -18 -13 -17 -14 -17 -13 -17 -12 -16 -13 -17 -12 -16 -11 -15 -12 -16 -11 -15 -10 -15 -11 -15 -10 -15 -9 -14 -10 -14 -9 -13 -9 -14 -8 -13 -8 -13 -8 -12 -7 -13 -7 -12 -7 -12 -6 -11 -6 -11 -6 -11 -5 -10 -5 113 -240 14 7 14 7 14 7 14 8 15 7 14 9 15 8 15 9 15 9 16 9 15 10 16 10 16 10 16 10 16 11 16 11 17 12 16 11 17 12 17 13 18 12 17 13 18 13 18 14 18 14 18 14 19 14 19 15 19 15 19 15 19 16 20 16 1 1zm87 65l0 265 0 0 -11 0 -10 -1 -10 -1 -9 -2 -9 -2 -9 -2 -9 -2 -8 -3 -8 -3 -9 -3 -7 -3 -8 -4 -8 -3 -7 -4 -8 -4 -7 -4 -8 -4 -7 -5 -8 -4 -7 -5 -7 -5 -8 -5 -7 -5 -8 -5 -7 -6 -8 -5 -8 -6 -7 -6 -8 -6 -8 -6 -8 -7 -8 -6 172 -203 6 5 6 5 6 5 6 4 6 5 5 4 6 4 5 4 5 3 5 4 4 3 5 3 4 2 4 3 4 2 3 2 3 2 3 1 3 1 2 2 2 0 2 1 1 1 1 0 1 0 0 0 -1 0 -1 0 -1 0 -2 -1 -3 0 -3 0 0 0zm332 -27l-221 147 176 42 -10 5 -10 6 -10 5 -10 6 -10 5 -9 5 -10 4 -9 5 -9 4 -9 5 -9 4 -9 4 -9 4 -9 3 -9 4 -8 3 -9 4 -8 3 -9 3 -8 2 -9 3 -8 2 -8 3 -9 2 -8 2 -9 1 -8 2 -9 1 -9 1 -9 1 -9 1 -9 0 0 -265 -1 0 0 0 0 0 1 0 1 0 2 -1 2 0 3 -1 3 0 3 -1 4 -1 4 -2 4 -1 5 -2 5 -1 5 -2 5 -3 6 -2 6 -2 6 -3 7 -3 6 -3 7 -3 7 -4 8 -3 7 -4 8 -4 8 -4 8 -5 9 -4 8 -5 9 -5 176 42zm-176 -42c64,-36 145,-13 182,50 36,64 13,145 -51,181l-131 -231zm-13 236l-32 -47 221 -147 32 47 -46 190 -175 -43zm221 -147c41,61 25,143 -36,184 -61,40 -144,24 -185,-37l221 -147zm-576 176l401 -218 129 232 -401 219 -155 -19 26 -214zm129 233c-65,35 -146,11 -181,-53 -36,-64 -12,-144 52,-180l129 233zm-15 -251l41 37 -181 195 -41 -38 -1 -1 182 -193zm-720 -200l123 -235 0 0 19 10 18 10 19 10 19 11 18 11 19 11 19 11 18 11 19 12 19 12 18 12 19 13 19 13 18 13 19 13 19 14 18 13 19 14 19 14 18 15 19 15 19 15 18 15 19 15 19 16 18 16 19 16 19 16 18 17 19 17 19 17 19 17 -183 193 -18 -16 -17 -16 -17 -15 -18 -16 -17 -15 -17 -15 -17 -14 -17 -15 -17 -14 -18 -14 -17 -14 -17 -13 -17 -13 -17 -13 -16 -13 -17 -12 -17 -12 -17 -12 -17 -12 -16 -11 -17 -11 -17 -11 -16 -11 -17 -10 -16 -11 -17 -10 -16 -9 -16 -10 -17 -9 -16 -9 -16 -9 -16 -8 0 0zm-451 -129l0 -265 0 0 17 0 17 1 17 0 18 2 17 1 18 2 17 2 18 2 17 3 18 3 18 3 17 4 18 4 18 4 18 5 18 5 18 5 18 6 18 5 18 6 18 7 18 6 18 7 19 8 18 7 18 8 19 8 18 9 19 8 19 9 18 9 19 10 -123 235 -16 -8 -16 -8 -16 -8 -16 -7 -16 -7 -15 -7 -15 -7 -16 -6 -15 -6 -15 -6 -15 -5 -14 -5 -15 -5 -14 -5 -15 -4 -14 -4 -14 -4 -14 -4 -13 -3 -14 -3 -14 -3 -13 -2 -13 -3 -13 -2 -13 -1 -13 -2 -13 -1 -12 -1 -13 -1 -12 -1 -12 0 -12 0 0 0zm-385 137l-187 -189 0 0 14 -13 14 -13 15 -12 15 -12 15 -12 15 -11 16 -11 16 -10 16 -10 16 -9 17 -9 17 -9 18 -8 17 -8 18 -7 18 -7 18 -6 19 -6 18 -6 19 -5 19 -5 19 -4 20 -4 19 -3 20 -3 20 -3 20 -2 21 -2 20 -1 21 -1 21 -1 21 0 0 265 -16 0 -16 0 -15 1 -16 1 -14 1 -15 2 -14 2 -14 2 -14 2 -14 3 -13 3 -13 3 -12 4 -13 3 -12 4 -12 4 -11 5 -12 5 -11 5 -11 5 -11 5 -10 6 -11 6 -10 6 -10 6 -10 7 -9 7 -10 7 -9 8 -9 8 -9 8 -9 8 0 0zm-140 372l-267 0 0 0 0 -21 1 -20 1 -21 1 -20 2 -20 2 -20 3 -19 3 -20 4 -19 4 -19 4 -19 5 -19 5 -18 6 -18 6 -19 7 -17 7 -18 8 -18 8 -17 8 -17 9 -16 9 -17 10 -16 10 -16 11 -16 11 -15 12 -15 12 -15 12 -14 13 -14 13 -14 13 -14 187 189 -9 9 -8 9 -8 8 -8 10 -7 9 -7 9 -7 10 -7 9 -6 10 -6 10 -6 10 -5 11 -6 10 -5 11 -5 11 -4 11 -4 12 -4 12 -4 12 -4 12 -3 12 -3 13 -2 13 -3 13 -2 14 -2 13 -2 14 -1 15 -1 14 -1 15 0 15 0 16 0 0zm223 488l-172 203 0 0 -19 -17 -19 -17 -18 -17 -17 -17 -17 -18 -17 -19 -15 -18 -16 -19 -14 -20 -14 -20 -14 -20 -13 -20 -12 -21 -12 -21 -11 -22 -10 -21 -10 -22 -9 -23 -8 -23 -8 -22 -8 -24 -6 -23 -6 -24 -5 -24 -5 -24 -4 -24 -3 -25 -3 -25 -2 -25 -2 -25 -1 -26 0 -25 267 0 0 19 1 19 1 19 1 18 2 19 3 17 3 18 3 17 4 17 4 17 4 16 5 16 6 16 6 15 6 16 6 15 8 15 7 14 8 15 8 14 9 14 9 14 10 13 10 14 11 13 11 13 12 13 12 13 12 12 13 13 14 12 14 12 0 0zm617 196l0 265 0 0 -29 0 -29 -1 -28 -1 -29 -2 -28 -2 -27 -3 -28 -3 -27 -4 -27 -4 -27 -5 -26 -5 -26 -6 -26 -6 -26 -7 -25 -7 -25 -8 -25 -8 -24 -9 -24 -9 -24 -10 -23 -10 -24 -11 -22 -11 -23 -12 -22 -13 -22 -13 -21 -13 -21 -14 -21 -15 -20 -15 -20 -15 -20 -16 172 -203 15 12 14 12 15 11 16 10 15 11 16 10 16 9 17 10 17 9 17 8 17 8 17 8 18 7 19 8 18 6 19 7 20 6 19 5 20 6 20 4 21 5 21 4 22 4 21 3 22 3 23 3 23 2 23 2 23 1 24 1 25 1 24 0 0 0zm676 -222l148 220 0 0 -25 17 -25 15 -25 15 -25 15 -25 14 -25 14 -25 13 -25 13 -25 12 -26 12 -25 11 -26 11 -25 10 -26 9 -26 10 -25 8 -26 8 -26 8 -26 7 -26 7 -26 6 -26 5 -26 5 -27 5 -26 4 -26 3 -27 3 -26 3 -26 1 -27 2 -26 0 -27 1 0 -265 21 0 21 -1 22 -1 21 -1 21 -2 21 -3 21 -2 21 -4 21 -3 21 -4 20 -5 21 -5 21 -5 21 -6 21 -6 22 -6 21 -7 21 -8 21 -8 21 -8 21 -9 21 -10 21 -9 22 -10 21 -11 21 -11 21 -12 22 -12 21 -13 21 -13 22 -13 21 -14 0 0zm648 -582l262 -48 -22 100 -22 30 -22 30 -22 29 -22 29 -22 29 -22 28 -22 28 -22 27 -23 27 -22 26 -23 26 -22 25 -23 25 -23 25 -23 24 -23 24 -23 23 -23 23 -24 22 -23 22 -24 21 -23 21 -24 21 -24 20 -24 20 -24 19 -24 19 -24 18 -24 18 -25 18 -24 17 -25 16 -148 -220 21 -14 22 -15 21 -15 22 -16 21 -16 21 -17 21 -17 22 -17 21 -18 21 -19 21 -19 21 -19 21 -20 21 -20 21 -20 21 -22 21 -21 21 -22 21 -23 21 -22 21 -24 20 -24 21 -24 21 -25 21 -25 20 -25 21 -26 20 -27 21 -27 20 -27 21 -28 20 -29 -22 101zm22 -101c43,-59 126,-74 186,-32 60,43 74,125 32,185l-218 -153zm-56 -209l267 0 0 0 0 6 0 7 0 6 0 6 1 7 0 7 0 7 1 7 0 7 1 8 0 7 1 8 0 7 1 8 1 8 1 8 1 9 1 8 1 9 1 8 1 9 1 9 2 9 1 9 1 9 2 10 1 9 2 10 2 10 1 10 2 10 2 10 -262 48 -2 -12 -2 -11 -2 -11 -2 -10 -2 -11 -1 -11 -2 -10 -2 -11 -1 -10 -2 -10 -1 -10 -2 -11 -1 -10 -1 -9 -1 -10 -1 -10 -1 -9 -1 -10 -1 -9 -1 -10 -1 -9 0 -9 -1 -9 -1 -9 0 -9 -1 -9 0 -8 0 -9 0 -9 -1 -8 0 -9 0 -8 0 0zm138 -616l243 109 0 0 -7 16 -7 16 -7 15 -6 16 -6 16 -6 16 -6 16 -6 15 -5 16 -5 16 -5 16 -4 16 -4 15 -4 16 -4 16 -4 16 -3 16 -4 15 -3 16 -2 16 -3 16 -2 16 -2 16 -2 16 -2 15 -1 16 -1 16 -1 16 -1 16 -1 16 0 16 0 16 -267 0 0 -19 1 -20 0 -20 1 -19 2 -20 1 -19 2 -20 2 -19 2 -20 3 -19 3 -20 3 -19 3 -20 4 -19 4 -19 4 -20 4 -19 5 -19 5 -19 5 -20 6 -19 5 -19 6 -19 7 -19 6 -19 7 -19 7 -19 8 -19 7 -19 8 -19 8 -18 9 -19 0 0zm377 -354l0 265 0 0 0 0 1 0 1 0 0 0 0 0 -1 0 -1 1 -2 0 -2 2 -3 1 -3 2 -3 3 -4 4 -5 3 -4 5 -5 5 -6 6 -5 7 -6 7 -6 8 -6 8 -6 9 -6 10 -7 10 -7 12 -6 11 -7 13 -7 13 -7 13 -7 14 -7 15 -7 16 -243 -109 8 -19 9 -18 8 -17 9 -17 9 -17 9 -16 9 -16 9 -15 9 -15 10 -14 9 -14 10 -14 10 -13 10 -13 11 -12 11 -12 11 -12 11 -11 12 -10 12 -11 12 -9 13 -9 14 -9 14 -8 14 -7 15 -7 16 -5 16 -5 16 -4 17 -3 17 -1 17 -1 0 0zm262 350l-267 0 0 0 0 -11 0 -10 -1 -10 0 -9 -1 -8 -1 -8 -1 -7 -1 -7 -2 -5 -1 -5 -1 -5 -1 -3 -1 -3 -1 -3 -1 -1 -1 -1 0 0 0 0 1 1 1 1 1 1 2 2 2 1 2 1 3 2 2 0 2 1 1 1 2 0 0 0 0 0 0 0 0 -265 15 1 15 1 16 2 15 3 16 5 15 5 15 6 15 8 14 9 13 9 13 10 11 11 11 12 10 12 9 13 8 13 8 13 6 14 6 13 5 14 5 13 4 14 3 14 3 15 3 14 2 15 2 14 1 15 1 15 1 16 1 15 0 16 0 0zm-86 374l-246 -102 -1 0 5 -10 4 -10 4 -10 3 -10 4 -10 4 -10 3 -9 3 -10 3 -9 3 -10 3 -9 2 -9 3 -9 2 -9 3 -8 2 -9 2 -9 1 -8 2 -8 2 -8 1 -8 1 -8 1 -8 1 -7 1 -8 1 -7 1 -7 0 -8 1 -7 0 -6 0 -7 0 -7 267 0 0 11 -1 11 0 11 -1 12 0 11 -1 11 -2 11 -1 12 -2 11 -1 11 -2 12 -2 11 -2 12 -3 11 -2 12 -3 11 -3 12 -2 12 -4 11 -3 12 -3 12 -4 12 -4 12 -4 12 -4 12 -4 12 -4 12 -5 12 -4 12 -5 13 -5 12 -5 12 0 1zm-245 384l-261 55 17 -97 11 -17 10 -17 11 -17 10 -16 10 -17 9 -16 10 -16 9 -15 9 -16 9 -15 9 -15 8 -15 9 -15 8 -14 8 -14 7 -14 8 -14 7 -14 7 -13 7 -13 7 -13 6 -13 6 -12 6 -13 6 -12 6 -12 5 -11 6 -12 5 -11 4 -11 5 -11 5 -10 246 102 -6 12 -5 13 -6 13 -6 13 -6 13 -6 13 -6 13 -7 14 -7 14 -6 14 -8 14 -7 14 -8 14 -7 15 -8 15 -8 15 -8 15 -9 15 -9 16 -8 15 -9 16 -10 16 -9 16 -10 16 -10 17 -10 17 -10 17 -10 17 -11 17 -10 17 -11 18 -11 18 17 -98zm-17 98c-39,62 -122,81 -184,42 -63,-39 -82,-120 -43,-182l227 140zm85 183l-258 66 0 0 -3 -13 -3 -12 -3 -12 -4 -12 -2 -12 -3 -11 -3 -12 -3 -11 -3 -11 -2 -10 -3 -10 -2 -11 -3 -9 -2 -10 -3 -10 -2 -9 -2 -9 -2 -8 -2 -9 -2 -8 -2 -8 -2 -8 -2 -8 -1 -7 -2 -7 -2 -7 -1 -7 -2 -7 -1 -6 -1 -6 -2 -6 -1 -6 261 -55 1 5 1 6 1 5 2 6 1 6 1 6 2 6 1 7 2 7 2 7 1 8 2 8 2 8 2 8 2 8 2 9 3 9 2 9 2 9 3 10 2 10 3 10 2 11 3 10 3 11 2 11 3 11 3 12 3 12 3 12 3 12 3 13 0 -1zm-118 553l210 163 -238 -68 -1 -15 -2 -15 -2 -16 -2 -15 -2 -16 -2 -16 -2 -16 -2 -16 -3 -17 -3 -17 -2 -17 -3 -17 -3 -18 -4 -17 -3 -18 -3 -18 -4 -18 -4 -19 -3 -19 -4 -19 -4 -19 -5 -19 -4 -20 -4 -19 -5 -20 -5 -20 -5 -21 -5 -20 -5 -21 -5 -21 -5 -21 -6 -22 258 -66 6 23 6 22 5 22 6 21 5 22 5 21 5 21 5 21 4 21 5 21 4 20 5 20 4 20 4 20 4 20 4 19 3 19 4 20 3 19 3 18 4 19 3 18 3 18 2 18 3 18 2 18 3 17 2 18 2 17 2 17 2 17 2 16 -238 -68zm238 68c7,73 -46,138 -120,145 -73,7 -138,-46 -146,-118l266 -27zm-185 -135l206 167 1 0 -1 0 0 1 -1 1 -1 2 -1 1 -1 1 -1 1 -1 2 -1 1 -1 2 -2 1 -1 2 -2 2 -1 2 -1 1 -2 2 -2 3 -1 2 -2 2 -2 2 -2 2 -2 3 -1 2 -2 3 -2 2 -2 3 -3 3 -2 2 -2 3 -2 3 -3 3 -2 3 -210 -163 2 -3 3 -3 2 -3 2 -3 2 -3 2 -2 2 -3 3 -2 2 -3 1 -2 2 -3 2 -2 2 -2 2 -2 1 -3 2 -1 1 -2 2 -2 1 -2 2 -2 1 -2 1 -1 2 -2 1 -2 1 -1 2 -2 1 -1 1 -2 1 -1 1 -1 1 -2 1 -1 1 -1zm311 40l-105 127 -206 -167 104 -127 207 167 0 0zm-207 -167c47,-57 131,-65 188,-19 57,46 65,129 19,186l-207 -167zm948 -745l-741 912 -207 -167 740 -912 1 0 207 167zm181 -617l190 186 0 0 -7 7 -7 7 -7 8 -8 8 -8 9 -8 9 -9 9 -9 10 -10 11 -9 10 -10 12 -11 11 -10 12 -11 13 -11 13 -12 13 -12 14 -12 14 -12 15 -13 15 -13 15 -13 16 -14 16 -14 17 -14 17 -14 17 -15 18 -15 18 -16 19 -15 19 -16 19 -16 20 -207 -167 16 -20 16 -20 16 -19 16 -19 15 -18 15 -18 15 -18 14 -17 14 -17 14 -17 14 -16 13 -16 13 -15 13 -15 13 -15 12 -14 12 -14 11 -13 12 -13 11 -13 11 -12 10 -12 11 -12 10 -11 10 -11 9 -10 9 -10 9 -10 9 -9 9 -9 8 -8 8 -9 0 0zm280 -214l130 231 0 0 -7 4 -7 4 -7 4 -8 5 -7 4 -7 4 -7 5 -7 5 -7 4 -7 5 -7 5 -7 5 -7 5 -7 5 -7 5 -7 5 -6 6 -7 5 -7 5 -7 6 -7 6 -6 5 -7 6 -7 6 -7 6 -6 6 -7 6 -7 6 -6 7 -7 6 -6 7 -7 6 -190 -186 8 -8 8 -8 8 -8 9 -7 8 -8 8 -8 8 -7 9 -8 8 -7 9 -7 8 -8 9 -7 8 -7 9 -7 9 -6 8 -7 9 -7 9 -7 9 -6 9 -6 9 -7 9 -6 9 -6 9 -6 9 -6 9 -6 9 -6 10 -5 9 -6 9 -6 10 -5 9 -5 0 0zm543 56l-255 -76 127 170 -8 1 -9 0 -8 0 -9 1 -9 0 -8 1 -9 1 -9 1 -8 2 -9 1 -9 2 -8 1 -9 2 -9 2 -9 2 -9 3 -8 2 -9 3 -9 3 -9 3 -9 3 -9 4 -10 3 -9 4 -9 4 -9 4 -9 4 -9 4 -10 5 -9 5 -9 5 -10 5 -130 -231 13 -7 12 -7 13 -6 12 -6 13 -6 13 -6 13 -6 12 -5 13 -6 13 -5 13 -4 13 -5 13 -4 13 -5 13 -3 13 -4 13 -4 13 -3 13 -3 13 -3 13 -3 13 -2 13 -2 14 -2 13 -2 13 -1 13 -1 13 -2 14 0 13 -1 13 0 13 0 128 170zm-128 -170c74,0 134,59 134,132 0,73 -60,132 -134,132l0 -264zm-2047 604l253 84 0 0 -4 12 -4 11 -4 11 -5 12 -4 11 -4 11 -4 12 -5 11 -4 11 -5 12 -5 11 -4 11 -5 11 -5 12 -5 11 -5 11 -5 11 -5 11 -5 11 -6 12 -5 11 -6 11 -5 11 -6 11 -6 11 -5 11 -6 11 -6 11 -6 11 -6 11 -6 11 -7 11 -231 -132 5 -9 6 -10 5 -9 5 -10 5 -10 6 -9 5 -10 5 -9 5 -10 4 -10 5 -9 5 -10 4 -10 5 -9 5 -10 4 -10 4 -9 5 -10 4 -10 4 -10 4 -9 4 -10 4 -10 4 -10 4 -9 4 -10 3 -10 4 -10 3 -10 4 -9 3 -10 4 -10 0 0zm50 -243l267 0 0 0 0 9 0 9 -1 10 0 9 -1 9 -1 10 0 9 -1 10 -2 10 -1 9 -1 10 -2 10 -1 10 -2 10 -2 10 -2 10 -2 10 -2 11 -3 10 -2 11 -3 10 -2 11 -3 10 -3 11 -3 11 -3 11 -3 11 -4 11 -3 11 -4 11 -4 12 -3 11 -253 -84 3 -10 3 -10 3 -9 3 -9 3 -10 3 -9 2 -9 3 -9 2 -8 2 -9 2 -8 3 -9 1 -8 2 -8 2 -8 2 -8 1 -7 1 -8 2 -7 1 -7 1 -7 1 -7 1 -6 0 -7 1 -6 1 -7 0 -6 1 -5 0 -6 0 -6 0 -5 0 -5 0 0zm49 10l0 -264 0 0 11 0 12 1 12 1 12 2 12 3 12 4 12 4 12 5 12 6 11 7 11 8 10 8 10 9 8 9 9 10 7 10 7 10 6 11 5 10 5 11 4 10 4 11 3 10 2 11 2 10 2 10 2 11 1 10 1 10 0 11 1 10 0 11 -267 0 0 -5 0 -4 0 -4 0 -3 -1 -3 0 -2 0 -2 -1 -1 0 -1 0 0 0 0 1 1 0 1 1 2 1 2 2 3 2 2 2 3 3 3 3 3 4 3 3 3 4 2 4 2 4 2 4 1 3 1 3 1 2 0 3 0 1 0 1 0 0 0zm18 43l-253 -83 0 0 4 -10 3 -10 4 -10 4 -9 3 -9 4 -10 4 -8 5 -9 4 -9 5 -9 5 -8 5 -8 5 -9 5 -8 6 -8 7 -8 6 -7 7 -8 7 -8 8 -7 9 -7 9 -7 9 -6 10 -7 11 -5 11 -5 12 -5 12 -4 13 -2 12 -3 13 -1 13 0 0 264 5 0 5 0 5 -1 5 -1 5 -2 4 -1 4 -2 3 -2 3 -1 2 -2 2 -1 1 -1 1 -1 0 -1 0 0 0 1 0 0 -1 1 -1 2 -2 2 -1 2 -1 3 -2 3 -2 4 -2 3 -2 5 -2 4 -2 5 -2 6 -2 6 -2 6 -3 6 0 0zm-37 279l-267 0 0 0 0 -12 0 -13 1 -12 0 -13 0 -12 1 -12 0 -12 1 -12 1 -12 1 -12 1 -12 1 -12 1 -11 1 -12 2 -11 1 -12 2 -11 2 -11 2 -11 1 -11 3 -11 2 -11 2 -11 2 -11 3 -10 2 -11 3 -10 3 -11 3 -10 3 -10 3 -10 3 -10 253 83 -2 7 -2 7 -2 7 -2 7 -2 7 -2 7 -2 8 -2 7 -1 8 -2 8 -2 8 -1 8 -2 9 -1 8 -1 8 -1 9 -2 9 -1 9 -1 9 -1 9 -1 9 0 10 -1 9 -1 10 0 10 -1 10 0 10 -1 10 0 11 0 10 0 11 0 10 0 0zm-221 221l231 132 -247 -44 -2 -11 -1 -10 -2 -11 -2 -11 -1 -10 -2 -11 -1 -10 -2 -10 -1 -10 -2 -10 -1 -11 -1 -10 -1 -9 -1 -10 -1 -10 -1 -10 -1 -9 -1 -10 -1 -9 -1 -10 0 -9 -1 -9 0 -9 -1 -9 0 -9 -1 -9 0 -9 0 -9 -1 -9 0 -9 0 -8 0 -9 267 0 0 7 0 7 0 7 0 7 0 7 1 7 0 7 0 8 1 7 0 8 1 8 0 7 1 8 1 8 0 9 1 8 1 8 1 8 1 9 1 9 1 8 1 9 1 9 1 9 2 9 1 9 1 10 2 9 1 10 2 9 1 10 2 10 -247 -44zm247 44c12,72 -36,140 -109,152 -73,13 -141,-36 -154,-108l263 -44z"/>
  </g>
  <path id="1" class="fil2" d="M4871 1286l-125 415 -59 -9 8 -31c8,-26 11,-48 11,-66 0,-55 -44,-83 -131,-83 -115,0 -225,59 -329,176 -104,116 -184,271 -241,463 -33,110 -74,298 -122,563 -49,265 -73,431 -73,498 0,54 24,81 72,81 34,0 83,-15 147,-45l29 49c-47,19 -128,51 -244,95 -89,33 -168,66 -235,96 0,-94 22,-270 67,-525 45,-255 97,-504 156,-747l-57 71c-46,59 -118,148 -215,267l-346 427 -352 431 -35 44 -40 -28c37,-72 56,-142 56,-212 0,-117 -28,-296 -83,-537l-49 -213c-1,-2 -4,-13 -8,-34 -252,335 -512,592 -782,771 -270,178 -532,267 -788,267 -168,0 -326,-36 -476,-108 -150,-73 -267,-171 -353,-295 -98,-140 -148,-305 -148,-495 0,-247 86,-447 257,-600 171,-154 394,-231 669,-231 158,0 302,31 431,90 129,60 296,175 502,343 77,64 135,96 173,96 45,0 119,-28 222,-86l32 48 -402 219 -41 -38c-192,-180 -382,-318 -568,-415 -186,-96 -357,-144 -512,-144 -199,0 -359,59 -478,176 -120,117 -181,272 -181,466 0,242 91,438 271,589 180,152 415,227 703,227 254,0 504,-81 750,-244 246,-163 481,-401 705,-716 -21,-114 -31,-209 -31,-286 0,-190 41,-377 125,-562 83,-184 169,-275 256,-275 86,0 128,72 128,217 0,94 -25,201 -75,323 -51,121 -135,276 -253,463 12,56 36,151 70,286 61,234 99,435 116,601 26,-32 42,-53 51,-64l104 -128 741 -911c176,-215 303,-363 380,-441 78,-78 161,-142 250,-192 117,-65 234,-97 350,-97zm-2072 848c62,-109 113,-221 151,-334 39,-114 58,-209 58,-285 0,-82 -29,-122 -85,-122 -42,0 -78,45 -108,133 -30,89 -45,196 -45,321 0,81 10,177 29,287z"/>
  <g>
   <path class="fil3 str0" d="M25 3980l0 -18 13 -1c11,0 17,-2 20,-5 3,-3 4,-14 5,-32 1,-36 1,-76 1,-118 0,-22 0,-48 0,-76 0,-18 -1,-28 -3,-32 -1,-2 -2,-4 -5,-5 -2,-1 -13,-2 -31,-3l0 -19c18,1 35,1 52,1 20,0 39,0 57,-1 8,19 16,38 25,56 6,13 32,68 79,166 50,-100 86,-174 106,-222 17,1 34,2 50,2 18,0 36,-1 54,-2l0 19c-20,1 -31,2 -33,5 -3,2 -4,9 -5,20 -1,19 -1,54 -1,106 0,26 0,53 0,82 1,29 2,46 3,50 1,2 3,4 5,5 2,1 12,3 31,4l0 18c-24,-1 -45,-1 -64,-1 -19,0 -44,0 -76,1l0 -18 12 0c11,-1 17,-2 19,-4 3,-3 5,-9 5,-20 1,-10 1,-35 1,-73l0 -133c-22,45 -51,105 -86,179 -15,30 -26,55 -34,74l-15 0c-11,-26 -25,-57 -44,-96l-76 -157 0 30c0,83 1,140 1,171 1,13 2,21 5,23 3,3 14,5 33,6l0 18c-15,-1 -30,-1 -45,-1 -22,0 -42,0 -59,1z"/>
  </g>
  <g>
   <path id="1" class="fil3 str0" d="M677 3962l0 18 -17 0c-9,-1 -18,-1 -27,-1 -14,0 -27,0 -40,1l-2 -2 2 -30 -45 34c-9,2 -16,3 -22,3 -16,0 -28,-5 -36,-14 -9,-9 -13,-23 -13,-41 0,-21 6,-37 17,-46 15,-12 48,-22 99,-31 0,-18 -3,-30 -9,-38 -8,-11 -20,-16 -37,-16 -4,0 -8,1 -12,1 -4,1 -8,3 -12,5l-10 23 -16 -3 1 -10 0 -10 -1 -9c23,-14 39,-22 49,-26 7,-2 17,-4 30,-4 17,0 31,3 42,8 11,5 19,12 24,21 5,9 7,22 7,40 0,7 0,20 -1,38 0,19 -1,35 -1,46 0,19 1,30 2,34 1,2 2,4 4,5 3,2 10,3 24,4zm-84 -90c-25,5 -42,11 -50,18 -8,6 -12,15 -12,26 0,9 3,16 8,21 5,6 11,8 19,8 11,0 23,-6 35,-19l0 -54z"/>
  </g>
  <g>
   <path id="2" class="fil3 str0" d="M695 3802l0 -17c24,-2 45,-6 66,-12l21 -8c3,0 4,1 4,5l0 13c-3,34 -4,66 -4,98 0,20 1,33 3,40 2,7 6,12 11,15 5,4 13,6 22,6 10,0 19,-3 27,-9 8,-5 13,-12 15,-19 2,-6 3,-26 3,-58 0,-26 -1,-41 -2,-46 0,-2 -1,-4 -3,-5 -2,-1 -12,-2 -30,-3l0 -17c30,-3 52,-7 67,-12l23 -8c2,0 4,1 4,4l-1 6c-2,26 -3,72 -3,139 0,21 0,34 1,39 1,3 2,4 4,6 2,1 11,2 27,3l0 18c-16,-1 -33,-1 -50,-1 -13,0 -26,0 -37,1l-2 -4c0,-7 1,-19 2,-34 -14,11 -27,23 -40,36 -10,5 -21,7 -31,7 -13,0 -25,-3 -35,-8 -10,-6 -17,-13 -22,-21 -5,-9 -7,-22 -7,-37l0 -24c1,-15 1,-27 1,-36 0,-26 -1,-42 -2,-47 0,-3 -2,-6 -4,-7 -3,-2 -12,-2 -28,-3z"/>
  </g>
  <g>
   <path id="3" class="fil3 str0" d="M975 3980l0 -18c16,-1 25,-2 27,-4 2,-1 3,-5 3,-11 1,-15 2,-41 2,-78 0,-19 -1,-35 -1,-48 0,-8 -1,-13 -2,-15 -1,-1 -2,-2 -3,-2 -2,-1 -10,-1 -26,-2l0 -17c8,0 20,-2 37,-5 17,-3 31,-7 43,-12l5 -2c2,0 4,2 4,5l-1 2c0,4 0,15 0,32l34 -29c4,-3 8,-6 13,-7 6,-2 14,-3 23,-3 16,0 29,3 38,8 10,6 18,13 22,23 5,9 7,24 7,44 0,9 0,19 -1,30 0,24 -1,45 -1,62 0,10 1,17 3,21 1,2 3,4 5,5 2,1 10,2 24,3l0 18 -27 -1 -18 0 -45 1 -3 -3c4,-27 6,-56 6,-86 0,-37 -2,-60 -7,-68 -5,-12 -16,-17 -32,-17 -10,0 -18,2 -26,7 -7,6 -12,11 -14,17 -1,2 -1,9 -1,22 0,53 0,84 0,91 1,8 2,13 4,15 3,2 13,3 30,4l0 18c-26,-1 -47,-1 -65,-1 -10,0 -29,0 -57,1z"/>
  </g>
  <g>
   <path id="4" class="fil3 str0" d="M1453 3962l0 18 -17 0c-9,-1 -18,-1 -27,-1 -14,0 -27,0 -40,1l-2 -2 3 -30 -46 34c-8,2 -16,3 -22,3 -16,0 -28,-5 -36,-14 -9,-9 -13,-23 -13,-41 0,-21 6,-37 18,-46 14,-12 47,-22 99,-31 -1,-18 -4,-30 -9,-38 -8,-11 -21,-16 -38,-16 -4,0 -8,1 -12,1 -4,1 -8,3 -12,5l-10 23 -15 -3 0 -10 0 -10 0 -9c22,-14 38,-22 48,-26 7,-2 17,-4 30,-4 17,0 31,3 42,8 11,5 19,12 24,21 5,9 7,22 7,40 0,7 0,20 0,38 -1,19 -1,35 -1,46 0,19 0,30 1,34 1,2 2,4 5,5 2,2 10,3 23,4zm-83 -90c-26,5 -43,11 -51,18 -8,6 -12,15 -12,26 0,9 3,16 8,21 5,6 11,8 19,8 11,0 23,-6 36,-19l0 -54z"/>
  </g>
  <g>
   <path id="5" class="fil3 str0" d="M1590 3980l0 -18 13 -1c11,0 17,-2 20,-5 3,-3 4,-14 5,-32 1,-36 1,-76 1,-118 0,-22 0,-48 0,-76 0,-18 -1,-28 -3,-32 -1,-2 -2,-4 -5,-5 -2,-1 -13,-2 -31,-3l0 -19c18,1 35,1 52,1 20,0 39,0 57,-1 8,19 16,38 25,56 6,13 32,68 79,166 51,-100 86,-174 106,-222 17,1 34,2 50,2 19,0 37,-1 54,-2l0 19c-20,1 -31,2 -33,5 -3,2 -4,9 -5,20 -1,19 -1,54 -1,106 0,26 0,53 0,82 1,29 2,46 3,50 1,2 3,4 5,5 2,1 12,3 31,4l0 18c-24,-1 -45,-1 -64,-1 -19,0 -44,0 -76,1l0 -18 13 0c10,-1 16,-2 19,-4 2,-3 4,-9 4,-20 1,-10 2,-35 2,-73l0 -133c-23,45 -52,105 -87,179 -15,30 -26,55 -34,74l-14 0c-11,-26 -26,-57 -45,-96l-76 -157 0 30c0,83 1,140 1,171 1,13 2,21 5,23 3,3 14,5 33,6l0 18c-15,-1 -30,-1 -45,-1 -22,0 -42,0 -59,1z"/>
  </g>
  <g>
   <path id="6" class="fil3 str0" d="M2242 3962l0 18 -17 0c-9,-1 -18,-1 -27,-1 -14,0 -27,0 -40,1l-2 -2 2 -30 -45 34c-9,2 -16,3 -22,3 -16,0 -28,-5 -36,-14 -9,-9 -13,-23 -13,-41 0,-21 6,-37 18,-46 14,-12 47,-22 98,-31 0,-18 -3,-30 -8,-38 -8,-11 -21,-16 -38,-16 -4,0 -8,1 -12,1 -4,1 -8,3 -12,5l-10 23 -16 -3 1 -10 0 -10 -1 -9c23,-14 39,-22 49,-26 7,-2 17,-4 30,-4 17,0 31,3 42,8 11,5 19,12 24,21 5,9 7,22 7,40 0,7 0,20 -1,38 0,19 0,35 0,46 0,19 0,30 1,34 1,2 2,4 4,5 3,2 11,3 24,4zm-84 -90c-25,5 -42,11 -50,18 -8,6 -12,15 -12,26 0,9 3,16 8,21 5,6 11,8 19,8 11,0 23,-6 35,-19l0 -54z"/>
  </g>
  <g>
   <path id="7" class="fil3 str0" d="M2292 3909c1,19 2,29 3,31 3,6 9,12 18,16 9,5 19,7 31,7 14,0 25,-3 32,-9 7,-6 10,-13 10,-23 0,-8 -2,-15 -8,-20 -5,-5 -16,-9 -32,-13 -26,-5 -42,-10 -50,-14 -8,-4 -14,-11 -18,-19 -5,-8 -7,-18 -7,-29 0,-14 3,-26 10,-36 7,-11 16,-19 29,-25 13,-6 29,-9 50,-9 22,0 42,4 60,11 -2,12 -3,30 -4,55l-17 0c-1,-15 -2,-25 -4,-28 -2,-4 -6,-7 -12,-10 -9,-4 -18,-6 -28,-6 -12,0 -21,3 -28,8 -7,6 -10,12 -10,21 0,8 3,14 9,18 6,5 21,9 44,14 16,3 27,5 33,8 10,4 18,11 23,19 6,8 8,19 8,32 0,25 -9,44 -28,57 -19,13 -42,20 -69,20 -9,0 -18,-1 -29,-3 -11,-2 -22,-5 -35,-9l-3 -4c2,-13 3,-33 3,-60l19 0z"/>
  </g>
  <g>
   <path id="8" class="fil3 str0" d="M2492 3909c1,19 2,29 3,31 3,6 9,12 18,16 9,5 19,7 31,7 14,0 25,-3 32,-9 7,-6 10,-13 10,-23 0,-8 -2,-15 -7,-20 -6,-5 -16,-9 -33,-13 -26,-5 -42,-10 -50,-14 -8,-4 -14,-11 -18,-19 -5,-8 -7,-18 -7,-29 0,-14 3,-26 10,-36 7,-11 16,-19 29,-25 13,-6 29,-9 50,-9 22,0 42,4 61,11 -2,12 -4,30 -5,55l-17 0c-1,-15 -2,-25 -4,-28 -2,-4 -6,-7 -12,-10 -9,-4 -18,-6 -27,-6 -13,0 -22,3 -29,8 -7,6 -10,12 -10,21 0,8 3,14 9,18 6,5 21,9 44,14 16,3 27,5 33,8 10,4 18,11 23,19 6,8 8,19 8,32 0,25 -9,44 -28,57 -19,13 -42,20 -69,20 -8,0 -18,-1 -29,-3 -11,-2 -22,-5 -35,-9l-3 -4c2,-13 3,-33 3,-60l19 0z"/>
  </g>
  <g>
   <path id="9" class="fil3 str0" d="M2697 3833l-19 0c1,-17 2,-33 2,-47l0 -13 3 -2c44,1 72,1 82,1 29,0 61,0 97,-1l0 15c-48,62 -89,118 -124,169l40 0c35,0 54,-1 58,-4 4,-2 7,-12 9,-30l2 -12 19 0c-2,19 -4,42 -4,69l-3 3c-13,0 -24,0 -30,0l-36 -1c-36,-1 -59,-1 -67,-1l-66 2 0 -16c15,-18 32,-40 52,-67 31,-41 55,-75 74,-103l-40 0c-19,0 -30,0 -35,1 -4,1 -6,2 -8,4 -1,2 -3,8 -4,17l-2 16z"/>
  </g>
  <g>
   <path id="10" class="fil3 str0" d="M3093 3962l0 18 -17 0c-9,-1 -18,-1 -27,-1 -14,0 -27,0 -40,1l-2 -2 2 -30 -45 34c-9,2 -16,3 -22,3 -16,0 -28,-5 -36,-14 -9,-9 -13,-23 -13,-41 0,-21 6,-37 18,-46 14,-12 47,-22 98,-31 0,-18 -3,-30 -8,-38 -8,-11 -21,-16 -38,-16 -4,0 -8,1 -12,1 -4,1 -8,3 -12,5l-10 23 -16 -3 1 -10 0 -10 -1 -9c23,-14 39,-22 49,-26 7,-2 17,-4 30,-4 17,0 31,3 42,8 11,5 19,12 24,21 5,9 7,22 7,40 0,7 0,20 -1,38 0,19 0,35 0,46 0,19 0,30 1,34 1,2 2,4 4,5 3,2 11,3 24,4zm-84 -90c-25,5 -42,11 -50,18 -8,6 -12,15 -12,26 0,9 3,16 8,21 5,6 11,8 19,8 11,0 23,-6 35,-19l0 -54zm-50 -125l-22 0 51 -49c12,-12 20,-19 24,-21 4,-3 9,-4 13,-4 6,0 10,2 14,5 3,4 5,8 5,13 0,4 -2,8 -5,11 -2,3 -11,8 -26,16l-54 29z"/>
  </g>
  <g>
   <path id="11" class="fil3 str0" d="M3147 3833l-18 0c1,-17 2,-33 2,-47l0 -13 2 -2c45,1 73,1 83,1 29,0 61,0 96,-1l0 15c-47,62 -88,118 -123,169l40 0c35,0 54,-1 58,-4 4,-2 7,-12 9,-30l2 -12 19 0c-2,19 -4,42 -5,69l-2 3c-14,0 -24,0 -31,0l-35 -1c-37,-1 -59,-1 -67,-1l-66 2 0 -16c15,-18 32,-40 52,-67 30,-41 55,-75 74,-103l-40 0c-19,0 -31,0 -36,1 -3,1 -6,2 -7,4 -1,2 -3,8 -4,17l-3 16z"/>
  </g>
  <g>
   <path id="12" class="fil3 str0" d="M3368 3909c1,19 2,29 3,31 3,6 9,12 18,16 9,5 19,7 31,7 14,0 25,-3 32,-9 7,-6 11,-13 11,-23 0,-8 -3,-15 -8,-20 -5,-5 -16,-9 -33,-13 -25,-5 -42,-10 -50,-14 -7,-4 -13,-11 -18,-19 -5,-8 -7,-18 -7,-29 0,-14 4,-26 10,-36 7,-11 17,-19 29,-25 13,-6 30,-9 50,-9 22,0 42,4 61,11 -2,12 -3,30 -4,55l-18 0c-1,-15 -2,-25 -3,-28 -3,-4 -7,-7 -13,-10 -8,-4 -17,-6 -27,-6 -12,0 -22,3 -29,8 -6,6 -10,12 -10,21 0,8 3,14 9,18 7,5 21,9 44,14 16,3 27,5 33,8 11,4 18,11 24,19 5,8 8,19 8,32 0,25 -10,44 -29,57 -19,13 -42,20 -68,20 -9,0 -19,-1 -30,-3 -10,-2 -22,-5 -34,-9l-4 -4c2,-13 3,-33 3,-60l19 0z"/>
  </g>
  <g>
   <path id="13" class="fil3 str0" d="M3673 3887l19 0c0,22 0,35 2,39 1,3 5,8 12,14 8,6 17,11 28,15 12,4 24,6 36,6 20,0 37,-6 49,-17 13,-11 19,-24 19,-41 0,-15 -4,-26 -12,-35 -9,-8 -24,-13 -48,-17 -34,-5 -58,-10 -70,-16 -12,-6 -22,-15 -29,-26 -7,-12 -10,-26 -10,-43 0,-27 10,-51 29,-70 20,-19 50,-29 93,-29 17,0 32,2 45,4 13,3 26,7 39,13l2 5c-3,9 -4,17 -5,25 -1,7 -2,20 -3,39l-19 0c-1,-23 -2,-36 -3,-38 -3,-5 -10,-10 -21,-16 -12,-5 -25,-8 -39,-8 -20,0 -36,5 -47,15 -11,10 -16,22 -16,38 0,9 2,17 6,24 5,7 11,12 19,16 9,3 26,7 53,11 24,4 41,7 49,11 15,5 26,14 33,26 7,12 11,27 11,44 0,31 -12,57 -36,78 -24,21 -56,31 -97,31 -19,0 -35,-2 -50,-5 -15,-4 -31,-10 -47,-18 3,-10 5,-19 6,-28 1,-11 1,-27 2,-47z"/>
  </g>
  <g>
   <path id="14" class="fil3 str0" d="M3921 3803l30 -19c-1,-26 -1,-48 -3,-68 20,-6 39,-14 57,-22l7 5c-4,21 -6,49 -7,85 7,1 13,2 20,2 15,0 28,-1 40,-3l2 1 -2 8c-2,8 -4,16 -5,23 -17,-1 -30,-2 -38,-2 -6,0 -12,0 -17,1 -1,15 -1,28 -1,39 0,49 2,77 5,84 3,7 10,10 21,10 3,0 6,0 10,-1 4,0 8,-1 12,-3l4 9c-9,9 -18,20 -26,30 -5,1 -10,2 -15,2 -4,1 -9,1 -12,1 -13,0 -23,-2 -31,-7 -8,-4 -14,-9 -18,-16 -4,-7 -6,-17 -6,-30 0,-7 1,-26 2,-56 0,-26 1,-47 1,-62l-12 -1c-4,0 -10,1 -18,2l0 -12z"/>
  </g>
  <g>
   <path id="15" class="fil3 str0" d="M4075 3802l0 -17c23,-2 45,-6 66,-12l21 -8c3,0 4,1 4,5l-1 13c-2,34 -3,66 -3,98 0,20 1,33 3,40 2,7 6,12 11,15 5,4 12,6 21,6 11,0 20,-3 28,-9 8,-5 13,-12 15,-19 1,-6 2,-26 2,-58 0,-26 0,-41 -1,-46 -1,-2 -2,-4 -3,-5 -2,-1 -12,-2 -30,-3l0 -17c30,-3 52,-7 66,-12l24 -8c2,0 3,1 3,4l0 6c-2,26 -4,72 -4,139 0,21 1,34 2,39 1,3 2,4 4,6 2,1 11,2 27,3l0 18c-17,-1 -33,-1 -50,-1 -13,0 -26,0 -38,1l-1 -4c0,-7 1,-19 1,-34 -13,11 -26,23 -39,36 -11,5 -21,7 -31,7 -14,0 -25,-3 -35,-8 -10,-6 -18,-13 -22,-21 -5,-9 -7,-22 -7,-37l0 -24c0,-15 1,-27 1,-36 0,-26 -1,-42 -2,-47 -1,-3 -2,-6 -5,-7 -2,-2 -11,-2 -27,-3zm98 -55l-22 0 51 -49c12,-12 20,-19 24,-21 4,-3 8,-4 13,-4 6,0 10,2 13,5 4,4 6,8 6,13 0,4 -2,8 -5,11 -2,3 -11,8 -27,16l-53 29z"/>
  </g>
  <g>
   <path id="16" class="fil3 str0" d="M4521 3776l0 -38c0,-24 -1,-38 -2,-41 0,-3 -2,-5 -4,-6 -2,-1 -12,-2 -30,-2l0 -16c35,-4 65,-11 88,-21l6 5c-1,24 -2,46 -3,67l-1 173c0,29 1,46 2,53 0,4 2,6 4,8 2,1 11,3 27,4l0 18c-18,-1 -36,-1 -53,-1 -12,0 -24,0 -34,1l-4 -2c2,-15 3,-27 4,-36 -10,7 -26,20 -48,38 -8,3 -16,5 -23,5 -25,0 -45,-9 -61,-27 -16,-19 -25,-43 -25,-73 0,-14 2,-28 5,-40 4,-12 8,-21 12,-27 5,-6 14,-13 27,-23 18,-13 32,-21 40,-24 9,-3 18,-5 28,-5 7,0 14,1 22,2 7,2 15,4 23,8zm0 47c-7,-10 -15,-18 -24,-23 -8,-4 -18,-7 -29,-7 -15,0 -27,6 -35,16 -8,11 -12,29 -12,55 0,26 5,46 15,59 10,13 23,19 38,19 10,0 20,-3 29,-9 9,-6 14,-12 16,-17 1,-5 2,-24 2,-57l0 -36z"/>
  </g>
  <g>
   <path id="17" class="fil3 str0" d="M4692 3661c10,0 18,3 24,10 7,6 10,14 10,24 0,9 -3,18 -10,24 -6,7 -14,10 -24,10 -9,0 -17,-3 -24,-10 -7,-6 -10,-15 -10,-24 0,-10 3,-18 10,-24 7,-7 15,-10 24,-10zm-61 319l0 -18c16,0 26,-1 29,-3 2,-1 4,-5 5,-12 1,-9 1,-30 1,-61 0,-14 0,-27 0,-38l-1 -26c0,-9 -1,-14 -3,-16 -2,-2 -6,-3 -15,-3l-16 -1 0 -17c35,-3 64,-9 87,-19l6 5c-2,28 -3,69 -3,122 0,31 0,50 1,56 1,5 2,8 4,9 2,2 12,3 29,4l0 18c-27,-1 -47,-1 -62,-1 -7,0 -28,0 -62,1z"/>
  </g>
  <g>
   <path id="18" class="fil3 str0" d="M4785 3876c0,-35 9,-61 25,-79 19,-20 48,-31 84,-31 37,0 64,8 81,25 17,17 25,43 25,79 0,37 -10,65 -29,85 -20,20 -47,30 -81,30 -34,0 -60,-10 -78,-28 -18,-19 -27,-46 -27,-81zm61 -15c0,39 5,66 15,83 8,13 20,19 35,19 14,0 25,-5 32,-16 7,-11 11,-31 11,-59 0,-40 -4,-67 -14,-82 -7,-12 -19,-18 -35,-18 -13,0 -24,5 -32,16 -8,11 -12,30 -12,57zm15 -114l-21 0 50 -49c12,-12 21,-19 25,-21 4,-3 8,-4 13,-4 5,0 10,2 13,5 4,4 5,8 5,13 0,4 -1,8 -4,11 -3,3 -12,8 -27,16l-54 29z"/>
  </g>
  <path id="19" class="fil2" d="M25 3980l0 -18 13 -1c11,0 17,-2 20,-5 3,-3 4,-14 5,-32 1,-36 1,-76 1,-118 0,-22 0,-48 0,-76 0,-18 -1,-28 -3,-32 -1,-2 -2,-4 -5,-5 -2,-1 -13,-2 -31,-3l0 -19c18,1 35,1 52,1 20,0 39,0 57,-1 8,19 16,38 25,56 6,13 32,68 79,166 50,-100 86,-174 106,-222 17,1 34,2 50,2 18,0 36,-1 54,-2l0 19c-20,1 -31,2 -33,5 -3,2 -4,9 -5,20 -1,19 -1,54 -1,106 0,26 0,53 0,82 1,29 2,46 3,50 1,2 3,4 5,5 2,1 12,3 31,4l0 18c-24,-1 -45,-1 -64,-1 -19,0 -44,0 -76,1l0 -18 12 0c11,-1 17,-2 19,-4 3,-3 5,-9 5,-20 1,-10 1,-35 1,-73l0 -133c-22,45 -51,105 -86,179 -15,30 -26,55 -34,74l-15 0c-11,-26 -25,-57 -44,-96l-76 -157 0 30c0,83 1,140 1,171 1,13 2,21 5,23 3,3 14,5 33,6l0 18c-15,-1 -30,-1 -45,-1 -22,0 -42,0 -59,1z"/>
  <path id="20" class="fil2" d="M677 3962l0 18 -17 0c-9,-1 -18,-1 -27,-1 -14,0 -27,0 -40,1l-2 -2 2 -30 -45 34c-9,2 -16,3 -22,3 -16,0 -28,-5 -36,-14 -9,-9 -13,-23 -13,-41 0,-21 6,-37 17,-46 15,-12 48,-22 99,-31 0,-18 -3,-30 -9,-38 -8,-11 -20,-16 -37,-16 -4,0 -8,1 -12,1 -4,1 -8,3 -12,5l-10 23 -16 -3 1 -10 0 -10 -1 -9c23,-14 39,-22 49,-26 7,-2 17,-4 30,-4 17,0 31,3 42,8 11,5 19,12 24,21 5,9 7,22 7,40 0,7 0,20 -1,38 0,19 -1,35 -1,46 0,19 1,30 2,34 1,2 2,4 4,5 3,2 10,3 24,4zm-84 -90c-25,5 -42,11 -50,18 -8,6 -12,15 -12,26 0,9 3,16 8,21 5,6 11,8 19,8 11,0 23,-6 35,-19l0 -54z"/>
  <path id="21" class="fil2" d="M695 3802l0 -17c24,-2 45,-6 66,-12l21 -8c3,0 4,1 4,5l0 13c-3,34 -4,66 -4,98 0,20 1,33 3,40 2,7 6,12 11,15 5,4 13,6 22,6 10,0 19,-3 27,-9 8,-5 13,-12 15,-19 2,-6 3,-26 3,-58 0,-26 -1,-41 -2,-46 0,-2 -1,-4 -3,-5 -2,-1 -12,-2 -30,-3l0 -17c30,-3 52,-7 67,-12l23 -8c2,0 4,1 4,4l-1 6c-2,26 -3,72 -3,139 0,21 0,34 1,39 1,3 2,4 4,6 2,1 11,2 27,3l0 18c-16,-1 -33,-1 -50,-1 -13,0 -26,0 -37,1l-2 -4c0,-7 1,-19 2,-34 -14,11 -27,23 -40,36 -10,5 -21,7 -31,7 -13,0 -25,-3 -35,-8 -10,-6 -17,-13 -22,-21 -5,-9 -7,-22 -7,-37l0 -24c1,-15 1,-27 1,-36 0,-26 -1,-42 -2,-47 0,-3 -2,-6 -4,-7 -3,-2 -12,-2 -28,-3z"/>
  <path id="22" class="fil2" d="M975 3980l0 -18c16,-1 25,-2 27,-4 2,-1 3,-5 3,-11 1,-15 2,-41 2,-78 0,-19 -1,-35 -1,-48 0,-8 -1,-13 -2,-15 -1,-1 -2,-2 -3,-2 -2,-1 -10,-1 -26,-2l0 -17c8,0 20,-2 37,-5 17,-3 31,-7 43,-12l5 -2c2,0 4,2 4,5l-1 2c0,4 0,15 0,32l34 -29c4,-3 8,-6 13,-7 6,-2 14,-3 23,-3 16,0 29,3 38,8 10,6 18,13 22,23 5,9 7,24 7,44 0,9 0,19 -1,30 0,24 -1,45 -1,62 0,10 1,17 3,21 1,2 3,4 5,5 2,1 10,2 24,3l0 18 -27 -1 -18 0 -45 1 -3 -3c4,-27 6,-56 6,-86 0,-37 -2,-60 -7,-68 -5,-12 -16,-17 -32,-17 -10,0 -18,2 -26,7 -7,6 -12,11 -14,17 -1,2 -1,9 -1,22 0,53 0,84 0,91 1,8 2,13 4,15 3,2 13,3 30,4l0 18c-26,-1 -47,-1 -65,-1 -10,0 -29,0 -57,1z"/>
  <path id="23" class="fil2" d="M1453 3962l0 18 -17 0c-9,-1 -18,-1 -27,-1 -14,0 -27,0 -40,1l-2 -2 3 -30 -46 34c-8,2 -16,3 -22,3 -16,0 -28,-5 -36,-14 -9,-9 -13,-23 -13,-41 0,-21 6,-37 18,-46 14,-12 47,-22 99,-31 -1,-18 -4,-30 -9,-38 -8,-11 -21,-16 -38,-16 -4,0 -8,1 -12,1 -4,1 -8,3 -12,5l-10 23 -15 -3 0 -10 0 -10 0 -9c22,-14 38,-22 48,-26 7,-2 17,-4 30,-4 17,0 31,3 42,8 11,5 19,12 24,21 5,9 7,22 7,40 0,7 0,20 0,38 -1,19 -1,35 -1,46 0,19 0,30 1,34 1,2 2,4 5,5 2,2 10,3 23,4zm-83 -90c-26,5 -43,11 -51,18 -8,6 -12,15 -12,26 0,9 3,16 8,21 5,6 11,8 19,8 11,0 23,-6 36,-19l0 -54z"/>
  <path id="24" class="fil2" d="M1590 3980l0 -18 13 -1c11,0 17,-2 20,-5 3,-3 4,-14 5,-32 1,-36 1,-76 1,-118 0,-22 0,-48 0,-76 0,-18 -1,-28 -3,-32 -1,-2 -2,-4 -5,-5 -2,-1 -13,-2 -31,-3l0 -19c18,1 35,1 52,1 20,0 39,0 57,-1 8,19 16,38 25,56 6,13 32,68 79,166 51,-100 86,-174 106,-222 17,1 34,2 50,2 19,0 37,-1 54,-2l0 19c-20,1 -31,2 -33,5 -3,2 -4,9 -5,20 -1,19 -1,54 -1,106 0,26 0,53 0,82 1,29 2,46 3,50 1,2 3,4 5,5 2,1 12,3 31,4l0 18c-24,-1 -45,-1 -64,-1 -19,0 -44,0 -76,1l0 -18 13 0c10,-1 16,-2 19,-4 2,-3 4,-9 4,-20 1,-10 2,-35 2,-73l0 -133c-23,45 -52,105 -87,179 -15,30 -26,55 -34,74l-14 0c-11,-26 -26,-57 -45,-96l-76 -157 0 30c0,83 1,140 1,171 1,13 2,21 5,23 3,3 14,5 33,6l0 18c-15,-1 -30,-1 -45,-1 -22,0 -42,0 -59,1z"/>
  <path id="25" class="fil2" d="M2242 3962l0 18 -17 0c-9,-1 -18,-1 -27,-1 -14,0 -27,0 -40,1l-2 -2 2 -30 -45 34c-9,2 -16,3 -22,3 -16,0 -28,-5 -36,-14 -9,-9 -13,-23 -13,-41 0,-21 6,-37 18,-46 14,-12 47,-22 98,-31 0,-18 -3,-30 -8,-38 -8,-11 -21,-16 -38,-16 -4,0 -8,1 -12,1 -4,1 -8,3 -12,5l-10 23 -16 -3 1 -10 0 -10 -1 -9c23,-14 39,-22 49,-26 7,-2 17,-4 30,-4 17,0 31,3 42,8 11,5 19,12 24,21 5,9 7,22 7,40 0,7 0,20 -1,38 0,19 0,35 0,46 0,19 0,30 1,34 1,2 2,4 4,5 3,2 11,3 24,4zm-84 -90c-25,5 -42,11 -50,18 -8,6 -12,15 -12,26 0,9 3,16 8,21 5,6 11,8 19,8 11,0 23,-6 35,-19l0 -54z"/>
  <path id="26" class="fil2" d="M2292 3909c1,19 2,29 3,31 3,6 9,12 18,16 9,5 19,7 31,7 14,0 25,-3 32,-9 7,-6 10,-13 10,-23 0,-8 -2,-15 -8,-20 -5,-5 -16,-9 -32,-13 -26,-5 -42,-10 -50,-14 -8,-4 -14,-11 -18,-19 -5,-8 -7,-18 -7,-29 0,-14 3,-26 10,-36 7,-11 16,-19 29,-25 13,-6 29,-9 50,-9 22,0 42,4 60,11 -2,12 -3,30 -4,55l-17 0c-1,-15 -2,-25 -4,-28 -2,-4 -6,-7 -12,-10 -9,-4 -18,-6 -28,-6 -12,0 -21,3 -28,8 -7,6 -10,12 -10,21 0,8 3,14 9,18 6,5 21,9 44,14 16,3 27,5 33,8 10,4 18,11 23,19 6,8 8,19 8,32 0,25 -9,44 -28,57 -19,13 -42,20 -69,20 -9,0 -18,-1 -29,-3 -11,-2 -22,-5 -35,-9l-3 -4c2,-13 3,-33 3,-60l19 0z"/>
  <path id="27" class="fil2" d="M2492 3909c1,19 2,29 3,31 3,6 9,12 18,16 9,5 19,7 31,7 14,0 25,-3 32,-9 7,-6 10,-13 10,-23 0,-8 -2,-15 -7,-20 -6,-5 -16,-9 -33,-13 -26,-5 -42,-10 -50,-14 -8,-4 -14,-11 -18,-19 -5,-8 -7,-18 -7,-29 0,-14 3,-26 10,-36 7,-11 16,-19 29,-25 13,-6 29,-9 50,-9 22,0 42,4 61,11 -2,12 -4,30 -5,55l-17 0c-1,-15 -2,-25 -4,-28 -2,-4 -6,-7 -12,-10 -9,-4 -18,-6 -27,-6 -13,0 -22,3 -29,8 -7,6 -10,12 -10,21 0,8 3,14 9,18 6,5 21,9 44,14 16,3 27,5 33,8 10,4 18,11 23,19 6,8 8,19 8,32 0,25 -9,44 -28,57 -19,13 -42,20 -69,20 -8,0 -18,-1 -29,-3 -11,-2 -22,-5 -35,-9l-3 -4c2,-13 3,-33 3,-60l19 0z"/>
  <path id="28" class="fil2" d="M2697 3833l-19 0c1,-17 2,-33 2,-47l0 -13 3 -2c44,1 72,1 82,1 29,0 61,0 97,-1l0 15c-48,62 -89,118 -124,169l40 0c35,0 54,-1 58,-4 4,-2 7,-12 9,-30l2 -12 19 0c-2,19 -4,42 -4,69l-3 3c-13,0 -24,0 -30,0l-36 -1c-36,-1 -59,-1 -67,-1l-66 2 0 -16c15,-18 32,-40 52,-67 31,-41 55,-75 74,-103l-40 0c-19,0 -30,0 -35,1 -4,1 -6,2 -8,4 -1,2 -3,8 -4,17l-2 16z"/>
  <path id="29" class="fil2" d="M3093 3962l0 18 -17 0c-9,-1 -18,-1 -27,-1 -14,0 -27,0 -40,1l-2 -2 2 -30 -45 34c-9,2 -16,3 -22,3 -16,0 -28,-5 -36,-14 -9,-9 -13,-23 -13,-41 0,-21 6,-37 18,-46 14,-12 47,-22 98,-31 0,-18 -3,-30 -8,-38 -8,-11 -21,-16 -38,-16 -4,0 -8,1 -12,1 -4,1 -8,3 -12,5l-10 23 -16 -3 1 -10 0 -10 -1 -9c23,-14 39,-22 49,-26 7,-2 17,-4 30,-4 17,0 31,3 42,8 11,5 19,12 24,21 5,9 7,22 7,40 0,7 0,20 -1,38 0,19 0,35 0,46 0,19 0,30 1,34 1,2 2,4 4,5 3,2 11,3 24,4zm-84 -90c-25,5 -42,11 -50,18 -8,6 -12,15 -12,26 0,9 3,16 8,21 5,6 11,8 19,8 11,0 23,-6 35,-19l0 -54zm-50 -125l-22 0 51 -49c12,-12 20,-19 24,-21 4,-3 9,-4 13,-4 6,0 10,2 14,5 3,4 5,8 5,13 0,4 -2,8 -5,11 -2,3 -11,8 -26,16l-54 29z"/>
  <path id="30" class="fil2" d="M3147 3833l-18 0c1,-17 2,-33 2,-47l0 -13 2 -2c45,1 73,1 83,1 29,0 61,0 96,-1l0 15c-47,62 -88,118 -123,169l40 0c35,0 54,-1 58,-4 4,-2 7,-12 9,-30l2 -12 19 0c-2,19 -4,42 -5,69l-2 3c-14,0 -24,0 -31,0l-35 -1c-37,-1 -59,-1 -67,-1l-66 2 0 -16c15,-18 32,-40 52,-67 30,-41 55,-75 74,-103l-40 0c-19,0 -31,0 -36,1 -3,1 -6,2 -7,4 -1,2 -3,8 -4,17l-3 16z"/>
  <path id="31" class="fil2" d="M3368 3909c1,19 2,29 3,31 3,6 9,12 18,16 9,5 19,7 31,7 14,0 25,-3 32,-9 7,-6 11,-13 11,-23 0,-8 -3,-15 -8,-20 -5,-5 -16,-9 -33,-13 -25,-5 -42,-10 -50,-14 -7,-4 -13,-11 -18,-19 -5,-8 -7,-18 -7,-29 0,-14 4,-26 10,-36 7,-11 17,-19 29,-25 13,-6 30,-9 50,-9 22,0 42,4 61,11 -2,12 -3,30 -4,55l-18 0c-1,-15 -2,-25 -3,-28 -3,-4 -7,-7 -13,-10 -8,-4 -17,-6 -27,-6 -12,0 -22,3 -29,8 -6,6 -10,12 -10,21 0,8 3,14 9,18 7,5 21,9 44,14 16,3 27,5 33,8 11,4 18,11 24,19 5,8 8,19 8,32 0,25 -10,44 -29,57 -19,13 -42,20 -68,20 -9,0 -19,-1 -30,-3 -10,-2 -22,-5 -34,-9l-4 -4c2,-13 3,-33 3,-60l19 0z"/>
  <path id="32" class="fil2" d="M3673 3887l19 0c0,22 0,35 2,39 1,3 5,8 12,14 8,6 17,11 28,15 12,4 24,6 36,6 20,0 37,-6 49,-17 13,-11 19,-24 19,-41 0,-15 -4,-26 -12,-35 -9,-8 -24,-13 -48,-17 -34,-5 -58,-10 -70,-16 -12,-6 -22,-15 -29,-26 -7,-12 -10,-26 -10,-43 0,-27 10,-51 29,-70 20,-19 50,-29 93,-29 17,0 32,2 45,4 13,3 26,7 39,13l2 5c-3,9 -4,17 -5,25 -1,7 -2,20 -3,39l-19 0c-1,-23 -2,-36 -3,-38 -3,-5 -10,-10 -21,-16 -12,-5 -25,-8 -39,-8 -20,0 -36,5 -47,15 -11,10 -16,22 -16,38 0,9 2,17 6,24 5,7 11,12 19,16 9,3 26,7 53,11 24,4 41,7 49,11 15,5 26,14 33,26 7,12 11,27 11,44 0,31 -12,57 -36,78 -24,21 -56,31 -97,31 -19,0 -35,-2 -50,-5 -15,-4 -31,-10 -47,-18 3,-10 5,-19 6,-28 1,-11 1,-27 2,-47z"/>
  <path id="33" class="fil2" d="M3921 3803l30 -19c-1,-26 -1,-48 -3,-68 20,-6 39,-14 57,-22l7 5c-4,21 -6,49 -7,85 7,1 13,2 20,2 15,0 28,-1 40,-3l2 1 -2 8c-2,8 -4,16 -5,23 -17,-1 -30,-2 -38,-2 -6,0 -12,0 -17,1 -1,15 -1,28 -1,39 0,49 2,77 5,84 3,7 10,10 21,10 3,0 6,0 10,-1 4,0 8,-1 12,-3l4 9c-9,9 -18,20 -26,30 -5,1 -10,2 -15,2 -4,1 -9,1 -12,1 -13,0 -23,-2 -31,-7 -8,-4 -14,-9 -18,-16 -4,-7 -6,-17 -6,-30 0,-7 1,-26 2,-56 0,-26 1,-47 1,-62l-12 -1c-4,0 -10,1 -18,2l0 -12z"/>
  <path id="34" class="fil2" d="M4075 3802l0 -17c23,-2 45,-6 66,-12l21 -8c3,0 4,1 4,5l-1 13c-2,34 -3,66 -3,98 0,20 1,33 3,40 2,7 6,12 11,15 5,4 12,6 21,6 11,0 20,-3 28,-9 8,-5 13,-12 15,-19 1,-6 2,-26 2,-58 0,-26 0,-41 -1,-46 -1,-2 -2,-4 -3,-5 -2,-1 -12,-2 -30,-3l0 -17c30,-3 52,-7 66,-12l24 -8c2,0 3,1 3,4l0 6c-2,26 -4,72 -4,139 0,21 1,34 2,39 1,3 2,4 4,6 2,1 11,2 27,3l0 18c-17,-1 -33,-1 -50,-1 -13,0 -26,0 -38,1l-1 -4c0,-7 1,-19 1,-34 -13,11 -26,23 -39,36 -11,5 -21,7 -31,7 -14,0 -25,-3 -35,-8 -10,-6 -18,-13 -22,-21 -5,-9 -7,-22 -7,-37l0 -24c0,-15 1,-27 1,-36 0,-26 -1,-42 -2,-47 -1,-3 -2,-6 -5,-7 -2,-2 -11,-2 -27,-3zm98 -55l-22 0 51 -49c12,-12 20,-19 24,-21 4,-3 8,-4 13,-4 6,0 10,2 13,5 4,4 6,8 6,13 0,4 -2,8 -5,11 -2,3 -11,8 -27,16l-53 29z"/>
  <path id="35" class="fil2" d="M4521 3776l0 -38c0,-24 -1,-38 -2,-41 0,-3 -2,-5 -4,-6 -2,-1 -12,-2 -30,-2l0 -16c35,-4 65,-11 88,-21l6 5c-1,24 -2,46 -3,67l-1 173c0,29 1,46 2,53 0,4 2,6 4,8 2,1 11,3 27,4l0 18c-18,-1 -36,-1 -53,-1 -12,0 -24,0 -34,1l-4 -2c2,-15 3,-27 4,-36 -10,7 -26,20 -48,38 -8,3 -16,5 -23,5 -25,0 -45,-9 -61,-27 -16,-19 -25,-43 -25,-73 0,-14 2,-28 5,-40 4,-12 8,-21 12,-27 5,-6 14,-13 27,-23 18,-13 32,-21 40,-24 9,-3 18,-5 28,-5 7,0 14,1 22,2 7,2 15,4 23,8zm0 47c-7,-10 -15,-18 -24,-23 -8,-4 -18,-7 -29,-7 -15,0 -27,6 -35,16 -8,11 -12,29 -12,55 0,26 5,46 15,59 10,13 23,19 38,19 10,0 20,-3 29,-9 9,-6 14,-12 16,-17 1,-5 2,-24 2,-57l0 -36z"/>
  <path id="36" class="fil2" d="M4692 3661c10,0 18,3 24,10 7,6 10,14 10,24 0,9 -3,18 -10,24 -6,7 -14,10 -24,10 -9,0 -17,-3 -24,-10 -7,-6 -10,-15 -10,-24 0,-10 3,-18 10,-24 7,-7 15,-10 24,-10zm-61 319l0 -18c16,0 26,-1 29,-3 2,-1 4,-5 5,-12 1,-9 1,-30 1,-61 0,-14 0,-27 0,-38l-1 -26c0,-9 -1,-14 -3,-16 -2,-2 -6,-3 -15,-3l-16 -1 0 -17c35,-3 64,-9 87,-19l6 5c-2,28 -3,69 -3,122 0,31 0,50 1,56 1,5 2,8 4,9 2,2 12,3 29,4l0 18c-27,-1 -47,-1 -62,-1 -7,0 -28,0 -62,1z"/>
  <path id="37" class="fil2" d="M4785 3876c0,-35 9,-61 25,-79 19,-20 48,-31 84,-31 37,0 64,8 81,25 17,17 25,43 25,79 0,37 -10,65 -29,85 -20,20 -47,30 -81,30 -34,0 -60,-10 -78,-28 -18,-19 -27,-46 -27,-81zm61 -15c0,39 5,66 15,83 8,13 20,19 35,19 14,0 25,-5 32,-16 7,-11 11,-31 11,-59 0,-40 -4,-67 -14,-82 -7,-12 -19,-18 -35,-18 -13,0 -24,5 -32,16 -8,11 -12,30 -12,57zm15 -114l-21 0 50 -49c12,-12 21,-19 25,-21 4,-3 8,-4 13,-4 5,0 10,2 13,5 4,4 5,8 5,13 0,4 -1,8 -4,11 -3,3 -12,8 -27,16l-54 29z"/>
 </g>
</svg>
